G04 #@! TF.GenerationSoftware,KiCad,Pcbnew,(6.0.1-0)*
G04 #@! TF.CreationDate,2022-09-12T10:47:36+02:00*
G04 #@! TF.ProjectId,avrCubeRev2,61767243-7562-4655-9265-76322e6b6963,rev?*
G04 #@! TF.SameCoordinates,Original*
G04 #@! TF.FileFunction,Legend,Top*
G04 #@! TF.FilePolarity,Positive*
%FSLAX46Y46*%
G04 Gerber Fmt 4.6, Leading zero omitted, Abs format (unit mm)*
G04 Created by KiCad (PCBNEW (6.0.1-0)) date 2022-09-12 10:47:36*
%MOMM*%
%LPD*%
G01*
G04 APERTURE LIST*
%ADD10C,0.150000*%
%ADD11C,0.120000*%
G04 APERTURE END LIST*
D10*
X72011904Y-98702380D02*
X72011904Y-97702380D01*
X72392857Y-97702380D01*
X72488095Y-97750000D01*
X72535714Y-97797619D01*
X72583333Y-97892857D01*
X72583333Y-98035714D01*
X72535714Y-98130952D01*
X72488095Y-98178571D01*
X72392857Y-98226190D01*
X72011904Y-98226190D01*
X73345238Y-98178571D02*
X73488095Y-98226190D01*
X73535714Y-98273809D01*
X73583333Y-98369047D01*
X73583333Y-98511904D01*
X73535714Y-98607142D01*
X73488095Y-98654761D01*
X73392857Y-98702380D01*
X73011904Y-98702380D01*
X73011904Y-97702380D01*
X73345238Y-97702380D01*
X73440476Y-97750000D01*
X73488095Y-97797619D01*
X73535714Y-97892857D01*
X73535714Y-97988095D01*
X73488095Y-98083333D01*
X73440476Y-98130952D01*
X73345238Y-98178571D01*
X73011904Y-98178571D01*
X74202380Y-97702380D02*
X74297619Y-97702380D01*
X74392857Y-97750000D01*
X74440476Y-97797619D01*
X74488095Y-97892857D01*
X74535714Y-98083333D01*
X74535714Y-98321428D01*
X74488095Y-98511904D01*
X74440476Y-98607142D01*
X74392857Y-98654761D01*
X74297619Y-98702380D01*
X74202380Y-98702380D01*
X74107142Y-98654761D01*
X74059523Y-98607142D01*
X74011904Y-98511904D01*
X73964285Y-98321428D01*
X73964285Y-98083333D01*
X74011904Y-97892857D01*
X74059523Y-97797619D01*
X74107142Y-97750000D01*
X74202380Y-97702380D01*
X73702380Y-121702380D02*
X74321428Y-121702380D01*
X73988095Y-122083333D01*
X74130952Y-122083333D01*
X74226190Y-122130952D01*
X74273809Y-122178571D01*
X74321428Y-122273809D01*
X74321428Y-122511904D01*
X74273809Y-122607142D01*
X74226190Y-122654761D01*
X74130952Y-122702380D01*
X73845238Y-122702380D01*
X73750000Y-122654761D01*
X73702380Y-122607142D01*
X74607142Y-121702380D02*
X74940476Y-122702380D01*
X75273809Y-121702380D01*
X76940476Y-122607142D02*
X76892857Y-122654761D01*
X76750000Y-122702380D01*
X76654761Y-122702380D01*
X76511904Y-122654761D01*
X76416666Y-122559523D01*
X76369047Y-122464285D01*
X76321428Y-122273809D01*
X76321428Y-122130952D01*
X76369047Y-121940476D01*
X76416666Y-121845238D01*
X76511904Y-121750000D01*
X76654761Y-121702380D01*
X76750000Y-121702380D01*
X76892857Y-121750000D01*
X76940476Y-121797619D01*
X77940476Y-122702380D02*
X77607142Y-122226190D01*
X77369047Y-122702380D02*
X77369047Y-121702380D01*
X77750000Y-121702380D01*
X77845238Y-121750000D01*
X77892857Y-121797619D01*
X77940476Y-121892857D01*
X77940476Y-122035714D01*
X77892857Y-122130952D01*
X77845238Y-122178571D01*
X77750000Y-122226190D01*
X77369047Y-122226190D01*
X78321428Y-121797619D02*
X78369047Y-121750000D01*
X78464285Y-121702380D01*
X78702380Y-121702380D01*
X78797619Y-121750000D01*
X78845238Y-121797619D01*
X78892857Y-121892857D01*
X78892857Y-121988095D01*
X78845238Y-122130952D01*
X78273809Y-122702380D01*
X78892857Y-122702380D01*
X79511904Y-121702380D02*
X79607142Y-121702380D01*
X79702380Y-121750000D01*
X79750000Y-121797619D01*
X79797619Y-121892857D01*
X79845238Y-122083333D01*
X79845238Y-122321428D01*
X79797619Y-122511904D01*
X79750000Y-122607142D01*
X79702380Y-122654761D01*
X79607142Y-122702380D01*
X79511904Y-122702380D01*
X79416666Y-122654761D01*
X79369047Y-122607142D01*
X79321428Y-122511904D01*
X79273809Y-122321428D01*
X79273809Y-122083333D01*
X79321428Y-121892857D01*
X79369047Y-121797619D01*
X79416666Y-121750000D01*
X79511904Y-121702380D01*
X80178571Y-121702380D02*
X80797619Y-121702380D01*
X80464285Y-122083333D01*
X80607142Y-122083333D01*
X80702380Y-122130952D01*
X80750000Y-122178571D01*
X80797619Y-122273809D01*
X80797619Y-122511904D01*
X80750000Y-122607142D01*
X80702380Y-122654761D01*
X80607142Y-122702380D01*
X80321428Y-122702380D01*
X80226190Y-122654761D01*
X80178571Y-122607142D01*
X81178571Y-121797619D02*
X81226190Y-121750000D01*
X81321428Y-121702380D01*
X81559523Y-121702380D01*
X81654761Y-121750000D01*
X81702380Y-121797619D01*
X81750000Y-121892857D01*
X81750000Y-121988095D01*
X81702380Y-122130952D01*
X81130952Y-122702380D01*
X81750000Y-122702380D01*
X95758095Y-72525000D02*
X95662857Y-72477380D01*
X95520000Y-72477380D01*
X95377142Y-72525000D01*
X95281904Y-72620238D01*
X95234285Y-72715476D01*
X95186666Y-72905952D01*
X95186666Y-73048809D01*
X95234285Y-73239285D01*
X95281904Y-73334523D01*
X95377142Y-73429761D01*
X95520000Y-73477380D01*
X95615238Y-73477380D01*
X95758095Y-73429761D01*
X95805714Y-73382142D01*
X95805714Y-73048809D01*
X95615238Y-73048809D01*
X96234285Y-73477380D02*
X96234285Y-72477380D01*
X96805714Y-73477380D01*
X96805714Y-72477380D01*
X97281904Y-73477380D02*
X97281904Y-72477380D01*
X97520000Y-72477380D01*
X97662857Y-72525000D01*
X97758095Y-72620238D01*
X97805714Y-72715476D01*
X97853333Y-72905952D01*
X97853333Y-73048809D01*
X97805714Y-73239285D01*
X97758095Y-73334523D01*
X97662857Y-73429761D01*
X97520000Y-73477380D01*
X97281904Y-73477380D01*
X87074523Y-70762761D02*
X87217380Y-70810380D01*
X87455476Y-70810380D01*
X87550714Y-70762761D01*
X87598333Y-70715142D01*
X87645952Y-70619904D01*
X87645952Y-70524666D01*
X87598333Y-70429428D01*
X87550714Y-70381809D01*
X87455476Y-70334190D01*
X87265000Y-70286571D01*
X87169761Y-70238952D01*
X87122142Y-70191333D01*
X87074523Y-70096095D01*
X87074523Y-70000857D01*
X87122142Y-69905619D01*
X87169761Y-69858000D01*
X87265000Y-69810380D01*
X87503095Y-69810380D01*
X87645952Y-69858000D01*
X88645952Y-70715142D02*
X88598333Y-70762761D01*
X88455476Y-70810380D01*
X88360238Y-70810380D01*
X88217380Y-70762761D01*
X88122142Y-70667523D01*
X88074523Y-70572285D01*
X88026904Y-70381809D01*
X88026904Y-70238952D01*
X88074523Y-70048476D01*
X88122142Y-69953238D01*
X88217380Y-69858000D01*
X88360238Y-69810380D01*
X88455476Y-69810380D01*
X88598333Y-69858000D01*
X88645952Y-69905619D01*
X89550714Y-70810380D02*
X89074523Y-70810380D01*
X89074523Y-69810380D01*
X95178714Y-70762761D02*
X95321571Y-70810380D01*
X95559666Y-70810380D01*
X95654904Y-70762761D01*
X95702523Y-70715142D01*
X95750142Y-70619904D01*
X95750142Y-70524666D01*
X95702523Y-70429428D01*
X95654904Y-70381809D01*
X95559666Y-70334190D01*
X95369190Y-70286571D01*
X95273952Y-70238952D01*
X95226333Y-70191333D01*
X95178714Y-70096095D01*
X95178714Y-70000857D01*
X95226333Y-69905619D01*
X95273952Y-69858000D01*
X95369190Y-69810380D01*
X95607285Y-69810380D01*
X95750142Y-69858000D01*
X96178714Y-70810380D02*
X96178714Y-69810380D01*
X96416809Y-69810380D01*
X96559666Y-69858000D01*
X96654904Y-69953238D01*
X96702523Y-70048476D01*
X96750142Y-70238952D01*
X96750142Y-70381809D01*
X96702523Y-70572285D01*
X96654904Y-70667523D01*
X96559666Y-70762761D01*
X96416809Y-70810380D01*
X96178714Y-70810380D01*
X97131095Y-70524666D02*
X97607285Y-70524666D01*
X97035857Y-70810380D02*
X97369190Y-69810380D01*
X97702523Y-70810380D01*
X95250095Y-67270380D02*
X95869142Y-67270380D01*
X95535809Y-67651333D01*
X95678666Y-67651333D01*
X95773904Y-67698952D01*
X95821523Y-67746571D01*
X95869142Y-67841809D01*
X95869142Y-68079904D01*
X95821523Y-68175142D01*
X95773904Y-68222761D01*
X95678666Y-68270380D01*
X95392952Y-68270380D01*
X95297714Y-68222761D01*
X95250095Y-68175142D01*
X96154857Y-67270380D02*
X96488190Y-68270380D01*
X96821523Y-67270380D01*
X71085714Y-93702380D02*
X71657142Y-93702380D01*
X71371428Y-94702380D02*
X71371428Y-93702380D01*
X71990476Y-94702380D02*
X71990476Y-93702380D01*
X72371428Y-93702380D01*
X72466666Y-93750000D01*
X72514285Y-93797619D01*
X72561904Y-93892857D01*
X72561904Y-94035714D01*
X72514285Y-94130952D01*
X72466666Y-94178571D01*
X72371428Y-94226190D01*
X71990476Y-94226190D01*
X73514285Y-94702380D02*
X72942857Y-94702380D01*
X73228571Y-94702380D02*
X73228571Y-93702380D01*
X73133333Y-93845238D01*
X73038095Y-93940476D01*
X72942857Y-93988095D01*
X74133333Y-93702380D02*
X74228571Y-93702380D01*
X74323809Y-93750000D01*
X74371428Y-93797619D01*
X74419047Y-93892857D01*
X74466666Y-94083333D01*
X74466666Y-94321428D01*
X74419047Y-94511904D01*
X74371428Y-94607142D01*
X74323809Y-94654761D01*
X74228571Y-94702380D01*
X74133333Y-94702380D01*
X74038095Y-94654761D01*
X73990476Y-94607142D01*
X73942857Y-94511904D01*
X73895238Y-94321428D01*
X73895238Y-94083333D01*
X73942857Y-93892857D01*
X73990476Y-93797619D01*
X74038095Y-93750000D01*
X74133333Y-93702380D01*
X75419047Y-94702380D02*
X74847619Y-94702380D01*
X75133333Y-94702380D02*
X75133333Y-93702380D01*
X75038095Y-93845238D01*
X74942857Y-93940476D01*
X74847619Y-93988095D01*
X54125904Y-70202380D02*
X54125904Y-69202380D01*
X54364000Y-69202380D01*
X54506857Y-69250000D01*
X54602095Y-69345238D01*
X54649714Y-69440476D01*
X54697333Y-69630952D01*
X54697333Y-69773809D01*
X54649714Y-69964285D01*
X54602095Y-70059523D01*
X54506857Y-70154761D01*
X54364000Y-70202380D01*
X54125904Y-70202380D01*
X55649714Y-70202380D02*
X55078285Y-70202380D01*
X55364000Y-70202380D02*
X55364000Y-69202380D01*
X55268761Y-69345238D01*
X55173523Y-69440476D01*
X55078285Y-69488095D01*
X106261904Y-70202380D02*
X106261904Y-69202380D01*
X106500000Y-69202380D01*
X106642857Y-69250000D01*
X106738095Y-69345238D01*
X106785714Y-69440476D01*
X106833333Y-69630952D01*
X106833333Y-69773809D01*
X106785714Y-69964285D01*
X106738095Y-70059523D01*
X106642857Y-70154761D01*
X106500000Y-70202380D01*
X106261904Y-70202380D01*
X107214285Y-69297619D02*
X107261904Y-69250000D01*
X107357142Y-69202380D01*
X107595238Y-69202380D01*
X107690476Y-69250000D01*
X107738095Y-69297619D01*
X107785714Y-69392857D01*
X107785714Y-69488095D01*
X107738095Y-69630952D01*
X107166666Y-70202380D01*
X107785714Y-70202380D01*
X106322904Y-89202380D02*
X106322904Y-88202380D01*
X106561000Y-88202380D01*
X106703857Y-88250000D01*
X106799095Y-88345238D01*
X106846714Y-88440476D01*
X106894333Y-88630952D01*
X106894333Y-88773809D01*
X106846714Y-88964285D01*
X106799095Y-89059523D01*
X106703857Y-89154761D01*
X106561000Y-89202380D01*
X106322904Y-89202380D01*
X107799095Y-88202380D02*
X107322904Y-88202380D01*
X107275285Y-88678571D01*
X107322904Y-88630952D01*
X107418142Y-88583333D01*
X107656238Y-88583333D01*
X107751476Y-88630952D01*
X107799095Y-88678571D01*
X107846714Y-88773809D01*
X107846714Y-89011904D01*
X107799095Y-89107142D01*
X107751476Y-89154761D01*
X107656238Y-89202380D01*
X107418142Y-89202380D01*
X107322904Y-89154761D01*
X107275285Y-89107142D01*
X106322904Y-116253380D02*
X106322904Y-115253380D01*
X106561000Y-115253380D01*
X106703857Y-115301000D01*
X106799095Y-115396238D01*
X106846714Y-115491476D01*
X106894333Y-115681952D01*
X106894333Y-115824809D01*
X106846714Y-116015285D01*
X106799095Y-116110523D01*
X106703857Y-116205761D01*
X106561000Y-116253380D01*
X106322904Y-116253380D01*
X107227666Y-115253380D02*
X107894333Y-115253380D01*
X107465761Y-116253380D01*
X59583333Y-82452380D02*
X59250000Y-81976190D01*
X59011904Y-82452380D02*
X59011904Y-81452380D01*
X59392857Y-81452380D01*
X59488095Y-81500000D01*
X59535714Y-81547619D01*
X59583333Y-81642857D01*
X59583333Y-81785714D01*
X59535714Y-81880952D01*
X59488095Y-81928571D01*
X59392857Y-81976190D01*
X59011904Y-81976190D01*
X60535714Y-82452380D02*
X59964285Y-82452380D01*
X60250000Y-82452380D02*
X60250000Y-81452380D01*
X60154761Y-81595238D01*
X60059523Y-81690476D01*
X59964285Y-81738095D01*
X86583333Y-78202380D02*
X86250000Y-77726190D01*
X86011904Y-78202380D02*
X86011904Y-77202380D01*
X86392857Y-77202380D01*
X86488095Y-77250000D01*
X86535714Y-77297619D01*
X86583333Y-77392857D01*
X86583333Y-77535714D01*
X86535714Y-77630952D01*
X86488095Y-77678571D01*
X86392857Y-77726190D01*
X86011904Y-77726190D01*
X86964285Y-77297619D02*
X87011904Y-77250000D01*
X87107142Y-77202380D01*
X87345238Y-77202380D01*
X87440476Y-77250000D01*
X87488095Y-77297619D01*
X87535714Y-77392857D01*
X87535714Y-77488095D01*
X87488095Y-77630952D01*
X86916666Y-78202380D01*
X87535714Y-78202380D01*
X59583333Y-86452380D02*
X59250000Y-85976190D01*
X59011904Y-86452380D02*
X59011904Y-85452380D01*
X59392857Y-85452380D01*
X59488095Y-85500000D01*
X59535714Y-85547619D01*
X59583333Y-85642857D01*
X59583333Y-85785714D01*
X59535714Y-85880952D01*
X59488095Y-85928571D01*
X59392857Y-85976190D01*
X59011904Y-85976190D01*
X59916666Y-85452380D02*
X60535714Y-85452380D01*
X60202380Y-85833333D01*
X60345238Y-85833333D01*
X60440476Y-85880952D01*
X60488095Y-85928571D01*
X60535714Y-86023809D01*
X60535714Y-86261904D01*
X60488095Y-86357142D01*
X60440476Y-86404761D01*
X60345238Y-86452380D01*
X60059523Y-86452380D01*
X59964285Y-86404761D01*
X59916666Y-86357142D01*
X86583333Y-86202380D02*
X86250000Y-85726190D01*
X86011904Y-86202380D02*
X86011904Y-85202380D01*
X86392857Y-85202380D01*
X86488095Y-85250000D01*
X86535714Y-85297619D01*
X86583333Y-85392857D01*
X86583333Y-85535714D01*
X86535714Y-85630952D01*
X86488095Y-85678571D01*
X86392857Y-85726190D01*
X86011904Y-85726190D01*
X87488095Y-85202380D02*
X87011904Y-85202380D01*
X86964285Y-85678571D01*
X87011904Y-85630952D01*
X87107142Y-85583333D01*
X87345238Y-85583333D01*
X87440476Y-85630952D01*
X87488095Y-85678571D01*
X87535714Y-85773809D01*
X87535714Y-86011904D01*
X87488095Y-86107142D01*
X87440476Y-86154761D01*
X87345238Y-86202380D01*
X87107142Y-86202380D01*
X87011904Y-86154761D01*
X86964285Y-86107142D01*
X59583333Y-90452380D02*
X59250000Y-89976190D01*
X59011904Y-90452380D02*
X59011904Y-89452380D01*
X59392857Y-89452380D01*
X59488095Y-89500000D01*
X59535714Y-89547619D01*
X59583333Y-89642857D01*
X59583333Y-89785714D01*
X59535714Y-89880952D01*
X59488095Y-89928571D01*
X59392857Y-89976190D01*
X59011904Y-89976190D01*
X60440476Y-89452380D02*
X60250000Y-89452380D01*
X60154761Y-89500000D01*
X60107142Y-89547619D01*
X60011904Y-89690476D01*
X59964285Y-89880952D01*
X59964285Y-90261904D01*
X60011904Y-90357142D01*
X60059523Y-90404761D01*
X60154761Y-90452380D01*
X60345238Y-90452380D01*
X60440476Y-90404761D01*
X60488095Y-90357142D01*
X60535714Y-90261904D01*
X60535714Y-90023809D01*
X60488095Y-89928571D01*
X60440476Y-89880952D01*
X60345238Y-89833333D01*
X60154761Y-89833333D01*
X60059523Y-89880952D01*
X60011904Y-89928571D01*
X59964285Y-90023809D01*
X86614333Y-90202380D02*
X86281000Y-89726190D01*
X86042904Y-90202380D02*
X86042904Y-89202380D01*
X86423857Y-89202380D01*
X86519095Y-89250000D01*
X86566714Y-89297619D01*
X86614333Y-89392857D01*
X86614333Y-89535714D01*
X86566714Y-89630952D01*
X86519095Y-89678571D01*
X86423857Y-89726190D01*
X86042904Y-89726190D01*
X86947666Y-89202380D02*
X87614333Y-89202380D01*
X87185761Y-90202380D01*
X62495666Y-101909761D02*
X62638523Y-101957380D01*
X62876619Y-101957380D01*
X62971857Y-101909761D01*
X63019476Y-101862142D01*
X63067095Y-101766904D01*
X63067095Y-101671666D01*
X63019476Y-101576428D01*
X62971857Y-101528809D01*
X62876619Y-101481190D01*
X62686142Y-101433571D01*
X62590904Y-101385952D01*
X62543285Y-101338333D01*
X62495666Y-101243095D01*
X62495666Y-101147857D01*
X62543285Y-101052619D01*
X62590904Y-101005000D01*
X62686142Y-100957380D01*
X62924238Y-100957380D01*
X63067095Y-101005000D01*
X63400428Y-100957380D02*
X63638523Y-101957380D01*
X63829000Y-101243095D01*
X64019476Y-101957380D01*
X64257571Y-100957380D01*
X65162333Y-101957380D02*
X64590904Y-101957380D01*
X64876619Y-101957380D02*
X64876619Y-100957380D01*
X64781380Y-101100238D01*
X64686142Y-101195476D01*
X64590904Y-101243095D01*
X91995666Y-64940380D02*
X91995666Y-65654666D01*
X91948047Y-65797523D01*
X91852809Y-65892761D01*
X91709952Y-65940380D01*
X91614714Y-65940380D01*
X92424238Y-65035619D02*
X92471857Y-64988000D01*
X92567095Y-64940380D01*
X92805190Y-64940380D01*
X92900428Y-64988000D01*
X92948047Y-65035619D01*
X92995666Y-65130857D01*
X92995666Y-65226095D01*
X92948047Y-65368952D01*
X92376619Y-65940380D01*
X92995666Y-65940380D01*
X67226380Y-71246904D02*
X68035904Y-71246904D01*
X68131142Y-71199285D01*
X68178761Y-71151666D01*
X68226380Y-71056428D01*
X68226380Y-70865952D01*
X68178761Y-70770714D01*
X68131142Y-70723095D01*
X68035904Y-70675476D01*
X67226380Y-70675476D01*
X68226380Y-69675476D02*
X68226380Y-70246904D01*
X68226380Y-69961190D02*
X67226380Y-69961190D01*
X67369238Y-70056428D01*
X67464476Y-70151666D01*
X67512095Y-70246904D01*
X54125904Y-116253380D02*
X54125904Y-115253380D01*
X54364000Y-115253380D01*
X54506857Y-115301000D01*
X54602095Y-115396238D01*
X54649714Y-115491476D01*
X54697333Y-115681952D01*
X54697333Y-115824809D01*
X54649714Y-116015285D01*
X54602095Y-116110523D01*
X54506857Y-116205761D01*
X54364000Y-116253380D01*
X54125904Y-116253380D01*
X55554476Y-115253380D02*
X55364000Y-115253380D01*
X55268761Y-115301000D01*
X55221142Y-115348619D01*
X55125904Y-115491476D01*
X55078285Y-115681952D01*
X55078285Y-116062904D01*
X55125904Y-116158142D01*
X55173523Y-116205761D01*
X55268761Y-116253380D01*
X55459238Y-116253380D01*
X55554476Y-116205761D01*
X55602095Y-116158142D01*
X55649714Y-116062904D01*
X55649714Y-115824809D01*
X55602095Y-115729571D01*
X55554476Y-115681952D01*
X55459238Y-115634333D01*
X55268761Y-115634333D01*
X55173523Y-115681952D01*
X55125904Y-115729571D01*
X55078285Y-115824809D01*
X73964285Y-105029571D02*
X74107142Y-105077190D01*
X74154761Y-105124809D01*
X74202380Y-105220047D01*
X74202380Y-105362904D01*
X74154761Y-105458142D01*
X74107142Y-105505761D01*
X74011904Y-105553380D01*
X73630952Y-105553380D01*
X73630952Y-104553380D01*
X73964285Y-104553380D01*
X74059523Y-104601000D01*
X74107142Y-104648619D01*
X74154761Y-104743857D01*
X74154761Y-104839095D01*
X74107142Y-104934333D01*
X74059523Y-104981952D01*
X73964285Y-105029571D01*
X73630952Y-105029571D01*
X74488095Y-104553380D02*
X75059523Y-104553380D01*
X74773809Y-105553380D02*
X74773809Y-104553380D01*
X75916666Y-105553380D02*
X75345238Y-105553380D01*
X75630952Y-105553380D02*
X75630952Y-104553380D01*
X75535714Y-104696238D01*
X75440476Y-104791476D01*
X75345238Y-104839095D01*
X77616571Y-109708142D02*
X78759428Y-109708142D01*
X78188000Y-110279571D02*
X78188000Y-109136714D01*
X86614333Y-82202380D02*
X86281000Y-81726190D01*
X86042904Y-82202380D02*
X86042904Y-81202380D01*
X86423857Y-81202380D01*
X86519095Y-81250000D01*
X86566714Y-81297619D01*
X86614333Y-81392857D01*
X86614333Y-81535714D01*
X86566714Y-81630952D01*
X86519095Y-81678571D01*
X86423857Y-81726190D01*
X86042904Y-81726190D01*
X87471476Y-81535714D02*
X87471476Y-82202380D01*
X87233380Y-81154761D02*
X86995285Y-81869047D01*
X87614333Y-81869047D01*
X80160904Y-89329380D02*
X80160904Y-88329380D01*
X80399000Y-88329380D01*
X80541857Y-88377000D01*
X80637095Y-88472238D01*
X80684714Y-88567476D01*
X80732333Y-88757952D01*
X80732333Y-88900809D01*
X80684714Y-89091285D01*
X80637095Y-89186523D01*
X80541857Y-89281761D01*
X80399000Y-89329380D01*
X80160904Y-89329380D01*
X81589476Y-88662714D02*
X81589476Y-89329380D01*
X81351380Y-88281761D02*
X81113285Y-88996047D01*
X81732333Y-88996047D01*
X54125904Y-89202380D02*
X54125904Y-88202380D01*
X54364000Y-88202380D01*
X54506857Y-88250000D01*
X54602095Y-88345238D01*
X54649714Y-88440476D01*
X54697333Y-88630952D01*
X54697333Y-88773809D01*
X54649714Y-88964285D01*
X54602095Y-89059523D01*
X54506857Y-89154761D01*
X54364000Y-89202380D01*
X54125904Y-89202380D01*
X55030666Y-88202380D02*
X55649714Y-88202380D01*
X55316380Y-88583333D01*
X55459238Y-88583333D01*
X55554476Y-88630952D01*
X55602095Y-88678571D01*
X55649714Y-88773809D01*
X55649714Y-89011904D01*
X55602095Y-89107142D01*
X55554476Y-89154761D01*
X55459238Y-89202380D01*
X55173523Y-89202380D01*
X55078285Y-89154761D01*
X55030666Y-89107142D01*
X75070000Y-97150000D02*
X71470000Y-97150000D01*
X75570000Y-95850000D02*
X75570000Y-96650000D01*
X70970000Y-96650000D02*
X70970000Y-95850000D01*
X71470000Y-97150000D02*
X70970000Y-96650000D01*
X71470000Y-95350000D02*
X75070000Y-95350000D01*
X75070000Y-95350000D02*
X75570000Y-95850000D01*
X75570000Y-96650000D02*
X75070000Y-97150000D01*
X70970000Y-95850000D02*
X71470000Y-95350000D01*
D11*
X52304000Y-64114000D02*
X52304000Y-67204000D01*
X57854000Y-65659462D02*
G75*
G03*
X52304000Y-64114170I-2990000J462D01*
G01*
X52304000Y-67203830D02*
G75*
G03*
X57854000Y-65658538I2560000J1544830D01*
G01*
X57364000Y-65659000D02*
G75*
G03*
X57364000Y-65659000I-2500000J0D01*
G01*
X104501000Y-64114000D02*
X104501000Y-67204000D01*
X110051000Y-65659462D02*
G75*
G03*
X104501000Y-64114170I-2990000J462D01*
G01*
X104501000Y-67203830D02*
G75*
G03*
X110051000Y-65658538I2560000J1544830D01*
G01*
X109561000Y-65659000D02*
G75*
G03*
X109561000Y-65659000I-2500000J0D01*
G01*
X104501000Y-91165000D02*
X104501000Y-94255000D01*
X110051000Y-92710462D02*
G75*
G03*
X104501000Y-91165170I-2990000J462D01*
G01*
X104501000Y-94254830D02*
G75*
G03*
X110051000Y-92709538I2560000J1544830D01*
G01*
X109561000Y-92710000D02*
G75*
G03*
X109561000Y-92710000I-2500000J0D01*
G01*
X104501000Y-118216000D02*
X104501000Y-121306000D01*
X110051000Y-119761462D02*
G75*
G03*
X104501000Y-118216170I-2990000J462D01*
G01*
X104501000Y-121305830D02*
G75*
G03*
X110051000Y-119760538I2560000J1544830D01*
G01*
X109561000Y-119761000D02*
G75*
G03*
X109561000Y-119761000I-2500000J0D01*
G01*
X70190000Y-83882000D02*
X70190000Y-81262000D01*
X62880000Y-82572000D02*
X63770000Y-82572000D01*
X70190000Y-81262000D02*
X63770000Y-81262000D01*
X63770000Y-83882000D02*
X70190000Y-83882000D01*
X63770000Y-81262000D02*
X63770000Y-83882000D01*
X71080000Y-82572000D02*
X70190000Y-82572000D01*
X97978000Y-78500000D02*
X97088000Y-78500000D01*
X90668000Y-77190000D02*
X90668000Y-79810000D01*
X90668000Y-79810000D02*
X97088000Y-79810000D01*
X89778000Y-78500000D02*
X90668000Y-78500000D01*
X97088000Y-79810000D02*
X97088000Y-77190000D01*
X97088000Y-77190000D02*
X90668000Y-77190000D01*
X70190000Y-85190000D02*
X63770000Y-85190000D01*
X63770000Y-85190000D02*
X63770000Y-87810000D01*
X70190000Y-87810000D02*
X70190000Y-85190000D01*
X63770000Y-87810000D02*
X70190000Y-87810000D01*
X62880000Y-86500000D02*
X63770000Y-86500000D01*
X71080000Y-86500000D02*
X70190000Y-86500000D01*
X97230000Y-85190000D02*
X90810000Y-85190000D01*
X90810000Y-85190000D02*
X90810000Y-87810000D01*
X89920000Y-86500000D02*
X90810000Y-86500000D01*
X90810000Y-87810000D02*
X97230000Y-87810000D01*
X98120000Y-86500000D02*
X97230000Y-86500000D01*
X97230000Y-87810000D02*
X97230000Y-85190000D01*
X63770000Y-89262000D02*
X63770000Y-91882000D01*
X62880000Y-90572000D02*
X63770000Y-90572000D01*
X70190000Y-89262000D02*
X63770000Y-89262000D01*
X70190000Y-91882000D02*
X70190000Y-89262000D01*
X63770000Y-91882000D02*
X70190000Y-91882000D01*
X71080000Y-90572000D02*
X70190000Y-90572000D01*
X89920000Y-90500000D02*
X90810000Y-90500000D01*
X97230000Y-91810000D02*
X97230000Y-89190000D01*
X98120000Y-90500000D02*
X97230000Y-90500000D01*
X90810000Y-89190000D02*
X90810000Y-91810000D01*
X90810000Y-91810000D02*
X97230000Y-91810000D01*
X97230000Y-89190000D02*
X90810000Y-89190000D01*
X61579000Y-109005000D02*
X66079000Y-109005000D01*
X66079000Y-102505000D02*
X61579000Y-102505000D01*
X60329000Y-105005000D02*
X60329000Y-106505000D01*
X67329000Y-106505000D02*
X67329000Y-105005000D01*
X89729000Y-66488000D02*
X91059000Y-66488000D01*
X92329000Y-66488000D02*
X94929000Y-66488000D01*
X89729000Y-69088000D02*
X89729000Y-74228000D01*
X89729000Y-69088000D02*
X92329000Y-69088000D01*
X92329000Y-69088000D02*
X92329000Y-66488000D01*
X89729000Y-67818000D02*
X89729000Y-66488000D01*
X94929000Y-66488000D02*
X94929000Y-74228000D01*
X89729000Y-74228000D02*
X94929000Y-74228000D01*
X68774000Y-68235000D02*
X68774000Y-69485000D01*
X86674000Y-72735000D02*
X86674000Y-68235000D01*
X68774000Y-71485000D02*
X68774000Y-72735000D01*
X68774000Y-72735000D02*
X86674000Y-72735000D01*
X86674000Y-68235000D02*
X68774000Y-68235000D01*
X68774000Y-71485000D02*
G75*
G03*
X68774000Y-69485000I0J1000000D01*
G01*
X52304000Y-118216000D02*
X52304000Y-121306000D01*
X52304000Y-121305830D02*
G75*
G03*
X57854000Y-119760538I2560000J1544830D01*
G01*
X57854000Y-119761462D02*
G75*
G03*
X52304000Y-118216170I-2990000J462D01*
G01*
X57364000Y-119761000D02*
G75*
G03*
X57364000Y-119761000I-2500000J0D01*
G01*
X73938000Y-112651000D02*
X76388000Y-112651000D01*
X76388000Y-106551000D02*
X73938000Y-106551000D01*
X73388000Y-107101000D02*
X73388000Y-112101000D01*
X73938000Y-106551000D02*
G75*
G03*
X73388000Y-107101000I-1J-549999D01*
G01*
X77088000Y-113121000D02*
G75*
G03*
X104637738Y-109585769I13550000J3520000D01*
G01*
X76388000Y-106551000D02*
G75*
G03*
X77092769Y-106057515I0J750000D01*
G01*
X104637738Y-109616231D02*
G75*
G03*
X77088000Y-106081000I-13999738J15231D01*
G01*
X73388000Y-112101000D02*
G75*
G03*
X73938000Y-112651000I549999J-1D01*
G01*
X77092769Y-113144485D02*
G75*
G03*
X76388000Y-112651000I-704769J-256515D01*
G01*
X90810000Y-83810000D02*
X97230000Y-83810000D01*
X97230000Y-81190000D02*
X90810000Y-81190000D01*
X98120000Y-82500000D02*
X97230000Y-82500000D01*
X90810000Y-81190000D02*
X90810000Y-83810000D01*
X97230000Y-83810000D02*
X97230000Y-81190000D01*
X89920000Y-82500000D02*
X90810000Y-82500000D01*
X78339000Y-91292000D02*
X78339000Y-94382000D01*
X78339000Y-94381830D02*
G75*
G03*
X83889000Y-92836538I2560000J1544830D01*
G01*
X83889000Y-92837462D02*
G75*
G03*
X78339000Y-91292170I-2990000J462D01*
G01*
X83399000Y-92837000D02*
G75*
G03*
X83399000Y-92837000I-2500000J0D01*
G01*
X52304000Y-91165000D02*
X52304000Y-94255000D01*
X57854000Y-92710462D02*
G75*
G03*
X52304000Y-91165170I-2990000J462D01*
G01*
X52304000Y-94254830D02*
G75*
G03*
X57854000Y-92709538I2560000J1544830D01*
G01*
X57364000Y-92710000D02*
G75*
G03*
X57364000Y-92710000I-2500000J0D01*
G01*
M02*
