G04 #@! TF.GenerationSoftware,KiCad,Pcbnew,(6.0.1-0)*
G04 #@! TF.CreationDate,2022-09-12T10:47:36+02:00*
G04 #@! TF.ProjectId,avrCubeRev2,61767243-7562-4655-9265-76322e6b6963,rev?*
G04 #@! TF.SameCoordinates,Original*
G04 #@! TF.FileFunction,Copper,L1,Top*
G04 #@! TF.FilePolarity,Positive*
%FSLAX46Y46*%
G04 Gerber Fmt 4.6, Leading zero omitted, Abs format (unit mm)*
G04 Created by KiCad (PCBNEW (6.0.1-0)) date 2022-09-12 10:47:36*
%MOMM*%
%LPD*%
G01*
G04 APERTURE LIST*
G04 #@! TA.AperFunction,ComponentPad*
%ADD10C,1.400000*%
G04 #@! TD*
G04 #@! TA.AperFunction,ComponentPad*
%ADD11R,1.800000X1.800000*%
G04 #@! TD*
G04 #@! TA.AperFunction,ComponentPad*
%ADD12C,1.800000*%
G04 #@! TD*
G04 #@! TA.AperFunction,ComponentPad*
%ADD13C,1.600000*%
G04 #@! TD*
G04 #@! TA.AperFunction,ComponentPad*
%ADD14O,1.600000X1.600000*%
G04 #@! TD*
G04 #@! TA.AperFunction,ComponentPad*
%ADD15C,2.000000*%
G04 #@! TD*
G04 #@! TA.AperFunction,ComponentPad*
%ADD16R,1.700000X1.700000*%
G04 #@! TD*
G04 #@! TA.AperFunction,ComponentPad*
%ADD17O,1.700000X1.700000*%
G04 #@! TD*
G04 #@! TA.AperFunction,ComponentPad*
%ADD18R,1.600000X2.400000*%
G04 #@! TD*
G04 #@! TA.AperFunction,ComponentPad*
%ADD19O,1.600000X2.400000*%
G04 #@! TD*
G04 #@! TA.AperFunction,ComponentPad*
%ADD20R,3.000000X3.000000*%
G04 #@! TD*
G04 #@! TA.AperFunction,ComponentPad*
%ADD21C,3.000000*%
G04 #@! TD*
G04 #@! TA.AperFunction,ViaPad*
%ADD22C,0.800000*%
G04 #@! TD*
G04 #@! TA.AperFunction,Conductor*
%ADD23C,0.215900*%
G04 #@! TD*
G04 #@! TA.AperFunction,Conductor*
%ADD24C,0.381000*%
G04 #@! TD*
G04 APERTURE END LIST*
D10*
X74540000Y-96250000D03*
X72000000Y-96250000D03*
D11*
X53594000Y-65659000D03*
D12*
X56134000Y-65659000D03*
D11*
X105791000Y-65659000D03*
D12*
X108331000Y-65659000D03*
D11*
X105791000Y-92710000D03*
D12*
X108331000Y-92710000D03*
D11*
X105791000Y-119761000D03*
D12*
X108331000Y-119761000D03*
D13*
X61900000Y-82572000D03*
D14*
X72060000Y-82572000D03*
D13*
X98958000Y-78500000D03*
D14*
X88798000Y-78500000D03*
D13*
X61900000Y-86500000D03*
D14*
X72060000Y-86500000D03*
X88940000Y-86500000D03*
D13*
X99100000Y-86500000D03*
X61900000Y-90572000D03*
D14*
X72060000Y-90572000D03*
X88940000Y-90500000D03*
D13*
X99100000Y-90500000D03*
D15*
X67079000Y-103505000D03*
X60579000Y-103505000D03*
X60579000Y-108005000D03*
X67079000Y-108005000D03*
D16*
X91059000Y-67818000D03*
D17*
X93599000Y-67818000D03*
X91059000Y-70358000D03*
X93599000Y-70358000D03*
X91059000Y-72898000D03*
X93599000Y-72898000D03*
D18*
X70104000Y-74295000D03*
D19*
X72644000Y-74295000D03*
X75184000Y-74295000D03*
X77724000Y-74295000D03*
X80264000Y-74295000D03*
X82804000Y-74295000D03*
X85344000Y-74295000D03*
X85344000Y-66675000D03*
X82804000Y-66675000D03*
X80264000Y-66675000D03*
X77724000Y-66675000D03*
X75184000Y-66675000D03*
X72644000Y-66675000D03*
X70104000Y-66675000D03*
D11*
X53594000Y-119761000D03*
D12*
X56134000Y-119761000D03*
D20*
X75438000Y-109601000D03*
D21*
X95928000Y-109601000D03*
D14*
X88940000Y-82500000D03*
D13*
X99100000Y-82500000D03*
D11*
X79629000Y-92837000D03*
D12*
X82169000Y-92837000D03*
D11*
X53594000Y-92710000D03*
D12*
X56134000Y-92710000D03*
D22*
X85500000Y-71250000D03*
X87750000Y-71250000D03*
D23*
X85500000Y-71250000D02*
X87750000Y-71250000D01*
X79188000Y-71250000D02*
X85500000Y-71250000D01*
D24*
X72644000Y-74295000D02*
X73200011Y-74851011D01*
X73200011Y-74851011D02*
X73200011Y-83747769D01*
X73200011Y-83747769D02*
X70250000Y-86697780D01*
X70250000Y-86697780D02*
X70250000Y-94500000D01*
X70250000Y-94500000D02*
X72000000Y-96250000D01*
X75184000Y-74295000D02*
X75184000Y-85835780D01*
X70919989Y-91119989D02*
X71600000Y-91800000D01*
X78185978Y-91800000D02*
X79485978Y-90500000D01*
X75184000Y-85835780D02*
X70919989Y-90099791D01*
X70919989Y-90099791D02*
X70919989Y-91119989D01*
X71600000Y-91800000D02*
X78185978Y-91800000D01*
X79485978Y-90500000D02*
X88940000Y-90500000D01*
X82804000Y-74295000D02*
X82804000Y-79828000D01*
X82804000Y-79828000D02*
X72060000Y-90572000D01*
X56134000Y-92710000D02*
X61900000Y-86944000D01*
X56134000Y-119761000D02*
X56134000Y-96338000D01*
X56134000Y-96338000D02*
X61900000Y-90572000D01*
D23*
X61900000Y-86944000D02*
X61900000Y-86500000D01*
D24*
X56134000Y-65659000D02*
X56134000Y-76806000D01*
X56134000Y-76806000D02*
X61900000Y-82572000D01*
X72644000Y-66675000D02*
X71260001Y-68058999D01*
X71260001Y-81772001D02*
X72060000Y-82572000D01*
X71260001Y-68058999D02*
X71260001Y-81772001D01*
X77724000Y-66675000D02*
X76183980Y-65134980D01*
X76183980Y-65134980D02*
X74365020Y-65134980D01*
X74365020Y-65134980D02*
X74043980Y-65456020D01*
X74043980Y-84516020D02*
X72060000Y-86500000D01*
X74043980Y-65456020D02*
X74043980Y-84516020D01*
X108331000Y-119761000D02*
X108331000Y-99731000D01*
X108331000Y-99731000D02*
X99100000Y-90500000D01*
X99100000Y-86500000D02*
X102121000Y-86500000D01*
X102121000Y-86500000D02*
X108331000Y-92710000D01*
X108331000Y-65659000D02*
X108331000Y-69127000D01*
X108331000Y-69127000D02*
X98958000Y-78500000D01*
X88850000Y-92750000D02*
X88750000Y-92750000D01*
X99100000Y-82500000D02*
X88850000Y-92750000D01*
X88750000Y-92750000D02*
X88663000Y-92837000D01*
X88663000Y-92837000D02*
X82169000Y-92837000D01*
X80264000Y-66675000D02*
X81939000Y-65000000D01*
X81939000Y-65000000D02*
X93400000Y-65000000D01*
X93400000Y-65000000D02*
X95319531Y-66919531D01*
X95319531Y-66919531D02*
X95319531Y-81980469D01*
X95319531Y-81980469D02*
X89500000Y-87800000D01*
X89500000Y-87800000D02*
X88500000Y-87800000D01*
X88500000Y-87800000D02*
X87400000Y-86700000D01*
X87400000Y-86700000D02*
X87400000Y-84040000D01*
X87400000Y-84040000D02*
X88940000Y-82500000D01*
X91059000Y-67818000D02*
X92249011Y-66627989D01*
X94091920Y-66627989D02*
X94789011Y-67325080D01*
X92249011Y-66627989D02*
X94091920Y-66627989D01*
X94789011Y-67325080D02*
X94789011Y-80650989D01*
X94789011Y-80650989D02*
X88940000Y-86500000D01*
X80264000Y-74295000D02*
X78723980Y-75835020D01*
X77251789Y-75835020D02*
X76500000Y-75083231D01*
X76500000Y-75083231D02*
X76500000Y-69911231D01*
X78723980Y-75835020D02*
X77251789Y-75835020D01*
X76500000Y-69911231D02*
X79000000Y-67411231D01*
X79000000Y-65938769D02*
X77561231Y-64500000D01*
X79000000Y-67411231D02*
X79000000Y-65938769D01*
X77561231Y-64500000D02*
X70266769Y-64500000D01*
X70266769Y-64500000D02*
X67079000Y-67687769D01*
X67079000Y-67687769D02*
X67079000Y-103505000D01*
X108204000Y-65659000D02*
X108331000Y-65659000D01*
X89916000Y-66675000D02*
X91059000Y-67818000D01*
X85344000Y-66675000D02*
X89916000Y-66675000D01*
X60579000Y-103505000D02*
X67079000Y-103505000D01*
X82804000Y-66675000D02*
X82804000Y-67075000D01*
X82804000Y-67075000D02*
X86087000Y-70358000D01*
X86087000Y-70358000D02*
X89856919Y-70358000D01*
X89856919Y-70358000D02*
X91059000Y-70358000D01*
X92749001Y-71207999D02*
X93599000Y-70358000D01*
X89221499Y-71598501D02*
X92358499Y-71598501D01*
X86525000Y-74295000D02*
X89221499Y-71598501D01*
X92358499Y-71598501D02*
X92749001Y-71207999D01*
X85344000Y-74295000D02*
X86525000Y-74295000D01*
D23*
X77724000Y-72714000D02*
X79188000Y-71250000D01*
X77724000Y-74295000D02*
X77724000Y-72714000D01*
G04 #@! TA.AperFunction,Conductor*
G36*
X111448121Y-61234002D02*
G01*
X111494614Y-61287658D01*
X111506000Y-61340000D01*
X111506000Y-124080000D01*
X111485998Y-124148121D01*
X111432342Y-124194614D01*
X111380000Y-124206000D01*
X50545000Y-124206000D01*
X50476879Y-124185998D01*
X50430386Y-124132342D01*
X50419000Y-124080000D01*
X50419000Y-120705669D01*
X52186001Y-120705669D01*
X52186371Y-120712490D01*
X52191895Y-120763352D01*
X52195521Y-120778604D01*
X52240676Y-120899054D01*
X52249214Y-120914649D01*
X52325715Y-121016724D01*
X52338276Y-121029285D01*
X52440351Y-121105786D01*
X52455946Y-121114324D01*
X52576394Y-121159478D01*
X52591649Y-121163105D01*
X52642514Y-121168631D01*
X52649328Y-121169000D01*
X53321885Y-121169000D01*
X53337124Y-121164525D01*
X53338329Y-121163135D01*
X53340000Y-121155452D01*
X53340000Y-121150884D01*
X53848000Y-121150884D01*
X53852475Y-121166123D01*
X53853865Y-121167328D01*
X53861548Y-121168999D01*
X54538669Y-121168999D01*
X54545490Y-121168629D01*
X54596352Y-121163105D01*
X54611604Y-121159479D01*
X54732054Y-121114324D01*
X54747649Y-121105786D01*
X54849724Y-121029285D01*
X54862285Y-121016724D01*
X54938786Y-120914649D01*
X54947324Y-120899054D01*
X54992478Y-120778606D01*
X54996105Y-120763351D01*
X55001631Y-120712486D01*
X55002000Y-120705672D01*
X55002000Y-120556365D01*
X55022002Y-120488244D01*
X55075658Y-120441751D01*
X55145932Y-120431647D01*
X55210512Y-120461141D01*
X55230895Y-120483642D01*
X55252350Y-120514000D01*
X55404337Y-120662059D01*
X55409133Y-120665264D01*
X55409136Y-120665266D01*
X55551186Y-120760180D01*
X55580760Y-120779941D01*
X55586063Y-120782219D01*
X55586066Y-120782221D01*
X55667908Y-120817383D01*
X55775711Y-120863699D01*
X55851750Y-120880905D01*
X55977025Y-120909252D01*
X55977030Y-120909253D01*
X55982662Y-120910527D01*
X55988433Y-120910754D01*
X55988435Y-120910754D01*
X56053911Y-120913326D01*
X56194681Y-120918857D01*
X56299674Y-120903633D01*
X56398953Y-120889239D01*
X56398958Y-120889238D01*
X56404667Y-120888410D01*
X56410131Y-120886555D01*
X56410136Y-120886554D01*
X56503240Y-120854949D01*
X56605589Y-120820207D01*
X56679873Y-120778606D01*
X56785670Y-120719357D01*
X56785674Y-120719354D01*
X56790717Y-120716530D01*
X56803776Y-120705669D01*
X104383001Y-120705669D01*
X104383371Y-120712490D01*
X104388895Y-120763352D01*
X104392521Y-120778604D01*
X104437676Y-120899054D01*
X104446214Y-120914649D01*
X104522715Y-121016724D01*
X104535276Y-121029285D01*
X104637351Y-121105786D01*
X104652946Y-121114324D01*
X104773394Y-121159478D01*
X104788649Y-121163105D01*
X104839514Y-121168631D01*
X104846328Y-121169000D01*
X105518885Y-121169000D01*
X105534124Y-121164525D01*
X105535329Y-121163135D01*
X105537000Y-121155452D01*
X105537000Y-120033115D01*
X105532525Y-120017876D01*
X105531135Y-120016671D01*
X105523452Y-120015000D01*
X104401116Y-120015000D01*
X104385877Y-120019475D01*
X104384672Y-120020865D01*
X104383001Y-120028548D01*
X104383001Y-120705669D01*
X56803776Y-120705669D01*
X56953852Y-120580852D01*
X57089530Y-120417717D01*
X57092354Y-120412674D01*
X57092357Y-120412670D01*
X57190383Y-120237632D01*
X57190384Y-120237630D01*
X57193207Y-120232589D01*
X57261410Y-120031667D01*
X57262977Y-120020865D01*
X57291324Y-119825355D01*
X57291857Y-119821681D01*
X57293446Y-119761000D01*
X57274031Y-119549708D01*
X57256877Y-119488885D01*
X104383000Y-119488885D01*
X104387475Y-119504124D01*
X104388865Y-119505329D01*
X104396548Y-119507000D01*
X105518885Y-119507000D01*
X105534124Y-119502525D01*
X105535329Y-119501135D01*
X105537000Y-119493452D01*
X105537000Y-118371116D01*
X105532525Y-118355877D01*
X105531135Y-118354672D01*
X105523452Y-118353001D01*
X104846331Y-118353001D01*
X104839510Y-118353371D01*
X104788648Y-118358895D01*
X104773396Y-118362521D01*
X104652946Y-118407676D01*
X104637351Y-118416214D01*
X104535276Y-118492715D01*
X104522715Y-118505276D01*
X104446214Y-118607351D01*
X104437676Y-118622946D01*
X104392522Y-118743394D01*
X104388895Y-118758649D01*
X104383369Y-118809514D01*
X104383000Y-118816328D01*
X104383000Y-119488885D01*
X57256877Y-119488885D01*
X57216436Y-119345492D01*
X57122590Y-119155191D01*
X56995636Y-118985179D01*
X56991400Y-118981263D01*
X56844066Y-118845069D01*
X56844063Y-118845067D01*
X56839826Y-118841150D01*
X56660377Y-118727926D01*
X56655013Y-118725786D01*
X56649865Y-118723163D01*
X56650841Y-118721247D01*
X56602440Y-118683265D01*
X56579000Y-118610071D01*
X56579000Y-109237670D01*
X59711160Y-109237670D01*
X59716887Y-109245320D01*
X59888042Y-109350205D01*
X59896837Y-109354687D01*
X60106988Y-109441734D01*
X60116373Y-109444783D01*
X60337554Y-109497885D01*
X60347301Y-109499428D01*
X60574070Y-109517275D01*
X60583930Y-109517275D01*
X60810699Y-109499428D01*
X60820446Y-109497885D01*
X61041627Y-109444783D01*
X61051012Y-109441734D01*
X61261163Y-109354687D01*
X61269958Y-109350205D01*
X61437445Y-109247568D01*
X61446400Y-109237670D01*
X66211160Y-109237670D01*
X66216887Y-109245320D01*
X66388042Y-109350205D01*
X66396837Y-109354687D01*
X66606988Y-109441734D01*
X66616373Y-109444783D01*
X66837554Y-109497885D01*
X66847301Y-109499428D01*
X67074070Y-109517275D01*
X67083930Y-109517275D01*
X67310699Y-109499428D01*
X67320446Y-109497885D01*
X67541627Y-109444783D01*
X67551012Y-109441734D01*
X67761163Y-109354687D01*
X67769958Y-109350205D01*
X67937445Y-109247568D01*
X67946907Y-109237110D01*
X67943124Y-109228334D01*
X67091812Y-108377022D01*
X67077868Y-108369408D01*
X67076035Y-108369539D01*
X67069420Y-108373790D01*
X66217920Y-109225290D01*
X66211160Y-109237670D01*
X61446400Y-109237670D01*
X61446907Y-109237110D01*
X61443124Y-109228334D01*
X60591812Y-108377022D01*
X60577868Y-108369408D01*
X60576035Y-108369539D01*
X60569420Y-108373790D01*
X59717920Y-109225290D01*
X59711160Y-109237670D01*
X56579000Y-109237670D01*
X56579000Y-108009930D01*
X59066725Y-108009930D01*
X59084572Y-108236699D01*
X59086115Y-108246446D01*
X59139217Y-108467627D01*
X59142266Y-108477012D01*
X59229313Y-108687163D01*
X59233795Y-108695958D01*
X59336432Y-108863445D01*
X59346890Y-108872907D01*
X59355666Y-108869124D01*
X60206978Y-108017812D01*
X60213356Y-108006132D01*
X60943408Y-108006132D01*
X60943539Y-108007965D01*
X60947790Y-108014580D01*
X61799290Y-108866080D01*
X61811670Y-108872840D01*
X61819320Y-108867113D01*
X61924205Y-108695958D01*
X61928687Y-108687163D01*
X62015734Y-108477012D01*
X62018783Y-108467627D01*
X62071885Y-108246446D01*
X62073428Y-108236699D01*
X62091275Y-108009930D01*
X65566725Y-108009930D01*
X65584572Y-108236699D01*
X65586115Y-108246446D01*
X65639217Y-108467627D01*
X65642266Y-108477012D01*
X65729313Y-108687163D01*
X65733795Y-108695958D01*
X65836432Y-108863445D01*
X65846890Y-108872907D01*
X65855666Y-108869124D01*
X66706978Y-108017812D01*
X66713356Y-108006132D01*
X67443408Y-108006132D01*
X67443539Y-108007965D01*
X67447790Y-108014580D01*
X68299290Y-108866080D01*
X68311670Y-108872840D01*
X68319320Y-108867113D01*
X68424205Y-108695958D01*
X68428687Y-108687163D01*
X68515734Y-108477012D01*
X68518783Y-108467627D01*
X68571885Y-108246446D01*
X68573428Y-108236699D01*
X68586080Y-108075933D01*
X73683500Y-108075933D01*
X73683501Y-111126066D01*
X73698266Y-111200301D01*
X73705161Y-111210620D01*
X73705162Y-111210622D01*
X73740167Y-111263009D01*
X73754516Y-111284484D01*
X73838699Y-111340734D01*
X73912933Y-111355500D01*
X75437753Y-111355500D01*
X76963066Y-111355499D01*
X76998818Y-111348388D01*
X77025126Y-111343156D01*
X77025128Y-111343155D01*
X77037301Y-111340734D01*
X77047621Y-111333839D01*
X77047622Y-111333838D01*
X77111168Y-111291377D01*
X77121484Y-111284484D01*
X77177734Y-111200301D01*
X77179653Y-111190654D01*
X94703618Y-111190654D01*
X94710673Y-111200627D01*
X94741679Y-111226551D01*
X94748598Y-111231579D01*
X94973272Y-111372515D01*
X94980807Y-111376556D01*
X95222520Y-111485694D01*
X95230551Y-111488680D01*
X95484832Y-111564002D01*
X95493184Y-111565869D01*
X95755340Y-111605984D01*
X95763874Y-111606700D01*
X96029045Y-111610867D01*
X96037596Y-111610418D01*
X96300883Y-111578557D01*
X96309284Y-111576955D01*
X96565824Y-111509653D01*
X96573926Y-111506926D01*
X96818949Y-111405434D01*
X96826617Y-111401628D01*
X97055598Y-111267822D01*
X97062679Y-111263009D01*
X97142655Y-111200301D01*
X97151125Y-111188442D01*
X97144608Y-111176818D01*
X95940812Y-109973022D01*
X95926868Y-109965408D01*
X95925035Y-109965539D01*
X95918420Y-109969790D01*
X94710910Y-111177300D01*
X94703618Y-111190654D01*
X77179653Y-111190654D01*
X77192500Y-111126067D01*
X77192499Y-109584204D01*
X93915665Y-109584204D01*
X93930932Y-109848969D01*
X93932005Y-109857470D01*
X93983065Y-110117722D01*
X93985276Y-110125974D01*
X94071184Y-110376894D01*
X94074499Y-110384779D01*
X94193664Y-110621713D01*
X94198020Y-110629079D01*
X94327347Y-110817250D01*
X94337601Y-110825594D01*
X94351342Y-110818448D01*
X95555978Y-109613812D01*
X95562356Y-109602132D01*
X96292408Y-109602132D01*
X96292539Y-109603965D01*
X96296790Y-109610580D01*
X97503730Y-110817520D01*
X97515939Y-110824187D01*
X97527439Y-110815497D01*
X97624831Y-110682913D01*
X97629418Y-110675685D01*
X97755962Y-110442621D01*
X97759530Y-110434827D01*
X97853271Y-110186750D01*
X97855748Y-110178544D01*
X97914954Y-109920038D01*
X97916294Y-109911577D01*
X97940031Y-109645616D01*
X97940277Y-109640677D01*
X97940666Y-109603485D01*
X97940523Y-109598519D01*
X97922362Y-109332123D01*
X97921201Y-109323649D01*
X97867419Y-109063944D01*
X97865120Y-109055709D01*
X97776588Y-108805705D01*
X97773191Y-108797854D01*
X97651550Y-108562178D01*
X97647122Y-108554866D01*
X97528031Y-108385417D01*
X97517509Y-108377037D01*
X97504121Y-108384089D01*
X96300022Y-109588188D01*
X96292408Y-109602132D01*
X95562356Y-109602132D01*
X95563592Y-109599868D01*
X95563461Y-109598035D01*
X95559210Y-109591420D01*
X94351814Y-108384024D01*
X94339804Y-108377466D01*
X94328064Y-108386434D01*
X94219935Y-108536911D01*
X94215418Y-108544196D01*
X94091325Y-108778567D01*
X94087839Y-108786395D01*
X93996700Y-109035446D01*
X93994311Y-109043670D01*
X93937812Y-109302795D01*
X93936563Y-109311250D01*
X93915754Y-109575653D01*
X93915665Y-109584204D01*
X77192499Y-109584204D01*
X77192499Y-108075934D01*
X77185388Y-108040182D01*
X77180156Y-108013874D01*
X77180155Y-108013872D01*
X77180081Y-108013500D01*
X94704584Y-108013500D01*
X94710980Y-108024770D01*
X95915188Y-109228978D01*
X95929132Y-109236592D01*
X95930965Y-109236461D01*
X95937580Y-109232210D01*
X97144604Y-108025186D01*
X97151795Y-108012017D01*
X97144473Y-108001780D01*
X97097233Y-107963115D01*
X97090261Y-107958160D01*
X96864122Y-107819582D01*
X96856552Y-107815624D01*
X96613704Y-107709022D01*
X96605644Y-107706120D01*
X96350592Y-107633467D01*
X96342214Y-107631685D01*
X96079656Y-107594318D01*
X96071111Y-107593691D01*
X95805908Y-107592302D01*
X95797374Y-107592839D01*
X95534433Y-107627456D01*
X95526035Y-107629149D01*
X95270238Y-107699127D01*
X95262143Y-107701946D01*
X95018199Y-107805997D01*
X95010577Y-107809881D01*
X94783013Y-107946075D01*
X94775981Y-107950962D01*
X94713053Y-108001377D01*
X94704584Y-108013500D01*
X77180081Y-108013500D01*
X77177734Y-108001699D01*
X77121484Y-107917516D01*
X77037301Y-107861266D01*
X76963067Y-107846500D01*
X75438247Y-107846500D01*
X73912934Y-107846501D01*
X73877182Y-107853612D01*
X73850874Y-107858844D01*
X73850872Y-107858845D01*
X73838699Y-107861266D01*
X73828379Y-107868161D01*
X73828378Y-107868162D01*
X73767985Y-107908516D01*
X73754516Y-107917516D01*
X73698266Y-108001699D01*
X73683500Y-108075933D01*
X68586080Y-108075933D01*
X68591275Y-108009930D01*
X68591275Y-108000070D01*
X68573428Y-107773301D01*
X68571885Y-107763554D01*
X68518783Y-107542373D01*
X68515734Y-107532988D01*
X68428687Y-107322837D01*
X68424205Y-107314042D01*
X68321568Y-107146555D01*
X68311110Y-107137093D01*
X68302334Y-107140876D01*
X67451022Y-107992188D01*
X67443408Y-108006132D01*
X66713356Y-108006132D01*
X66714592Y-108003868D01*
X66714461Y-108002035D01*
X66710210Y-107995420D01*
X65858710Y-107143920D01*
X65846330Y-107137160D01*
X65838680Y-107142887D01*
X65733795Y-107314042D01*
X65729313Y-107322837D01*
X65642266Y-107532988D01*
X65639217Y-107542373D01*
X65586115Y-107763554D01*
X65584572Y-107773301D01*
X65566725Y-108000070D01*
X65566725Y-108009930D01*
X62091275Y-108009930D01*
X62091275Y-108000070D01*
X62073428Y-107773301D01*
X62071885Y-107763554D01*
X62018783Y-107542373D01*
X62015734Y-107532988D01*
X61928687Y-107322837D01*
X61924205Y-107314042D01*
X61821568Y-107146555D01*
X61811110Y-107137093D01*
X61802334Y-107140876D01*
X60951022Y-107992188D01*
X60943408Y-108006132D01*
X60213356Y-108006132D01*
X60214592Y-108003868D01*
X60214461Y-108002035D01*
X60210210Y-107995420D01*
X59358710Y-107143920D01*
X59346330Y-107137160D01*
X59338680Y-107142887D01*
X59233795Y-107314042D01*
X59229313Y-107322837D01*
X59142266Y-107532988D01*
X59139217Y-107542373D01*
X59086115Y-107763554D01*
X59084572Y-107773301D01*
X59066725Y-108000070D01*
X59066725Y-108009930D01*
X56579000Y-108009930D01*
X56579000Y-106772890D01*
X59711093Y-106772890D01*
X59714876Y-106781666D01*
X60566188Y-107632978D01*
X60580132Y-107640592D01*
X60581965Y-107640461D01*
X60588580Y-107636210D01*
X61440080Y-106784710D01*
X61446534Y-106772890D01*
X66211093Y-106772890D01*
X66214876Y-106781666D01*
X67066188Y-107632978D01*
X67080132Y-107640592D01*
X67081965Y-107640461D01*
X67088580Y-107636210D01*
X67940080Y-106784710D01*
X67946840Y-106772330D01*
X67941113Y-106764680D01*
X67769958Y-106659795D01*
X67761163Y-106655313D01*
X67551012Y-106568266D01*
X67541627Y-106565217D01*
X67320446Y-106512115D01*
X67310699Y-106510572D01*
X67083930Y-106492725D01*
X67074070Y-106492725D01*
X66847301Y-106510572D01*
X66837554Y-106512115D01*
X66616373Y-106565217D01*
X66606988Y-106568266D01*
X66396837Y-106655313D01*
X66388042Y-106659795D01*
X66220555Y-106762432D01*
X66211093Y-106772890D01*
X61446534Y-106772890D01*
X61446840Y-106772330D01*
X61441113Y-106764680D01*
X61269958Y-106659795D01*
X61261163Y-106655313D01*
X61051012Y-106568266D01*
X61041627Y-106565217D01*
X60820446Y-106512115D01*
X60810699Y-106510572D01*
X60583930Y-106492725D01*
X60574070Y-106492725D01*
X60347301Y-106510572D01*
X60337554Y-106512115D01*
X60116373Y-106565217D01*
X60106988Y-106568266D01*
X59896837Y-106655313D01*
X59888042Y-106659795D01*
X59720555Y-106762432D01*
X59711093Y-106772890D01*
X56579000Y-106772890D01*
X56579000Y-103505000D01*
X59319708Y-103505000D01*
X59338839Y-103723674D01*
X59395653Y-103935703D01*
X59411647Y-103970002D01*
X59486095Y-104129659D01*
X59486097Y-104129662D01*
X59488421Y-104134646D01*
X59614326Y-104314457D01*
X59769543Y-104469674D01*
X59774051Y-104472831D01*
X59774054Y-104472833D01*
X59944845Y-104592422D01*
X59949354Y-104595579D01*
X59954336Y-104597902D01*
X59954341Y-104597905D01*
X60055116Y-104644896D01*
X60148297Y-104688347D01*
X60360326Y-104745161D01*
X60579000Y-104764292D01*
X60797674Y-104745161D01*
X61009703Y-104688347D01*
X61102884Y-104644896D01*
X61203659Y-104597905D01*
X61203664Y-104597902D01*
X61208646Y-104595579D01*
X61213155Y-104592422D01*
X61383946Y-104472833D01*
X61383949Y-104472831D01*
X61388457Y-104469674D01*
X61543674Y-104314457D01*
X61669579Y-104134646D01*
X61721756Y-104022751D01*
X61768673Y-103969465D01*
X61835951Y-103950000D01*
X65822049Y-103950000D01*
X65890170Y-103970002D01*
X65936244Y-104022751D01*
X65988421Y-104134646D01*
X66114326Y-104314457D01*
X66269543Y-104469674D01*
X66274051Y-104472831D01*
X66274054Y-104472833D01*
X66444845Y-104592422D01*
X66449354Y-104595579D01*
X66454336Y-104597902D01*
X66454341Y-104597905D01*
X66555116Y-104644896D01*
X66648297Y-104688347D01*
X66860326Y-104745161D01*
X67079000Y-104764292D01*
X67297674Y-104745161D01*
X67509703Y-104688347D01*
X67602884Y-104644896D01*
X67703659Y-104597905D01*
X67703664Y-104597902D01*
X67708646Y-104595579D01*
X67713155Y-104592422D01*
X67883946Y-104472833D01*
X67883949Y-104472831D01*
X67888457Y-104469674D01*
X68043674Y-104314457D01*
X68169579Y-104134646D01*
X68171903Y-104129662D01*
X68171905Y-104129659D01*
X68246353Y-103970002D01*
X68262347Y-103935703D01*
X68319161Y-103723674D01*
X68338292Y-103505000D01*
X68319161Y-103286326D01*
X68262347Y-103074297D01*
X68218896Y-102981116D01*
X68171905Y-102880341D01*
X68171902Y-102880336D01*
X68169579Y-102875354D01*
X68043674Y-102695543D01*
X67888457Y-102540326D01*
X67883949Y-102537169D01*
X67883946Y-102537167D01*
X67785188Y-102468016D01*
X67708646Y-102414421D01*
X67596751Y-102362244D01*
X67543465Y-102315327D01*
X67524000Y-102248049D01*
X67524000Y-97264261D01*
X73890294Y-97264261D01*
X73899590Y-97276276D01*
X73929189Y-97297001D01*
X73938677Y-97302479D01*
X74120277Y-97387159D01*
X74130571Y-97390907D01*
X74324122Y-97442769D01*
X74334909Y-97444671D01*
X74534525Y-97462135D01*
X74545475Y-97462135D01*
X74745091Y-97444671D01*
X74755878Y-97442769D01*
X74949429Y-97390907D01*
X74959723Y-97387159D01*
X75141323Y-97302479D01*
X75150811Y-97297001D01*
X75181248Y-97275689D01*
X75189623Y-97265212D01*
X75182554Y-97251764D01*
X74552812Y-96622022D01*
X74538868Y-96614408D01*
X74537035Y-96614539D01*
X74530420Y-96618790D01*
X73896724Y-97252486D01*
X73890294Y-97264261D01*
X67524000Y-97264261D01*
X67524000Y-67924284D01*
X67544002Y-67856163D01*
X67560905Y-67835189D01*
X68580905Y-66815189D01*
X68643217Y-66781163D01*
X68714032Y-66786228D01*
X68770868Y-66828775D01*
X68795679Y-66895295D01*
X68796000Y-66904284D01*
X68796000Y-67129365D01*
X68796238Y-67134830D01*
X68810472Y-67297519D01*
X68812375Y-67308312D01*
X68868764Y-67518761D01*
X68872510Y-67529053D01*
X68964586Y-67726511D01*
X68970069Y-67736007D01*
X69095028Y-67914467D01*
X69102084Y-67922875D01*
X69256125Y-68076916D01*
X69264533Y-68083972D01*
X69442993Y-68208931D01*
X69452489Y-68214414D01*
X69649947Y-68306490D01*
X69660239Y-68310236D01*
X69832503Y-68356394D01*
X69846599Y-68356058D01*
X69850000Y-68348116D01*
X69850000Y-66547000D01*
X69870002Y-66478879D01*
X69923658Y-66432386D01*
X69976000Y-66421000D01*
X70232000Y-66421000D01*
X70300121Y-66441002D01*
X70346614Y-66494658D01*
X70358000Y-66547000D01*
X70358000Y-68342967D01*
X70361973Y-68356498D01*
X70370522Y-68357727D01*
X70547761Y-68310236D01*
X70558054Y-68306490D01*
X70635751Y-68270259D01*
X70705943Y-68259598D01*
X70770756Y-68288578D01*
X70809612Y-68347998D01*
X70815001Y-68384454D01*
X70815001Y-72714500D01*
X70794999Y-72782621D01*
X70741343Y-72829114D01*
X70689001Y-72840500D01*
X69350852Y-72840501D01*
X69278934Y-72840501D01*
X69243182Y-72847612D01*
X69216874Y-72852844D01*
X69216872Y-72852845D01*
X69204699Y-72855266D01*
X69194379Y-72862161D01*
X69194378Y-72862162D01*
X69140744Y-72898000D01*
X69120516Y-72911516D01*
X69064266Y-72995699D01*
X69049500Y-73069933D01*
X69049501Y-75520066D01*
X69055022Y-75547824D01*
X69060979Y-75577774D01*
X69064266Y-75594301D01*
X69071161Y-75604621D01*
X69071162Y-75604622D01*
X69081434Y-75619995D01*
X69120516Y-75678484D01*
X69204699Y-75734734D01*
X69278933Y-75749500D01*
X69350829Y-75749500D01*
X70689001Y-75749499D01*
X70757122Y-75769501D01*
X70803615Y-75823157D01*
X70815001Y-75875499D01*
X70815001Y-81738114D01*
X70814128Y-81752924D01*
X70810197Y-81786137D01*
X70818235Y-81830143D01*
X70820606Y-81843127D01*
X70821256Y-81847035D01*
X70829869Y-81904327D01*
X70832957Y-81910758D01*
X70834238Y-81917772D01*
X70841154Y-81931085D01*
X70860945Y-81969185D01*
X70862714Y-81972725D01*
X70887793Y-82024953D01*
X70892635Y-82030191D01*
X70895922Y-82036519D01*
X70900185Y-82041510D01*
X70936964Y-82078289D01*
X70940393Y-82081855D01*
X70978626Y-82123215D01*
X70984920Y-82126871D01*
X70990923Y-82132248D01*
X71014372Y-82155697D01*
X71048398Y-82218009D01*
X71045379Y-82282890D01*
X71039850Y-82300322D01*
X71023553Y-82351696D01*
X71022867Y-82357813D01*
X71022866Y-82357817D01*
X71003994Y-82526062D01*
X71000501Y-82557206D01*
X71001743Y-82572000D01*
X71015902Y-82740601D01*
X71017806Y-82763278D01*
X71074807Y-82962066D01*
X71077625Y-82967548D01*
X71077626Y-82967552D01*
X71166514Y-83140509D01*
X71166517Y-83140513D01*
X71169334Y-83145995D01*
X71297786Y-83308061D01*
X71302479Y-83312055D01*
X71302480Y-83312056D01*
X71402796Y-83397431D01*
X71455271Y-83442091D01*
X71635789Y-83542980D01*
X71832466Y-83606884D01*
X72037809Y-83631370D01*
X72043944Y-83630898D01*
X72043946Y-83630898D01*
X72237856Y-83615977D01*
X72237860Y-83615976D01*
X72243998Y-83615504D01*
X72418142Y-83566882D01*
X72489131Y-83567829D01*
X72548340Y-83607005D01*
X72576969Y-83671973D01*
X72565930Y-83742106D01*
X72541119Y-83777336D01*
X69959302Y-86359153D01*
X69948213Y-86369008D01*
X69921945Y-86389716D01*
X69916590Y-86397463D01*
X69916589Y-86397465D01*
X69889016Y-86437361D01*
X69886713Y-86440584D01*
X69852282Y-86487199D01*
X69849918Y-86493930D01*
X69845864Y-86499796D01*
X69836443Y-86529586D01*
X69828406Y-86554999D01*
X69827153Y-86558755D01*
X69811065Y-86604566D01*
X69811064Y-86604571D01*
X69807945Y-86613453D01*
X69807665Y-86620582D01*
X69805515Y-86627380D01*
X69805000Y-86633923D01*
X69805000Y-86685939D01*
X69804903Y-86690885D01*
X69802692Y-86747164D01*
X69804557Y-86754199D01*
X69805000Y-86762245D01*
X69805000Y-94466113D01*
X69804127Y-94480923D01*
X69800196Y-94514136D01*
X69801888Y-94523399D01*
X69810605Y-94571126D01*
X69811255Y-94575034D01*
X69819868Y-94632326D01*
X69822956Y-94638757D01*
X69824237Y-94645771D01*
X69828578Y-94654127D01*
X69850944Y-94697184D01*
X69852713Y-94700724D01*
X69877792Y-94752952D01*
X69882634Y-94758190D01*
X69885921Y-94764518D01*
X69890184Y-94769509D01*
X69926963Y-94806288D01*
X69930392Y-94809854D01*
X69968625Y-94851214D01*
X69974919Y-94854870D01*
X69980922Y-94860247D01*
X71034021Y-95913346D01*
X71068047Y-95975658D01*
X71065029Y-96040535D01*
X71063705Y-96044711D01*
X71061841Y-96050588D01*
X71040975Y-96236609D01*
X71056639Y-96423139D01*
X71058338Y-96429064D01*
X71100046Y-96574515D01*
X71108235Y-96603075D01*
X71111050Y-96608552D01*
X71111051Y-96608555D01*
X71116311Y-96618790D01*
X71193797Y-96769562D01*
X71197620Y-96774386D01*
X71197623Y-96774390D01*
X71220194Y-96802867D01*
X71310068Y-96916259D01*
X71452618Y-97037579D01*
X71457996Y-97040585D01*
X71457998Y-97040586D01*
X71492396Y-97059810D01*
X71616018Y-97128900D01*
X71794043Y-97186744D01*
X71979914Y-97208908D01*
X71986049Y-97208436D01*
X71986051Y-97208436D01*
X72160408Y-97195020D01*
X72160413Y-97195019D01*
X72166549Y-97194547D01*
X72172479Y-97192891D01*
X72172481Y-97192891D01*
X72340913Y-97145864D01*
X72340912Y-97145864D01*
X72346841Y-97144209D01*
X72377148Y-97128900D01*
X72425774Y-97104337D01*
X72513921Y-97059810D01*
X72542376Y-97037579D01*
X72656571Y-96948360D01*
X72656572Y-96948360D01*
X72661427Y-96944566D01*
X72783738Y-96802867D01*
X72876198Y-96640108D01*
X72935283Y-96462491D01*
X72958744Y-96276780D01*
X72959042Y-96255475D01*
X73327865Y-96255475D01*
X73345329Y-96455091D01*
X73347231Y-96465878D01*
X73399093Y-96659429D01*
X73402841Y-96669723D01*
X73487521Y-96851323D01*
X73492999Y-96860811D01*
X73514311Y-96891248D01*
X73524788Y-96899623D01*
X73538236Y-96892554D01*
X74167978Y-96262812D01*
X74174356Y-96251132D01*
X74904408Y-96251132D01*
X74904539Y-96252965D01*
X74908790Y-96259580D01*
X75542486Y-96893276D01*
X75554261Y-96899706D01*
X75566276Y-96890410D01*
X75587001Y-96860811D01*
X75592479Y-96851323D01*
X75677159Y-96669723D01*
X75680907Y-96659429D01*
X75732769Y-96465878D01*
X75734671Y-96455091D01*
X75752135Y-96255475D01*
X75752135Y-96244525D01*
X75734671Y-96044909D01*
X75732769Y-96034122D01*
X75680907Y-95840571D01*
X75677159Y-95830277D01*
X75592479Y-95648677D01*
X75587001Y-95639189D01*
X75565689Y-95608752D01*
X75555212Y-95600377D01*
X75541764Y-95607446D01*
X74912022Y-96237188D01*
X74904408Y-96251132D01*
X74174356Y-96251132D01*
X74175592Y-96248868D01*
X74175461Y-96247035D01*
X74171210Y-96240420D01*
X73537514Y-95606724D01*
X73525739Y-95600294D01*
X73513724Y-95609590D01*
X73492999Y-95639189D01*
X73487521Y-95648677D01*
X73402841Y-95830277D01*
X73399093Y-95840571D01*
X73347231Y-96034122D01*
X73345329Y-96044909D01*
X73327865Y-96244525D01*
X73327865Y-96255475D01*
X72959042Y-96255475D01*
X72959118Y-96250000D01*
X72940852Y-96063706D01*
X72886749Y-95884509D01*
X72883855Y-95879066D01*
X72801764Y-95724674D01*
X72801762Y-95724671D01*
X72798870Y-95719232D01*
X72794980Y-95714462D01*
X72794977Y-95714458D01*
X72684457Y-95578948D01*
X72684454Y-95578945D01*
X72680562Y-95574173D01*
X72536332Y-95454855D01*
X72371673Y-95365824D01*
X72282217Y-95338133D01*
X72198744Y-95312294D01*
X72198741Y-95312293D01*
X72192857Y-95310472D01*
X72186732Y-95309828D01*
X72186731Y-95309828D01*
X72012824Y-95291549D01*
X72012823Y-95291549D01*
X72006696Y-95290905D01*
X71930143Y-95297872D01*
X71826418Y-95307312D01*
X71826415Y-95307313D01*
X71820279Y-95307871D01*
X71814369Y-95309610D01*
X71814366Y-95309611D01*
X71789225Y-95317010D01*
X71718228Y-95317054D01*
X71664556Y-95285231D01*
X71614113Y-95234788D01*
X73890377Y-95234788D01*
X73897446Y-95248236D01*
X74527188Y-95877978D01*
X74541132Y-95885592D01*
X74542965Y-95885461D01*
X74549580Y-95881210D01*
X75183276Y-95247514D01*
X75189706Y-95235739D01*
X75180410Y-95223724D01*
X75150811Y-95202999D01*
X75141323Y-95197521D01*
X74959723Y-95112841D01*
X74949429Y-95109093D01*
X74755878Y-95057231D01*
X74745091Y-95055329D01*
X74545475Y-95037865D01*
X74534525Y-95037865D01*
X74334909Y-95055329D01*
X74324122Y-95057231D01*
X74130571Y-95109093D01*
X74120277Y-95112841D01*
X73938677Y-95197521D01*
X73929189Y-95202999D01*
X73898752Y-95224311D01*
X73890377Y-95234788D01*
X71614113Y-95234788D01*
X70731905Y-94352580D01*
X70697879Y-94290268D01*
X70695000Y-94263485D01*
X70695000Y-93781669D01*
X78221001Y-93781669D01*
X78221371Y-93788490D01*
X78226895Y-93839352D01*
X78230521Y-93854604D01*
X78275676Y-93975054D01*
X78284214Y-93990649D01*
X78360715Y-94092724D01*
X78373276Y-94105285D01*
X78475351Y-94181786D01*
X78490946Y-94190324D01*
X78611394Y-94235478D01*
X78626649Y-94239105D01*
X78677514Y-94244631D01*
X78684328Y-94245000D01*
X79356885Y-94245000D01*
X79372124Y-94240525D01*
X79373329Y-94239135D01*
X79375000Y-94231452D01*
X79375000Y-93109115D01*
X79370525Y-93093876D01*
X79369135Y-93092671D01*
X79361452Y-93091000D01*
X78239116Y-93091000D01*
X78223877Y-93095475D01*
X78222672Y-93096865D01*
X78221001Y-93104548D01*
X78221001Y-93781669D01*
X70695000Y-93781669D01*
X70695000Y-91828515D01*
X70715002Y-91760394D01*
X70768658Y-91713901D01*
X70838932Y-91703797D01*
X70903512Y-91733291D01*
X70910095Y-91739420D01*
X71261373Y-92090698D01*
X71271228Y-92101787D01*
X71291936Y-92128055D01*
X71299683Y-92133409D01*
X71299685Y-92133411D01*
X71339587Y-92160988D01*
X71342799Y-92163283D01*
X71389420Y-92197718D01*
X71396149Y-92200081D01*
X71402016Y-92204136D01*
X71457297Y-92221619D01*
X71460962Y-92222842D01*
X71515673Y-92242055D01*
X71522802Y-92242335D01*
X71529600Y-92244485D01*
X71536143Y-92245000D01*
X71588159Y-92245000D01*
X71593105Y-92245097D01*
X71649384Y-92247308D01*
X71656419Y-92245443D01*
X71664465Y-92245000D01*
X78095000Y-92245000D01*
X78163121Y-92265002D01*
X78209614Y-92318658D01*
X78221000Y-92371000D01*
X78221000Y-92564885D01*
X78225475Y-92580124D01*
X78226865Y-92581329D01*
X78234548Y-92583000D01*
X79356885Y-92583000D01*
X79372124Y-92578525D01*
X79373329Y-92577135D01*
X79375000Y-92569452D01*
X79375000Y-91447116D01*
X79369766Y-91429291D01*
X79334179Y-91373917D01*
X79334179Y-91302921D01*
X79365980Y-91249323D01*
X79633398Y-90981905D01*
X79695710Y-90947879D01*
X79722493Y-90945000D01*
X87906129Y-90945000D01*
X87974250Y-90965002D01*
X88018195Y-91013406D01*
X88046514Y-91068509D01*
X88046517Y-91068513D01*
X88049334Y-91073995D01*
X88177786Y-91236061D01*
X88182479Y-91240055D01*
X88182480Y-91240056D01*
X88329541Y-91365214D01*
X88335271Y-91370091D01*
X88515789Y-91470980D01*
X88712466Y-91534884D01*
X88917809Y-91559370D01*
X88923944Y-91558898D01*
X88923946Y-91558898D01*
X89112825Y-91544364D01*
X89182280Y-91559081D01*
X89232752Y-91609012D01*
X89248218Y-91678303D01*
X89223766Y-91744957D01*
X89211587Y-91759088D01*
X88685546Y-92285129D01*
X88633497Y-92316465D01*
X88626985Y-92318468D01*
X88617674Y-92319868D01*
X88611243Y-92322956D01*
X88604229Y-92324237D01*
X88552816Y-92350944D01*
X88549276Y-92352713D01*
X88497048Y-92377792D01*
X88495632Y-92374843D01*
X88439871Y-92392000D01*
X83315244Y-92392000D01*
X83247123Y-92371998D01*
X83202238Y-92321728D01*
X83160145Y-92236372D01*
X83157590Y-92231191D01*
X83151365Y-92222854D01*
X83034089Y-92065803D01*
X83034088Y-92065802D01*
X83030636Y-92061179D01*
X83026400Y-92057263D01*
X82879066Y-91921069D01*
X82879063Y-91921067D01*
X82874826Y-91917150D01*
X82695377Y-91803926D01*
X82498300Y-91725300D01*
X82492643Y-91724175D01*
X82492637Y-91724173D01*
X82295863Y-91685033D01*
X82295859Y-91685033D01*
X82290195Y-91683906D01*
X82284420Y-91683830D01*
X82284416Y-91683830D01*
X82177804Y-91682434D01*
X82078031Y-91681128D01*
X82072334Y-91682107D01*
X82072333Y-91682107D01*
X81887303Y-91713901D01*
X81868913Y-91717061D01*
X81669846Y-91790501D01*
X81664885Y-91793453D01*
X81664884Y-91793453D01*
X81492463Y-91896032D01*
X81492460Y-91896034D01*
X81487495Y-91898988D01*
X81483155Y-91902794D01*
X81483151Y-91902797D01*
X81377292Y-91995634D01*
X81327968Y-92038890D01*
X81324393Y-92043425D01*
X81324392Y-92043426D01*
X81261949Y-92122634D01*
X81204067Y-92163747D01*
X81133147Y-92167041D01*
X81071705Y-92131469D01*
X81039248Y-92068326D01*
X81036999Y-92044628D01*
X81036999Y-91892331D01*
X81036629Y-91885510D01*
X81031105Y-91834648D01*
X81027479Y-91819396D01*
X80982324Y-91698946D01*
X80973786Y-91683351D01*
X80897285Y-91581276D01*
X80884724Y-91568715D01*
X80782649Y-91492214D01*
X80767054Y-91483676D01*
X80646606Y-91438522D01*
X80631351Y-91434895D01*
X80580486Y-91429369D01*
X80573672Y-91429000D01*
X79901115Y-91429000D01*
X79885876Y-91433475D01*
X79884671Y-91434865D01*
X79883000Y-91442548D01*
X79883000Y-94226884D01*
X79887475Y-94242123D01*
X79888865Y-94243328D01*
X79896548Y-94244999D01*
X80573669Y-94244999D01*
X80580490Y-94244629D01*
X80631352Y-94239105D01*
X80646604Y-94235479D01*
X80767054Y-94190324D01*
X80782649Y-94181786D01*
X80884724Y-94105285D01*
X80897285Y-94092724D01*
X80973786Y-93990649D01*
X80982324Y-93975054D01*
X81027478Y-93854606D01*
X81031105Y-93839351D01*
X81036631Y-93788486D01*
X81037000Y-93781672D01*
X81037000Y-93632365D01*
X81057002Y-93564244D01*
X81110658Y-93517751D01*
X81180932Y-93507647D01*
X81245512Y-93537141D01*
X81265895Y-93559642D01*
X81287350Y-93590000D01*
X81291484Y-93594027D01*
X81432318Y-93731221D01*
X81439337Y-93738059D01*
X81444133Y-93741264D01*
X81444136Y-93741266D01*
X81547631Y-93810419D01*
X81615760Y-93855941D01*
X81621063Y-93858219D01*
X81621066Y-93858221D01*
X81702908Y-93893383D01*
X81810711Y-93939699D01*
X81886750Y-93956905D01*
X82012025Y-93985252D01*
X82012030Y-93985253D01*
X82017662Y-93986527D01*
X82023433Y-93986754D01*
X82023435Y-93986754D01*
X82088911Y-93989326D01*
X82229681Y-93994857D01*
X82334674Y-93979634D01*
X82433953Y-93965239D01*
X82433958Y-93965238D01*
X82439667Y-93964410D01*
X82445131Y-93962555D01*
X82445136Y-93962554D01*
X82538240Y-93930949D01*
X82640589Y-93896207D01*
X82645632Y-93893383D01*
X82820670Y-93795357D01*
X82820674Y-93795354D01*
X82825717Y-93792530D01*
X82988852Y-93656852D01*
X83124530Y-93493717D01*
X83207014Y-93346432D01*
X83257750Y-93296772D01*
X83316947Y-93282000D01*
X88629113Y-93282000D01*
X88643923Y-93282873D01*
X88677136Y-93286804D01*
X88734141Y-93276393D01*
X88738034Y-93275745D01*
X88754242Y-93273308D01*
X88795326Y-93267132D01*
X88801757Y-93264044D01*
X88808771Y-93262763D01*
X88860185Y-93236056D01*
X88863725Y-93234287D01*
X88907456Y-93213288D01*
X88907457Y-93213287D01*
X88915952Y-93209208D01*
X88921190Y-93204366D01*
X88927518Y-93201079D01*
X88928911Y-93199889D01*
X88964543Y-93186023D01*
X88964013Y-93184301D01*
X88973015Y-93181532D01*
X88982326Y-93180132D01*
X88988757Y-93177044D01*
X88995771Y-93175763D01*
X89047185Y-93149056D01*
X89050725Y-93147287D01*
X89094456Y-93126288D01*
X89094457Y-93126287D01*
X89102952Y-93122208D01*
X89108190Y-93117366D01*
X89114518Y-93114079D01*
X89119509Y-93109816D01*
X89156288Y-93073037D01*
X89159854Y-93069608D01*
X89194296Y-93037770D01*
X89201214Y-93031375D01*
X89204870Y-93025081D01*
X89210247Y-93019078D01*
X91744119Y-90485206D01*
X98040501Y-90485206D01*
X98057806Y-90691278D01*
X98114807Y-90890066D01*
X98117625Y-90895548D01*
X98117626Y-90895552D01*
X98206514Y-91068509D01*
X98206517Y-91068513D01*
X98209334Y-91073995D01*
X98337786Y-91236061D01*
X98342479Y-91240055D01*
X98342480Y-91240056D01*
X98489541Y-91365214D01*
X98495271Y-91370091D01*
X98675789Y-91470980D01*
X98872466Y-91534884D01*
X99077809Y-91559370D01*
X99083944Y-91558898D01*
X99083946Y-91558898D01*
X99277857Y-91543977D01*
X99277862Y-91543976D01*
X99283998Y-91543504D01*
X99314872Y-91534884D01*
X99393025Y-91513064D01*
X99464015Y-91514011D01*
X99516003Y-91545328D01*
X107849095Y-99878421D01*
X107883121Y-99940733D01*
X107886000Y-99967516D01*
X107886000Y-118610632D01*
X107865998Y-118678753D01*
X107824423Y-118718917D01*
X107654463Y-118820032D01*
X107654460Y-118820034D01*
X107649495Y-118822988D01*
X107645155Y-118826794D01*
X107645151Y-118826797D01*
X107494309Y-118959083D01*
X107489968Y-118962890D01*
X107486393Y-118967425D01*
X107486392Y-118967426D01*
X107423949Y-119046634D01*
X107366067Y-119087747D01*
X107295147Y-119091041D01*
X107233705Y-119055469D01*
X107201248Y-118992326D01*
X107198999Y-118968628D01*
X107198999Y-118816331D01*
X107198629Y-118809510D01*
X107193105Y-118758648D01*
X107189479Y-118743396D01*
X107144324Y-118622946D01*
X107135786Y-118607351D01*
X107059285Y-118505276D01*
X107046724Y-118492715D01*
X106944649Y-118416214D01*
X106929054Y-118407676D01*
X106808606Y-118362522D01*
X106793351Y-118358895D01*
X106742486Y-118353369D01*
X106735672Y-118353000D01*
X106063115Y-118353000D01*
X106047876Y-118357475D01*
X106046671Y-118358865D01*
X106045000Y-118366548D01*
X106045000Y-121150884D01*
X106049475Y-121166123D01*
X106050865Y-121167328D01*
X106058548Y-121168999D01*
X106735669Y-121168999D01*
X106742490Y-121168629D01*
X106793352Y-121163105D01*
X106808604Y-121159479D01*
X106929054Y-121114324D01*
X106944649Y-121105786D01*
X107046724Y-121029285D01*
X107059285Y-121016724D01*
X107135786Y-120914649D01*
X107144324Y-120899054D01*
X107189478Y-120778606D01*
X107193105Y-120763351D01*
X107198631Y-120712486D01*
X107199000Y-120705672D01*
X107199000Y-120556365D01*
X107219002Y-120488244D01*
X107272658Y-120441751D01*
X107342932Y-120431647D01*
X107407512Y-120461141D01*
X107427895Y-120483642D01*
X107449350Y-120514000D01*
X107601337Y-120662059D01*
X107606133Y-120665264D01*
X107606136Y-120665266D01*
X107748186Y-120760180D01*
X107777760Y-120779941D01*
X107783063Y-120782219D01*
X107783066Y-120782221D01*
X107864908Y-120817383D01*
X107972711Y-120863699D01*
X108048750Y-120880905D01*
X108174025Y-120909252D01*
X108174030Y-120909253D01*
X108179662Y-120910527D01*
X108185433Y-120910754D01*
X108185435Y-120910754D01*
X108250911Y-120913326D01*
X108391681Y-120918857D01*
X108496674Y-120903633D01*
X108595953Y-120889239D01*
X108595958Y-120889238D01*
X108601667Y-120888410D01*
X108607131Y-120886555D01*
X108607136Y-120886554D01*
X108700240Y-120854949D01*
X108802589Y-120820207D01*
X108876873Y-120778606D01*
X108982670Y-120719357D01*
X108982674Y-120719354D01*
X108987717Y-120716530D01*
X109150852Y-120580852D01*
X109286530Y-120417717D01*
X109289354Y-120412674D01*
X109289357Y-120412670D01*
X109387383Y-120237632D01*
X109387384Y-120237630D01*
X109390207Y-120232589D01*
X109458410Y-120031667D01*
X109459977Y-120020865D01*
X109488324Y-119825355D01*
X109488857Y-119821681D01*
X109490446Y-119761000D01*
X109471031Y-119549708D01*
X109413436Y-119345492D01*
X109319590Y-119155191D01*
X109192636Y-118985179D01*
X109188400Y-118981263D01*
X109041066Y-118845069D01*
X109041063Y-118845067D01*
X109036826Y-118841150D01*
X108857377Y-118727926D01*
X108852013Y-118725786D01*
X108846865Y-118723163D01*
X108847841Y-118721247D01*
X108799440Y-118683265D01*
X108776000Y-118610071D01*
X108776000Y-99764887D01*
X108776873Y-99750077D01*
X108779697Y-99726217D01*
X108780804Y-99716864D01*
X108770396Y-99659874D01*
X108769746Y-99655970D01*
X108762532Y-99607985D01*
X108762532Y-99607984D01*
X108761132Y-99598674D01*
X108758044Y-99592244D01*
X108756763Y-99585228D01*
X108752422Y-99576871D01*
X108752420Y-99576866D01*
X108730052Y-99533807D01*
X108728314Y-99530330D01*
X108703208Y-99478048D01*
X108698364Y-99472808D01*
X108695078Y-99466482D01*
X108690816Y-99461491D01*
X108654037Y-99424712D01*
X108650608Y-99421146D01*
X108618770Y-99386704D01*
X108612375Y-99379786D01*
X108606081Y-99376130D01*
X108600078Y-99370753D01*
X102883994Y-93654669D01*
X104383001Y-93654669D01*
X104383371Y-93661490D01*
X104388895Y-93712352D01*
X104392521Y-93727604D01*
X104437676Y-93848054D01*
X104446214Y-93863649D01*
X104522715Y-93965724D01*
X104535276Y-93978285D01*
X104637351Y-94054786D01*
X104652946Y-94063324D01*
X104773394Y-94108478D01*
X104788649Y-94112105D01*
X104839514Y-94117631D01*
X104846328Y-94118000D01*
X105518885Y-94118000D01*
X105534124Y-94113525D01*
X105535329Y-94112135D01*
X105537000Y-94104452D01*
X105537000Y-92982115D01*
X105532525Y-92966876D01*
X105531135Y-92965671D01*
X105523452Y-92964000D01*
X104401116Y-92964000D01*
X104385877Y-92968475D01*
X104384672Y-92969865D01*
X104383001Y-92977548D01*
X104383001Y-93654669D01*
X102883994Y-93654669D01*
X101667210Y-92437885D01*
X104383000Y-92437885D01*
X104387475Y-92453124D01*
X104388865Y-92454329D01*
X104396548Y-92456000D01*
X105518885Y-92456000D01*
X105534124Y-92451525D01*
X105535329Y-92450135D01*
X105537000Y-92442452D01*
X105537000Y-91320116D01*
X105532525Y-91304877D01*
X105531135Y-91303672D01*
X105523452Y-91302001D01*
X104846331Y-91302001D01*
X104839510Y-91302371D01*
X104788648Y-91307895D01*
X104773396Y-91311521D01*
X104652946Y-91356676D01*
X104637351Y-91365214D01*
X104535276Y-91441715D01*
X104522715Y-91454276D01*
X104446214Y-91556351D01*
X104437676Y-91571946D01*
X104392522Y-91692394D01*
X104388895Y-91707649D01*
X104383369Y-91758514D01*
X104383000Y-91765328D01*
X104383000Y-92437885D01*
X101667210Y-92437885D01*
X100146064Y-90916739D01*
X100112038Y-90854427D01*
X100115600Y-90787874D01*
X100131324Y-90740604D01*
X100131325Y-90740601D01*
X100133270Y-90734753D01*
X100159189Y-90529586D01*
X100159602Y-90500000D01*
X100139422Y-90294189D01*
X100079651Y-90096217D01*
X100018310Y-89980851D01*
X99985459Y-89919067D01*
X99985457Y-89919064D01*
X99982565Y-89913625D01*
X99978674Y-89908855D01*
X99978672Y-89908851D01*
X99855758Y-89758143D01*
X99855755Y-89758140D01*
X99851863Y-89753368D01*
X99844966Y-89747662D01*
X99697271Y-89625478D01*
X99697266Y-89625475D01*
X99692522Y-89621550D01*
X99687103Y-89618620D01*
X99687100Y-89618618D01*
X99516032Y-89526122D01*
X99516027Y-89526120D01*
X99510612Y-89523192D01*
X99313063Y-89462040D01*
X99306938Y-89461396D01*
X99306937Y-89461396D01*
X99113526Y-89441068D01*
X99113524Y-89441068D01*
X99107397Y-89440424D01*
X98981229Y-89451906D01*
X98907591Y-89458607D01*
X98907590Y-89458607D01*
X98901450Y-89459166D01*
X98703066Y-89517554D01*
X98697601Y-89520411D01*
X98525261Y-89610508D01*
X98525257Y-89610511D01*
X98519801Y-89613363D01*
X98358635Y-89742943D01*
X98225708Y-89901360D01*
X98126082Y-90082578D01*
X98063553Y-90279696D01*
X98062867Y-90285813D01*
X98062866Y-90285817D01*
X98054790Y-90357817D01*
X98040501Y-90485206D01*
X91744119Y-90485206D01*
X95744119Y-86485206D01*
X98040501Y-86485206D01*
X98041726Y-86499796D01*
X98052990Y-86633923D01*
X98057806Y-86691278D01*
X98114807Y-86890066D01*
X98117625Y-86895548D01*
X98117626Y-86895552D01*
X98206514Y-87068509D01*
X98206517Y-87068513D01*
X98209334Y-87073995D01*
X98337786Y-87236061D01*
X98495271Y-87370091D01*
X98675789Y-87470980D01*
X98872466Y-87534884D01*
X99077809Y-87559370D01*
X99083944Y-87558898D01*
X99083946Y-87558898D01*
X99277856Y-87543977D01*
X99277860Y-87543976D01*
X99283998Y-87543504D01*
X99483178Y-87487892D01*
X99488682Y-87485112D01*
X99488684Y-87485111D01*
X99662262Y-87397431D01*
X99662264Y-87397430D01*
X99667763Y-87394652D01*
X99830722Y-87267334D01*
X99834748Y-87262670D01*
X99834751Y-87262667D01*
X99961819Y-87115457D01*
X99961820Y-87115455D01*
X99965848Y-87110789D01*
X100023808Y-87008762D01*
X100074846Y-86959412D01*
X100133363Y-86945000D01*
X101884485Y-86945000D01*
X101952606Y-86965002D01*
X101973580Y-86981905D01*
X106091181Y-91099506D01*
X106125207Y-91161818D01*
X106120142Y-91232633D01*
X106077595Y-91289469D01*
X106051135Y-91302714D01*
X106046671Y-91307865D01*
X106045000Y-91315548D01*
X106045000Y-94099884D01*
X106049475Y-94115123D01*
X106050865Y-94116328D01*
X106058548Y-94117999D01*
X106735669Y-94117999D01*
X106742490Y-94117629D01*
X106793352Y-94112105D01*
X106808604Y-94108479D01*
X106929054Y-94063324D01*
X106944649Y-94054786D01*
X107046724Y-93978285D01*
X107059285Y-93965724D01*
X107135786Y-93863649D01*
X107144324Y-93848054D01*
X107189478Y-93727606D01*
X107193105Y-93712351D01*
X107198631Y-93661486D01*
X107199000Y-93654672D01*
X107199000Y-93505365D01*
X107219002Y-93437244D01*
X107272658Y-93390751D01*
X107342932Y-93380647D01*
X107407512Y-93410141D01*
X107427895Y-93432642D01*
X107449350Y-93463000D01*
X107601337Y-93611059D01*
X107606133Y-93614264D01*
X107606136Y-93614266D01*
X107748186Y-93709180D01*
X107777760Y-93728941D01*
X107783063Y-93731219D01*
X107783066Y-93731221D01*
X107967404Y-93810419D01*
X107972711Y-93812699D01*
X108048750Y-93829905D01*
X108174025Y-93858252D01*
X108174030Y-93858253D01*
X108179662Y-93859527D01*
X108185433Y-93859754D01*
X108185435Y-93859754D01*
X108250911Y-93862326D01*
X108391681Y-93867857D01*
X108496674Y-93852634D01*
X108595953Y-93838239D01*
X108595958Y-93838238D01*
X108601667Y-93837410D01*
X108607131Y-93835555D01*
X108607136Y-93835554D01*
X108700240Y-93803949D01*
X108802589Y-93769207D01*
X108807632Y-93766383D01*
X108982670Y-93668357D01*
X108982674Y-93668354D01*
X108987717Y-93665530D01*
X109150852Y-93529852D01*
X109286530Y-93366717D01*
X109289354Y-93361674D01*
X109289357Y-93361670D01*
X109387383Y-93186632D01*
X109387384Y-93186630D01*
X109390207Y-93181589D01*
X109428219Y-93069608D01*
X109456554Y-92986136D01*
X109456555Y-92986131D01*
X109458410Y-92980667D01*
X109459977Y-92969865D01*
X109488324Y-92774355D01*
X109488857Y-92770681D01*
X109490446Y-92710000D01*
X109471031Y-92498708D01*
X109436098Y-92374843D01*
X109415004Y-92300051D01*
X109415003Y-92300049D01*
X109413436Y-92294492D01*
X109398894Y-92265002D01*
X109322145Y-92109372D01*
X109319590Y-92104191D01*
X109313442Y-92095957D01*
X109196089Y-91938803D01*
X109196088Y-91938802D01*
X109192636Y-91934179D01*
X109178454Y-91921069D01*
X109041066Y-91794069D01*
X109041063Y-91794067D01*
X109036826Y-91790150D01*
X108857377Y-91676926D01*
X108660300Y-91598300D01*
X108654643Y-91597175D01*
X108654637Y-91597173D01*
X108457863Y-91558033D01*
X108457859Y-91558033D01*
X108452195Y-91556906D01*
X108446420Y-91556830D01*
X108446416Y-91556830D01*
X108339804Y-91555434D01*
X108240031Y-91554128D01*
X108234334Y-91555107D01*
X108234333Y-91555107D01*
X108036610Y-91589082D01*
X108030913Y-91590061D01*
X107967404Y-91613491D01*
X107896573Y-91618303D01*
X107834699Y-91584374D01*
X102459627Y-86209302D01*
X102449772Y-86198213D01*
X102434895Y-86179342D01*
X102429064Y-86171945D01*
X102421317Y-86166590D01*
X102421315Y-86166589D01*
X102381419Y-86139016D01*
X102378196Y-86136713D01*
X102339160Y-86107880D01*
X102331581Y-86102282D01*
X102324850Y-86099918D01*
X102318984Y-86095864D01*
X102263766Y-86078401D01*
X102260025Y-86077153D01*
X102214214Y-86061065D01*
X102214209Y-86061064D01*
X102205327Y-86057945D01*
X102198198Y-86057665D01*
X102191400Y-86055515D01*
X102184857Y-86055000D01*
X102132841Y-86055000D01*
X102127895Y-86054903D01*
X102127633Y-86054893D01*
X102071616Y-86052692D01*
X102064581Y-86054557D01*
X102056535Y-86055000D01*
X100133444Y-86055000D01*
X100065323Y-86034998D01*
X100022193Y-85988154D01*
X99985461Y-85919071D01*
X99985460Y-85919069D01*
X99982565Y-85913625D01*
X99904744Y-85818207D01*
X99855758Y-85758143D01*
X99855755Y-85758140D01*
X99851863Y-85753368D01*
X99844966Y-85747662D01*
X99697271Y-85625478D01*
X99697266Y-85625475D01*
X99692522Y-85621550D01*
X99687103Y-85618620D01*
X99687100Y-85618618D01*
X99516032Y-85526122D01*
X99516027Y-85526120D01*
X99510612Y-85523192D01*
X99313063Y-85462040D01*
X99306938Y-85461396D01*
X99306937Y-85461396D01*
X99113526Y-85441068D01*
X99113524Y-85441068D01*
X99107397Y-85440424D01*
X98981229Y-85451906D01*
X98907591Y-85458607D01*
X98907590Y-85458607D01*
X98901450Y-85459166D01*
X98703066Y-85517554D01*
X98697601Y-85520411D01*
X98525261Y-85610508D01*
X98525257Y-85610511D01*
X98519801Y-85613363D01*
X98358635Y-85742943D01*
X98225708Y-85901360D01*
X98126082Y-86082578D01*
X98063553Y-86279696D01*
X98062867Y-86285813D01*
X98062866Y-86285817D01*
X98054640Y-86359153D01*
X98040501Y-86485206D01*
X95744119Y-86485206D01*
X98683501Y-83545824D01*
X98745813Y-83511798D01*
X98811530Y-83515085D01*
X98872466Y-83534884D01*
X99077809Y-83559370D01*
X99083944Y-83558898D01*
X99083946Y-83558898D01*
X99277856Y-83543977D01*
X99277860Y-83543976D01*
X99283998Y-83543504D01*
X99483178Y-83487892D01*
X99488682Y-83485112D01*
X99488684Y-83485111D01*
X99662262Y-83397431D01*
X99662264Y-83397430D01*
X99667763Y-83394652D01*
X99830722Y-83267334D01*
X99834748Y-83262670D01*
X99834751Y-83262667D01*
X99961819Y-83115457D01*
X99961820Y-83115455D01*
X99965848Y-83110789D01*
X100050335Y-82962066D01*
X100064950Y-82936340D01*
X100064952Y-82936336D01*
X100067995Y-82930979D01*
X100111355Y-82800634D01*
X100131325Y-82740601D01*
X100131326Y-82740598D01*
X100133270Y-82734753D01*
X100159189Y-82529586D01*
X100159602Y-82500000D01*
X100139422Y-82294189D01*
X100079651Y-82096217D01*
X99989213Y-81926128D01*
X99985459Y-81919067D01*
X99985457Y-81919064D01*
X99982565Y-81913625D01*
X99978674Y-81908855D01*
X99978672Y-81908851D01*
X99855758Y-81758143D01*
X99855755Y-81758140D01*
X99851863Y-81753368D01*
X99844966Y-81747662D01*
X99697271Y-81625478D01*
X99697266Y-81625475D01*
X99692522Y-81621550D01*
X99687103Y-81618620D01*
X99687100Y-81618618D01*
X99516032Y-81526122D01*
X99516027Y-81526120D01*
X99510612Y-81523192D01*
X99313063Y-81462040D01*
X99306938Y-81461396D01*
X99306937Y-81461396D01*
X99113526Y-81441068D01*
X99113524Y-81441068D01*
X99107397Y-81440424D01*
X98981229Y-81451906D01*
X98907591Y-81458607D01*
X98907590Y-81458607D01*
X98901450Y-81459166D01*
X98703066Y-81517554D01*
X98697601Y-81520411D01*
X98525261Y-81610508D01*
X98525257Y-81610511D01*
X98519801Y-81613363D01*
X98358635Y-81742943D01*
X98225708Y-81901360D01*
X98126082Y-82082578D01*
X98063553Y-82279696D01*
X98062867Y-82285813D01*
X98062866Y-82285817D01*
X98054790Y-82357817D01*
X98040501Y-82485206D01*
X98057806Y-82691278D01*
X98080151Y-82769203D01*
X98086729Y-82792145D01*
X98086278Y-82863140D01*
X98054705Y-82915970D01*
X90195517Y-90775158D01*
X90133205Y-90809184D01*
X90062390Y-90804119D01*
X90005554Y-90761572D01*
X89980743Y-90695052D01*
X89981416Y-90670271D01*
X89993388Y-90575505D01*
X89999189Y-90529586D01*
X89999602Y-90500000D01*
X89979422Y-90294189D01*
X89919651Y-90096217D01*
X89858310Y-89980851D01*
X89825459Y-89919067D01*
X89825457Y-89919064D01*
X89822565Y-89913625D01*
X89818674Y-89908855D01*
X89818672Y-89908851D01*
X89695758Y-89758143D01*
X89695755Y-89758140D01*
X89691863Y-89753368D01*
X89684966Y-89747662D01*
X89537271Y-89625478D01*
X89537266Y-89625475D01*
X89532522Y-89621550D01*
X89527103Y-89618620D01*
X89527100Y-89618618D01*
X89356032Y-89526122D01*
X89356027Y-89526120D01*
X89350612Y-89523192D01*
X89153063Y-89462040D01*
X89146938Y-89461396D01*
X89146937Y-89461396D01*
X88953526Y-89441068D01*
X88953524Y-89441068D01*
X88947397Y-89440424D01*
X88821229Y-89451906D01*
X88747591Y-89458607D01*
X88747590Y-89458607D01*
X88741450Y-89459166D01*
X88543066Y-89517554D01*
X88537601Y-89520411D01*
X88365261Y-89610508D01*
X88365257Y-89610511D01*
X88359801Y-89613363D01*
X88198635Y-89742943D01*
X88065708Y-89901360D01*
X88017140Y-89989704D01*
X87966797Y-90039760D01*
X87906728Y-90055000D01*
X79519865Y-90055000D01*
X79505055Y-90054127D01*
X79471842Y-90050196D01*
X79414837Y-90060607D01*
X79410944Y-90061255D01*
X79394736Y-90063692D01*
X79353652Y-90069868D01*
X79347221Y-90072956D01*
X79340207Y-90074237D01*
X79312844Y-90088451D01*
X79288794Y-90100944D01*
X79285253Y-90102713D01*
X79241522Y-90123712D01*
X79241521Y-90123713D01*
X79233026Y-90127792D01*
X79227788Y-90132634D01*
X79221460Y-90135921D01*
X79216469Y-90140184D01*
X79179690Y-90176963D01*
X79176124Y-90180392D01*
X79134764Y-90218625D01*
X79131108Y-90224919D01*
X79125731Y-90230922D01*
X78038558Y-91318095D01*
X77976246Y-91352121D01*
X77949463Y-91355000D01*
X73044508Y-91355000D01*
X72976387Y-91334998D01*
X72929894Y-91281342D01*
X72919790Y-91211068D01*
X72934952Y-91166763D01*
X73024950Y-91008340D01*
X73024952Y-91008336D01*
X73027995Y-91002979D01*
X73067527Y-90884140D01*
X73091325Y-90812601D01*
X73091326Y-90812598D01*
X73093270Y-90806753D01*
X73119189Y-90601586D01*
X73119602Y-90572000D01*
X73099422Y-90366189D01*
X73073843Y-90281466D01*
X73073302Y-90210474D01*
X73105370Y-90155955D01*
X83094698Y-80166627D01*
X83105787Y-80156772D01*
X83124658Y-80141895D01*
X83132055Y-80136064D01*
X83164995Y-80088403D01*
X83167290Y-80085191D01*
X83196121Y-80046157D01*
X83201718Y-80038580D01*
X83204081Y-80031851D01*
X83208136Y-80025984D01*
X83225596Y-79970775D01*
X83226847Y-79967025D01*
X83242935Y-79921214D01*
X83242936Y-79921206D01*
X83246055Y-79912326D01*
X83246335Y-79905198D01*
X83248485Y-79898400D01*
X83249000Y-79891857D01*
X83249000Y-79839841D01*
X83249097Y-79834895D01*
X83250938Y-79788026D01*
X83251308Y-79778616D01*
X83249443Y-79771581D01*
X83249000Y-79763535D01*
X83249000Y-78485206D01*
X87738501Y-78485206D01*
X87755806Y-78691278D01*
X87812807Y-78890066D01*
X87815625Y-78895548D01*
X87815626Y-78895552D01*
X87904514Y-79068509D01*
X87904517Y-79068513D01*
X87907334Y-79073995D01*
X88035786Y-79236061D01*
X88193271Y-79370091D01*
X88373789Y-79470980D01*
X88570466Y-79534884D01*
X88775809Y-79559370D01*
X88781944Y-79558898D01*
X88781946Y-79558898D01*
X88975856Y-79543977D01*
X88975860Y-79543976D01*
X88981998Y-79543504D01*
X89181178Y-79487892D01*
X89186682Y-79485112D01*
X89186684Y-79485111D01*
X89360262Y-79397431D01*
X89360264Y-79397430D01*
X89365763Y-79394652D01*
X89528722Y-79267334D01*
X89532748Y-79262670D01*
X89532751Y-79262667D01*
X89659819Y-79115457D01*
X89659820Y-79115455D01*
X89663848Y-79110789D01*
X89765995Y-78930979D01*
X89831270Y-78734753D01*
X89857189Y-78529586D01*
X89857602Y-78500000D01*
X89837422Y-78294189D01*
X89777651Y-78096217D01*
X89680565Y-77913625D01*
X89676674Y-77908855D01*
X89676672Y-77908851D01*
X89553758Y-77758143D01*
X89553755Y-77758140D01*
X89549863Y-77753368D01*
X89542966Y-77747662D01*
X89395271Y-77625478D01*
X89395266Y-77625475D01*
X89390522Y-77621550D01*
X89385103Y-77618620D01*
X89385100Y-77618618D01*
X89214032Y-77526122D01*
X89214027Y-77526120D01*
X89208612Y-77523192D01*
X89011063Y-77462040D01*
X89004938Y-77461396D01*
X89004937Y-77461396D01*
X88811526Y-77441068D01*
X88811524Y-77441068D01*
X88805397Y-77440424D01*
X88679229Y-77451906D01*
X88605591Y-77458607D01*
X88605590Y-77458607D01*
X88599450Y-77459166D01*
X88401066Y-77517554D01*
X88395601Y-77520411D01*
X88223261Y-77610508D01*
X88223257Y-77610511D01*
X88217801Y-77613363D01*
X88056635Y-77742943D01*
X87923708Y-77901360D01*
X87824082Y-78082578D01*
X87761553Y-78279696D01*
X87738501Y-78485206D01*
X83249000Y-78485206D01*
X83249000Y-75728626D01*
X83269002Y-75660505D01*
X83316624Y-75616965D01*
X83378734Y-75584494D01*
X83384199Y-75581637D01*
X83545365Y-75452057D01*
X83678292Y-75293640D01*
X83777918Y-75112422D01*
X83840447Y-74915304D01*
X83858500Y-74754360D01*
X83858500Y-73842966D01*
X83843422Y-73689189D01*
X83783651Y-73491217D01*
X83704043Y-73341496D01*
X83689459Y-73314067D01*
X83689457Y-73314064D01*
X83686565Y-73308625D01*
X83682674Y-73303855D01*
X83682672Y-73303851D01*
X83559758Y-73153143D01*
X83559755Y-73153140D01*
X83555863Y-73148368D01*
X83548966Y-73142662D01*
X83401271Y-73020478D01*
X83401266Y-73020475D01*
X83396522Y-73016550D01*
X83391103Y-73013620D01*
X83391100Y-73013618D01*
X83220032Y-72921122D01*
X83220027Y-72921120D01*
X83214612Y-72918192D01*
X83017063Y-72857040D01*
X83010938Y-72856396D01*
X83010937Y-72856396D01*
X82817526Y-72836068D01*
X82817524Y-72836068D01*
X82811397Y-72835424D01*
X82723621Y-72843412D01*
X82611591Y-72853607D01*
X82611590Y-72853607D01*
X82605450Y-72854166D01*
X82407066Y-72912554D01*
X82401601Y-72915411D01*
X82229261Y-73005508D01*
X82229257Y-73005511D01*
X82223801Y-73008363D01*
X82219001Y-73012223D01*
X82219000Y-73012223D01*
X82217265Y-73013618D01*
X82062635Y-73137943D01*
X81929708Y-73296360D01*
X81830082Y-73477578D01*
X81767553Y-73674696D01*
X81766867Y-73680813D01*
X81766866Y-73680817D01*
X81765927Y-73689189D01*
X81749500Y-73835640D01*
X81749500Y-74747034D01*
X81764578Y-74900811D01*
X81824349Y-75098783D01*
X81865001Y-75175238D01*
X81903330Y-75247324D01*
X81921435Y-75281375D01*
X81925326Y-75286145D01*
X81925328Y-75286149D01*
X82048242Y-75436857D01*
X82048245Y-75436860D01*
X82052137Y-75441632D01*
X82056884Y-75445559D01*
X82056886Y-75445561D01*
X82206728Y-75569521D01*
X82206731Y-75569523D01*
X82211478Y-75573450D01*
X82216898Y-75576380D01*
X82216903Y-75576384D01*
X82292928Y-75617490D01*
X82343337Y-75667485D01*
X82359000Y-75728326D01*
X82359000Y-79591485D01*
X82338998Y-79659606D01*
X82322095Y-79680580D01*
X75719807Y-86282868D01*
X75657495Y-86316894D01*
X75586680Y-86311829D01*
X75529844Y-86269282D01*
X75505033Y-86202762D01*
X75520124Y-86133388D01*
X75527051Y-86122147D01*
X75545020Y-86096147D01*
X75547287Y-86092976D01*
X75576120Y-86053940D01*
X75581718Y-86046361D01*
X75584082Y-86039630D01*
X75588136Y-86033764D01*
X75605599Y-85978546D01*
X75606847Y-85974805D01*
X75622935Y-85928994D01*
X75622936Y-85928989D01*
X75626055Y-85920107D01*
X75626335Y-85912978D01*
X75628485Y-85906180D01*
X75629000Y-85899637D01*
X75629000Y-85847622D01*
X75629097Y-85842676D01*
X75630938Y-85795807D01*
X75631308Y-85786397D01*
X75629443Y-85779362D01*
X75629000Y-85771316D01*
X75629000Y-75728626D01*
X75649002Y-75660505D01*
X75696624Y-75616965D01*
X75758734Y-75584494D01*
X75764199Y-75581637D01*
X75925365Y-75452057D01*
X75977420Y-75390020D01*
X75980305Y-75386582D01*
X76039415Y-75347255D01*
X76110403Y-75346129D01*
X76165922Y-75378478D01*
X76176963Y-75389519D01*
X76180392Y-75393085D01*
X76218625Y-75434445D01*
X76224919Y-75438101D01*
X76230922Y-75443478D01*
X76913162Y-76125718D01*
X76923017Y-76136807D01*
X76943725Y-76163075D01*
X76951472Y-76168430D01*
X76951474Y-76168431D01*
X76991370Y-76196004D01*
X76994593Y-76198307D01*
X77041208Y-76232738D01*
X77047939Y-76235102D01*
X77053805Y-76239156D01*
X77109023Y-76256619D01*
X77112764Y-76257867D01*
X77158575Y-76273955D01*
X77158580Y-76273956D01*
X77167462Y-76277075D01*
X77174591Y-76277355D01*
X77181389Y-76279505D01*
X77187932Y-76280020D01*
X77239947Y-76280020D01*
X77244893Y-76280117D01*
X77301172Y-76282328D01*
X77308207Y-76280463D01*
X77316253Y-76280020D01*
X78690093Y-76280020D01*
X78704903Y-76280893D01*
X78738116Y-76284824D01*
X78795121Y-76274413D01*
X78799014Y-76273765D01*
X78815222Y-76271328D01*
X78856306Y-76265152D01*
X78862737Y-76262064D01*
X78869751Y-76260783D01*
X78921165Y-76234076D01*
X78924705Y-76232307D01*
X78968436Y-76211308D01*
X78968437Y-76211307D01*
X78976932Y-76207228D01*
X78982170Y-76202386D01*
X78988498Y-76199099D01*
X78993489Y-76194836D01*
X79030268Y-76158057D01*
X79033834Y-76154628D01*
X79068276Y-76122790D01*
X79075194Y-76116395D01*
X79078850Y-76110101D01*
X79084227Y-76104098D01*
X79568330Y-75619995D01*
X79630642Y-75585969D01*
X79701457Y-75591034D01*
X79717343Y-75598249D01*
X79853388Y-75671808D01*
X80050937Y-75732960D01*
X80057062Y-75733604D01*
X80057063Y-75733604D01*
X80250474Y-75753932D01*
X80250476Y-75753932D01*
X80256603Y-75754576D01*
X80382771Y-75743094D01*
X80456409Y-75736393D01*
X80456410Y-75736393D01*
X80462550Y-75735834D01*
X80660934Y-75677446D01*
X80668233Y-75673630D01*
X80838739Y-75584492D01*
X80838743Y-75584489D01*
X80844199Y-75581637D01*
X80850733Y-75576384D01*
X80959845Y-75488656D01*
X81005365Y-75452057D01*
X81138292Y-75293640D01*
X81237918Y-75112422D01*
X81300447Y-74915304D01*
X81318500Y-74754360D01*
X81318500Y-73842966D01*
X81303422Y-73689189D01*
X81243651Y-73491217D01*
X81164043Y-73341496D01*
X81149459Y-73314067D01*
X81149457Y-73314064D01*
X81146565Y-73308625D01*
X81142674Y-73303855D01*
X81142672Y-73303851D01*
X81019758Y-73153143D01*
X81019755Y-73153140D01*
X81015863Y-73148368D01*
X81008966Y-73142662D01*
X80861271Y-73020478D01*
X80861266Y-73020475D01*
X80856522Y-73016550D01*
X80851103Y-73013620D01*
X80851100Y-73013618D01*
X80680032Y-72921122D01*
X80680027Y-72921120D01*
X80674612Y-72918192D01*
X80477063Y-72857040D01*
X80470938Y-72856396D01*
X80470937Y-72856396D01*
X80277526Y-72836068D01*
X80277524Y-72836068D01*
X80271397Y-72835424D01*
X80183621Y-72843412D01*
X80071591Y-72853607D01*
X80071590Y-72853607D01*
X80065450Y-72854166D01*
X79867066Y-72912554D01*
X79861601Y-72915411D01*
X79689261Y-73005508D01*
X79689257Y-73005511D01*
X79683801Y-73008363D01*
X79679001Y-73012223D01*
X79679000Y-73012223D01*
X79677265Y-73013618D01*
X79522635Y-73137943D01*
X79389708Y-73296360D01*
X79290082Y-73477578D01*
X79227553Y-73674696D01*
X79226867Y-73680813D01*
X79226866Y-73680817D01*
X79225927Y-73689189D01*
X79209500Y-73835640D01*
X79209500Y-74667985D01*
X79189498Y-74736106D01*
X79172595Y-74757080D01*
X78982783Y-74946892D01*
X78920471Y-74980918D01*
X78849656Y-74975853D01*
X78792820Y-74933306D01*
X78768009Y-74866786D01*
X78768473Y-74843752D01*
X78769555Y-74834103D01*
X78778500Y-74754360D01*
X78778500Y-73842966D01*
X78763422Y-73689189D01*
X78703651Y-73491217D01*
X78624043Y-73341496D01*
X78609459Y-73314067D01*
X78609457Y-73314064D01*
X78606565Y-73308625D01*
X78602674Y-73303855D01*
X78602672Y-73303851D01*
X78479758Y-73153143D01*
X78479755Y-73153140D01*
X78475863Y-73148368D01*
X78468966Y-73142662D01*
X78321271Y-73020478D01*
X78321266Y-73020475D01*
X78316522Y-73016550D01*
X78311103Y-73013620D01*
X78311100Y-73013618D01*
X78216961Y-72962718D01*
X78166552Y-72912723D01*
X78151174Y-72843412D01*
X78175710Y-72776790D01*
X78187794Y-72762787D01*
X78725654Y-72224928D01*
X79301227Y-71649355D01*
X79363539Y-71615329D01*
X79390322Y-71612450D01*
X84887839Y-71612450D01*
X84955960Y-71632452D01*
X84992419Y-71668172D01*
X85000908Y-71680805D01*
X85118076Y-71787419D01*
X85257293Y-71863008D01*
X85410522Y-71903207D01*
X85494477Y-71904526D01*
X85561319Y-71905576D01*
X85561322Y-71905576D01*
X85568916Y-71905695D01*
X85723332Y-71870329D01*
X85793742Y-71834917D01*
X85858072Y-71802563D01*
X85858075Y-71802561D01*
X85864855Y-71799151D01*
X85870626Y-71794222D01*
X85870629Y-71794220D01*
X85979542Y-71701199D01*
X85979543Y-71701198D01*
X85985314Y-71696269D01*
X86000957Y-71674500D01*
X86007839Y-71664923D01*
X86063834Y-71621276D01*
X86110161Y-71612450D01*
X87137839Y-71612450D01*
X87205960Y-71632452D01*
X87242419Y-71668172D01*
X87250908Y-71680805D01*
X87368076Y-71787419D01*
X87507293Y-71863008D01*
X87660522Y-71903207D01*
X87744477Y-71904526D01*
X87811319Y-71905576D01*
X87811322Y-71905576D01*
X87818916Y-71905695D01*
X87973332Y-71870329D01*
X87980118Y-71866916D01*
X87986710Y-71864543D01*
X88057579Y-71860288D01*
X88119499Y-71895022D01*
X88152809Y-71957719D01*
X88146936Y-72028472D01*
X88118486Y-72072189D01*
X86559669Y-73631006D01*
X86497357Y-73665032D01*
X86426542Y-73659967D01*
X86369706Y-73617420D01*
X86349952Y-73578329D01*
X86325432Y-73497117D01*
X86325432Y-73497116D01*
X86323651Y-73491217D01*
X86244043Y-73341496D01*
X86229459Y-73314067D01*
X86229457Y-73314064D01*
X86226565Y-73308625D01*
X86222674Y-73303855D01*
X86222672Y-73303851D01*
X86099758Y-73153143D01*
X86099755Y-73153140D01*
X86095863Y-73148368D01*
X86088966Y-73142662D01*
X85941271Y-73020478D01*
X85941266Y-73020475D01*
X85936522Y-73016550D01*
X85931103Y-73013620D01*
X85931100Y-73013618D01*
X85760032Y-72921122D01*
X85760027Y-72921120D01*
X85754612Y-72918192D01*
X85557063Y-72857040D01*
X85550938Y-72856396D01*
X85550937Y-72856396D01*
X85357526Y-72836068D01*
X85357524Y-72836068D01*
X85351397Y-72835424D01*
X85263621Y-72843412D01*
X85151591Y-72853607D01*
X85151590Y-72853607D01*
X85145450Y-72854166D01*
X84947066Y-72912554D01*
X84941601Y-72915411D01*
X84769261Y-73005508D01*
X84769257Y-73005511D01*
X84763801Y-73008363D01*
X84759001Y-73012223D01*
X84759000Y-73012223D01*
X84757265Y-73013618D01*
X84602635Y-73137943D01*
X84469708Y-73296360D01*
X84370082Y-73477578D01*
X84307553Y-73674696D01*
X84306867Y-73680813D01*
X84306866Y-73680817D01*
X84305927Y-73689189D01*
X84289500Y-73835640D01*
X84289500Y-74747034D01*
X84304578Y-74900811D01*
X84364349Y-75098783D01*
X84405001Y-75175238D01*
X84443330Y-75247324D01*
X84461435Y-75281375D01*
X84465326Y-75286145D01*
X84465328Y-75286149D01*
X84588242Y-75436857D01*
X84588245Y-75436860D01*
X84592137Y-75441632D01*
X84596884Y-75445559D01*
X84596886Y-75445561D01*
X84746729Y-75569522D01*
X84746734Y-75569525D01*
X84751478Y-75573450D01*
X84756897Y-75576380D01*
X84756900Y-75576382D01*
X84927968Y-75668878D01*
X84927973Y-75668880D01*
X84933388Y-75671808D01*
X85130937Y-75732960D01*
X85137062Y-75733604D01*
X85137063Y-75733604D01*
X85330474Y-75753932D01*
X85330476Y-75753932D01*
X85336603Y-75754576D01*
X85462771Y-75743094D01*
X85536409Y-75736393D01*
X85536410Y-75736393D01*
X85542550Y-75735834D01*
X85740934Y-75677446D01*
X85748233Y-75673630D01*
X85918739Y-75584492D01*
X85918743Y-75584489D01*
X85924199Y-75581637D01*
X85930733Y-75576384D01*
X86039845Y-75488656D01*
X86085365Y-75452057D01*
X86218292Y-75293640D01*
X86317918Y-75112422D01*
X86380447Y-74915304D01*
X86387269Y-74854484D01*
X86414740Y-74789017D01*
X86473244Y-74748795D01*
X86520371Y-74744094D01*
X86520368Y-74743993D01*
X86521850Y-74743946D01*
X86527298Y-74743403D01*
X86529782Y-74743697D01*
X86529783Y-74743697D01*
X86539136Y-74744804D01*
X86596141Y-74734393D01*
X86600034Y-74733745D01*
X86616242Y-74731308D01*
X86657326Y-74725132D01*
X86663757Y-74722044D01*
X86670771Y-74720763D01*
X86722185Y-74694056D01*
X86725725Y-74692287D01*
X86769456Y-74671288D01*
X86769457Y-74671287D01*
X86777952Y-74667208D01*
X86783190Y-74662366D01*
X86789518Y-74659079D01*
X86794509Y-74654816D01*
X86831288Y-74618037D01*
X86834854Y-74614608D01*
X86869296Y-74582770D01*
X86876214Y-74576375D01*
X86879870Y-74570081D01*
X86885247Y-74564078D01*
X89368919Y-72080406D01*
X89431231Y-72046380D01*
X89458014Y-72043501D01*
X90066319Y-72043501D01*
X90134440Y-72063503D01*
X90180933Y-72117159D01*
X90191037Y-72187433D01*
X90165269Y-72247507D01*
X90128720Y-72293869D01*
X90126031Y-72298980D01*
X90126029Y-72298983D01*
X90113073Y-72323609D01*
X90034203Y-72473515D01*
X90012726Y-72542683D01*
X89975809Y-72661576D01*
X89974007Y-72667378D01*
X89950148Y-72868964D01*
X89963424Y-73071522D01*
X89964845Y-73077118D01*
X89964846Y-73077123D01*
X89991684Y-73182795D01*
X90013392Y-73268269D01*
X90015809Y-73273512D01*
X90053010Y-73354208D01*
X90098377Y-73452616D01*
X90101710Y-73457332D01*
X90187222Y-73578329D01*
X90215533Y-73618389D01*
X90360938Y-73760035D01*
X90529720Y-73872812D01*
X90535023Y-73875090D01*
X90535026Y-73875092D01*
X90623707Y-73913192D01*
X90716228Y-73952942D01*
X90789244Y-73969464D01*
X90908579Y-73996467D01*
X90908584Y-73996468D01*
X90914216Y-73997742D01*
X90919987Y-73997969D01*
X90919989Y-73997969D01*
X90979756Y-74000317D01*
X91117053Y-74005712D01*
X91217499Y-73991148D01*
X91312231Y-73977413D01*
X91312236Y-73977412D01*
X91317945Y-73976584D01*
X91323409Y-73974729D01*
X91323414Y-73974728D01*
X91504693Y-73913192D01*
X91504698Y-73913190D01*
X91510165Y-73911334D01*
X91687276Y-73812147D01*
X91749934Y-73760035D01*
X91814696Y-73706172D01*
X91843345Y-73682345D01*
X91867172Y-73653696D01*
X91969453Y-73530718D01*
X91969455Y-73530715D01*
X91973147Y-73526276D01*
X92072334Y-73349165D01*
X92074720Y-73342135D01*
X92075170Y-73341496D01*
X92076541Y-73338416D01*
X92077146Y-73338685D01*
X92115553Y-73284059D01*
X92181305Y-73257278D01*
X92251098Y-73270295D01*
X92302773Y-73318980D01*
X92310777Y-73335229D01*
X92380770Y-73507603D01*
X92385413Y-73516794D01*
X92496694Y-73698388D01*
X92502777Y-73706699D01*
X92642213Y-73867667D01*
X92649580Y-73874883D01*
X92813434Y-74010916D01*
X92821881Y-74016831D01*
X93005756Y-74124279D01*
X93015042Y-74128729D01*
X93214001Y-74204703D01*
X93223899Y-74207579D01*
X93327250Y-74228606D01*
X93341299Y-74227410D01*
X93345000Y-74217065D01*
X93345000Y-72770000D01*
X93365002Y-72701879D01*
X93418658Y-72655386D01*
X93471000Y-72644000D01*
X93727000Y-72644000D01*
X93795121Y-72664002D01*
X93841614Y-72717658D01*
X93853000Y-72770000D01*
X93853000Y-74216517D01*
X93857064Y-74230359D01*
X93870478Y-74232393D01*
X93877184Y-74231534D01*
X93887262Y-74229392D01*
X94091255Y-74168191D01*
X94100842Y-74164433D01*
X94162578Y-74134189D01*
X94232552Y-74122182D01*
X94297909Y-74149912D01*
X94337899Y-74208575D01*
X94344011Y-74247340D01*
X94344011Y-80414474D01*
X94324009Y-80482595D01*
X94307106Y-80503569D01*
X89356152Y-85454523D01*
X89293840Y-85488549D01*
X89229798Y-85485793D01*
X89158948Y-85463861D01*
X89158941Y-85463860D01*
X89153063Y-85462040D01*
X89146945Y-85461397D01*
X89146940Y-85461396D01*
X88953526Y-85441068D01*
X88953524Y-85441068D01*
X88947397Y-85440424D01*
X88821229Y-85451906D01*
X88747591Y-85458607D01*
X88747590Y-85458607D01*
X88741450Y-85459166D01*
X88543066Y-85517554D01*
X88537601Y-85520411D01*
X88365261Y-85610508D01*
X88365257Y-85610511D01*
X88359801Y-85613363D01*
X88198635Y-85742943D01*
X88112878Y-85845145D01*
X88067522Y-85899198D01*
X88008412Y-85938525D01*
X87937425Y-85939651D01*
X87877097Y-85902220D01*
X87846583Y-85838115D01*
X87845000Y-85818207D01*
X87845000Y-84276515D01*
X87865002Y-84208394D01*
X87881905Y-84187420D01*
X88523501Y-83545824D01*
X88585813Y-83511798D01*
X88651530Y-83515085D01*
X88712466Y-83534884D01*
X88917809Y-83559370D01*
X88923944Y-83558898D01*
X88923946Y-83558898D01*
X89117856Y-83543977D01*
X89117860Y-83543976D01*
X89123998Y-83543504D01*
X89323178Y-83487892D01*
X89328682Y-83485112D01*
X89328684Y-83485111D01*
X89502262Y-83397431D01*
X89502264Y-83397430D01*
X89507763Y-83394652D01*
X89670722Y-83267334D01*
X89674748Y-83262670D01*
X89674751Y-83262667D01*
X89801819Y-83115457D01*
X89801820Y-83115455D01*
X89805848Y-83110789D01*
X89890335Y-82962066D01*
X89904950Y-82936340D01*
X89904952Y-82936336D01*
X89907995Y-82930979D01*
X89951355Y-82800634D01*
X89971325Y-82740601D01*
X89971326Y-82740598D01*
X89973270Y-82734753D01*
X89999189Y-82529586D01*
X89999602Y-82500000D01*
X89979422Y-82294189D01*
X89919651Y-82096217D01*
X89829213Y-81926128D01*
X89825459Y-81919067D01*
X89825457Y-81919064D01*
X89822565Y-81913625D01*
X89818674Y-81908855D01*
X89818672Y-81908851D01*
X89695758Y-81758143D01*
X89695755Y-81758140D01*
X89691863Y-81753368D01*
X89684966Y-81747662D01*
X89537271Y-81625478D01*
X89537266Y-81625475D01*
X89532522Y-81621550D01*
X89527103Y-81618620D01*
X89527100Y-81618618D01*
X89356032Y-81526122D01*
X89356027Y-81526120D01*
X89350612Y-81523192D01*
X89153063Y-81462040D01*
X89146938Y-81461396D01*
X89146937Y-81461396D01*
X88953526Y-81441068D01*
X88953524Y-81441068D01*
X88947397Y-81440424D01*
X88821229Y-81451906D01*
X88747591Y-81458607D01*
X88747590Y-81458607D01*
X88741450Y-81459166D01*
X88543066Y-81517554D01*
X88537601Y-81520411D01*
X88365261Y-81610508D01*
X88365257Y-81610511D01*
X88359801Y-81613363D01*
X88198635Y-81742943D01*
X88065708Y-81901360D01*
X87966082Y-82082578D01*
X87903553Y-82279696D01*
X87902867Y-82285813D01*
X87902866Y-82285817D01*
X87894790Y-82357817D01*
X87880501Y-82485206D01*
X87897806Y-82691278D01*
X87920151Y-82769203D01*
X87926729Y-82792145D01*
X87926278Y-82863140D01*
X87894705Y-82915970D01*
X87109302Y-83701373D01*
X87098213Y-83711228D01*
X87071945Y-83731936D01*
X87066591Y-83739683D01*
X87066589Y-83739685D01*
X87039019Y-83779577D01*
X87036748Y-83782756D01*
X87002282Y-83829419D01*
X86999918Y-83836150D01*
X86995864Y-83842016D01*
X86993024Y-83850997D01*
X86978406Y-83897219D01*
X86977153Y-83900975D01*
X86961065Y-83946786D01*
X86961064Y-83946791D01*
X86957945Y-83955673D01*
X86957665Y-83962802D01*
X86955515Y-83969600D01*
X86955000Y-83976143D01*
X86955000Y-84028159D01*
X86954903Y-84033105D01*
X86952692Y-84089384D01*
X86954557Y-84096419D01*
X86955000Y-84104465D01*
X86955000Y-86666113D01*
X86954127Y-86680923D01*
X86950196Y-86714136D01*
X86956458Y-86748418D01*
X86960605Y-86771126D01*
X86961255Y-86775034D01*
X86969868Y-86832326D01*
X86972956Y-86838757D01*
X86974237Y-86845771D01*
X87000096Y-86895552D01*
X87000944Y-86897184D01*
X87002713Y-86900725D01*
X87014433Y-86925131D01*
X87027792Y-86952952D01*
X87032634Y-86958190D01*
X87035921Y-86964518D01*
X87040184Y-86969509D01*
X87076963Y-87006288D01*
X87080392Y-87009854D01*
X87118625Y-87051214D01*
X87124919Y-87054870D01*
X87130922Y-87060247D01*
X88161373Y-88090698D01*
X88171228Y-88101787D01*
X88191936Y-88128055D01*
X88199683Y-88133410D01*
X88199685Y-88133411D01*
X88239581Y-88160984D01*
X88242804Y-88163287D01*
X88289419Y-88197718D01*
X88296150Y-88200082D01*
X88302016Y-88204136D01*
X88357234Y-88221599D01*
X88360975Y-88222847D01*
X88406786Y-88238935D01*
X88406791Y-88238936D01*
X88415673Y-88242055D01*
X88422802Y-88242335D01*
X88429600Y-88244485D01*
X88436143Y-88245000D01*
X88488159Y-88245000D01*
X88493105Y-88245097D01*
X88549384Y-88247308D01*
X88556419Y-88245443D01*
X88564465Y-88245000D01*
X89466113Y-88245000D01*
X89480923Y-88245873D01*
X89514136Y-88249804D01*
X89571141Y-88239393D01*
X89575034Y-88238745D01*
X89591242Y-88236308D01*
X89632326Y-88230132D01*
X89638757Y-88227044D01*
X89645771Y-88225763D01*
X89697185Y-88199056D01*
X89700725Y-88197287D01*
X89744456Y-88176288D01*
X89744457Y-88176287D01*
X89752952Y-88172208D01*
X89758190Y-88167366D01*
X89764518Y-88164079D01*
X89769509Y-88159816D01*
X89806288Y-88123037D01*
X89809854Y-88119608D01*
X89844296Y-88087770D01*
X89851214Y-88081375D01*
X89854870Y-88075081D01*
X89860247Y-88069078D01*
X95610229Y-82319096D01*
X95621318Y-82309241D01*
X95647586Y-82288533D01*
X95680526Y-82240872D01*
X95682821Y-82237660D01*
X95697335Y-82218010D01*
X95717249Y-82191049D01*
X95719612Y-82184320D01*
X95723667Y-82178453D01*
X95741127Y-82123244D01*
X95742378Y-82119494D01*
X95758466Y-82073683D01*
X95758467Y-82073675D01*
X95761586Y-82064795D01*
X95761866Y-82057667D01*
X95764016Y-82050869D01*
X95764531Y-82044326D01*
X95764531Y-81992310D01*
X95764628Y-81987364D01*
X95765203Y-81972726D01*
X95766839Y-81931085D01*
X95764974Y-81924050D01*
X95764531Y-81916004D01*
X95764531Y-78485206D01*
X97898501Y-78485206D01*
X97915806Y-78691278D01*
X97972807Y-78890066D01*
X97975625Y-78895548D01*
X97975626Y-78895552D01*
X98064514Y-79068509D01*
X98064517Y-79068513D01*
X98067334Y-79073995D01*
X98195786Y-79236061D01*
X98353271Y-79370091D01*
X98533789Y-79470980D01*
X98730466Y-79534884D01*
X98935809Y-79559370D01*
X98941944Y-79558898D01*
X98941946Y-79558898D01*
X99135856Y-79543977D01*
X99135860Y-79543976D01*
X99141998Y-79543504D01*
X99341178Y-79487892D01*
X99346682Y-79485112D01*
X99346684Y-79485111D01*
X99520262Y-79397431D01*
X99520264Y-79397430D01*
X99525763Y-79394652D01*
X99688722Y-79267334D01*
X99692748Y-79262670D01*
X99692751Y-79262667D01*
X99819819Y-79115457D01*
X99819820Y-79115455D01*
X99823848Y-79110789D01*
X99925995Y-78930979D01*
X99991270Y-78734753D01*
X100017189Y-78529586D01*
X100017602Y-78500000D01*
X99997422Y-78294189D01*
X99971843Y-78209466D01*
X99971302Y-78138474D01*
X100003370Y-78083955D01*
X108621698Y-69465627D01*
X108632787Y-69455772D01*
X108651658Y-69440895D01*
X108659055Y-69435064D01*
X108691995Y-69387403D01*
X108694290Y-69384191D01*
X108728718Y-69337580D01*
X108731081Y-69330851D01*
X108735136Y-69324984D01*
X108752619Y-69269703D01*
X108753842Y-69266038D01*
X108773055Y-69211327D01*
X108773335Y-69204198D01*
X108775485Y-69197400D01*
X108776000Y-69190857D01*
X108776000Y-69138841D01*
X108776097Y-69133895D01*
X108777938Y-69087026D01*
X108778308Y-69077616D01*
X108776443Y-69070581D01*
X108776000Y-69062535D01*
X108776000Y-66806947D01*
X108796002Y-66738826D01*
X108840433Y-66697013D01*
X108870409Y-66680226D01*
X108987717Y-66614530D01*
X109150852Y-66478852D01*
X109286530Y-66315717D01*
X109289354Y-66310674D01*
X109289357Y-66310670D01*
X109387383Y-66135632D01*
X109387384Y-66135630D01*
X109390207Y-66130589D01*
X109413891Y-66060817D01*
X109456554Y-65935136D01*
X109456555Y-65935131D01*
X109458410Y-65929667D01*
X109459977Y-65918865D01*
X109488324Y-65723355D01*
X109488857Y-65719681D01*
X109490446Y-65659000D01*
X109471031Y-65447708D01*
X109467598Y-65435533D01*
X109415004Y-65249051D01*
X109415003Y-65249049D01*
X109413436Y-65243492D01*
X109410255Y-65237040D01*
X109322145Y-65058372D01*
X109319590Y-65053191D01*
X109192636Y-64883179D01*
X109188400Y-64879263D01*
X109041066Y-64743069D01*
X109041063Y-64743067D01*
X109036826Y-64739150D01*
X108857377Y-64625926D01*
X108660300Y-64547300D01*
X108654643Y-64546175D01*
X108654637Y-64546173D01*
X108457863Y-64507033D01*
X108457859Y-64507033D01*
X108452195Y-64505906D01*
X108446420Y-64505830D01*
X108446416Y-64505830D01*
X108339804Y-64504434D01*
X108240031Y-64503128D01*
X108234334Y-64504107D01*
X108234333Y-64504107D01*
X108217305Y-64507033D01*
X108030913Y-64539061D01*
X107831846Y-64612501D01*
X107826885Y-64615453D01*
X107826884Y-64615453D01*
X107654463Y-64718032D01*
X107654460Y-64718034D01*
X107649495Y-64720988D01*
X107645155Y-64724794D01*
X107645151Y-64724797D01*
X107494309Y-64857083D01*
X107489968Y-64860890D01*
X107486393Y-64865425D01*
X107486392Y-64865426D01*
X107423949Y-64944634D01*
X107366067Y-64985747D01*
X107295147Y-64989041D01*
X107233705Y-64953469D01*
X107201248Y-64890326D01*
X107198999Y-64866628D01*
X107198999Y-64714331D01*
X107198629Y-64707510D01*
X107193105Y-64656648D01*
X107189479Y-64641396D01*
X107144324Y-64520946D01*
X107135786Y-64505351D01*
X107059285Y-64403276D01*
X107046724Y-64390715D01*
X106944649Y-64314214D01*
X106929054Y-64305676D01*
X106808606Y-64260522D01*
X106793351Y-64256895D01*
X106742486Y-64251369D01*
X106735672Y-64251000D01*
X106063115Y-64251000D01*
X106047876Y-64255475D01*
X106046671Y-64256865D01*
X106045000Y-64264548D01*
X106045000Y-67048884D01*
X106049475Y-67064123D01*
X106050865Y-67065328D01*
X106058548Y-67066999D01*
X106735669Y-67066999D01*
X106742490Y-67066629D01*
X106793352Y-67061105D01*
X106808604Y-67057479D01*
X106929054Y-67012324D01*
X106944649Y-67003786D01*
X107046724Y-66927285D01*
X107059285Y-66914724D01*
X107135786Y-66812649D01*
X107144324Y-66797054D01*
X107189478Y-66676606D01*
X107193105Y-66661351D01*
X107198631Y-66610486D01*
X107199000Y-66603672D01*
X107199000Y-66454365D01*
X107219002Y-66386244D01*
X107272658Y-66339751D01*
X107342932Y-66329647D01*
X107407512Y-66359141D01*
X107427895Y-66381642D01*
X107449350Y-66412000D01*
X107492839Y-66454365D01*
X107587932Y-66547000D01*
X107601337Y-66560059D01*
X107606133Y-66563264D01*
X107606136Y-66563266D01*
X107687085Y-66617354D01*
X107777760Y-66677941D01*
X107783062Y-66680219D01*
X107783075Y-66680226D01*
X107809738Y-66691681D01*
X107864431Y-66736949D01*
X107886000Y-66807448D01*
X107886000Y-68890485D01*
X107865998Y-68958606D01*
X107849095Y-68979580D01*
X99374152Y-77454523D01*
X99311840Y-77488549D01*
X99247798Y-77485793D01*
X99176948Y-77463861D01*
X99176941Y-77463860D01*
X99171063Y-77462040D01*
X99164945Y-77461397D01*
X99164940Y-77461396D01*
X98971526Y-77441068D01*
X98971524Y-77441068D01*
X98965397Y-77440424D01*
X98839229Y-77451906D01*
X98765591Y-77458607D01*
X98765590Y-77458607D01*
X98759450Y-77459166D01*
X98561066Y-77517554D01*
X98555601Y-77520411D01*
X98383261Y-77610508D01*
X98383257Y-77610511D01*
X98377801Y-77613363D01*
X98216635Y-77742943D01*
X98083708Y-77901360D01*
X97984082Y-78082578D01*
X97921553Y-78279696D01*
X97898501Y-78485206D01*
X95764531Y-78485206D01*
X95764531Y-66953418D01*
X95765404Y-66938608D01*
X95768228Y-66914747D01*
X95769335Y-66905395D01*
X95758924Y-66848390D01*
X95758276Y-66844497D01*
X95752631Y-66806947D01*
X95749663Y-66787205D01*
X95746575Y-66780774D01*
X95745294Y-66773760D01*
X95718587Y-66722346D01*
X95716818Y-66718806D01*
X95695819Y-66675075D01*
X95695818Y-66675074D01*
X95691739Y-66666579D01*
X95686897Y-66661341D01*
X95683610Y-66655013D01*
X95679347Y-66650022D01*
X95642568Y-66613243D01*
X95639139Y-66609677D01*
X95633585Y-66603669D01*
X104383001Y-66603669D01*
X104383371Y-66610490D01*
X104388895Y-66661352D01*
X104392521Y-66676604D01*
X104437676Y-66797054D01*
X104446214Y-66812649D01*
X104522715Y-66914724D01*
X104535276Y-66927285D01*
X104637351Y-67003786D01*
X104652946Y-67012324D01*
X104773394Y-67057478D01*
X104788649Y-67061105D01*
X104839514Y-67066631D01*
X104846328Y-67067000D01*
X105518885Y-67067000D01*
X105534124Y-67062525D01*
X105535329Y-67061135D01*
X105537000Y-67053452D01*
X105537000Y-65931115D01*
X105532525Y-65915876D01*
X105531135Y-65914671D01*
X105523452Y-65913000D01*
X104401116Y-65913000D01*
X104385877Y-65917475D01*
X104384672Y-65918865D01*
X104383001Y-65926548D01*
X104383001Y-66603669D01*
X95633585Y-66603669D01*
X95607301Y-66575235D01*
X95600906Y-66568317D01*
X95594612Y-66564661D01*
X95588609Y-66559284D01*
X94416210Y-65386885D01*
X104383000Y-65386885D01*
X104387475Y-65402124D01*
X104388865Y-65403329D01*
X104396548Y-65405000D01*
X105518885Y-65405000D01*
X105534124Y-65400525D01*
X105535329Y-65399135D01*
X105537000Y-65391452D01*
X105537000Y-64269116D01*
X105532525Y-64253877D01*
X105531135Y-64252672D01*
X105523452Y-64251001D01*
X104846331Y-64251001D01*
X104839510Y-64251371D01*
X104788648Y-64256895D01*
X104773396Y-64260521D01*
X104652946Y-64305676D01*
X104637351Y-64314214D01*
X104535276Y-64390715D01*
X104522715Y-64403276D01*
X104446214Y-64505351D01*
X104437676Y-64520946D01*
X104392522Y-64641394D01*
X104388895Y-64656649D01*
X104383369Y-64707514D01*
X104383000Y-64714328D01*
X104383000Y-65386885D01*
X94416210Y-65386885D01*
X93738627Y-64709302D01*
X93728772Y-64698213D01*
X93713895Y-64679342D01*
X93708064Y-64671945D01*
X93700317Y-64666590D01*
X93700315Y-64666589D01*
X93660419Y-64639016D01*
X93657196Y-64636713D01*
X93618160Y-64607880D01*
X93610581Y-64602282D01*
X93603850Y-64599918D01*
X93597984Y-64595864D01*
X93542766Y-64578401D01*
X93539025Y-64577153D01*
X93493214Y-64561065D01*
X93493209Y-64561064D01*
X93484327Y-64557945D01*
X93477198Y-64557665D01*
X93470400Y-64555515D01*
X93463857Y-64555000D01*
X93411841Y-64555000D01*
X93406895Y-64554903D01*
X93406633Y-64554893D01*
X93350616Y-64552692D01*
X93343581Y-64554557D01*
X93335535Y-64555000D01*
X81972887Y-64555000D01*
X81958077Y-64554127D01*
X81924864Y-64550196D01*
X81867859Y-64560607D01*
X81863966Y-64561255D01*
X81847758Y-64563692D01*
X81806674Y-64569868D01*
X81800243Y-64572956D01*
X81793229Y-64574237D01*
X81749251Y-64597082D01*
X81741816Y-64600944D01*
X81738275Y-64602713D01*
X81694544Y-64623712D01*
X81694543Y-64623713D01*
X81686048Y-64627792D01*
X81680810Y-64632634D01*
X81674482Y-64635921D01*
X81669491Y-64640184D01*
X81632712Y-64676963D01*
X81629146Y-64680392D01*
X81597872Y-64709302D01*
X81587786Y-64718625D01*
X81584130Y-64724919D01*
X81578753Y-64730922D01*
X80959670Y-65350005D01*
X80897358Y-65384031D01*
X80826543Y-65378966D01*
X80810657Y-65371751D01*
X80674612Y-65298192D01*
X80477063Y-65237040D01*
X80470938Y-65236396D01*
X80470937Y-65236396D01*
X80277526Y-65216068D01*
X80277524Y-65216068D01*
X80271397Y-65215424D01*
X80145229Y-65226906D01*
X80071591Y-65233607D01*
X80071590Y-65233607D01*
X80065450Y-65234166D01*
X79867066Y-65292554D01*
X79861601Y-65295411D01*
X79689261Y-65385508D01*
X79689257Y-65385511D01*
X79683801Y-65388363D01*
X79522635Y-65517943D01*
X79518676Y-65522661D01*
X79518670Y-65522667D01*
X79468991Y-65581872D01*
X79409882Y-65621199D01*
X79338894Y-65622325D01*
X79293690Y-65599215D01*
X79287767Y-65594470D01*
X79281375Y-65587555D01*
X79275082Y-65583900D01*
X79269078Y-65578522D01*
X77899858Y-64209302D01*
X77890003Y-64198213D01*
X77875126Y-64179342D01*
X77869295Y-64171945D01*
X77861548Y-64166590D01*
X77861546Y-64166589D01*
X77821650Y-64139016D01*
X77818427Y-64136713D01*
X77779391Y-64107880D01*
X77771812Y-64102282D01*
X77765081Y-64099918D01*
X77759215Y-64095864D01*
X77703997Y-64078401D01*
X77700256Y-64077153D01*
X77654445Y-64061065D01*
X77654440Y-64061064D01*
X77645558Y-64057945D01*
X77638429Y-64057665D01*
X77631631Y-64055515D01*
X77625088Y-64055000D01*
X77573072Y-64055000D01*
X77568126Y-64054903D01*
X77567864Y-64054893D01*
X77511847Y-64052692D01*
X77504812Y-64054557D01*
X77496766Y-64055000D01*
X70300656Y-64055000D01*
X70285846Y-64054127D01*
X70261986Y-64051303D01*
X70252633Y-64050196D01*
X70243369Y-64051888D01*
X70243368Y-64051888D01*
X70195643Y-64060604D01*
X70191739Y-64061254D01*
X70143754Y-64068468D01*
X70143753Y-64068468D01*
X70134443Y-64069868D01*
X70128013Y-64072956D01*
X70120997Y-64074237D01*
X70077019Y-64097082D01*
X70069590Y-64100941D01*
X70066049Y-64102710D01*
X70061195Y-64105041D01*
X70013817Y-64127792D01*
X70008579Y-64132634D01*
X70002251Y-64135921D01*
X69997260Y-64140184D01*
X69960481Y-64176963D01*
X69956915Y-64180392D01*
X69925641Y-64209302D01*
X69915555Y-64218625D01*
X69911899Y-64224919D01*
X69906522Y-64230922D01*
X66788302Y-67349142D01*
X66777213Y-67358997D01*
X66750945Y-67379705D01*
X66745590Y-67387452D01*
X66745589Y-67387454D01*
X66718016Y-67427350D01*
X66715713Y-67430573D01*
X66681282Y-67477188D01*
X66678918Y-67483919D01*
X66674864Y-67489785D01*
X66657406Y-67544988D01*
X66656153Y-67548744D01*
X66640065Y-67594555D01*
X66640064Y-67594560D01*
X66636945Y-67603442D01*
X66636665Y-67610571D01*
X66634515Y-67617369D01*
X66634000Y-67623912D01*
X66634000Y-67675928D01*
X66633903Y-67680874D01*
X66631692Y-67737153D01*
X66633557Y-67744188D01*
X66634000Y-67752234D01*
X66634000Y-102248049D01*
X66613998Y-102316170D01*
X66561249Y-102362244D01*
X66449354Y-102414421D01*
X66372812Y-102468016D01*
X66274054Y-102537167D01*
X66274051Y-102537169D01*
X66269543Y-102540326D01*
X66114326Y-102695543D01*
X65988421Y-102875354D01*
X65986097Y-102880338D01*
X65936244Y-102987249D01*
X65889327Y-103040535D01*
X65822049Y-103060000D01*
X61835951Y-103060000D01*
X61767830Y-103039998D01*
X61721756Y-102987249D01*
X61671903Y-102880338D01*
X61669579Y-102875354D01*
X61543674Y-102695543D01*
X61388457Y-102540326D01*
X61383949Y-102537169D01*
X61383946Y-102537167D01*
X61213155Y-102417578D01*
X61213150Y-102417575D01*
X61208646Y-102414421D01*
X61203662Y-102412097D01*
X61203659Y-102412095D01*
X61096751Y-102362244D01*
X61009703Y-102321653D01*
X60797674Y-102264839D01*
X60579000Y-102245708D01*
X60360326Y-102264839D01*
X60148297Y-102321653D01*
X60061249Y-102362244D01*
X59954341Y-102412095D01*
X59954338Y-102412097D01*
X59949354Y-102414421D01*
X59944850Y-102417575D01*
X59944845Y-102417578D01*
X59774054Y-102537167D01*
X59774051Y-102537169D01*
X59769543Y-102540326D01*
X59614326Y-102695543D01*
X59488421Y-102875354D01*
X59486098Y-102880336D01*
X59486095Y-102880341D01*
X59439104Y-102981116D01*
X59395653Y-103074297D01*
X59338839Y-103286326D01*
X59319708Y-103505000D01*
X56579000Y-103505000D01*
X56579000Y-96574515D01*
X56599002Y-96506394D01*
X56615905Y-96485420D01*
X61483502Y-91617824D01*
X61545814Y-91583798D01*
X61611533Y-91587086D01*
X61646047Y-91598300D01*
X61672466Y-91606884D01*
X61877809Y-91631370D01*
X61883944Y-91630898D01*
X61883946Y-91630898D01*
X62077856Y-91615977D01*
X62077860Y-91615976D01*
X62083998Y-91615504D01*
X62283178Y-91559892D01*
X62288682Y-91557112D01*
X62288684Y-91557111D01*
X62462262Y-91469431D01*
X62462264Y-91469430D01*
X62467763Y-91466652D01*
X62630722Y-91339334D01*
X62634748Y-91334670D01*
X62634751Y-91334667D01*
X62761819Y-91187457D01*
X62761820Y-91187455D01*
X62765848Y-91182789D01*
X62867995Y-91002979D01*
X62907527Y-90884140D01*
X62931325Y-90812601D01*
X62931326Y-90812598D01*
X62933270Y-90806753D01*
X62959189Y-90601586D01*
X62959602Y-90572000D01*
X62939422Y-90366189D01*
X62879651Y-90168217D01*
X62828013Y-90071101D01*
X62785459Y-89991067D01*
X62785457Y-89991064D01*
X62782565Y-89985625D01*
X62778674Y-89980855D01*
X62778672Y-89980851D01*
X62655758Y-89830143D01*
X62655755Y-89830140D01*
X62651863Y-89825368D01*
X62644966Y-89819662D01*
X62497271Y-89697478D01*
X62497266Y-89697475D01*
X62492522Y-89693550D01*
X62487103Y-89690620D01*
X62487100Y-89690618D01*
X62316032Y-89598122D01*
X62316027Y-89598120D01*
X62310612Y-89595192D01*
X62113063Y-89534040D01*
X62106938Y-89533396D01*
X62106937Y-89533396D01*
X61913526Y-89513068D01*
X61913524Y-89513068D01*
X61907397Y-89512424D01*
X61819632Y-89520411D01*
X61707591Y-89530607D01*
X61707590Y-89530607D01*
X61701450Y-89531166D01*
X61503066Y-89589554D01*
X61497601Y-89592411D01*
X61325261Y-89682508D01*
X61325257Y-89682511D01*
X61319801Y-89685363D01*
X61158635Y-89814943D01*
X61025708Y-89973360D01*
X60926082Y-90154578D01*
X60863553Y-90351696D01*
X60862867Y-90357813D01*
X60862866Y-90357817D01*
X60843994Y-90526062D01*
X60840501Y-90557206D01*
X60841743Y-90572000D01*
X60855411Y-90734753D01*
X60857806Y-90763278D01*
X60861213Y-90775158D01*
X60886729Y-90864145D01*
X60886278Y-90935140D01*
X60854705Y-90987970D01*
X55843302Y-95999373D01*
X55832213Y-96009228D01*
X55805945Y-96029936D01*
X55800590Y-96037683D01*
X55800589Y-96037685D01*
X55773016Y-96077581D01*
X55770713Y-96080804D01*
X55736282Y-96127419D01*
X55733918Y-96134150D01*
X55729864Y-96140016D01*
X55727024Y-96148997D01*
X55712406Y-96195219D01*
X55711153Y-96198975D01*
X55695065Y-96244786D01*
X55695064Y-96244791D01*
X55691945Y-96253673D01*
X55691665Y-96260802D01*
X55689515Y-96267600D01*
X55689000Y-96274143D01*
X55689000Y-96326159D01*
X55688903Y-96331105D01*
X55686692Y-96387384D01*
X55688557Y-96394419D01*
X55689000Y-96402465D01*
X55689000Y-118610632D01*
X55668998Y-118678753D01*
X55627423Y-118718917D01*
X55457463Y-118820032D01*
X55457460Y-118820034D01*
X55452495Y-118822988D01*
X55448155Y-118826794D01*
X55448151Y-118826797D01*
X55297309Y-118959083D01*
X55292968Y-118962890D01*
X55289393Y-118967425D01*
X55289392Y-118967426D01*
X55226949Y-119046634D01*
X55169067Y-119087747D01*
X55098147Y-119091041D01*
X55036705Y-119055469D01*
X55004248Y-118992326D01*
X55001999Y-118968628D01*
X55001999Y-118816331D01*
X55001629Y-118809510D01*
X54996105Y-118758648D01*
X54992479Y-118743396D01*
X54947324Y-118622946D01*
X54938786Y-118607351D01*
X54862285Y-118505276D01*
X54849724Y-118492715D01*
X54747649Y-118416214D01*
X54732054Y-118407676D01*
X54611606Y-118362522D01*
X54596351Y-118358895D01*
X54545486Y-118353369D01*
X54538672Y-118353000D01*
X53866115Y-118353000D01*
X53850876Y-118357475D01*
X53849671Y-118358865D01*
X53848000Y-118366548D01*
X53848000Y-121150884D01*
X53340000Y-121150884D01*
X53340000Y-120033115D01*
X53335525Y-120017876D01*
X53334135Y-120016671D01*
X53326452Y-120015000D01*
X52204116Y-120015000D01*
X52188877Y-120019475D01*
X52187672Y-120020865D01*
X52186001Y-120028548D01*
X52186001Y-120705669D01*
X50419000Y-120705669D01*
X50419000Y-119488885D01*
X52186000Y-119488885D01*
X52190475Y-119504124D01*
X52191865Y-119505329D01*
X52199548Y-119507000D01*
X53321885Y-119507000D01*
X53337124Y-119502525D01*
X53338329Y-119501135D01*
X53340000Y-119493452D01*
X53340000Y-118371116D01*
X53335525Y-118355877D01*
X53334135Y-118354672D01*
X53326452Y-118353001D01*
X52649331Y-118353001D01*
X52642510Y-118353371D01*
X52591648Y-118358895D01*
X52576396Y-118362521D01*
X52455946Y-118407676D01*
X52440351Y-118416214D01*
X52338276Y-118492715D01*
X52325715Y-118505276D01*
X52249214Y-118607351D01*
X52240676Y-118622946D01*
X52195522Y-118743394D01*
X52191895Y-118758649D01*
X52186369Y-118809514D01*
X52186000Y-118816328D01*
X52186000Y-119488885D01*
X50419000Y-119488885D01*
X50419000Y-93654669D01*
X52186001Y-93654669D01*
X52186371Y-93661490D01*
X52191895Y-93712352D01*
X52195521Y-93727604D01*
X52240676Y-93848054D01*
X52249214Y-93863649D01*
X52325715Y-93965724D01*
X52338276Y-93978285D01*
X52440351Y-94054786D01*
X52455946Y-94063324D01*
X52576394Y-94108478D01*
X52591649Y-94112105D01*
X52642514Y-94117631D01*
X52649328Y-94118000D01*
X53321885Y-94118000D01*
X53337124Y-94113525D01*
X53338329Y-94112135D01*
X53340000Y-94104452D01*
X53340000Y-94099884D01*
X53848000Y-94099884D01*
X53852475Y-94115123D01*
X53853865Y-94116328D01*
X53861548Y-94117999D01*
X54538669Y-94117999D01*
X54545490Y-94117629D01*
X54596352Y-94112105D01*
X54611604Y-94108479D01*
X54732054Y-94063324D01*
X54747649Y-94054786D01*
X54849724Y-93978285D01*
X54862285Y-93965724D01*
X54938786Y-93863649D01*
X54947324Y-93848054D01*
X54992478Y-93727606D01*
X54996105Y-93712351D01*
X55001631Y-93661486D01*
X55002000Y-93654672D01*
X55002000Y-93505365D01*
X55022002Y-93437244D01*
X55075658Y-93390751D01*
X55145932Y-93380647D01*
X55210512Y-93410141D01*
X55230895Y-93432642D01*
X55252350Y-93463000D01*
X55404337Y-93611059D01*
X55409133Y-93614264D01*
X55409136Y-93614266D01*
X55551186Y-93709180D01*
X55580760Y-93728941D01*
X55586063Y-93731219D01*
X55586066Y-93731221D01*
X55770404Y-93810419D01*
X55775711Y-93812699D01*
X55851750Y-93829905D01*
X55977025Y-93858252D01*
X55977030Y-93858253D01*
X55982662Y-93859527D01*
X55988433Y-93859754D01*
X55988435Y-93859754D01*
X56053911Y-93862326D01*
X56194681Y-93867857D01*
X56299674Y-93852634D01*
X56398953Y-93838239D01*
X56398958Y-93838238D01*
X56404667Y-93837410D01*
X56410131Y-93835555D01*
X56410136Y-93835554D01*
X56503240Y-93803949D01*
X56605589Y-93769207D01*
X56610632Y-93766383D01*
X56785670Y-93668357D01*
X56785674Y-93668354D01*
X56790717Y-93665530D01*
X56953852Y-93529852D01*
X57089530Y-93366717D01*
X57092354Y-93361674D01*
X57092357Y-93361670D01*
X57190383Y-93186632D01*
X57190384Y-93186630D01*
X57193207Y-93181589D01*
X57231219Y-93069608D01*
X57259554Y-92986136D01*
X57259555Y-92986131D01*
X57261410Y-92980667D01*
X57262977Y-92969865D01*
X57291324Y-92774355D01*
X57291857Y-92770681D01*
X57293446Y-92710000D01*
X57274031Y-92498708D01*
X57244303Y-92393299D01*
X57228210Y-92336237D01*
X57228970Y-92265245D01*
X57260384Y-92212941D01*
X59564475Y-89908851D01*
X61884011Y-87589315D01*
X61946323Y-87555289D01*
X61963438Y-87552781D01*
X61987953Y-87550895D01*
X62077856Y-87543977D01*
X62077860Y-87543976D01*
X62083998Y-87543504D01*
X62283178Y-87487892D01*
X62288682Y-87485112D01*
X62288684Y-87485111D01*
X62462262Y-87397431D01*
X62462264Y-87397430D01*
X62467763Y-87394652D01*
X62630722Y-87267334D01*
X62634748Y-87262670D01*
X62634751Y-87262667D01*
X62761819Y-87115457D01*
X62761820Y-87115455D01*
X62765848Y-87110789D01*
X62816921Y-87020884D01*
X62864950Y-86936340D01*
X62864952Y-86936336D01*
X62867995Y-86930979D01*
X62913452Y-86794329D01*
X62931325Y-86740601D01*
X62931326Y-86740598D01*
X62933270Y-86734753D01*
X62959189Y-86529586D01*
X62959602Y-86500000D01*
X62939422Y-86294189D01*
X62879651Y-86096217D01*
X62815095Y-85974805D01*
X62785459Y-85919067D01*
X62785457Y-85919064D01*
X62782565Y-85913625D01*
X62778674Y-85908855D01*
X62778672Y-85908851D01*
X62655758Y-85758143D01*
X62655755Y-85758140D01*
X62651863Y-85753368D01*
X62644966Y-85747662D01*
X62497271Y-85625478D01*
X62497266Y-85625475D01*
X62492522Y-85621550D01*
X62487103Y-85618620D01*
X62487100Y-85618618D01*
X62316032Y-85526122D01*
X62316027Y-85526120D01*
X62310612Y-85523192D01*
X62113063Y-85462040D01*
X62106938Y-85461396D01*
X62106937Y-85461396D01*
X61913526Y-85441068D01*
X61913524Y-85441068D01*
X61907397Y-85440424D01*
X61781229Y-85451906D01*
X61707591Y-85458607D01*
X61707590Y-85458607D01*
X61701450Y-85459166D01*
X61503066Y-85517554D01*
X61497601Y-85520411D01*
X61325261Y-85610508D01*
X61325257Y-85610511D01*
X61319801Y-85613363D01*
X61158635Y-85742943D01*
X61025708Y-85901360D01*
X60926082Y-86082578D01*
X60863553Y-86279696D01*
X60862867Y-86285813D01*
X60862866Y-86285817D01*
X60854640Y-86359153D01*
X60840501Y-86485206D01*
X60841726Y-86499796D01*
X60852990Y-86633923D01*
X60857806Y-86691278D01*
X60914807Y-86890066D01*
X60917625Y-86895548D01*
X60917626Y-86895552D01*
X61009334Y-87073995D01*
X61008130Y-87074614D01*
X61026257Y-87136080D01*
X61006335Y-87204224D01*
X60989352Y-87225323D01*
X56631413Y-91583262D01*
X56569101Y-91617288D01*
X56495630Y-91611198D01*
X56490150Y-91609012D01*
X56463300Y-91598300D01*
X56457643Y-91597175D01*
X56457637Y-91597173D01*
X56260863Y-91558033D01*
X56260859Y-91558033D01*
X56255195Y-91556906D01*
X56249420Y-91556830D01*
X56249416Y-91556830D01*
X56142804Y-91555434D01*
X56043031Y-91554128D01*
X56037334Y-91555107D01*
X56037333Y-91555107D01*
X55839610Y-91589082D01*
X55833913Y-91590061D01*
X55634846Y-91663501D01*
X55629885Y-91666453D01*
X55629884Y-91666453D01*
X55457463Y-91769032D01*
X55457460Y-91769034D01*
X55452495Y-91771988D01*
X55448155Y-91775794D01*
X55448151Y-91775797D01*
X55297309Y-91908083D01*
X55292968Y-91911890D01*
X55289393Y-91916425D01*
X55289392Y-91916426D01*
X55226949Y-91995634D01*
X55169067Y-92036747D01*
X55098147Y-92040041D01*
X55036705Y-92004469D01*
X55004248Y-91941326D01*
X55001999Y-91917628D01*
X55001999Y-91765331D01*
X55001629Y-91758510D01*
X54996105Y-91707648D01*
X54992479Y-91692396D01*
X54947324Y-91571946D01*
X54938786Y-91556351D01*
X54862285Y-91454276D01*
X54849724Y-91441715D01*
X54747649Y-91365214D01*
X54732054Y-91356676D01*
X54611606Y-91311522D01*
X54596351Y-91307895D01*
X54545486Y-91302369D01*
X54538672Y-91302000D01*
X53866115Y-91302000D01*
X53850876Y-91306475D01*
X53849671Y-91307865D01*
X53848000Y-91315548D01*
X53848000Y-94099884D01*
X53340000Y-94099884D01*
X53340000Y-92982115D01*
X53335525Y-92966876D01*
X53334135Y-92965671D01*
X53326452Y-92964000D01*
X52204116Y-92964000D01*
X52188877Y-92968475D01*
X52187672Y-92969865D01*
X52186001Y-92977548D01*
X52186001Y-93654669D01*
X50419000Y-93654669D01*
X50419000Y-92437885D01*
X52186000Y-92437885D01*
X52190475Y-92453124D01*
X52191865Y-92454329D01*
X52199548Y-92456000D01*
X53321885Y-92456000D01*
X53337124Y-92451525D01*
X53338329Y-92450135D01*
X53340000Y-92442452D01*
X53340000Y-91320116D01*
X53335525Y-91304877D01*
X53334135Y-91303672D01*
X53326452Y-91302001D01*
X52649331Y-91302001D01*
X52642510Y-91302371D01*
X52591648Y-91307895D01*
X52576396Y-91311521D01*
X52455946Y-91356676D01*
X52440351Y-91365214D01*
X52338276Y-91441715D01*
X52325715Y-91454276D01*
X52249214Y-91556351D01*
X52240676Y-91571946D01*
X52195522Y-91692394D01*
X52191895Y-91707649D01*
X52186369Y-91758514D01*
X52186000Y-91765328D01*
X52186000Y-92437885D01*
X50419000Y-92437885D01*
X50419000Y-66603669D01*
X52186001Y-66603669D01*
X52186371Y-66610490D01*
X52191895Y-66661352D01*
X52195521Y-66676604D01*
X52240676Y-66797054D01*
X52249214Y-66812649D01*
X52325715Y-66914724D01*
X52338276Y-66927285D01*
X52440351Y-67003786D01*
X52455946Y-67012324D01*
X52576394Y-67057478D01*
X52591649Y-67061105D01*
X52642514Y-67066631D01*
X52649328Y-67067000D01*
X53321885Y-67067000D01*
X53337124Y-67062525D01*
X53338329Y-67061135D01*
X53340000Y-67053452D01*
X53340000Y-67048884D01*
X53848000Y-67048884D01*
X53852475Y-67064123D01*
X53853865Y-67065328D01*
X53861548Y-67066999D01*
X54538669Y-67066999D01*
X54545490Y-67066629D01*
X54596352Y-67061105D01*
X54611604Y-67057479D01*
X54732054Y-67012324D01*
X54747649Y-67003786D01*
X54849724Y-66927285D01*
X54862285Y-66914724D01*
X54938786Y-66812649D01*
X54947324Y-66797054D01*
X54992478Y-66676606D01*
X54996105Y-66661351D01*
X55001631Y-66610486D01*
X55002000Y-66603672D01*
X55002000Y-66454365D01*
X55022002Y-66386244D01*
X55075658Y-66339751D01*
X55145932Y-66329647D01*
X55210512Y-66359141D01*
X55230895Y-66381642D01*
X55252350Y-66412000D01*
X55295839Y-66454365D01*
X55390932Y-66547000D01*
X55404337Y-66560059D01*
X55409133Y-66563264D01*
X55409136Y-66563266D01*
X55490085Y-66617354D01*
X55580760Y-66677941D01*
X55586062Y-66680219D01*
X55586075Y-66680226D01*
X55612738Y-66691681D01*
X55667431Y-66736949D01*
X55689000Y-66807448D01*
X55689000Y-76772113D01*
X55688127Y-76786923D01*
X55684196Y-76820136D01*
X55685888Y-76829399D01*
X55694605Y-76877126D01*
X55695255Y-76881034D01*
X55703868Y-76938326D01*
X55706956Y-76944757D01*
X55708237Y-76951771D01*
X55712578Y-76960127D01*
X55734944Y-77003184D01*
X55736713Y-77006724D01*
X55761792Y-77058952D01*
X55766634Y-77064190D01*
X55769921Y-77070518D01*
X55774184Y-77075509D01*
X55810963Y-77112288D01*
X55814392Y-77115854D01*
X55852625Y-77157214D01*
X55858919Y-77160870D01*
X55864922Y-77166247D01*
X60854372Y-82155698D01*
X60888398Y-82218010D01*
X60885379Y-82282891D01*
X60873894Y-82319096D01*
X60863553Y-82351696D01*
X60862867Y-82357813D01*
X60862866Y-82357817D01*
X60843994Y-82526062D01*
X60840501Y-82557206D01*
X60841743Y-82572000D01*
X60855902Y-82740601D01*
X60857806Y-82763278D01*
X60914807Y-82962066D01*
X60917625Y-82967548D01*
X60917626Y-82967552D01*
X61006514Y-83140509D01*
X61006517Y-83140513D01*
X61009334Y-83145995D01*
X61137786Y-83308061D01*
X61142479Y-83312055D01*
X61142480Y-83312056D01*
X61242796Y-83397431D01*
X61295271Y-83442091D01*
X61475789Y-83542980D01*
X61672466Y-83606884D01*
X61877809Y-83631370D01*
X61883944Y-83630898D01*
X61883946Y-83630898D01*
X62077856Y-83615977D01*
X62077860Y-83615976D01*
X62083998Y-83615504D01*
X62283178Y-83559892D01*
X62288682Y-83557112D01*
X62288684Y-83557111D01*
X62462262Y-83469431D01*
X62462264Y-83469430D01*
X62467763Y-83466652D01*
X62630722Y-83339334D01*
X62634748Y-83334670D01*
X62634751Y-83334667D01*
X62761819Y-83187457D01*
X62761820Y-83187455D01*
X62765848Y-83182789D01*
X62867995Y-83002979D01*
X62933270Y-82806753D01*
X62959189Y-82601586D01*
X62959602Y-82572000D01*
X62939422Y-82366189D01*
X62879651Y-82168217D01*
X62826216Y-82067721D01*
X62785459Y-81991067D01*
X62785457Y-81991064D01*
X62782565Y-81985625D01*
X62778674Y-81980855D01*
X62778672Y-81980851D01*
X62655758Y-81830143D01*
X62655755Y-81830140D01*
X62651863Y-81825368D01*
X62647114Y-81821439D01*
X62497271Y-81697478D01*
X62497266Y-81697475D01*
X62492522Y-81693550D01*
X62487103Y-81690620D01*
X62487100Y-81690618D01*
X62316032Y-81598122D01*
X62316027Y-81598120D01*
X62310612Y-81595192D01*
X62113063Y-81534040D01*
X62106938Y-81533396D01*
X62106937Y-81533396D01*
X61913526Y-81513068D01*
X61913524Y-81513068D01*
X61907397Y-81512424D01*
X61831415Y-81519339D01*
X61707588Y-81530607D01*
X61707584Y-81530608D01*
X61701450Y-81531166D01*
X61695538Y-81532906D01*
X61608683Y-81558468D01*
X61537687Y-81558512D01*
X61484014Y-81526689D01*
X56615905Y-76658580D01*
X56581879Y-76596268D01*
X56579000Y-76569485D01*
X56579000Y-66806947D01*
X56599002Y-66738826D01*
X56643433Y-66697013D01*
X56673409Y-66680226D01*
X56790717Y-66614530D01*
X56953852Y-66478852D01*
X57089530Y-66315717D01*
X57092354Y-66310674D01*
X57092357Y-66310670D01*
X57190383Y-66135632D01*
X57190384Y-66135630D01*
X57193207Y-66130589D01*
X57216891Y-66060817D01*
X57259554Y-65935136D01*
X57259555Y-65935131D01*
X57261410Y-65929667D01*
X57262977Y-65918865D01*
X57291324Y-65723355D01*
X57291857Y-65719681D01*
X57293446Y-65659000D01*
X57274031Y-65447708D01*
X57270598Y-65435533D01*
X57218004Y-65249051D01*
X57218003Y-65249049D01*
X57216436Y-65243492D01*
X57213255Y-65237040D01*
X57125145Y-65058372D01*
X57122590Y-65053191D01*
X56995636Y-64883179D01*
X56991400Y-64879263D01*
X56844066Y-64743069D01*
X56844063Y-64743067D01*
X56839826Y-64739150D01*
X56660377Y-64625926D01*
X56463300Y-64547300D01*
X56457643Y-64546175D01*
X56457637Y-64546173D01*
X56260863Y-64507033D01*
X56260859Y-64507033D01*
X56255195Y-64505906D01*
X56249420Y-64505830D01*
X56249416Y-64505830D01*
X56142804Y-64504434D01*
X56043031Y-64503128D01*
X56037334Y-64504107D01*
X56037333Y-64504107D01*
X56020305Y-64507033D01*
X55833913Y-64539061D01*
X55634846Y-64612501D01*
X55629885Y-64615453D01*
X55629884Y-64615453D01*
X55457463Y-64718032D01*
X55457460Y-64718034D01*
X55452495Y-64720988D01*
X55448155Y-64724794D01*
X55448151Y-64724797D01*
X55297309Y-64857083D01*
X55292968Y-64860890D01*
X55289393Y-64865425D01*
X55289392Y-64865426D01*
X55226949Y-64944634D01*
X55169067Y-64985747D01*
X55098147Y-64989041D01*
X55036705Y-64953469D01*
X55004248Y-64890326D01*
X55001999Y-64866628D01*
X55001999Y-64714331D01*
X55001629Y-64707510D01*
X54996105Y-64656648D01*
X54992479Y-64641396D01*
X54947324Y-64520946D01*
X54938786Y-64505351D01*
X54862285Y-64403276D01*
X54849724Y-64390715D01*
X54747649Y-64314214D01*
X54732054Y-64305676D01*
X54611606Y-64260522D01*
X54596351Y-64256895D01*
X54545486Y-64251369D01*
X54538672Y-64251000D01*
X53866115Y-64251000D01*
X53850876Y-64255475D01*
X53849671Y-64256865D01*
X53848000Y-64264548D01*
X53848000Y-67048884D01*
X53340000Y-67048884D01*
X53340000Y-65931115D01*
X53335525Y-65915876D01*
X53334135Y-65914671D01*
X53326452Y-65913000D01*
X52204116Y-65913000D01*
X52188877Y-65917475D01*
X52187672Y-65918865D01*
X52186001Y-65926548D01*
X52186001Y-66603669D01*
X50419000Y-66603669D01*
X50419000Y-65386885D01*
X52186000Y-65386885D01*
X52190475Y-65402124D01*
X52191865Y-65403329D01*
X52199548Y-65405000D01*
X53321885Y-65405000D01*
X53337124Y-65400525D01*
X53338329Y-65399135D01*
X53340000Y-65391452D01*
X53340000Y-64269116D01*
X53335525Y-64253877D01*
X53334135Y-64252672D01*
X53326452Y-64251001D01*
X52649331Y-64251001D01*
X52642510Y-64251371D01*
X52591648Y-64256895D01*
X52576396Y-64260521D01*
X52455946Y-64305676D01*
X52440351Y-64314214D01*
X52338276Y-64390715D01*
X52325715Y-64403276D01*
X52249214Y-64505351D01*
X52240676Y-64520946D01*
X52195522Y-64641394D01*
X52191895Y-64656649D01*
X52186369Y-64707514D01*
X52186000Y-64714328D01*
X52186000Y-65386885D01*
X50419000Y-65386885D01*
X50419000Y-61340000D01*
X50439002Y-61271879D01*
X50492658Y-61225386D01*
X50545000Y-61214000D01*
X111380000Y-61214000D01*
X111448121Y-61234002D01*
G37*
G04 #@! TD.AperFunction*
M02*
