G04 #@! TF.GenerationSoftware,KiCad,Pcbnew,(6.0.1-0)*
G04 #@! TF.CreationDate,2022-09-12T10:47:36+02:00*
G04 #@! TF.ProjectId,avrCubeRev2,61767243-7562-4655-9265-76322e6b6963,rev?*
G04 #@! TF.SameCoordinates,Original*
G04 #@! TF.FileFunction,Legend,Bot*
G04 #@! TF.FilePolarity,Positive*
%FSLAX46Y46*%
G04 Gerber Fmt 4.6, Leading zero omitted, Abs format (unit mm)*
G04 Created by KiCad (PCBNEW (6.0.1-0)) date 2022-09-12 10:47:36*
%MOMM*%
%LPD*%
G01*
G04 APERTURE LIST*
%ADD10C,0.120000*%
%ADD11C,0.304799*%
%ADD12C,0.800000*%
%ADD13C,0.300000*%
%ADD14C,0.150000*%
G04 APERTURE END LIST*
D10*
X59123106Y-71500000D02*
G75*
G03*
X59123106Y-71500000I-4123106J0D01*
G01*
X111123106Y-71500000D02*
G75*
G03*
X111123106Y-71500000I-4123106J0D01*
G01*
X58996211Y-114000000D02*
G75*
G03*
X58996211Y-114000000I-4123106J0D01*
G01*
X111123106Y-114000000D02*
G75*
G03*
X111123106Y-114000000I-4123106J0D01*
G01*
D11*
X99112912Y-92376936D02*
X97765256Y-94697736D01*
X100456232Y-94697736D02*
X99112912Y-92376936D01*
X99112912Y-92376936D02*
X99112912Y-92376936D01*
X87767480Y-102888240D02*
X87771320Y-102716360D01*
X87771320Y-102716360D02*
X87771320Y-102659504D01*
X87771320Y-102659504D02*
X87771320Y-102602208D01*
X87771320Y-102602208D02*
X87766120Y-102431208D01*
X87766120Y-102431208D02*
X87725320Y-102195528D01*
X87725320Y-102195528D02*
X87612920Y-102010632D01*
X87612920Y-102010632D02*
X87447560Y-101936416D01*
X87447560Y-101936416D02*
X87392040Y-101936416D01*
X87392040Y-101936416D02*
X87341640Y-101936416D01*
X87341640Y-101936416D02*
X87190120Y-102005432D01*
X87190120Y-102005432D02*
X87086040Y-102176432D01*
X87086040Y-102176432D02*
X87047800Y-102395616D01*
X87047800Y-102395616D02*
X87042120Y-102555776D01*
X87042120Y-102555776D02*
X87042120Y-102609152D01*
X87042120Y-102609152D02*
X87042120Y-102609152D01*
X85327320Y-102606120D02*
X85327320Y-102534944D01*
X85327320Y-102534944D02*
X85341240Y-102321832D01*
X85341240Y-102321832D02*
X85407240Y-102051864D01*
X85407240Y-102051864D02*
X85562120Y-101849608D01*
X85562120Y-101849608D02*
X85773160Y-101770184D01*
X85773160Y-101770184D02*
X85843320Y-101770184D01*
X85843320Y-101770184D02*
X85904120Y-101770184D01*
X85904120Y-101770184D02*
X86085160Y-101831816D01*
X86085160Y-101831816D02*
X86233160Y-101973304D01*
X86233160Y-101973304D02*
X86256120Y-102013240D01*
X86256120Y-102013240D02*
X86259560Y-101806640D01*
X86259560Y-101806640D02*
X86442760Y-101806640D01*
X86442760Y-101806640D02*
X86438920Y-101838320D01*
X86438920Y-101838320D02*
X86429800Y-102106553D01*
X86429800Y-102106553D02*
X86429800Y-102196400D01*
X86429800Y-102196400D02*
X86429800Y-104124349D01*
X86429800Y-104124349D02*
X86239640Y-104124349D01*
X86239640Y-104124349D02*
X86239640Y-103315320D01*
X86239640Y-103315320D02*
X86214040Y-103350040D01*
X86214040Y-103350040D02*
X86071640Y-103463759D01*
X86071640Y-103463759D02*
X85908040Y-103508463D01*
X85908040Y-103508463D02*
X85853320Y-103508463D01*
X85853320Y-103508463D02*
X85778200Y-103508463D01*
X85778200Y-103508463D02*
X85552120Y-103421657D01*
X85552120Y-103421657D02*
X85395880Y-103202040D01*
X85395880Y-103202040D02*
X85336920Y-102909944D01*
X85336920Y-102909944D02*
X85327320Y-102682072D01*
X85327320Y-102682072D02*
X85327320Y-102606120D01*
X85327320Y-102606120D02*
X85327320Y-102606120D01*
X85520440Y-102609152D02*
X85520440Y-102664704D01*
X85520440Y-102664704D02*
X85522680Y-102832248D01*
X85522680Y-102832248D02*
X85555240Y-103073136D01*
X85555240Y-103073136D02*
X85656760Y-103266272D01*
X85656760Y-103266272D02*
X85814360Y-103345272D01*
X85814360Y-103345272D02*
X85866760Y-103345272D01*
X85866760Y-103345272D02*
X85923640Y-103345272D01*
X85923640Y-103345272D02*
X86093800Y-103278432D01*
X86093800Y-103278432D02*
X86207160Y-103110456D01*
X86207160Y-103110456D02*
X86245640Y-102888240D01*
X86245640Y-102888240D02*
X86249720Y-102716360D01*
X86249720Y-102716360D02*
X86249720Y-102659504D01*
X86249720Y-102659504D02*
X86249720Y-102602208D01*
X86249720Y-102602208D02*
X86244440Y-102431208D01*
X86244440Y-102431208D02*
X86203720Y-102195528D01*
X86203720Y-102195528D02*
X86091240Y-102010632D01*
X86091240Y-102010632D02*
X85925880Y-101936416D01*
X85925880Y-101936416D02*
X85870360Y-101936416D01*
X85870360Y-101936416D02*
X85819880Y-101936416D01*
X85819880Y-101936416D02*
X85668440Y-102005432D01*
X85668440Y-102005432D02*
X85564360Y-102176432D01*
X85564360Y-102176432D02*
X85526120Y-102395616D01*
X85526120Y-102395616D02*
X85520440Y-102555776D01*
X85520440Y-102555776D02*
X85520440Y-102609152D01*
X85520440Y-102609152D02*
X85520440Y-102609152D01*
X84717880Y-101077472D02*
X84908040Y-101077472D01*
X84908040Y-101077472D02*
X84908040Y-103485025D01*
X84908040Y-103485025D02*
X84717880Y-103485025D01*
X84717880Y-103485025D02*
X84717880Y-101077472D01*
X84717880Y-101077472D02*
X84717880Y-101077472D01*
X84022200Y-101114360D02*
X84251800Y-101114360D01*
X84251800Y-101114360D02*
X84251800Y-101366976D01*
X84251800Y-101366976D02*
X84022200Y-101366976D01*
X84022200Y-101366976D02*
X84022200Y-101114360D01*
X84022200Y-101114360D02*
X84022200Y-101114360D01*
X84042120Y-101806640D02*
X84231800Y-101806640D01*
X84231800Y-101806640D02*
X84231800Y-103485025D01*
X84231800Y-103485025D02*
X84042120Y-103485025D01*
X84042120Y-103485025D02*
X84042120Y-101806640D01*
X84042120Y-101806640D02*
X84042120Y-101806640D01*
X82517000Y-102676000D02*
X82517000Y-102608288D01*
X82517000Y-102608288D02*
X82516120Y-102428160D01*
X82516120Y-102428160D02*
X82517000Y-102406032D01*
X82517000Y-102406032D02*
X82519560Y-102345264D01*
X82519560Y-102345264D02*
X82545720Y-102163408D01*
X82545720Y-102163408D02*
X82627240Y-101960720D01*
X82627240Y-101960720D02*
X82787000Y-101821400D01*
X82787000Y-101821400D02*
X82984040Y-101770184D01*
X82984040Y-101770184D02*
X83049560Y-101770184D01*
X83049560Y-101770184D02*
X83132040Y-101770184D01*
X83132040Y-101770184D02*
X83379480Y-101858720D01*
X83379480Y-101858720D02*
X83549560Y-102087449D01*
X83549560Y-102087449D02*
X83613320Y-102399520D01*
X83613320Y-102399520D02*
X83622440Y-102654296D01*
X83622440Y-102654296D02*
X83622440Y-102739360D01*
X83622440Y-102739360D02*
X83622440Y-102814448D01*
X83622440Y-102814448D02*
X83603320Y-103040584D01*
X83603320Y-103040584D02*
X83524760Y-103288408D01*
X83524760Y-103288408D02*
X83357240Y-103456380D01*
X83357240Y-103456380D02*
X83141560Y-103518445D01*
X83141560Y-103518445D02*
X83069480Y-103518445D01*
X83069480Y-103518445D02*
X83005720Y-103518445D01*
X83005720Y-103518445D02*
X82814360Y-103475911D01*
X82814360Y-103475911D02*
X82649800Y-103360025D01*
X82649800Y-103360025D02*
X82560040Y-103186416D01*
X82560040Y-103186416D02*
X82529560Y-103025816D01*
X82529560Y-103025816D02*
X82527000Y-102972440D01*
X82527000Y-102972440D02*
X82716680Y-102972440D01*
X82716680Y-102972440D02*
X82718360Y-103010632D01*
X82718360Y-103010632D02*
X82736120Y-103124784D01*
X82736120Y-103124784D02*
X82789560Y-103249784D01*
X82789560Y-103249784D02*
X82895480Y-103333984D01*
X82895480Y-103333984D02*
X83026120Y-103365234D01*
X83026120Y-103365234D02*
X83069480Y-103365234D01*
X83069480Y-103365234D02*
X83120360Y-103365234D01*
X83120360Y-103365234D02*
X83271800Y-103310984D01*
X83271800Y-103310984D02*
X83378120Y-103170792D01*
X83378120Y-103170792D02*
X83419320Y-102979816D01*
X83419320Y-102979816D02*
X83426200Y-102823992D01*
X83426200Y-102823992D02*
X83426200Y-102772352D01*
X83426200Y-102772352D02*
X83426200Y-102676000D01*
X83426200Y-102676000D02*
X82517000Y-102676000D01*
X82517000Y-102676000D02*
X82517000Y-102676000D01*
X82713560Y-102522784D02*
X83422360Y-102522784D01*
X83422360Y-102522784D02*
X83422360Y-102467664D01*
X83422360Y-102467664D02*
X83414600Y-102320960D01*
X83414600Y-102320960D02*
X83412760Y-102302728D01*
X83412760Y-102302728D02*
X83408920Y-102264976D01*
X83408920Y-102264976D02*
X83381160Y-102153432D01*
X83381160Y-102153432D02*
X83314760Y-102032760D01*
X83314760Y-102032760D02*
X83205800Y-101952472D01*
X83205800Y-101952472D02*
X83086440Y-101923392D01*
X83086440Y-101923392D02*
X83046440Y-101923392D01*
X83046440Y-101923392D02*
X83009560Y-101923392D01*
X83009560Y-101923392D02*
X82897720Y-101955944D01*
X82897720Y-101955944D02*
X82799560Y-102043616D01*
X82799560Y-102043616D02*
X82742200Y-102169048D01*
X82742200Y-102169048D02*
X82719640Y-102278864D01*
X82719640Y-102278864D02*
X82716680Y-102316184D01*
X82716680Y-102316184D02*
X82715320Y-102332688D01*
X82715320Y-102332688D02*
X82713560Y-102475040D01*
X82713560Y-102475040D02*
X82713560Y-102522784D01*
X82713560Y-102522784D02*
X82713560Y-102522784D01*
X81058680Y-103485025D02*
X81060360Y-103458116D01*
X81060360Y-103458116D02*
X81071640Y-103235896D01*
X81071640Y-103235896D02*
X81071640Y-103162112D01*
X81071640Y-103162112D02*
X81071640Y-101077472D01*
X81071640Y-101077472D02*
X81261320Y-101077472D01*
X81261320Y-101077472D02*
X81261320Y-101966792D01*
X81261320Y-101966792D02*
X81280040Y-101935984D01*
X81280040Y-101935984D02*
X81399800Y-101822264D01*
X81399800Y-101822264D02*
X81578200Y-101770184D01*
X81578200Y-101770184D02*
X81637640Y-101770184D01*
X81637640Y-101770184D02*
X81707160Y-101770184D01*
X81707160Y-101770184D02*
X81915480Y-101848744D01*
X81915480Y-101848744D02*
X82078680Y-102049264D01*
X82078680Y-102049264D02*
X82155000Y-102319232D01*
X82155000Y-102319232D02*
X82174120Y-102534072D01*
X82174120Y-102534072D02*
X82174120Y-102606120D01*
X82174120Y-102606120D02*
X82174120Y-102682944D01*
X82174120Y-102682944D02*
X82161560Y-102914272D01*
X82161560Y-102914272D02*
X82096040Y-103207248D01*
X82096040Y-103207248D02*
X81935320Y-103425564D01*
X81935320Y-103425564D02*
X81712360Y-103511501D01*
X81712360Y-103511501D02*
X81637640Y-103511501D01*
X81637640Y-103511501D02*
X81580360Y-103511501D01*
X81580360Y-103511501D02*
X81407560Y-103456814D01*
X81407560Y-103456814D02*
X81270040Y-103324432D01*
X81270040Y-103324432D02*
X81244920Y-103285376D01*
X81244920Y-103285376D02*
X81241320Y-103485025D01*
X81241320Y-103485025D02*
X81058680Y-103485025D01*
X81058680Y-103485025D02*
X81058680Y-103485025D01*
X81251800Y-102659504D02*
X81251800Y-102720704D01*
X81251800Y-102720704D02*
X81259240Y-102905592D01*
X81259240Y-102905592D02*
X81303480Y-103126952D01*
X81303480Y-103126952D02*
X81417560Y-103286672D01*
X81417560Y-103286672D02*
X81580360Y-103348304D01*
X81580360Y-103348304D02*
X81634600Y-103348304D01*
X81634600Y-103348304D02*
X81679800Y-103348304D01*
X81679800Y-103348304D02*
X81813880Y-103293616D01*
X81813880Y-103293616D02*
X81919320Y-103140841D01*
X81919320Y-103140841D02*
X81968760Y-102907328D01*
X81968760Y-102907328D02*
X81981000Y-102683376D01*
X81981000Y-102683376D02*
X81981000Y-102609152D01*
X81981000Y-102609152D02*
X81981000Y-102554472D01*
X81981000Y-102554472D02*
X81973160Y-102390408D01*
X81973160Y-102390408D02*
X81929320Y-102169488D01*
X81929320Y-102169488D02*
X81820760Y-101998488D01*
X81820760Y-101998488D02*
X81668440Y-101929904D01*
X81668440Y-101929904D02*
X81617720Y-101929904D01*
X81617720Y-101929904D02*
X81567800Y-101929904D01*
X81567800Y-101929904D02*
X81417560Y-101986760D01*
X81417560Y-101986760D02*
X81307800Y-102142144D01*
X81307800Y-102142144D02*
X81261320Y-102373920D01*
X81261320Y-102373920D02*
X81251800Y-102587888D01*
X81251800Y-102587888D02*
X81251800Y-102659504D01*
X81251800Y-102659504D02*
X81251800Y-102659504D01*
X78690600Y-102912104D02*
X78690600Y-102843960D01*
X78690600Y-102843960D02*
X78731480Y-102640408D01*
X78731480Y-102640408D02*
X78841640Y-102455504D01*
X78841640Y-102455504D02*
X79003160Y-102319664D01*
X79003160Y-102319664D02*
X79148920Y-102226776D01*
X79148920Y-102226776D02*
X79197160Y-102196400D01*
X79197160Y-102196400D02*
X79243160Y-102167320D01*
X79243160Y-102167320D02*
X79382920Y-102084848D01*
X79382920Y-102084848D02*
X79541640Y-101972440D01*
X79541640Y-101972440D02*
X79652040Y-101824872D01*
X79652040Y-101824872D02*
X79693240Y-101661240D01*
X79693240Y-101661240D02*
X79693240Y-101606984D01*
X79693240Y-101606984D02*
X79693240Y-101564448D01*
X79693240Y-101564448D02*
X79666680Y-101438152D01*
X79666680Y-101438152D02*
X79589480Y-101311416D01*
X79589480Y-101311416D02*
X79465800Y-101231552D01*
X79465800Y-101231552D02*
X79342120Y-101203776D01*
X79342120Y-101203776D02*
X79300440Y-101203776D01*
X79300440Y-101203776D02*
X79252680Y-101203776D01*
X79252680Y-101203776D02*
X79109000Y-101232848D01*
X79109000Y-101232848D02*
X78989640Y-101316616D01*
X78989640Y-101316616D02*
X78928040Y-101446832D01*
X78928040Y-101446832D02*
X78910680Y-101574432D01*
X78910680Y-101574432D02*
X78910680Y-101616976D01*
X78910680Y-101616976D02*
X78910680Y-101670352D01*
X78910680Y-101670352D02*
X78704040Y-101670352D01*
X78704040Y-101670352D02*
X78704040Y-101597008D01*
X78704040Y-101597008D02*
X78704040Y-101534072D01*
X78704040Y-101534072D02*
X78744040Y-101345264D01*
X78744040Y-101345264D02*
X78859000Y-101169048D01*
X78859000Y-101169048D02*
X79044360Y-101064888D01*
X79044360Y-101064888D02*
X79231800Y-101031032D01*
X79231800Y-101031032D02*
X79293880Y-101031032D01*
X79293880Y-101031032D02*
X79355560Y-101031032D01*
X79355560Y-101031032D02*
X79540040Y-101070528D01*
X79540040Y-101070528D02*
X79733560Y-101184672D01*
X79733560Y-101184672D02*
X79860760Y-101367840D01*
X79860760Y-101367840D02*
X79906360Y-101551864D01*
X79906360Y-101551864D02*
X79906360Y-101613496D01*
X79906360Y-101613496D02*
X79906360Y-101679904D01*
X79906360Y-101679904D02*
X79859480Y-101880432D01*
X79859480Y-101880432D02*
X79731000Y-102074872D01*
X79731000Y-102074872D02*
X79538680Y-102228952D01*
X79538680Y-102228952D02*
X79360360Y-102340064D01*
X79360360Y-102340064D02*
X79300440Y-102376520D01*
X79300440Y-102376520D02*
X79262680Y-102399088D01*
X79262680Y-102399088D02*
X79150200Y-102468528D01*
X79150200Y-102468528D02*
X79023480Y-102572696D01*
X79023480Y-102572696D02*
X78936680Y-102715496D01*
X78936680Y-102715496D02*
X78904120Y-102870440D01*
X78904120Y-102870440D02*
X78904120Y-102922096D01*
X78904120Y-102922096D02*
X78904120Y-102967232D01*
X78904120Y-102967232D02*
X78925480Y-103102648D01*
X78925480Y-103102648D02*
X78994440Y-103239800D01*
X78994440Y-103239800D02*
X79118120Y-103327472D01*
X79118120Y-103327472D02*
X79257480Y-103358290D01*
X79257480Y-103358290D02*
X79303880Y-103358290D01*
X79303880Y-103358290D02*
X79356040Y-103358290D01*
X79356040Y-103358290D02*
X79511800Y-103321400D01*
X79511800Y-103321400D02*
X79641160Y-103218528D01*
X79641160Y-103218528D02*
X79707560Y-103060544D01*
X79707560Y-103060544D02*
X79726200Y-102909072D01*
X79726200Y-102909072D02*
X79726200Y-102858720D01*
X79726200Y-102858720D02*
X79726200Y-102832248D01*
X79726200Y-102832248D02*
X79936200Y-102832248D01*
X79936200Y-102832248D02*
X79936200Y-102858720D01*
X79936200Y-102858720D02*
X79936200Y-102930776D01*
X79936200Y-102930776D02*
X79900200Y-103147784D01*
X79900200Y-103147784D02*
X79787000Y-103358723D01*
X79787000Y-103358723D02*
X79589480Y-103487630D01*
X79589480Y-103487630D02*
X79372920Y-103531466D01*
X79372920Y-103531466D02*
X79300440Y-103531466D01*
X79300440Y-103531466D02*
X79237480Y-103531466D01*
X79237480Y-103531466D02*
X79047800Y-103489800D01*
X79047800Y-103489800D02*
X78855560Y-103369140D01*
X78855560Y-103369140D02*
X78733560Y-103174696D01*
X78733560Y-103174696D02*
X78690600Y-102977648D01*
X78690600Y-102977648D02*
X78690600Y-102912104D01*
X78690600Y-102912104D02*
X78690600Y-102912104D01*
X77322600Y-102282760D02*
X77323880Y-102228088D01*
X77323880Y-102228088D02*
X77346920Y-102064888D01*
X77346920Y-102064888D02*
X77421480Y-101903864D01*
X77421480Y-101903864D02*
X77563880Y-101804040D01*
X77563880Y-101804040D02*
X77735320Y-101770184D01*
X77735320Y-101770184D02*
X77792120Y-101770184D01*
X77792120Y-101770184D02*
X77870360Y-101770184D01*
X77870360Y-101770184D02*
X78104200Y-101849176D01*
X78104200Y-101849176D02*
X78267880Y-102054472D01*
X78267880Y-102054472D02*
X78330760Y-102337448D01*
X78330760Y-102337448D02*
X78341240Y-102570960D01*
X78341240Y-102570960D02*
X78341240Y-102649088D01*
X78341240Y-102649088D02*
X78341240Y-102736760D01*
X78341240Y-102736760D02*
X78327320Y-102999784D01*
X78327320Y-102999784D02*
X78258760Y-103274520D01*
X78258760Y-103274520D02*
X78095560Y-103454210D01*
X78095560Y-103454210D02*
X77872920Y-103518445D01*
X77872920Y-103518445D02*
X77798680Y-103518445D01*
X77798680Y-103518445D02*
X77744440Y-103518445D01*
X77744440Y-103518445D02*
X77581640Y-103481120D01*
X77581640Y-103481120D02*
X77435000Y-103375216D01*
X77435000Y-103375216D02*
X77352040Y-103210288D01*
X77352040Y-103210288D02*
X77325560Y-103048824D01*
X77325560Y-103048824D02*
X77325560Y-102995440D01*
X77325560Y-102995440D02*
X77515240Y-102995440D01*
X77515240Y-102995440D02*
X77516600Y-103031896D01*
X77516600Y-103031896D02*
X77530040Y-103141273D01*
X77530040Y-103141273D02*
X77573480Y-103258896D01*
X77573480Y-103258896D02*
X77661160Y-103336584D01*
X77661160Y-103336584D02*
X77771800Y-103365234D01*
X77771800Y-103365234D02*
X77808680Y-103365234D01*
X77808680Y-103365234D02*
X77847240Y-103365234D01*
X77847240Y-103365234D02*
X77961880Y-103334848D01*
X77961880Y-103334848D02*
X78065160Y-103224608D01*
X78065160Y-103224608D02*
X78123320Y-103006728D01*
X78123320Y-103006728D02*
X78141560Y-102741096D01*
X78141560Y-102741096D02*
X78141560Y-102652560D01*
X78141560Y-102652560D02*
X78141560Y-102587448D01*
X78141560Y-102587448D02*
X78135000Y-102392144D01*
X78135000Y-102392144D02*
X78095160Y-102157760D01*
X78095160Y-102157760D02*
X77992680Y-101988496D01*
X77992680Y-101988496D02*
X77847240Y-101923392D01*
X77847240Y-101923392D02*
X77798680Y-101923392D01*
X77798680Y-101923392D02*
X77763160Y-101923392D01*
X77763160Y-101923392D02*
X77655480Y-101950304D01*
X77655480Y-101950304D02*
X77568200Y-102025384D01*
X77568200Y-102025384D02*
X77524360Y-102139544D01*
X77524360Y-102139544D02*
X77512200Y-102246744D01*
X77512200Y-102246744D02*
X77512200Y-102282760D01*
X77512200Y-102282760D02*
X77322600Y-102282760D01*
X77322600Y-102282760D02*
X77322600Y-102282760D01*
X76756120Y-101114360D02*
X76985800Y-101114360D01*
X76985800Y-101114360D02*
X76985800Y-101366976D01*
X76985800Y-101366976D02*
X76756120Y-101366976D01*
X76756120Y-101366976D02*
X76756120Y-101114360D01*
X76756120Y-101114360D02*
X76756120Y-101114360D01*
X76776600Y-101806640D02*
X76965800Y-101806640D01*
X76965800Y-101806640D02*
X76965800Y-103485025D01*
X76965800Y-103485025D02*
X76776600Y-103485025D01*
X76776600Y-103485025D02*
X76776600Y-101806640D01*
X76776600Y-101806640D02*
X76776600Y-101806640D01*
X75250920Y-102676000D02*
X75250920Y-102608288D01*
X75250920Y-102608288D02*
X75250440Y-102428160D01*
X75250440Y-102428160D02*
X75250920Y-102406032D01*
X75250920Y-102406032D02*
X75253560Y-102345264D01*
X75253560Y-102345264D02*
X75280040Y-102163408D01*
X75280040Y-102163408D02*
X75361560Y-101960720D01*
X75361560Y-101960720D02*
X75521320Y-101821400D01*
X75521320Y-101821400D02*
X75718360Y-101770184D01*
X75718360Y-101770184D02*
X75783880Y-101770184D01*
X75783880Y-101770184D02*
X75866360Y-101770184D01*
X75866360Y-101770184D02*
X76113800Y-101858720D01*
X76113800Y-101858720D02*
X76283880Y-102087449D01*
X76283880Y-102087449D02*
X76347720Y-102399520D01*
X76347720Y-102399520D02*
X76356760Y-102654296D01*
X76356760Y-102654296D02*
X76356760Y-102739360D01*
X76356760Y-102739360D02*
X76356760Y-102814448D01*
X76356760Y-102814448D02*
X76337800Y-103040584D01*
X76337800Y-103040584D02*
X76259240Y-103288408D01*
X76259240Y-103288408D02*
X76091240Y-103456380D01*
X76091240Y-103456380D02*
X75875880Y-103518445D01*
X75875880Y-103518445D02*
X75803880Y-103518445D01*
X75803880Y-103518445D02*
X75740120Y-103518445D01*
X75740120Y-103518445D02*
X75548680Y-103475911D01*
X75548680Y-103475911D02*
X75384200Y-103360025D01*
X75384200Y-103360025D02*
X75294360Y-103186416D01*
X75294360Y-103186416D02*
X75263880Y-103025816D01*
X75263880Y-103025816D02*
X75261320Y-102972440D01*
X75261320Y-102972440D02*
X75451000Y-102972440D01*
X75451000Y-102972440D02*
X75452760Y-103010632D01*
X75452760Y-103010632D02*
X75470600Y-103124784D01*
X75470600Y-103124784D02*
X75523880Y-103249784D01*
X75523880Y-103249784D02*
X75629480Y-103333984D01*
X75629480Y-103333984D02*
X75760440Y-103365234D01*
X75760440Y-103365234D02*
X75803880Y-103365234D01*
X75803880Y-103365234D02*
X75854680Y-103365234D01*
X75854680Y-103365234D02*
X76005720Y-103310984D01*
X76005720Y-103310984D02*
X76112040Y-103170792D01*
X76112040Y-103170792D02*
X76153240Y-102979816D01*
X76153240Y-102979816D02*
X76160200Y-102823992D01*
X76160200Y-102823992D02*
X76160200Y-102772352D01*
X76160200Y-102772352D02*
X76160200Y-102676000D01*
X76160200Y-102676000D02*
X75250920Y-102676000D01*
X75250920Y-102676000D02*
X75250920Y-102676000D01*
X75447560Y-102522784D02*
X76156760Y-102522784D01*
X76156760Y-102522784D02*
X76156760Y-102467664D01*
X76156760Y-102467664D02*
X76148440Y-102320960D01*
X76148440Y-102320960D02*
X76146760Y-102302728D01*
X76146760Y-102302728D02*
X76142920Y-102264976D01*
X76142920Y-102264976D02*
X76115160Y-102153432D01*
X76115160Y-102153432D02*
X76049160Y-102032760D01*
X76049160Y-102032760D02*
X75940120Y-101952472D01*
X75940120Y-101952472D02*
X75820360Y-101923392D01*
X75820360Y-101923392D02*
X75780440Y-101923392D01*
X75780440Y-101923392D02*
X75743560Y-101923392D01*
X75743560Y-101923392D02*
X75632040Y-101955944D01*
X75632040Y-101955944D02*
X75533880Y-102043616D01*
X75533880Y-102043616D02*
X75476680Y-102169048D01*
X75476680Y-102169048D02*
X75454040Y-102278864D01*
X75454040Y-102278864D02*
X75451000Y-102316184D01*
X75451000Y-102316184D02*
X75449720Y-102332688D01*
X75449720Y-102332688D02*
X75447560Y-102475040D01*
X75447560Y-102475040D02*
X75447560Y-102522784D01*
X75447560Y-102522784D02*
X75447560Y-102522784D01*
X73776120Y-103485025D02*
X73776120Y-102299696D01*
X73776120Y-102299696D02*
X73776120Y-102246744D01*
X73776120Y-102246744D02*
X73799160Y-102088761D01*
X73799160Y-102088761D02*
X73875000Y-101921216D01*
X73875000Y-101921216D02*
X74013880Y-101810104D01*
X74013880Y-101810104D02*
X74172760Y-101770184D01*
X74172760Y-101770184D02*
X74225800Y-101770184D01*
X74225800Y-101770184D02*
X74290920Y-101770184D01*
X74290920Y-101770184D02*
X74484920Y-101841792D01*
X74484920Y-101841792D02*
X74643720Y-101995440D01*
X74643720Y-101995440D02*
X74668440Y-102036672D01*
X74668440Y-102036672D02*
X74671880Y-101806640D01*
X74671880Y-101806640D02*
X74855160Y-101806640D01*
X74855160Y-101806640D02*
X74852920Y-101840496D01*
X74852920Y-101840496D02*
X74841640Y-102127385D01*
X74841640Y-102127385D02*
X74841640Y-102223304D01*
X74841640Y-102223304D02*
X74841640Y-103485025D01*
X74841640Y-103485025D02*
X74651560Y-103485025D01*
X74651560Y-103485025D02*
X74651560Y-102499352D01*
X74651560Y-102499352D02*
X74651560Y-102448992D01*
X74651560Y-102448992D02*
X74634600Y-102298832D01*
X74634600Y-102298832D02*
X74573480Y-102117841D01*
X74573480Y-102117841D02*
X74454040Y-101986760D01*
X74454040Y-101986760D02*
X74310360Y-101936416D01*
X74310360Y-101936416D02*
X74262200Y-101936416D01*
X74262200Y-101936416D02*
X74218760Y-101936416D01*
X74218760Y-101936416D02*
X74088120Y-101983288D01*
X74088120Y-101983288D02*
X74000440Y-102103952D01*
X74000440Y-102103952D02*
X73969640Y-102266704D01*
X73969640Y-102266704D02*
X73965800Y-102396048D01*
X73965800Y-102396048D02*
X73965800Y-102439448D01*
X73965800Y-102439448D02*
X73965800Y-103485025D01*
X73965800Y-103485025D02*
X73776120Y-103485025D01*
X73776120Y-103485025D02*
X73776120Y-103485025D01*
X72344201Y-102282760D02*
X72345560Y-102228088D01*
X72345560Y-102228088D02*
X72369001Y-102064888D01*
X72369001Y-102064888D02*
X72443240Y-101903864D01*
X72443240Y-101903864D02*
X72586040Y-101804040D01*
X72586040Y-101804040D02*
X72757000Y-101770184D01*
X72757000Y-101770184D02*
X72813880Y-101770184D01*
X72813880Y-101770184D02*
X72892040Y-101770184D01*
X72892040Y-101770184D02*
X73125880Y-101849176D01*
X73125880Y-101849176D02*
X73290040Y-102054472D01*
X73290040Y-102054472D02*
X73352920Y-102337448D01*
X73352920Y-102337448D02*
X73363320Y-102570960D01*
X73363320Y-102570960D02*
X73363320Y-102649088D01*
X73363320Y-102649088D02*
X73363320Y-102736760D01*
X73363320Y-102736760D02*
X73349480Y-102999784D01*
X73349480Y-102999784D02*
X73280440Y-103274520D01*
X73280440Y-103274520D02*
X73117240Y-103454210D01*
X73117240Y-103454210D02*
X72894600Y-103518445D01*
X72894600Y-103518445D02*
X72820361Y-103518445D01*
X72820361Y-103518445D02*
X72766121Y-103518445D01*
X72766121Y-103518445D02*
X72603320Y-103481120D01*
X72603320Y-103481120D02*
X72456680Y-103375216D01*
X72456680Y-103375216D02*
X72373800Y-103210288D01*
X72373800Y-103210288D02*
X72347241Y-103048824D01*
X72347241Y-103048824D02*
X72347241Y-102995440D01*
X72347241Y-102995440D02*
X72537320Y-102995440D01*
X72537320Y-102995440D02*
X72538681Y-103031896D01*
X72538681Y-103031896D02*
X72552120Y-103141273D01*
X72552120Y-103141273D02*
X72595560Y-103258896D01*
X72595560Y-103258896D02*
X72683240Y-103336584D01*
X72683240Y-103336584D02*
X72793880Y-103365234D01*
X72793880Y-103365234D02*
X72830360Y-103365234D01*
X72830360Y-103365234D02*
X72869001Y-103365234D01*
X72869001Y-103365234D02*
X72983560Y-103334848D01*
X72983560Y-103334848D02*
X73086920Y-103224608D01*
X73086920Y-103224608D02*
X73145000Y-103006728D01*
X73145000Y-103006728D02*
X73163240Y-102741096D01*
X73163240Y-102741096D02*
X73163240Y-102652560D01*
X73163240Y-102652560D02*
X73163240Y-102587448D01*
X73163240Y-102587448D02*
X73156760Y-102392144D01*
X73156760Y-102392144D02*
X73116761Y-102157760D01*
X73116761Y-102157760D02*
X73014760Y-101988496D01*
X73014760Y-101988496D02*
X72869001Y-101923392D01*
X72869001Y-101923392D02*
X72820361Y-101923392D01*
X72820361Y-101923392D02*
X72784760Y-101923392D01*
X72784760Y-101923392D02*
X72677561Y-101950304D01*
X72677561Y-101950304D02*
X72589881Y-102025384D01*
X72589881Y-102025384D02*
X72546120Y-102139544D01*
X72546120Y-102139544D02*
X72533880Y-102246744D01*
X72533880Y-102246744D02*
X72533880Y-102282760D01*
X72533880Y-102282760D02*
X72344201Y-102282760D01*
X72344201Y-102282760D02*
X72344201Y-102282760D01*
X70949240Y-102676000D02*
X70949240Y-102608288D01*
X70949240Y-102608288D02*
X70948440Y-102428160D01*
X70948440Y-102428160D02*
X70949240Y-102406032D01*
X70949240Y-102406032D02*
X70951880Y-102345264D01*
X70951880Y-102345264D02*
X70977880Y-102163408D01*
X70977880Y-102163408D02*
X71059560Y-101960720D01*
X71059560Y-101960720D02*
X71219640Y-101821400D01*
X71219640Y-101821400D02*
X71416360Y-101770184D01*
X71416360Y-101770184D02*
X71481800Y-101770184D01*
X71481800Y-101770184D02*
X71564360Y-101770184D01*
X71564360Y-101770184D02*
X71811720Y-101858720D01*
X71811720Y-101858720D02*
X71981801Y-102087449D01*
X71981801Y-102087449D02*
X72045241Y-102399520D01*
X72045241Y-102399520D02*
X72054360Y-102654296D01*
X72054360Y-102654296D02*
X72054360Y-102739360D01*
X72054360Y-102739360D02*
X72054360Y-102814448D01*
X72054360Y-102814448D02*
X72035240Y-103040584D01*
X72035240Y-103040584D02*
X71956680Y-103288408D01*
X71956680Y-103288408D02*
X71789160Y-103456380D01*
X71789160Y-103456380D02*
X71573880Y-103518445D01*
X71573880Y-103518445D02*
X71501800Y-103518445D01*
X71501800Y-103518445D02*
X71438040Y-103518445D01*
X71438040Y-103518445D02*
X71246120Y-103475911D01*
X71246120Y-103475911D02*
X71082120Y-103360025D01*
X71082120Y-103360025D02*
X70992200Y-103186416D01*
X70992200Y-103186416D02*
X70961880Y-103025816D01*
X70961880Y-103025816D02*
X70959240Y-102972440D01*
X70959240Y-102972440D02*
X71148920Y-102972440D01*
X71148920Y-102972440D02*
X71150680Y-103010632D01*
X71150680Y-103010632D02*
X71168040Y-103124784D01*
X71168040Y-103124784D02*
X71221880Y-103249784D01*
X71221880Y-103249784D02*
X71327320Y-103333984D01*
X71327320Y-103333984D02*
X71458360Y-103365234D01*
X71458360Y-103365234D02*
X71501800Y-103365234D01*
X71501800Y-103365234D02*
X71552600Y-103365234D01*
X71552600Y-103365234D02*
X71703640Y-103310984D01*
X71703640Y-103310984D02*
X71810041Y-103170792D01*
X71810041Y-103170792D02*
X71851240Y-102979816D01*
X71851240Y-102979816D02*
X71858121Y-102823992D01*
X71858121Y-102823992D02*
X71858121Y-102772352D01*
X71858121Y-102772352D02*
X71858121Y-102676000D01*
X71858121Y-102676000D02*
X70949240Y-102676000D01*
X70949240Y-102676000D02*
X70949240Y-102676000D01*
X71145480Y-102522784D02*
X71854680Y-102522784D01*
X71854680Y-102522784D02*
X71854680Y-102467664D01*
X71854680Y-102467664D02*
X71846920Y-102320960D01*
X71846920Y-102320960D02*
X71845161Y-102302728D01*
X71845161Y-102302728D02*
X71841240Y-102264976D01*
X71841240Y-102264976D02*
X71813000Y-102153432D01*
X71813000Y-102153432D02*
X71746601Y-102032760D01*
X71746601Y-102032760D02*
X71638120Y-101952472D01*
X71638120Y-101952472D02*
X71518360Y-101923392D01*
X71518360Y-101923392D02*
X71478360Y-101923392D01*
X71478360Y-101923392D02*
X71441480Y-101923392D01*
X71441480Y-101923392D02*
X71329880Y-101955944D01*
X71329880Y-101955944D02*
X71231480Y-102043616D01*
X71231480Y-102043616D02*
X71174600Y-102169048D01*
X71174600Y-102169048D02*
X71152040Y-102278864D01*
X71152040Y-102278864D02*
X71148920Y-102316184D01*
X71148920Y-102316184D02*
X71147640Y-102332688D01*
X71147640Y-102332688D02*
X71145480Y-102475040D01*
X71145480Y-102475040D02*
X71145480Y-102522784D01*
X71145480Y-102522784D02*
X71145480Y-102522784D01*
X69693640Y-103038840D02*
X69693640Y-102993272D01*
X69693640Y-102993272D02*
X69729240Y-102856984D01*
X69729240Y-102856984D02*
X69820760Y-102722008D01*
X69820760Y-102722008D02*
X69948040Y-102620008D01*
X69948040Y-102620008D02*
X70054360Y-102555776D01*
X70054360Y-102555776D02*
X70089880Y-102535808D01*
X70089880Y-102535808D02*
X70131560Y-102512376D01*
X70131560Y-102512376D02*
X70312600Y-102390408D01*
X70312600Y-102390408D02*
X70409800Y-102234592D01*
X70409800Y-102234592D02*
X70409800Y-102182944D01*
X70409800Y-102182944D02*
X70409800Y-102136497D01*
X70409800Y-102136497D02*
X70342600Y-101997176D01*
X70342600Y-101997176D02*
X70205800Y-101926432D01*
X70205800Y-101926432D02*
X70159800Y-101926432D01*
X70159800Y-101926432D02*
X70113320Y-101926432D01*
X70113320Y-101926432D02*
X69972680Y-101984152D01*
X69972680Y-101984152D02*
X69905480Y-102107417D01*
X69905480Y-102107417D02*
X69900200Y-102139976D01*
X69900200Y-102139976D02*
X69898920Y-102149088D01*
X69898920Y-102149088D02*
X69893720Y-102229384D01*
X69893720Y-102229384D02*
X69893720Y-102256296D01*
X69893720Y-102256296D02*
X69703640Y-102256296D01*
X69703640Y-102256296D02*
X69704440Y-102244576D01*
X69704440Y-102244576D02*
X69708760Y-102139976D01*
X69708760Y-102139976D02*
X69710600Y-102129984D01*
X69710600Y-102129984D02*
X69719640Y-102067488D01*
X69719640Y-102067488D02*
X69843800Y-101856120D01*
X69843800Y-101856120D02*
X70070760Y-101770184D01*
X70070760Y-101770184D02*
X70146360Y-101770184D01*
X70146360Y-101770184D02*
X70192360Y-101770184D01*
X70192360Y-101770184D02*
X70329880Y-101796648D01*
X70329880Y-101796648D02*
X70473160Y-101876088D01*
X70473160Y-101876088D02*
X70566440Y-102007160D01*
X70566440Y-102007160D02*
X70599480Y-102143872D01*
X70599480Y-102143872D02*
X70599480Y-102189448D01*
X70599480Y-102189448D02*
X70599480Y-102236328D01*
X70599480Y-102236328D02*
X70561240Y-102378248D01*
X70561240Y-102378248D02*
X70461880Y-102510200D01*
X70461880Y-102510200D02*
X70325560Y-102606984D01*
X70325560Y-102606984D02*
X70214040Y-102668616D01*
X70214040Y-102668616D02*
X70176680Y-102689448D01*
X70176680Y-102689448D02*
X70135000Y-102712448D01*
X70135000Y-102712448D02*
X69969640Y-102832248D01*
X69969640Y-102832248D02*
X69887240Y-103014544D01*
X69887240Y-103014544D02*
X69887240Y-103075304D01*
X69887240Y-103075304D02*
X69887240Y-103128688D01*
X69887240Y-103128688D02*
X69962360Y-103290144D01*
X69962360Y-103290144D02*
X70123320Y-103365234D01*
X70123320Y-103365234D02*
X70176680Y-103365234D01*
X70176680Y-103365234D02*
X70226680Y-103365234D01*
X70226680Y-103365234D02*
X70375000Y-103296656D01*
X70375000Y-103296656D02*
X70448440Y-103141713D01*
X70448440Y-103141713D02*
X70453240Y-103098744D01*
X70453240Y-103098744D02*
X70454040Y-103089624D01*
X70454040Y-103089624D02*
X70456200Y-103011496D01*
X70456200Y-103011496D02*
X70456200Y-102985464D01*
X70456200Y-102985464D02*
X70646360Y-102985464D01*
X70646360Y-102985464D02*
X70646360Y-103018008D01*
X70646360Y-103018008D02*
X70643720Y-103105248D01*
X70643720Y-103105248D02*
X70642920Y-103115664D01*
X70642920Y-103115664D02*
X70638120Y-103158200D01*
X70638120Y-103158200D02*
X70600760Y-103284936D01*
X70600760Y-103284936D02*
X70514760Y-103411676D01*
X70514760Y-103411676D02*
X70375880Y-103490668D01*
X70375880Y-103490668D02*
X70226680Y-103518445D01*
X70226680Y-103518445D02*
X70176680Y-103518445D01*
X70176680Y-103518445D02*
X70124680Y-103518445D01*
X70124680Y-103518445D02*
X69967880Y-103487630D01*
X69967880Y-103487630D02*
X69816920Y-103396917D01*
X69816920Y-103396917D02*
X69724920Y-103247176D01*
X69724920Y-103247176D02*
X69693640Y-103090928D01*
X69693640Y-103090928D02*
X69693640Y-103038840D01*
X69693640Y-103038840D02*
X69693640Y-103038840D01*
X98765688Y-97510632D02*
X97456672Y-95230216D01*
X97456672Y-95230216D02*
X96132440Y-97510632D01*
X96132440Y-97510632D02*
X98765688Y-97510632D01*
X98765688Y-97510632D02*
X98765688Y-97510632D01*
X96168920Y-97870872D02*
X97481400Y-100157760D01*
X97481400Y-100157760D02*
X98809088Y-97870872D01*
X98809088Y-97870872D02*
X96168920Y-97870872D01*
X96168920Y-97870872D02*
X96168920Y-97870872D01*
X99099888Y-97369576D02*
X100442344Y-95057976D01*
X100442344Y-95057976D02*
X97773072Y-95057976D01*
X97773072Y-95057976D02*
X99099888Y-97369576D01*
X99099888Y-97369576D02*
X99099888Y-97369576D01*
X99434968Y-97510632D02*
X102084272Y-97510632D01*
X102084272Y-97510632D02*
X100761792Y-95225496D01*
X100761792Y-95225496D02*
X99434968Y-97510632D01*
X99434968Y-97510632D02*
X99434968Y-97510632D01*
X99388088Y-97870872D02*
X100712744Y-100179040D01*
X100712744Y-100179040D02*
X102053024Y-97870872D01*
X102053024Y-97870872D02*
X99388088Y-97870872D01*
X99388088Y-97870872D02*
X99388088Y-97870872D01*
X101042600Y-100328776D02*
X103715344Y-100328776D01*
X103715344Y-100328776D02*
X102381144Y-98023648D01*
X102381144Y-98023648D02*
X101042600Y-100328776D01*
X101042600Y-100328776D02*
X101042600Y-100328776D01*
X99098592Y-98090064D02*
X97798680Y-100328776D01*
X97798680Y-100328776D02*
X100383312Y-100328776D01*
X100383312Y-100328776D02*
X99098592Y-98090064D01*
X99098592Y-98090064D02*
X99098592Y-98090064D01*
X95837720Y-98017576D02*
X94495720Y-100329208D01*
X94495720Y-100329208D02*
X97164600Y-100329208D01*
X97164600Y-100329208D02*
X95837720Y-98017576D01*
X95837720Y-98017576D02*
X95837720Y-98017576D01*
X97765256Y-94697736D02*
X100456232Y-94697736D01*
X91469720Y-98639976D02*
X91466680Y-98753688D01*
X91466680Y-98753688D02*
X91463160Y-98867408D01*
X91463160Y-98867408D02*
X91463160Y-98905592D01*
X91463160Y-98905592D02*
X91463160Y-100282328D01*
X91463160Y-100282328D02*
X91049560Y-100282328D01*
X91049560Y-100282328D02*
X91049560Y-99342232D01*
X91049560Y-99342232D02*
X91049560Y-99299696D01*
X91049560Y-99299696D02*
X91032200Y-99172960D01*
X91032200Y-99172960D02*
X90972680Y-99044920D01*
X91766120Y-98205504D02*
X91766120Y-97872176D01*
X91766120Y-97872176D02*
X93026120Y-97872176D01*
X92583000Y-98205504D02*
X91766120Y-98205504D01*
X99125072Y-102522784D02*
X99834704Y-102522784D01*
X99834704Y-102522784D02*
X99834704Y-102467664D01*
X99834704Y-102467664D02*
X99826456Y-102320960D01*
X99826456Y-102320960D02*
X99824728Y-102302728D01*
X99837744Y-102823992D02*
X99837744Y-102772352D01*
X99837744Y-102772352D02*
X99837744Y-102676000D01*
X99837744Y-102676000D02*
X98928888Y-102676000D01*
X98928888Y-102676000D02*
X98928888Y-102676000D01*
X99532624Y-103365234D02*
X99683656Y-103310984D01*
X99683656Y-103310984D02*
X99789568Y-103170792D01*
X99789568Y-103170792D02*
X99830800Y-102979816D01*
X99830800Y-102979816D02*
X99837744Y-102823992D01*
X99201456Y-103249784D02*
X99307360Y-103333984D01*
X99307360Y-103333984D02*
X99438432Y-103365234D01*
X99438432Y-103365234D02*
X99481832Y-103365234D01*
X99481832Y-103365234D02*
X99532624Y-103365234D01*
X98938872Y-102972440D02*
X99128976Y-102972440D01*
X99128976Y-102972440D02*
X99130712Y-103010632D01*
X99130712Y-103010632D02*
X99148072Y-103124784D01*
X99148072Y-103124784D02*
X99201456Y-103249784D01*
X99154144Y-102169048D02*
X99132016Y-102278864D01*
X99226200Y-103475911D02*
X99062136Y-103360025D01*
X99062136Y-103360025D02*
X98971856Y-103186416D01*
X98971856Y-103186416D02*
X98941480Y-103025816D01*
X98941480Y-103025816D02*
X98938872Y-102972440D01*
X99132016Y-102278864D02*
X99128976Y-102316184D01*
X99769168Y-103456380D02*
X99553888Y-103518445D01*
X99553888Y-103518445D02*
X99481832Y-103518445D01*
X99481832Y-103518445D02*
X99418032Y-103518445D01*
X99418032Y-103518445D02*
X99226200Y-103475911D01*
X100034360Y-102654296D02*
X100034360Y-102739360D01*
X100034360Y-102739360D02*
X100034360Y-102814448D01*
X100034360Y-102814448D02*
X100015256Y-103040584D01*
X100015256Y-103040584D02*
X99936704Y-103288408D01*
X99936704Y-103288408D02*
X99769168Y-103456380D01*
X99791304Y-101858720D02*
X99961432Y-102087449D01*
X99961432Y-102087449D02*
X100025248Y-102399520D01*
X100025248Y-102399520D02*
X100034360Y-102654296D01*
X99199288Y-101821400D02*
X99395904Y-101770184D01*
X99395904Y-101770184D02*
X99461432Y-101770184D01*
X99461432Y-101770184D02*
X99543904Y-101770184D01*
X99543904Y-101770184D02*
X99791304Y-101858720D01*
X98931488Y-102345264D02*
X98957536Y-102163408D01*
X98957536Y-102163408D02*
X99039568Y-101960720D01*
X99039568Y-101960720D02*
X99199288Y-101821400D01*
X98928888Y-102608288D02*
X98928024Y-102428160D01*
X98928024Y-102428160D02*
X98928888Y-102406032D01*
X98928888Y-102406032D02*
X98931488Y-102345264D01*
X100936704Y-103485025D02*
X100720128Y-103485025D01*
X100720128Y-103485025D02*
X100247472Y-101806640D01*
X100247472Y-101806640D02*
X100247472Y-101806640D01*
X98928888Y-102676000D02*
X98928888Y-102608288D01*
X100823424Y-103271920D02*
X101206232Y-101806640D01*
X101206232Y-101806640D02*
X101412824Y-101806640D01*
X101412824Y-101806640D02*
X100936704Y-103485025D01*
X101722288Y-101806640D02*
X101722288Y-101806640D01*
X100247472Y-101806640D02*
X100430624Y-101806640D01*
X100430624Y-101806640D02*
X100823424Y-103271920D01*
X101722288Y-101806640D02*
X101912392Y-101806640D01*
X101912392Y-101806640D02*
X101912392Y-103485025D01*
X101912392Y-103485025D02*
X101722288Y-103485025D01*
X101722288Y-103485025D02*
X101722288Y-101806640D01*
X101932360Y-101366976D02*
X101702328Y-101366976D01*
X101702328Y-101366976D02*
X101702328Y-101114360D01*
X101702328Y-101114360D02*
X101702328Y-101114360D01*
X102391560Y-103485025D02*
X102391560Y-103485025D01*
X101702328Y-101114360D02*
X101932360Y-101114360D01*
X101932360Y-101114360D02*
X101932360Y-101366976D01*
X102585568Y-102266704D02*
X102581672Y-102396048D01*
X102581672Y-102396048D02*
X102581672Y-102439448D01*
X102581672Y-102439448D02*
X102581672Y-103485025D01*
X102581672Y-103485025D02*
X102391560Y-103485025D01*
X102834704Y-101936416D02*
X102704056Y-101983288D01*
X102704056Y-101983288D02*
X102616392Y-102103952D01*
X102616392Y-102103952D02*
X102585568Y-102266704D01*
X90622920Y-98572264D02*
X90642920Y-98572264D01*
X90642920Y-98572264D02*
X90706200Y-98572264D01*
X91826440Y-99189016D02*
X91826440Y-98862200D01*
X93026120Y-100282328D02*
X91739720Y-100282328D01*
X91739720Y-100282328D02*
X91739720Y-100282328D01*
X90622920Y-98942048D02*
X90622920Y-98572264D01*
X99211432Y-102043616D02*
X99154144Y-102169048D01*
X90706200Y-98572264D02*
X90896360Y-98626520D01*
X90896360Y-98626520D02*
X91046440Y-98772784D01*
X91046440Y-98772784D02*
X91069480Y-98818792D01*
X93026120Y-97872176D02*
X93026120Y-100282328D01*
X99824728Y-102302728D02*
X99820816Y-102264976D01*
X99820816Y-102264976D02*
X99793032Y-102153432D01*
X99793032Y-102153432D02*
X99726632Y-102032760D01*
X99726632Y-102032760D02*
X99617688Y-101952472D01*
X99617688Y-101952472D02*
X99498336Y-101923392D01*
X99498336Y-101923392D02*
X99458400Y-101923392D01*
X92583000Y-99189016D02*
X91826440Y-99189016D01*
X99458400Y-101923392D02*
X99421512Y-101923392D01*
X99421512Y-101923392D02*
X99309536Y-101955944D01*
X99309536Y-101955944D02*
X99211432Y-102043616D01*
X87615560Y-103278432D02*
X87728760Y-103110456D01*
X87044360Y-102832248D02*
X87076920Y-103073136D01*
X87076920Y-103073136D02*
X87178440Y-103266272D01*
X87178440Y-103266272D02*
X87336040Y-103345272D01*
X87388600Y-103345272D02*
X87445320Y-103345272D01*
X86849000Y-102606120D02*
X86849000Y-102606120D01*
X87042120Y-102609152D02*
X87042120Y-102664704D01*
X87042120Y-102664704D02*
X87044360Y-102832248D01*
X86917560Y-103202040D02*
X86858600Y-102909944D01*
X86858600Y-102909944D02*
X86849000Y-102682072D01*
X86849000Y-102682072D02*
X86849000Y-102606120D01*
X87445320Y-103345272D02*
X87615560Y-103278432D01*
X87375000Y-103508463D02*
X87300040Y-103508463D01*
X87300040Y-103508463D02*
X87073880Y-103421657D01*
X87073880Y-103421657D02*
X86917560Y-103202040D01*
X87728760Y-103110456D02*
X87767480Y-102888240D01*
X87735800Y-103350040D02*
X87593800Y-103463759D01*
X87593800Y-103463759D02*
X87429800Y-103508463D01*
X87429800Y-103508463D02*
X87375000Y-103508463D01*
X87951000Y-104124349D02*
X87761320Y-104124349D01*
X87761320Y-104124349D02*
X87761320Y-103315320D01*
X87761320Y-103315320D02*
X87735800Y-103350040D01*
X87960600Y-101838320D02*
X87951000Y-102106553D01*
X87951000Y-102106553D02*
X87951000Y-102196400D01*
X87951000Y-102196400D02*
X87951000Y-104124349D01*
X91483560Y-101963320D02*
X91227000Y-101963320D01*
X91227000Y-101963320D02*
X91227000Y-103485025D01*
X91227000Y-103485025D02*
X91037320Y-103485025D01*
X91037320Y-103485025D02*
X91037320Y-101963320D01*
X91037320Y-101963320D02*
X90714440Y-101963320D01*
X90714440Y-101963320D02*
X90714440Y-101963320D01*
X88213560Y-103485025D02*
X88929320Y-101077472D01*
X88929320Y-101077472D02*
X89162360Y-101077472D01*
X89162360Y-101077472D02*
X89885000Y-103485025D01*
X89885000Y-103485025D02*
X89685320Y-103485025D01*
X89685320Y-103485025D02*
X89498760Y-102849176D01*
X89498760Y-102849176D02*
X88606440Y-102849176D01*
X88606440Y-102849176D02*
X88423240Y-103485025D01*
X88423240Y-103485025D02*
X88213560Y-103485025D01*
X88213560Y-103485025D02*
X88213560Y-103485025D01*
X88663240Y-102676000D02*
X89442360Y-102676000D01*
X89442360Y-102676000D02*
X89052600Y-101297096D01*
X89052600Y-101297096D02*
X88663240Y-102676000D01*
X88663240Y-102676000D02*
X88663240Y-102676000D01*
X86849000Y-102606120D02*
X86849000Y-102534944D01*
X86849000Y-102534944D02*
X86862920Y-102321832D01*
X86862920Y-102321832D02*
X86928920Y-102051864D01*
X86928920Y-102051864D02*
X87083800Y-101849608D01*
X87083800Y-101849608D02*
X87295240Y-101770184D01*
X87295240Y-101770184D02*
X87365560Y-101770184D01*
X87365560Y-101770184D02*
X87425880Y-101770184D01*
X87425880Y-101770184D02*
X87606760Y-101831816D01*
X87606760Y-101831816D02*
X87754760Y-101973304D01*
X87754760Y-101973304D02*
X87777800Y-102013240D01*
X90714440Y-101234152D02*
X90714440Y-101067488D01*
X90714440Y-101067488D02*
X90722680Y-101066616D01*
X90722680Y-101066616D02*
X90789160Y-101060984D01*
X90789160Y-101060984D02*
X90810760Y-101060984D01*
X90810760Y-101060984D02*
X90869000Y-101060984D01*
X90869000Y-101060984D02*
X91043480Y-101107416D01*
X91043480Y-101107416D02*
X91167560Y-101231984D01*
X91167560Y-101231984D02*
X91217880Y-101411672D01*
X91217880Y-101411672D02*
X91227000Y-101570528D01*
X91227000Y-101570528D02*
X91227000Y-101623488D01*
X91227000Y-101623488D02*
X91227000Y-101806640D01*
X91227000Y-101806640D02*
X91483560Y-101806640D01*
X91483560Y-101806640D02*
X91483560Y-101963320D01*
X90714440Y-101806640D02*
X91037320Y-101806640D01*
X91037320Y-101806640D02*
X91037320Y-101533640D01*
X91037320Y-101533640D02*
X91037320Y-101474608D01*
X91037320Y-101474608D02*
X90985320Y-101298392D01*
X90985320Y-101298392D02*
X90832120Y-101230688D01*
X90832120Y-101230688D02*
X90780920Y-101230688D01*
X90780920Y-101230688D02*
X90764360Y-101230688D01*
X90764360Y-101230688D02*
X90720600Y-101233288D01*
X90720600Y-101233288D02*
X90714440Y-101234152D01*
X91933240Y-102599176D02*
X91933240Y-102805776D01*
X91933240Y-102805776D02*
X91933240Y-102805776D01*
X90714440Y-101963320D02*
X90714440Y-101806640D01*
X92498760Y-101992408D02*
X92334200Y-101923392D01*
X92334200Y-101923392D02*
X92279160Y-101923392D01*
X92279160Y-101923392D02*
X92227480Y-101923392D01*
X92227480Y-101923392D02*
X92072120Y-101990232D01*
X92072120Y-101990232D02*
X91970120Y-102158640D01*
X91970120Y-102158640D02*
X91936200Y-102378248D01*
X91936200Y-102378248D02*
X91933240Y-102543616D01*
X91933240Y-102543616D02*
X91933240Y-102599176D01*
X87777800Y-102013240D02*
X87781320Y-101806640D01*
X87781320Y-101806640D02*
X87964440Y-101806640D01*
X87964440Y-101806640D02*
X87960600Y-101838320D01*
X87336040Y-103345272D02*
X87388600Y-103345272D01*
X92583000Y-99949000D02*
X92583000Y-99189016D01*
X91739720Y-100282328D02*
X91739720Y-99949000D01*
X91826440Y-98862200D02*
X92583000Y-98862200D01*
X92583000Y-98862200D02*
X92583000Y-98205504D01*
X91739720Y-99949000D02*
X92583000Y-99949000D01*
X103267424Y-102499352D02*
X103267424Y-102448992D01*
X103267424Y-102448992D02*
X103250504Y-102298832D01*
X103250504Y-102298832D02*
X103188872Y-102117841D01*
X103188872Y-102117841D02*
X103069512Y-101986760D01*
X103069512Y-101986760D02*
X102926280Y-101936416D01*
X102926280Y-101936416D02*
X102878104Y-101936416D01*
X102878104Y-101936416D02*
X102834704Y-101936416D01*
X103100328Y-101841792D02*
X103259616Y-101995440D01*
X103259616Y-101995440D02*
X103284360Y-102036672D01*
X103284360Y-102036672D02*
X103287392Y-101806640D01*
X103287392Y-101806640D02*
X103470560Y-101806640D01*
X103470560Y-101806640D02*
X103468376Y-101840496D01*
X103468376Y-101840496D02*
X103457104Y-102127385D01*
X103457104Y-102127385D02*
X103457104Y-102223304D01*
X103457104Y-102223304D02*
X103457104Y-103485025D01*
X103457104Y-103485025D02*
X103267424Y-103485025D01*
X103267424Y-103485025D02*
X103267424Y-102499352D01*
X104692344Y-103355251D02*
X104880277Y-103298824D01*
X104880277Y-103298824D02*
X105021771Y-103148656D01*
X105021771Y-103148656D02*
X105084705Y-102930776D01*
X105084705Y-102930776D02*
X105099027Y-102736760D01*
X105099027Y-102736760D02*
X105099027Y-102672528D01*
X105099027Y-102672528D02*
X105099027Y-101077472D01*
X105099027Y-101077472D02*
X105298680Y-101077472D01*
X105298680Y-101077472D02*
X105298680Y-102669488D01*
X105298680Y-102669488D02*
X105298680Y-102755432D01*
X105298680Y-102755432D02*
X105273941Y-103013240D01*
X105273941Y-103013240D02*
X105176285Y-103286240D01*
X105176285Y-103286240D02*
X104973160Y-103466362D01*
X104973160Y-103466362D02*
X104715347Y-103531466D01*
X104715347Y-103531466D02*
X104629409Y-103531466D01*
X104629409Y-103531466D02*
X104549115Y-103531466D01*
X104549115Y-103531466D02*
X104307360Y-103473306D01*
X104307360Y-103473306D02*
X104105104Y-103305768D01*
X104105104Y-103305768D02*
X104000504Y-103039704D01*
X104000504Y-103039704D02*
X103970128Y-102774088D01*
X103970128Y-102774088D02*
X103970128Y-102685984D01*
X103970128Y-102685984D02*
X103970128Y-102685984D01*
X102391560Y-103485025D02*
X102391560Y-102299696D01*
X102391560Y-102299696D02*
X102391560Y-102246744D01*
X102391560Y-102246744D02*
X102414568Y-102088761D01*
X102414568Y-102088761D02*
X102490528Y-101921216D01*
X102490528Y-101921216D02*
X102629416Y-101810104D01*
X102629416Y-101810104D02*
X102788256Y-101770184D01*
X102788256Y-101770184D02*
X102841216Y-101770184D01*
X102841216Y-101770184D02*
X102906312Y-101770184D01*
X102906312Y-101770184D02*
X103100328Y-101841792D01*
X89166360Y-100282328D02*
X89166360Y-100282328D01*
X87699640Y-99795784D02*
X87699640Y-99749352D01*
X87699640Y-99749352D02*
X87728760Y-99611328D01*
X87728760Y-99611328D02*
X87811240Y-99482416D01*
X87811240Y-99482416D02*
X87940600Y-99384328D01*
X87940600Y-99384328D02*
X88067320Y-99314448D01*
X88067320Y-99314448D02*
X88109880Y-99292320D01*
X88109880Y-99292320D02*
X88168440Y-99261064D01*
X88168440Y-99261064D02*
X88375880Y-99145184D01*
X88375880Y-99145184D02*
X88466680Y-99020184D01*
X88466680Y-99020184D02*
X88466680Y-98978952D01*
X88466680Y-98978952D02*
X88466680Y-98947264D01*
X88466680Y-98947264D02*
X88423240Y-98852648D01*
X88423240Y-98852648D02*
X88330760Y-98802296D01*
X88330760Y-98802296D02*
X88300040Y-98802296D01*
X88300040Y-98802296D02*
X88266600Y-98802296D01*
X88266600Y-98802296D02*
X88165480Y-98860032D01*
X88165480Y-98860032D02*
X88125880Y-98969392D01*
X88125880Y-98969392D02*
X88123320Y-98995440D01*
X88123320Y-98995440D02*
X88122440Y-99002816D01*
X88122440Y-99002816D02*
X88123320Y-99062288D01*
X88123320Y-99062288D02*
X88123320Y-99082248D01*
X88123320Y-99082248D02*
X87716680Y-99082248D01*
X87716680Y-99082248D02*
X87716680Y-99023648D01*
X87716680Y-99023648D02*
X87748760Y-98848744D01*
X87748760Y-98848744D02*
X87849000Y-98686848D01*
X87849000Y-98686848D02*
X88024760Y-98592664D01*
X88024760Y-98592664D02*
X88218760Y-98562288D01*
X88218760Y-98562288D02*
X88283000Y-98562288D01*
X88283000Y-98562288D02*
X88340360Y-98562288D01*
X88340360Y-98562288D02*
X88510920Y-98588760D01*
X88510920Y-98588760D02*
X88699641Y-98672960D01*
X88699641Y-98672960D02*
X88829000Y-98820960D01*
X88829000Y-98820960D02*
X88876360Y-98984152D01*
X88876360Y-98984152D02*
X88876360Y-99038840D01*
X88876360Y-99038840D02*
X88876360Y-99080504D01*
X88876360Y-99080504D02*
X88851720Y-99205944D01*
X88851720Y-99205944D02*
X88774360Y-99326176D01*
X88774360Y-99326176D02*
X88640680Y-99425128D01*
X88640680Y-99425128D02*
X88495640Y-99503688D01*
X88495640Y-99503688D02*
X88446680Y-99528864D01*
X88446680Y-99528864D02*
X88385880Y-99560544D01*
X88385880Y-99560544D02*
X88187160Y-99676864D01*
X88187160Y-99676864D02*
X88109880Y-99808376D01*
X88109880Y-99808376D02*
X88109880Y-99852208D01*
X88109880Y-99852208D02*
X88109880Y-99887808D01*
X88109880Y-99887808D02*
X88157240Y-99995440D01*
X88157240Y-99995440D02*
X88261800Y-100048833D01*
X88261800Y-100048833D02*
X88296440Y-100048833D01*
X88296440Y-100048833D02*
X88334200Y-100048833D01*
X88334200Y-100048833D02*
X88447560Y-99972440D01*
X88447560Y-99972440D02*
X88482200Y-99831376D01*
X88482200Y-99831376D02*
X88483160Y-99798832D01*
X88483160Y-99798832D02*
X88483160Y-99745440D01*
X88483160Y-99745440D02*
X88893320Y-99745440D01*
X88893320Y-99745440D02*
X88894120Y-99754552D01*
X88894120Y-99754552D02*
X88893320Y-99814888D01*
X88893320Y-99814888D02*
X88893320Y-99835288D01*
X88893320Y-99835288D02*
X88892440Y-99890840D01*
X88892440Y-99890840D02*
X88846041Y-100057505D01*
X88846041Y-100057505D02*
X88723561Y-100205072D01*
X88723561Y-100205072D02*
X88542120Y-100286672D01*
X88542120Y-100286672D02*
X88372920Y-100312288D01*
X88372920Y-100312288D02*
X88316440Y-100312288D01*
X88316440Y-100312288D02*
X88256600Y-100312288D01*
X88256600Y-100312288D02*
X88076920Y-100284072D01*
X88076920Y-100284072D02*
X87880680Y-100195096D01*
X87880680Y-100195096D02*
X87748360Y-100034944D01*
X87748360Y-100034944D02*
X87699640Y-99855248D01*
X87699640Y-99855248D02*
X87699640Y-99795784D01*
X87699640Y-99795784D02*
X87699640Y-99795784D01*
X86669800Y-100285376D02*
X86669800Y-100001952D01*
X86669800Y-100001952D02*
X86679800Y-100002816D01*
X86679800Y-100002816D02*
X86757480Y-100012376D01*
X86757480Y-100012376D02*
X86783000Y-100012376D01*
X86783000Y-100012376D02*
X86819480Y-100012376D01*
X86819480Y-100012376D02*
X86927560Y-99954640D01*
X86927560Y-99954640D02*
X86956680Y-99825304D01*
X86956680Y-99825304D02*
X86956680Y-99782328D01*
X86956680Y-99782328D02*
X86956680Y-98872176D01*
X86956680Y-98872176D02*
X86693240Y-98872176D01*
X86693240Y-98872176D02*
X86693240Y-98602208D01*
X86693240Y-98602208D02*
X86956680Y-98602208D01*
X86956680Y-98602208D02*
X86956680Y-98145616D01*
X86956680Y-98145616D02*
X87369880Y-98315752D01*
X87369880Y-98315752D02*
X87369880Y-98602208D01*
X87369880Y-98602208D02*
X87593320Y-98602208D01*
X87593320Y-98602208D02*
X87593320Y-98872176D01*
X87593320Y-98872176D02*
X87369880Y-98872176D01*
X87369880Y-98872176D02*
X87369880Y-99842232D01*
X87369880Y-99842232D02*
X87369880Y-99897784D01*
X87369880Y-99897784D02*
X87347240Y-100064448D01*
X87347240Y-100064448D02*
X87270440Y-100205944D01*
X87270440Y-100205944D02*
X87126760Y-100280160D01*
X87126760Y-100280160D02*
X86959240Y-100302296D01*
X86959240Y-100302296D02*
X86903240Y-100302296D01*
X86903240Y-100302296D02*
X86845160Y-100302296D01*
X86845160Y-100302296D02*
X86689320Y-100288408D01*
X86689320Y-100288408D02*
X86669800Y-100285376D01*
X86669800Y-100285376D02*
X86669800Y-100285376D01*
X85760440Y-99228952D02*
X86540440Y-99228952D01*
X86540440Y-99228952D02*
X86540440Y-99538840D01*
X86540440Y-99538840D02*
X85760440Y-99538840D01*
X85760440Y-99538840D02*
X85760440Y-99228952D01*
X85760440Y-99228952D02*
X85760440Y-99228952D01*
X83710600Y-100282328D02*
X84370680Y-97872176D01*
X84370680Y-97872176D02*
X84947160Y-97872176D01*
X84947160Y-97872176D02*
X85620680Y-100282328D01*
X85620680Y-100282328D02*
X85180600Y-100282328D01*
X85180600Y-100282328D02*
X85037320Y-99728520D01*
X85037320Y-99728520D02*
X84310760Y-99728520D01*
X84310760Y-99728520D02*
X84167160Y-100282328D01*
X84167160Y-100282328D02*
X83710600Y-100282328D01*
X83710600Y-100282328D02*
X83710600Y-100282328D01*
X84400200Y-99402560D02*
X84947160Y-99402560D01*
X84947160Y-99402560D02*
X84673640Y-98228952D01*
X84673640Y-98228952D02*
X84400200Y-99402560D01*
X84400200Y-99402560D02*
X84400200Y-99402560D01*
X82260440Y-99435544D02*
X82260440Y-99349608D01*
X82260440Y-99349608D02*
X82269160Y-99092232D01*
X82269160Y-99092232D02*
X82320360Y-98814888D01*
X82320360Y-98814888D02*
X82453720Y-98629552D01*
X82453720Y-98629552D02*
X82644120Y-98562288D01*
X82644120Y-98562288D02*
X82707560Y-98562288D01*
X82707560Y-98562288D02*
X82765240Y-98562288D01*
X82765240Y-98562288D02*
X82937560Y-98609152D01*
X82937560Y-98609152D02*
X83091640Y-98724608D01*
X83091640Y-98724608D02*
X83117240Y-98758896D01*
X83117240Y-98758896D02*
X83117240Y-97872176D01*
X83117240Y-97872176D02*
X83530440Y-97872176D01*
X83530440Y-97872176D02*
X83530440Y-99965497D01*
X83530440Y-99965497D02*
X83530440Y-100004984D01*
X83530440Y-100004984D02*
X83535640Y-100123488D01*
X83535640Y-100123488D02*
X83540920Y-100242408D01*
X83540920Y-100242408D02*
X83540920Y-100282328D01*
X83540920Y-100282328D02*
X83143640Y-100282328D01*
X83143640Y-100282328D02*
X83140680Y-100098745D01*
X83140680Y-100098745D02*
X83118600Y-100137808D01*
X83118600Y-100137808D02*
X82984920Y-100265408D01*
X82984920Y-100265408D02*
X82809560Y-100315320D01*
X82809560Y-100315320D02*
X82750920Y-100315320D01*
X82750920Y-100315320D02*
X82685000Y-100315320D01*
X82685000Y-100315320D02*
X82487000Y-100240232D01*
X82487000Y-100240232D02*
X82339480Y-100042752D01*
X82339480Y-100042752D02*
X82274760Y-99761064D01*
X82274760Y-99761064D02*
X82260440Y-99516704D01*
X82260440Y-99516704D02*
X82260440Y-99435544D01*
X82260440Y-99435544D02*
X82260440Y-99435544D01*
X82677160Y-99412104D02*
X82677160Y-99473304D01*
X82677160Y-99473304D02*
X82684600Y-99658208D01*
X82684600Y-99658208D02*
X82714440Y-99861760D01*
X82714440Y-99861760D02*
X82780040Y-100000649D01*
X82780040Y-100000649D02*
X82865880Y-100051864D01*
X82865880Y-100051864D02*
X82894120Y-100051864D01*
X82894120Y-100051864D02*
X82925880Y-100051864D01*
X82925880Y-100051864D02*
X83020040Y-99998920D01*
X83020040Y-99998920D02*
X83089000Y-99859592D01*
X83089000Y-99859592D02*
X83118120Y-99662544D01*
X83118120Y-99662544D02*
X83123800Y-99491976D01*
X83123800Y-99491976D02*
X83123800Y-99435544D01*
X83123800Y-99435544D02*
X83123800Y-99379120D01*
X83123800Y-99379120D02*
X83117720Y-99209848D01*
X83117720Y-99209848D02*
X83086920Y-99015840D01*
X83086920Y-99015840D02*
X83015720Y-98879984D01*
X83015720Y-98879984D02*
X82919320Y-98828776D01*
X82919320Y-98828776D02*
X82887240Y-98828776D01*
X82887240Y-98828776D02*
X82857720Y-98828776D01*
X82857720Y-98828776D02*
X82768680Y-98877384D01*
X82768680Y-98877384D02*
X82706200Y-99007592D01*
X82706200Y-99007592D02*
X82681480Y-99194232D01*
X82681480Y-99194232D02*
X82677160Y-99357416D01*
X82677160Y-99357416D02*
X82677160Y-99412104D01*
X82677160Y-99412104D02*
X82677160Y-99412104D01*
X80687160Y-99435544D02*
X80687160Y-99349608D01*
X80687160Y-99349608D02*
X80695800Y-99092232D01*
X80695800Y-99092232D02*
X80747000Y-98814888D01*
X80747000Y-98814888D02*
X80880200Y-98629552D01*
X80880200Y-98629552D02*
X81070760Y-98562288D01*
X81070760Y-98562288D02*
X81134200Y-98562288D01*
X81134200Y-98562288D02*
X81191880Y-98562288D01*
X81191880Y-98562288D02*
X81364200Y-98609152D01*
X81364200Y-98609152D02*
X81518360Y-98724608D01*
X81518360Y-98724608D02*
X81543880Y-98758896D01*
X81543880Y-98758896D02*
X81543880Y-97872176D01*
X81543880Y-97872176D02*
X81957560Y-97872176D01*
X81957560Y-97872176D02*
X81957560Y-99965497D01*
X81957560Y-99965497D02*
X81957560Y-100004984D01*
X81957560Y-100004984D02*
X81962760Y-100123488D01*
X81962760Y-100123488D02*
X81967560Y-100242408D01*
X81967560Y-100242408D02*
X81967560Y-100282328D01*
X81967560Y-100282328D02*
X81570360Y-100282328D01*
X81570360Y-100282328D02*
X81567320Y-100098745D01*
X81567320Y-100098745D02*
X81545240Y-100137808D01*
X81545240Y-100137808D02*
X81411560Y-100265408D01*
X81411560Y-100265408D02*
X81235800Y-100315320D01*
X81235800Y-100315320D02*
X81177160Y-100315320D01*
X81177160Y-100315320D02*
X81111560Y-100315320D01*
X81111560Y-100315320D02*
X80913720Y-100240232D01*
X80913720Y-100240232D02*
X80766120Y-100042752D01*
X80766120Y-100042752D02*
X80701480Y-99761064D01*
X80701480Y-99761064D02*
X80687160Y-99516704D01*
X80687160Y-99516704D02*
X80687160Y-99435544D01*
X80687160Y-99435544D02*
X80687160Y-99435544D01*
X81103800Y-99412104D02*
X81103800Y-99473304D01*
X81103800Y-99473304D02*
X81111160Y-99658208D01*
X81111160Y-99658208D02*
X81141160Y-99861760D01*
X81141160Y-99861760D02*
X81207160Y-100000649D01*
X81207160Y-100000649D02*
X81292600Y-100051864D01*
X81292600Y-100051864D02*
X81320760Y-100051864D01*
X81320760Y-100051864D02*
X81352440Y-100051864D01*
X81352440Y-100051864D02*
X81446680Y-99998920D01*
X81446680Y-99998920D02*
X81516120Y-99859592D01*
X81516120Y-99859592D02*
X81545240Y-99662544D01*
X81545240Y-99662544D02*
X81550920Y-99491976D01*
X81550920Y-99491976D02*
X81550920Y-99435544D01*
X81550920Y-99435544D02*
X81550920Y-99379120D01*
X81550920Y-99379120D02*
X81544360Y-99209848D01*
X81544360Y-99209848D02*
X81513880Y-99015840D01*
X81513880Y-99015840D02*
X81442360Y-98879984D01*
X81442360Y-98879984D02*
X81346040Y-98828776D01*
X81346040Y-98828776D02*
X81313880Y-98828776D01*
X81313880Y-98828776D02*
X81284360Y-98828776D01*
X81284360Y-98828776D02*
X81195320Y-98877384D01*
X81195320Y-98877384D02*
X81132920Y-99007592D01*
X81132920Y-99007592D02*
X81108120Y-99194232D01*
X81108120Y-99194232D02*
X81103800Y-99357416D01*
X81103800Y-99357416D02*
X81103800Y-99412104D01*
X81103800Y-99412104D02*
X81103800Y-99412104D01*
X79214040Y-99488928D02*
X79214040Y-99401264D01*
X79214040Y-99401264D02*
X79223560Y-99138672D01*
X79223560Y-99138672D02*
X79287320Y-98843096D01*
X79287320Y-98843096D02*
X79461880Y-98638240D01*
X79461880Y-98638240D02*
X79716200Y-98562288D01*
X79716200Y-98562288D02*
X79800920Y-98562288D01*
X79800920Y-98562288D02*
X79887240Y-98562288D01*
X79887240Y-98562288D02*
X80145480Y-98637376D01*
X80145480Y-98637376D02*
X80340360Y-98837888D01*
X80340360Y-98837888D02*
X80427560Y-99124784D01*
X80427560Y-99124784D02*
X80447560Y-99375216D01*
X80447560Y-99375216D02*
X80447560Y-99458984D01*
X80447560Y-99458984D02*
X80447560Y-99541888D01*
X80447560Y-99541888D02*
X80432760Y-99791888D01*
X80432760Y-99791888D02*
X80356040Y-100066617D01*
X80356040Y-100066617D02*
X80168920Y-100253248D01*
X80168920Y-100253248D02*
X79910200Y-100322264D01*
X79910200Y-100322264D02*
X79823880Y-100322264D01*
X79823880Y-100322264D02*
X79758360Y-100322264D01*
X79758360Y-100322264D02*
X79561240Y-100287104D01*
X79561240Y-100287104D02*
X79378120Y-100178600D01*
X79378120Y-100178600D02*
X79267880Y-99992840D01*
X79267880Y-99992840D02*
X79227000Y-99792320D01*
X79227000Y-99792320D02*
X79224040Y-99725472D01*
X79224040Y-99725472D02*
X79617240Y-99725472D01*
X79617240Y-99725472D02*
X79617240Y-99754552D01*
X79617240Y-99754552D02*
X79625000Y-99842232D01*
X79625000Y-99842232D02*
X79654600Y-99947264D01*
X79654600Y-99947264D02*
X79717560Y-100022784D01*
X79717560Y-100022784D02*
X79797320Y-100051864D01*
X79797320Y-100051864D02*
X79823880Y-100051864D01*
X79823880Y-100051864D02*
X79865880Y-100051864D01*
X79865880Y-100051864D02*
X79990920Y-99952904D01*
X79990920Y-99952904D02*
X80037320Y-99717232D01*
X80037320Y-99717232D02*
X80037320Y-99639104D01*
X80037320Y-99639104D02*
X80037320Y-99488928D01*
X80037320Y-99488928D02*
X79214040Y-99488928D01*
X79214040Y-99488928D02*
X79214040Y-99488928D01*
X79620680Y-99258896D02*
X80037320Y-99258896D01*
X80037320Y-99258896D02*
X80037320Y-99207248D01*
X80037320Y-99207248D02*
X80026600Y-99068792D01*
X80026600Y-99068792D02*
X80023880Y-99052296D01*
X80023880Y-99052296D02*
X80019160Y-99018872D01*
X80019160Y-99018872D02*
X79963160Y-98892144D01*
X79963160Y-98892144D02*
X79853800Y-98832248D01*
X79853800Y-98832248D02*
X79817320Y-98832248D01*
X79817320Y-98832248D02*
X79783880Y-98832248D01*
X79783880Y-98832248D02*
X79683240Y-98887808D01*
X79683240Y-98887808D02*
X79635000Y-99000216D01*
X79635000Y-99000216D02*
X79630680Y-99028864D01*
X79630680Y-99028864D02*
X79627640Y-99048832D01*
X79627640Y-99048832D02*
X79620680Y-99206376D01*
X79620680Y-99206376D02*
X79620680Y-99258896D01*
X79620680Y-99258896D02*
X79620680Y-99258896D01*
X78184120Y-99228952D02*
X78964040Y-99228952D01*
X78964040Y-99228952D02*
X78964040Y-99538840D01*
X78964040Y-99538840D02*
X78184120Y-99538840D01*
X78184120Y-99538840D02*
X78184120Y-99228952D01*
X78184120Y-99228952D02*
X78184120Y-99228952D01*
X76277480Y-100282328D02*
X76277480Y-97872176D01*
X76277480Y-97872176D02*
X76724440Y-97872176D01*
X76724440Y-97872176D02*
X76724440Y-98865664D01*
X76724440Y-98865664D02*
X77357240Y-98865664D01*
X77357240Y-98865664D02*
X77357240Y-97872176D01*
X77357240Y-97872176D02*
X77804360Y-97872176D01*
X77804360Y-97872176D02*
X77804360Y-100282328D01*
X77804360Y-100282328D02*
X77357240Y-100282328D01*
X77357240Y-100282328D02*
X77357240Y-99192048D01*
X77357240Y-99192048D02*
X76724440Y-99192048D01*
X76724440Y-99192048D02*
X76724440Y-100282328D01*
X76724440Y-100282328D02*
X76277480Y-100282328D01*
X76277480Y-100282328D02*
X76277480Y-100282328D01*
X74634200Y-99392576D02*
X74634200Y-99307944D01*
X74634200Y-99307944D02*
X74651160Y-99054472D01*
X74651160Y-99054472D02*
X74731800Y-98791888D01*
X74731800Y-98791888D02*
X74921160Y-98622176D01*
X74921160Y-98622176D02*
X75178440Y-98562288D01*
X75178440Y-98562288D02*
X75263880Y-98562288D01*
X75263880Y-98562288D02*
X75351240Y-98562288D01*
X75351240Y-98562288D02*
X75612920Y-98633896D01*
X75612920Y-98633896D02*
X75811720Y-98827472D01*
X75811720Y-98827472D02*
X75900680Y-99109152D01*
X75900680Y-99109152D02*
X75921160Y-99361328D01*
X75921160Y-99361328D02*
X75921160Y-99445528D01*
X75921160Y-99445528D02*
X75921160Y-99533640D01*
X75921160Y-99533640D02*
X75905000Y-99798832D01*
X75905000Y-99798832D02*
X75824200Y-100076176D01*
X75824200Y-100076176D02*
X75630200Y-100257160D01*
X75630200Y-100257160D02*
X75363320Y-100322264D01*
X75363320Y-100322264D02*
X75274360Y-100322264D01*
X75274360Y-100322264D02*
X75187560Y-100322264D01*
X75187560Y-100322264D02*
X74927160Y-100254120D01*
X74927160Y-100254120D02*
X74734440Y-100063152D01*
X74734440Y-100063152D02*
X74652040Y-99769320D01*
X74652040Y-99769320D02*
X74634200Y-99486760D01*
X74634200Y-99486760D02*
X74634200Y-99392576D01*
X74634200Y-99392576D02*
X74634200Y-99392576D01*
X75054360Y-99635632D02*
X75054360Y-99669488D01*
X75054360Y-99669488D02*
X75057320Y-99772352D01*
X75057320Y-99772352D02*
X75080760Y-99907328D01*
X75080760Y-99907328D02*
X75145880Y-100010632D01*
X75145880Y-100010632D02*
X75242200Y-100051864D01*
X75242200Y-100051864D02*
X75274360Y-100051864D01*
X75274360Y-100051864D02*
X75309160Y-100051864D01*
X75309160Y-100051864D02*
X75412040Y-100007161D01*
X75412040Y-100007161D02*
X75479640Y-99897352D01*
X75479640Y-99897352D02*
X75502200Y-99754984D01*
X75502200Y-99754984D02*
X75504440Y-99650384D01*
X75504440Y-99650384D02*
X75504440Y-99615664D01*
X75504440Y-99615664D02*
X75504440Y-99281896D01*
X75504440Y-99281896D02*
X75504440Y-99246744D01*
X75504440Y-99246744D02*
X75500920Y-99141272D01*
X75500920Y-99141272D02*
X75475320Y-98994576D01*
X75475320Y-98994576D02*
X75406360Y-98879120D01*
X75406360Y-98879120D02*
X75304760Y-98832248D01*
X75304760Y-98832248D02*
X75270920Y-98832248D01*
X75270920Y-98832248D02*
X75239640Y-98832248D01*
X75239640Y-98832248D02*
X75145880Y-98870872D01*
X75145880Y-98870872D02*
X75081640Y-98972440D01*
X75081640Y-98972440D02*
X75057800Y-99114800D01*
X75057800Y-99114800D02*
X75054360Y-99235464D01*
X75054360Y-99235464D02*
X75054360Y-99275816D01*
X75054360Y-99275816D02*
X75054360Y-99635632D01*
X75054360Y-99635632D02*
X75054360Y-99635632D01*
X73131160Y-99689016D02*
X73524360Y-99689016D01*
X73524360Y-99689016D02*
X73524360Y-99720264D01*
X73524360Y-99720264D02*
X73530920Y-99814448D01*
X73530920Y-99814448D02*
X73560360Y-99931640D01*
X73560360Y-99931640D02*
X73628600Y-100018008D01*
X73628600Y-100018008D02*
X73720600Y-100051864D01*
X73720600Y-100051864D02*
X73750920Y-100051864D01*
X73750920Y-100051864D02*
X73787000Y-100051864D01*
X73787000Y-100051864D02*
X73894120Y-99995872D01*
X73894120Y-99995872D02*
X73961000Y-99851344D01*
X73961000Y-99851344D02*
X73981000Y-99650816D01*
X73981000Y-99650816D02*
X73981000Y-99484152D01*
X73981000Y-99484152D02*
X73981000Y-99428600D01*
X73981000Y-99428600D02*
X73981000Y-99377816D01*
X73981000Y-99377816D02*
X73980600Y-99225472D01*
X73980600Y-99225472D02*
X73960120Y-99032760D01*
X73960120Y-99032760D02*
X73889800Y-98888672D01*
X73889800Y-98888672D02*
X73778200Y-98832248D01*
X73778200Y-98832248D02*
X73740920Y-98832248D01*
X73740920Y-98832248D02*
X73711880Y-98832248D01*
X73711880Y-98832248D02*
X73624680Y-98863496D01*
X73624680Y-98863496D02*
X73563000Y-98944664D01*
X73563000Y-98944664D02*
X73538680Y-99054040D01*
X73538680Y-99054040D02*
X73534360Y-99142576D01*
X73534360Y-99142576D02*
X73534360Y-99172096D01*
X73534360Y-99172096D02*
X73140680Y-99172096D01*
X73140680Y-99172096D02*
X73140680Y-99101344D01*
X73140680Y-99101344D02*
X73172360Y-98889544D01*
X73172360Y-98889544D02*
X73274761Y-98700744D01*
X73274761Y-98700744D02*
X73460120Y-98594832D01*
X73460120Y-98594832D02*
X73671160Y-98562288D01*
X73671160Y-98562288D02*
X73740920Y-98562288D01*
X73740920Y-98562288D02*
X73829000Y-98562288D01*
X73829000Y-98562288D02*
X74093320Y-98637376D01*
X74093320Y-98637376D02*
X74290440Y-98842232D01*
X74290440Y-98842232D02*
X74375880Y-99145616D01*
X74375880Y-99145616D02*
X74394120Y-99422960D01*
X74394120Y-99422960D02*
X74394120Y-99515840D01*
X74394120Y-99515840D02*
X74394120Y-99598304D01*
X74394120Y-99598304D02*
X74372440Y-99846576D01*
X74372440Y-99846576D02*
X74282600Y-100101344D01*
X74282600Y-100101344D02*
X74087800Y-100264544D01*
X74087800Y-100264544D02*
X73835160Y-100322264D01*
X73835160Y-100322264D02*
X73750920Y-100322264D01*
X73750920Y-100322264D02*
X73666680Y-100322264D01*
X73666680Y-100322264D02*
X73412760Y-100261928D01*
X73412760Y-100261928D02*
X73227481Y-100109153D01*
X73227481Y-100109153D02*
X73148920Y-99904296D01*
X73148920Y-99904296D02*
X73132040Y-99742840D01*
X73132040Y-99742840D02*
X73131160Y-99689016D01*
X73131160Y-99689016D02*
X73131160Y-99689016D01*
X71634600Y-100282328D02*
X71634600Y-99075744D01*
X71634600Y-99075744D02*
X71634600Y-99019752D01*
X71634600Y-99019752D02*
X71655880Y-98853088D01*
X71655880Y-98853088D02*
X71726200Y-98692488D01*
X71726200Y-98692488D02*
X71856440Y-98594832D01*
X71856440Y-98594832D02*
X72007480Y-98562288D01*
X72007480Y-98562288D02*
X72057320Y-98562288D01*
X72057320Y-98562288D02*
X72116761Y-98562288D01*
X72116761Y-98562288D02*
X72294760Y-98617840D01*
X72294760Y-98617840D02*
X72446200Y-98743704D01*
X72446200Y-98743704D02*
X72471000Y-98778864D01*
X72471000Y-98778864D02*
X72471000Y-97872176D01*
X72471000Y-97872176D02*
X72884600Y-97872176D01*
X72884600Y-97872176D02*
X72884600Y-100282328D01*
X72884600Y-100282328D02*
X72471000Y-100282328D01*
X72471000Y-100282328D02*
X72471000Y-99199000D01*
X72471000Y-99199000D02*
X72471000Y-99166448D01*
X72471000Y-99166448D02*
X72458760Y-99069664D01*
X72458760Y-99069664D02*
X72418440Y-98951608D01*
X72418440Y-98951608D02*
X72347241Y-98865232D01*
X72347241Y-98865232D02*
X72267880Y-98832248D01*
X72267880Y-98832248D02*
X72240920Y-98832248D01*
X72240920Y-98832248D02*
X72214440Y-98832248D01*
X72214440Y-98832248D02*
X72135000Y-98856984D01*
X72135000Y-98856984D02*
X72076920Y-98925128D01*
X72076920Y-98925128D02*
X72052600Y-99028864D01*
X72052600Y-99028864D02*
X72047320Y-99126088D01*
X72047320Y-99126088D02*
X72047320Y-99158640D01*
X72047320Y-99158640D02*
X72047320Y-100282328D01*
X72047320Y-100282328D02*
X71634600Y-100282328D01*
X71634600Y-100282328D02*
X71634600Y-100282328D01*
X70168040Y-99795784D02*
X70168040Y-99749352D01*
X70168040Y-99749352D02*
X70197160Y-99611328D01*
X70197160Y-99611328D02*
X70279160Y-99482416D01*
X70279160Y-99482416D02*
X70408440Y-99384328D01*
X70408440Y-99384328D02*
X70535240Y-99314448D01*
X70535240Y-99314448D02*
X70577800Y-99292320D01*
X70577800Y-99292320D02*
X70636360Y-99261064D01*
X70636360Y-99261064D02*
X70843320Y-99145184D01*
X70843320Y-99145184D02*
X70934120Y-99020184D01*
X70934120Y-99020184D02*
X70934120Y-98978952D01*
X70934120Y-98978952D02*
X70934120Y-98947264D01*
X70934120Y-98947264D02*
X70891160Y-98852648D01*
X70891160Y-98852648D02*
X70798680Y-98802296D01*
X70798680Y-98802296D02*
X70767480Y-98802296D01*
X70767480Y-98802296D02*
X70734040Y-98802296D01*
X70734040Y-98802296D02*
X70633320Y-98860032D01*
X70633320Y-98860032D02*
X70593800Y-98969392D01*
X70593800Y-98969392D02*
X70591240Y-98995440D01*
X70591240Y-98995440D02*
X70590360Y-99002816D01*
X70590360Y-99002816D02*
X70591240Y-99062288D01*
X70591240Y-99062288D02*
X70591240Y-99082248D01*
X70591240Y-99082248D02*
X70184600Y-99082248D01*
X70184600Y-99082248D02*
X70184600Y-99023648D01*
X70184600Y-99023648D02*
X70216680Y-98848744D01*
X70216680Y-98848744D02*
X70316920Y-98686848D01*
X70316920Y-98686848D02*
X70492680Y-98592664D01*
X70492680Y-98592664D02*
X70686680Y-98562288D01*
X70686680Y-98562288D02*
X70750920Y-98562288D01*
X70750920Y-98562288D02*
X70808200Y-98562288D01*
X70808200Y-98562288D02*
X70978760Y-98588760D01*
X70978760Y-98588760D02*
X71167560Y-98672960D01*
X71167560Y-98672960D02*
X71296920Y-98820960D01*
X71296920Y-98820960D02*
X71344200Y-98984152D01*
X71344200Y-98984152D02*
X71344200Y-99038840D01*
X71344200Y-99038840D02*
X71344200Y-99080504D01*
X71344200Y-99080504D02*
X71319480Y-99205944D01*
X71319480Y-99205944D02*
X71242200Y-99326176D01*
X71242200Y-99326176D02*
X71108600Y-99425128D01*
X71108600Y-99425128D02*
X70963560Y-99503688D01*
X70963560Y-99503688D02*
X70914600Y-99528864D01*
X70914600Y-99528864D02*
X70853800Y-99560544D01*
X70853800Y-99560544D02*
X70655000Y-99676864D01*
X70655000Y-99676864D02*
X70577800Y-99808376D01*
X70577800Y-99808376D02*
X70577800Y-99852208D01*
X70577800Y-99852208D02*
X70577800Y-99887808D01*
X70577800Y-99887808D02*
X70625000Y-99995440D01*
X70625000Y-99995440D02*
X70730120Y-100048833D01*
X70730120Y-100048833D02*
X70764760Y-100048833D01*
X70764760Y-100048833D02*
X70802600Y-100048833D01*
X70802600Y-100048833D02*
X70915480Y-99972440D01*
X70915480Y-99972440D02*
X70950600Y-99831376D01*
X70950600Y-99831376D02*
X70951000Y-99798832D01*
X70951000Y-99798832D02*
X70951000Y-99745440D01*
X70951000Y-99745440D02*
X71361160Y-99745440D01*
X71361160Y-99745440D02*
X71362040Y-99754552D01*
X71362040Y-99754552D02*
X71361160Y-99814888D01*
X71361160Y-99814888D02*
X71361160Y-99835288D01*
X71361160Y-99835288D02*
X71360360Y-99890840D01*
X71360360Y-99890840D02*
X71313880Y-100057505D01*
X71313880Y-100057505D02*
X71191480Y-100205072D01*
X71191480Y-100205072D02*
X71010040Y-100286672D01*
X71010040Y-100286672D02*
X70840760Y-100312288D01*
X70840760Y-100312288D02*
X70784360Y-100312288D01*
X70784360Y-100312288D02*
X70724440Y-100312288D01*
X70724440Y-100312288D02*
X70544760Y-100284072D01*
X70544760Y-100284072D02*
X70349000Y-100195096D01*
X70349000Y-100195096D02*
X70216680Y-100034944D01*
X70216680Y-100034944D02*
X70168040Y-99855248D01*
X70168040Y-99855248D02*
X70168040Y-99795784D01*
X70168040Y-99795784D02*
X70168040Y-99795784D01*
X68701000Y-99689016D02*
X69094200Y-99689016D01*
X69094200Y-99689016D02*
X69094200Y-99720264D01*
X69094200Y-99720264D02*
X69100760Y-99814448D01*
X69100760Y-99814448D02*
X69130200Y-99931640D01*
X69130200Y-99931640D02*
X69198920Y-100018008D01*
X69198920Y-100018008D02*
X69290920Y-100051864D01*
X69290920Y-100051864D02*
X69321240Y-100051864D01*
X69321240Y-100051864D02*
X69357240Y-100051864D01*
X69357240Y-100051864D02*
X69464440Y-99995872D01*
X69464440Y-99995872D02*
X69531320Y-99851344D01*
X69531320Y-99851344D02*
X69551240Y-99650816D01*
X69551240Y-99650816D02*
X69551240Y-99484152D01*
X69551240Y-99484152D02*
X69551240Y-99428600D01*
X69551240Y-99428600D02*
X69551240Y-99377816D01*
X69551240Y-99377816D02*
X69550920Y-99225472D01*
X69550920Y-99225472D02*
X69530440Y-99032760D01*
X69530440Y-99032760D02*
X69460120Y-98888672D01*
X69460120Y-98888672D02*
X69348600Y-98832248D01*
X69348600Y-98832248D02*
X69311240Y-98832248D01*
X69311240Y-98832248D02*
X69282200Y-98832248D01*
X69282200Y-98832248D02*
X69194440Y-98863496D01*
X69194440Y-98863496D02*
X69132920Y-98944664D01*
X69132920Y-98944664D02*
X69108600Y-99054040D01*
X69108600Y-99054040D02*
X69104200Y-99142576D01*
X69104200Y-99142576D02*
X69104200Y-99172096D01*
X69104200Y-99172096D02*
X68711480Y-99172096D01*
X68711480Y-99172096D02*
X68711480Y-99101344D01*
X68711480Y-99101344D02*
X68743160Y-98889544D01*
X68743160Y-98889544D02*
X68845560Y-98700744D01*
X68845560Y-98700744D02*
X69030920Y-98594832D01*
X69030920Y-98594832D02*
X69241320Y-98562288D01*
X69241320Y-98562288D02*
X69311240Y-98562288D01*
X69311240Y-98562288D02*
X69399320Y-98562288D01*
X69399320Y-98562288D02*
X69663720Y-98637376D01*
X69663720Y-98637376D02*
X69860760Y-98842232D01*
X69860760Y-98842232D02*
X69946200Y-99145616D01*
X69946200Y-99145616D02*
X69964440Y-99422960D01*
X69964440Y-99422960D02*
X69964440Y-99515840D01*
X69964440Y-99515840D02*
X69964440Y-99598304D01*
X69964440Y-99598304D02*
X69942760Y-99846576D01*
X69942760Y-99846576D02*
X69853320Y-100101344D01*
X69853320Y-100101344D02*
X69658440Y-100264544D01*
X69658440Y-100264544D02*
X69405880Y-100322264D01*
X69405880Y-100322264D02*
X69321240Y-100322264D01*
X69321240Y-100322264D02*
X69237000Y-100322264D01*
X69237000Y-100322264D02*
X68983160Y-100261928D01*
X68983160Y-100261928D02*
X68797800Y-100109153D01*
X68797800Y-100109153D02*
X68718760Y-99904296D01*
X68718760Y-99904296D02*
X68701880Y-99742840D01*
X68701880Y-99742840D02*
X68701000Y-99689016D01*
X68701000Y-99689016D02*
X68701000Y-99689016D01*
X67204440Y-100282328D02*
X67204440Y-99075744D01*
X67204440Y-99075744D02*
X67204440Y-99019752D01*
X67204440Y-99019752D02*
X67225800Y-98853088D01*
X67225800Y-98853088D02*
X67296440Y-98692488D01*
X67296440Y-98692488D02*
X67427160Y-98594832D01*
X67427160Y-98594832D02*
X67578200Y-98562288D01*
X67578200Y-98562288D02*
X67628120Y-98562288D01*
X67628120Y-98562288D02*
X67687560Y-98562288D01*
X67687560Y-98562288D02*
X67864680Y-98617840D01*
X67864680Y-98617840D02*
X68016600Y-98743704D01*
X68016600Y-98743704D02*
X68041320Y-98778864D01*
X68041320Y-98778864D02*
X68041320Y-97872176D01*
X68041320Y-97872176D02*
X68454440Y-97872176D01*
X68454440Y-97872176D02*
X68454440Y-100282328D01*
X68454440Y-100282328D02*
X68041320Y-100282328D01*
X68041320Y-100282328D02*
X68041320Y-99199000D01*
X68041320Y-99199000D02*
X68041320Y-99166448D01*
X68041320Y-99166448D02*
X68029160Y-99069664D01*
X68029160Y-99069664D02*
X67988760Y-98951608D01*
X67988760Y-98951608D02*
X67917560Y-98865232D01*
X67917560Y-98865232D02*
X67838120Y-98832248D01*
X67838120Y-98832248D02*
X67811240Y-98832248D01*
X67811240Y-98832248D02*
X67784760Y-98832248D01*
X67784760Y-98832248D02*
X67705320Y-98856984D01*
X67705320Y-98856984D02*
X67647240Y-98925128D01*
X67647240Y-98925128D02*
X67622920Y-99028864D01*
X67622920Y-99028864D02*
X67617640Y-99126088D01*
X67617640Y-99126088D02*
X67617640Y-99158640D01*
X67617640Y-99158640D02*
X67617640Y-100282328D01*
X67617640Y-100282328D02*
X67204440Y-100282328D01*
X67204440Y-100282328D02*
X67204440Y-100282328D01*
X65578200Y-100282328D02*
X65579880Y-100258032D01*
X65579880Y-100258032D02*
X65591640Y-100068360D01*
X65591640Y-100068360D02*
X65591640Y-100005433D01*
X65591640Y-100005433D02*
X65591640Y-98602208D01*
X65591640Y-98602208D02*
X66004440Y-98602208D01*
X66004440Y-98602208D02*
X66004440Y-99692048D01*
X66004440Y-99692048D02*
X66004440Y-99721144D01*
X66004440Y-99721144D02*
X66014760Y-99809672D01*
X66014760Y-99809672D02*
X66050440Y-99925128D01*
X66050440Y-99925128D02*
X66120360Y-100013672D01*
X66120360Y-100013672D02*
X66203640Y-100048833D01*
X66203640Y-100048833D02*
X66231480Y-100048833D01*
X66231480Y-100048833D02*
X66259240Y-100048833D01*
X66259240Y-100048833D02*
X66342120Y-100018440D01*
X66342120Y-100018440D02*
X66399320Y-99940752D01*
X66399320Y-99940752D02*
X66421480Y-99836152D01*
X66421480Y-99836152D02*
X66425000Y-99752816D01*
X66425000Y-99752816D02*
X66425000Y-99725472D01*
X66425000Y-99725472D02*
X66425000Y-98602208D01*
X66425000Y-98602208D02*
X66838120Y-98602208D01*
X66838120Y-98602208D02*
X66838120Y-99842232D01*
X66838120Y-99842232D02*
X66838120Y-99893872D01*
X66838120Y-99893872D02*
X66813000Y-100049265D01*
X66813000Y-100049265D02*
X66734920Y-100197264D01*
X66734920Y-100197264D02*
X66599000Y-100285808D01*
X66599000Y-100285808D02*
X66451000Y-100315320D01*
X66451000Y-100315320D02*
X66401560Y-100315320D01*
X66401560Y-100315320D02*
X66344680Y-100315320D01*
X66344680Y-100315320D02*
X66172760Y-100262376D01*
X66172760Y-100262376D02*
X66024760Y-100137808D01*
X66024760Y-100137808D02*
X66001320Y-100102208D01*
X66001320Y-100102208D02*
X65997880Y-100282328D01*
X65997880Y-100282328D02*
X65578200Y-100282328D01*
X65578200Y-100282328D02*
X65578200Y-100282328D01*
X64807800Y-97872176D02*
X65221480Y-97872176D01*
X65221480Y-97872176D02*
X65221480Y-100282328D01*
X65221480Y-100282328D02*
X64807800Y-100282328D01*
X64807800Y-100282328D02*
X64807800Y-97872176D01*
X64807800Y-97872176D02*
X64807800Y-97872176D01*
X63271320Y-99488928D02*
X63271320Y-99401264D01*
X63271320Y-99401264D02*
X63280920Y-99138672D01*
X63280920Y-99138672D02*
X63344680Y-98843096D01*
X63344680Y-98843096D02*
X63519160Y-98638240D01*
X63519160Y-98638240D02*
X63773480Y-98562288D01*
X63773480Y-98562288D02*
X63858120Y-98562288D01*
X63858120Y-98562288D02*
X63944440Y-98562288D01*
X63944440Y-98562288D02*
X64202760Y-98637376D01*
X64202760Y-98637376D02*
X64398120Y-98837888D01*
X64398120Y-98837888D02*
X64485320Y-99124784D01*
X64485320Y-99124784D02*
X64504760Y-99375216D01*
X64504760Y-99375216D02*
X64504760Y-99458984D01*
X64504760Y-99458984D02*
X64504760Y-99541888D01*
X64504760Y-99541888D02*
X64490120Y-99791888D01*
X64490120Y-99791888D02*
X64413240Y-100066617D01*
X64413240Y-100066617D02*
X64226680Y-100253248D01*
X64226680Y-100253248D02*
X63967880Y-100322264D01*
X63967880Y-100322264D02*
X63881560Y-100322264D01*
X63881560Y-100322264D02*
X63816040Y-100322264D01*
X63816040Y-100322264D02*
X63619000Y-100287104D01*
X63619000Y-100287104D02*
X63435320Y-100178600D01*
X63435320Y-100178600D02*
X63325160Y-99992840D01*
X63325160Y-99992840D02*
X63284360Y-99792320D01*
X63284360Y-99792320D02*
X63281320Y-99725472D01*
X63281320Y-99725472D02*
X63675000Y-99725472D01*
X63675000Y-99725472D02*
X63675000Y-99754552D01*
X63675000Y-99754552D02*
X63682760Y-99842232D01*
X63682760Y-99842232D02*
X63712360Y-99947264D01*
X63712360Y-99947264D02*
X63774760Y-100022784D01*
X63774760Y-100022784D02*
X63855160Y-100051864D01*
X63855160Y-100051864D02*
X63881560Y-100051864D01*
X63881560Y-100051864D02*
X63923240Y-100051864D01*
X63923240Y-100051864D02*
X64048200Y-99952904D01*
X64048200Y-99952904D02*
X64094680Y-99717232D01*
X64094680Y-99717232D02*
X64094680Y-99639104D01*
X64094680Y-99639104D02*
X64094680Y-99488928D01*
X64094680Y-99488928D02*
X63271320Y-99488928D01*
X63271320Y-99488928D02*
X63271320Y-99488928D01*
X63677560Y-99258896D02*
X64094680Y-99258896D01*
X64094680Y-99258896D02*
X64094680Y-99207248D01*
X64094680Y-99207248D02*
X64083800Y-99068792D01*
X64083800Y-99068792D02*
X64081240Y-99052296D01*
X64081240Y-99052296D02*
X64076440Y-99018872D01*
X64076440Y-99018872D02*
X64020920Y-98892144D01*
X64020920Y-98892144D02*
X63911560Y-98832248D01*
X63911560Y-98832248D02*
X63874680Y-98832248D01*
X63874680Y-98832248D02*
X63841240Y-98832248D01*
X63841240Y-98832248D02*
X63740600Y-98887808D01*
X63740600Y-98887808D02*
X63692360Y-99000216D01*
X63692360Y-99000216D02*
X63688040Y-99028864D01*
X63688040Y-99028864D02*
X63685000Y-99048832D01*
X63685000Y-99048832D02*
X63677560Y-99206376D01*
X63677560Y-99206376D02*
X63677560Y-99258896D01*
X63677560Y-99258896D02*
X63677560Y-99258896D01*
X60961480Y-99561848D02*
X60961480Y-97872176D01*
X60961480Y-97872176D02*
X61408440Y-97872176D01*
X61408440Y-97872176D02*
X61408440Y-99542320D01*
X61408440Y-99542320D02*
X61408440Y-99580504D01*
X61408440Y-99580504D02*
X61411160Y-99695096D01*
X61411160Y-99695096D02*
X61434600Y-99842664D01*
X61434600Y-99842664D02*
X61504440Y-99954640D01*
X61504440Y-99954640D02*
X61609880Y-99998920D01*
X61609880Y-99998920D02*
X61645000Y-99998920D01*
X61645000Y-99998920D02*
X61678440Y-99998920D01*
X61678440Y-99998920D02*
X61777480Y-99960288D01*
X61777480Y-99960288D02*
X61846920Y-99859152D01*
X61846920Y-99859152D02*
X61873800Y-99715928D01*
X61873800Y-99715928D02*
X61878120Y-99593096D01*
X61878120Y-99593096D02*
X61878120Y-99552296D01*
X61878120Y-99552296D02*
X61878120Y-99498920D01*
X61878120Y-99498920D02*
X62324680Y-99498920D01*
X62324680Y-99498920D02*
X62324680Y-99605248D01*
X62324680Y-99605248D02*
X62324680Y-99682504D01*
X62324680Y-99682504D02*
X62293480Y-99915152D01*
X62293480Y-99915152D02*
X62186680Y-100142144D01*
X62186680Y-100142144D02*
X61984920Y-100281032D01*
X61984920Y-100281032D02*
X61747480Y-100328776D01*
X61747480Y-100328776D02*
X61668040Y-100328776D01*
X61668040Y-100328776D02*
X61586920Y-100328776D01*
X61586920Y-100328776D02*
X61342600Y-100285808D01*
X61342600Y-100285808D02*
X61123800Y-100150385D01*
X61123800Y-100150385D02*
X61000440Y-99912104D01*
X61000440Y-99912104D02*
X60961480Y-99649088D01*
X60961480Y-99649088D02*
X60961480Y-99561848D01*
X60961480Y-99561848D02*
X60961480Y-99561848D01*
X59391560Y-99488928D02*
X59391560Y-99401264D01*
X59391560Y-99401264D02*
X59401160Y-99138672D01*
X59401160Y-99138672D02*
X59464920Y-98843096D01*
X59464920Y-98843096D02*
X59639320Y-98638240D01*
X59639320Y-98638240D02*
X59893720Y-98562288D01*
X59893720Y-98562288D02*
X59978360Y-98562288D01*
X59978360Y-98562288D02*
X60064760Y-98562288D01*
X60064760Y-98562288D02*
X60323000Y-98637376D01*
X60323000Y-98637376D02*
X60517880Y-98837888D01*
X60517880Y-98837888D02*
X60605160Y-99124784D01*
X60605160Y-99124784D02*
X60625000Y-99375216D01*
X60625000Y-99375216D02*
X60625000Y-99458984D01*
X60625000Y-99458984D02*
X60625000Y-99541888D01*
X60625000Y-99541888D02*
X60610360Y-99791888D01*
X60610360Y-99791888D02*
X60533480Y-100066617D01*
X60533480Y-100066617D02*
X60346920Y-100253248D01*
X60346920Y-100253248D02*
X60088120Y-100322264D01*
X60088120Y-100322264D02*
X60001800Y-100322264D01*
X60001800Y-100322264D02*
X59936200Y-100322264D01*
X59936200Y-100322264D02*
X59739240Y-100287104D01*
X59739240Y-100287104D02*
X59555560Y-100178600D01*
X59555560Y-100178600D02*
X59445320Y-99992840D01*
X59445320Y-99992840D02*
X59404600Y-99792320D01*
X59404600Y-99792320D02*
X59401560Y-99725472D01*
X59401560Y-99725472D02*
X59795240Y-99725472D01*
X59795240Y-99725472D02*
X59795240Y-99754552D01*
X59795240Y-99754552D02*
X59802600Y-99842232D01*
X59802600Y-99842232D02*
X59832120Y-99947264D01*
X59832120Y-99947264D02*
X59895000Y-100022784D01*
X59895000Y-100022784D02*
X59975320Y-100051864D01*
X59975320Y-100051864D02*
X60001800Y-100051864D01*
X60001800Y-100051864D02*
X60043480Y-100051864D01*
X60043480Y-100051864D02*
X60168440Y-99952904D01*
X60168440Y-99952904D02*
X60214920Y-99717232D01*
X60214920Y-99717232D02*
X60214920Y-99639104D01*
X60214920Y-99639104D02*
X60214920Y-99488928D01*
X60214920Y-99488928D02*
X59391560Y-99488928D01*
X59391560Y-99488928D02*
X59391560Y-99488928D01*
X59798200Y-99258896D02*
X60214920Y-99258896D01*
X60214920Y-99258896D02*
X60214920Y-99207248D01*
X60214920Y-99207248D02*
X60204040Y-99068792D01*
X60204040Y-99068792D02*
X60201480Y-99052296D01*
X60201480Y-99052296D02*
X60196680Y-99018872D01*
X60196680Y-99018872D02*
X60140680Y-98892144D01*
X60140680Y-98892144D02*
X60031320Y-98832248D01*
X60031320Y-98832248D02*
X59994920Y-98832248D01*
X59994920Y-98832248D02*
X59961480Y-98832248D01*
X59961480Y-98832248D02*
X59860360Y-98887808D01*
X59860360Y-98887808D02*
X59812600Y-99000216D01*
X59812600Y-99000216D02*
X59808200Y-99028864D01*
X59808200Y-99028864D02*
X59805240Y-99048832D01*
X59805240Y-99048832D02*
X59798200Y-99206376D01*
X59798200Y-99206376D02*
X59798200Y-99258896D01*
X59798200Y-99258896D02*
X59798200Y-99258896D01*
X57848120Y-100282328D02*
X57848120Y-99075744D01*
X57848120Y-99075744D02*
X57848120Y-99019752D01*
X57848120Y-99019752D02*
X57868120Y-98853088D01*
X57868120Y-98853088D02*
X57937160Y-98692488D01*
X57937160Y-98692488D02*
X58069480Y-98594832D01*
X58069480Y-98594832D02*
X58226200Y-98562288D01*
X58226200Y-98562288D02*
X58278200Y-98562288D01*
X58278200Y-98562288D02*
X58340360Y-98562288D01*
X58340360Y-98562288D02*
X58526600Y-98626520D01*
X58526600Y-98626520D02*
X58669320Y-98756296D01*
X58669320Y-98756296D02*
X58691480Y-98788840D01*
X58691480Y-98788840D02*
X58694920Y-98602208D01*
X58694920Y-98602208D02*
X59111560Y-98602208D01*
X59111560Y-98602208D02*
X59108600Y-98624352D01*
X59108600Y-98624352D02*
X59098120Y-98812720D01*
X59098120Y-98812720D02*
X59098120Y-98875648D01*
X59098120Y-98875648D02*
X59098120Y-100282328D01*
X59098120Y-100282328D02*
X58685000Y-100282328D01*
X58685000Y-100282328D02*
X58685000Y-99185544D01*
X58685000Y-99185544D02*
X58685000Y-99124784D01*
X58685000Y-99124784D02*
X58627240Y-98942488D01*
X58627240Y-98942488D02*
X58495720Y-98832248D01*
X58495720Y-98832248D02*
X58451480Y-98832248D01*
X58451480Y-98832248D02*
X58424600Y-98832248D01*
X58424600Y-98832248D02*
X58343320Y-98859152D01*
X58343320Y-98859152D02*
X58287000Y-98931208D01*
X58287000Y-98931208D02*
X58265240Y-99034504D01*
X58265240Y-99034504D02*
X58261800Y-99125216D01*
X58261800Y-99125216D02*
X58261800Y-99155592D01*
X58261800Y-99155592D02*
X58261800Y-100282328D01*
X58261800Y-100282328D02*
X57848120Y-100282328D01*
X57848120Y-100282328D02*
X57848120Y-100282328D01*
X56331640Y-100282328D02*
X56337800Y-100235464D01*
X56337800Y-100235464D02*
X56358120Y-99850040D01*
X56358120Y-99850040D02*
X56358120Y-99722008D01*
X56358120Y-99722008D02*
X56358120Y-99135632D01*
X56358120Y-99135632D02*
X56358120Y-99070960D01*
X56358120Y-99070960D02*
X56386360Y-98876952D01*
X56386360Y-98876952D02*
X56478760Y-98698560D01*
X56478760Y-98698560D02*
X56649800Y-98595264D01*
X56649800Y-98595264D02*
X56846440Y-98562288D01*
X56846440Y-98562288D02*
X56911560Y-98562288D01*
X56911560Y-98562288D02*
X56969240Y-98562288D01*
X56969240Y-98562288D02*
X57141560Y-98583120D01*
X57141560Y-98583120D02*
X57339000Y-98657760D01*
X57339000Y-98657760D02*
X57476680Y-98804040D01*
X57476680Y-98804040D02*
X57528200Y-98979816D01*
X57528200Y-98979816D02*
X57528200Y-99038840D01*
X57528200Y-99038840D02*
X57528200Y-99068792D01*
X57528200Y-99068792D02*
X57121560Y-99068792D01*
X57121560Y-99068792D02*
X57121560Y-99042320D01*
X57121560Y-99042320D02*
X57121560Y-99002816D01*
X57121560Y-99002816D02*
X57080760Y-98884328D01*
X57080760Y-98884328D02*
X56969240Y-98818792D01*
X56969240Y-98818792D02*
X56931880Y-98818792D01*
X56931880Y-98818792D02*
X56906360Y-98818792D01*
X56906360Y-98818792D02*
X56829000Y-98850472D01*
X56829000Y-98850472D02*
X56777800Y-98929904D01*
X56777800Y-98929904D02*
X56760440Y-99033640D01*
X56760440Y-99033640D02*
X56758760Y-99112200D01*
X56758760Y-99112200D02*
X56758760Y-99138672D01*
X56758760Y-99138672D02*
X56758760Y-99225904D01*
X56758760Y-99225904D02*
X56837800Y-99225904D01*
X56837800Y-99225904D02*
X57074200Y-99240232D01*
X57074200Y-99240232D02*
X57333000Y-99314016D01*
X57333000Y-99314016D02*
X57507880Y-99489800D01*
X57507880Y-99489800D02*
X57571640Y-99731552D01*
X57571640Y-99731552D02*
X57571640Y-99812288D01*
X57571640Y-99812288D02*
X57571640Y-99860464D01*
X57571640Y-99860464D02*
X57550440Y-100005865D01*
X57550440Y-100005865D02*
X57480600Y-100166016D01*
X57480600Y-100166016D02*
X57352920Y-100274952D01*
X57352920Y-100274952D02*
X57207160Y-100315320D01*
X57207160Y-100315320D02*
X57158440Y-100315320D01*
X57158440Y-100315320D02*
X57097240Y-100315320D01*
X57097240Y-100315320D02*
X56913720Y-100259760D01*
X56913720Y-100259760D02*
X56761800Y-100129552D01*
X56761800Y-100129552D02*
X56738360Y-100092232D01*
X56738360Y-100092232D02*
X56731480Y-100282328D01*
X56731480Y-100282328D02*
X56331640Y-100282328D01*
X56331640Y-100282328D02*
X56331640Y-100282328D01*
X56758760Y-99662104D02*
X56758760Y-99692048D01*
X56758760Y-99692048D02*
X56766600Y-99782328D01*
X56766600Y-99782328D02*
X56797800Y-99907328D01*
X56797800Y-99907328D02*
X56865560Y-100005433D01*
X56865560Y-100005433D02*
X56952760Y-100045352D01*
X56952760Y-100045352D02*
X56981800Y-100045352D01*
X56981800Y-100045352D02*
X57017880Y-100045352D01*
X57017880Y-100045352D02*
X57125000Y-99958552D01*
X57125000Y-99958552D02*
X57158440Y-99826176D01*
X57158440Y-99826176D02*
X57158440Y-99782328D01*
X57158440Y-99782328D02*
X57158440Y-99722440D01*
X57158440Y-99722440D02*
X57077800Y-99543184D01*
X57077800Y-99543184D02*
X56893320Y-99472008D01*
X56893320Y-99472008D02*
X56831640Y-99472008D01*
X56831640Y-99472008D02*
X56758760Y-99472008D01*
X56758760Y-99472008D02*
X56758760Y-99662104D01*
X56758760Y-99662104D02*
X56758760Y-99662104D01*
X103970128Y-102685984D02*
X103970128Y-101077472D01*
X103970128Y-101077472D02*
X104169768Y-101077472D01*
X104169768Y-101077472D02*
X104169768Y-102685984D01*
X104169768Y-102685984D02*
X104169768Y-102748488D01*
X104169768Y-102748488D02*
X104183656Y-102936416D01*
X104183656Y-102936416D02*
X104244864Y-103150393D01*
X104244864Y-103150393D02*
X104383752Y-103299264D01*
X104383752Y-103299264D02*
X104568212Y-103355251D01*
X104568212Y-103355251D02*
X104629409Y-103355251D01*
X104629409Y-103355251D02*
X104692344Y-103355251D01*
X91069480Y-98818792D02*
X91073000Y-98602208D01*
X91073000Y-98602208D02*
X91469720Y-98602208D01*
X91469720Y-98602208D02*
X91469720Y-98639976D01*
X89596440Y-98562288D02*
X89658440Y-98562288D01*
X89658440Y-98562288D02*
X89844680Y-98626520D01*
X89844680Y-98626520D02*
X89987480Y-98756296D01*
X89987480Y-98756296D02*
X90009560Y-98788840D01*
X90009560Y-98788840D02*
X90013160Y-98602208D01*
X90013160Y-98602208D02*
X90429800Y-98602208D01*
X90429800Y-98602208D02*
X90426680Y-98624352D01*
X90426680Y-98624352D02*
X90416360Y-98812720D01*
X90416360Y-98812720D02*
X90416360Y-98875648D01*
X90416360Y-98875648D02*
X90416360Y-100282328D01*
X90416360Y-100282328D02*
X90003160Y-100282328D01*
X90003160Y-100282328D02*
X90003160Y-99185544D01*
X90003160Y-99185544D02*
X90003160Y-99124784D01*
X90003160Y-99124784D02*
X89945320Y-98942488D01*
X89945320Y-98942488D02*
X89813880Y-98832248D01*
X89813880Y-98832248D02*
X89769560Y-98832248D01*
X89769560Y-98832248D02*
X89742680Y-98832248D01*
X89742680Y-98832248D02*
X89661560Y-98859152D01*
X89661560Y-98859152D02*
X89605160Y-98931208D01*
X89605160Y-98931208D02*
X89583320Y-99034504D01*
X89583320Y-99034504D02*
X89579880Y-99125216D01*
X89579880Y-99125216D02*
X89579880Y-99155592D01*
X89579880Y-99155592D02*
X89579880Y-100282328D01*
X89579880Y-100282328D02*
X89166360Y-100282328D01*
X90972680Y-99044920D02*
X90862920Y-98963760D01*
X90862920Y-98963760D02*
X90735320Y-98935544D01*
X90735320Y-98935544D02*
X90692760Y-98935544D01*
X90692760Y-98935544D02*
X90675480Y-98935544D01*
X90675480Y-98935544D02*
X90629000Y-98941184D01*
X90629000Y-98941184D02*
X90622920Y-98942048D01*
X90622920Y-98942048D02*
X90622920Y-98942048D01*
X89166360Y-100282328D02*
X89166360Y-99075744D01*
X89166360Y-99075744D02*
X89166360Y-99019752D01*
X89166360Y-99019752D02*
X89186200Y-98853088D01*
X89186200Y-98853088D02*
X89255240Y-98692488D01*
X89255240Y-98692488D02*
X89387240Y-98594832D01*
X89387240Y-98594832D02*
X89544360Y-98562288D01*
X89544360Y-98562288D02*
X89596440Y-98562288D01*
X99128976Y-102316184D02*
X99127232Y-102332688D01*
X99127232Y-102332688D02*
X99125072Y-102475040D01*
X99125072Y-102475040D02*
X99125072Y-102522784D01*
X99125072Y-102522784D02*
X99125072Y-102522784D01*
X97886360Y-101963320D02*
X97886360Y-101773216D01*
X97886360Y-101773216D02*
X97895032Y-101773216D01*
X97895032Y-101773216D02*
X97913704Y-101770184D01*
X97913704Y-101770184D02*
X97919768Y-101770184D01*
X97919768Y-101770184D02*
X97982272Y-101770184D01*
X97982272Y-101770184D02*
X98169336Y-101840064D01*
X98169336Y-101840064D02*
X98323856Y-101989800D01*
X98323856Y-101989800D02*
X98345992Y-102029728D01*
X98345992Y-102029728D02*
X98349456Y-101806640D01*
X98349456Y-101806640D02*
X98532624Y-101806640D01*
X98532624Y-101806640D02*
X98531312Y-101832248D01*
X98531312Y-101832248D02*
X98519168Y-102042752D01*
X98519168Y-102042752D02*
X98519168Y-102113064D01*
X98519168Y-102113064D02*
X98519168Y-103485025D01*
X98519168Y-103485025D02*
X98329488Y-103485025D01*
X98329488Y-103485025D02*
X98329488Y-102393008D01*
X98329488Y-102393008D02*
X98329488Y-102350040D01*
X98329488Y-102350040D02*
X98304760Y-102222440D01*
X98304760Y-102222440D02*
X98230536Y-102084848D01*
X98230536Y-102084848D02*
X98107704Y-101993272D01*
X98107704Y-101993272D02*
X97979672Y-101959848D01*
X97979672Y-101959848D02*
X97936704Y-101959848D01*
X97936704Y-101959848D02*
X97924112Y-101959848D01*
X97924112Y-101959848D02*
X97890688Y-101962448D01*
X97890688Y-101962448D02*
X97886360Y-101963320D01*
X97886360Y-101963320D02*
X97886360Y-101963320D01*
X96774360Y-103038840D02*
X96774360Y-102993272D01*
X96774360Y-102993272D02*
X96809960Y-102856984D01*
X96809960Y-102856984D02*
X96901560Y-102722008D01*
X96901560Y-102722008D02*
X97028680Y-102620008D01*
X97028680Y-102620008D02*
X97135080Y-102555776D01*
X97135080Y-102555776D02*
X97170680Y-102535808D01*
X97170680Y-102535808D02*
X97212281Y-102512376D01*
X97212281Y-102512376D02*
X97393304Y-102390408D01*
X97393304Y-102390408D02*
X97490528Y-102234592D01*
X97490528Y-102234592D02*
X97490528Y-102182944D01*
X97490528Y-102182944D02*
X97490528Y-102136497D01*
X97490528Y-102136497D02*
X97423248Y-101997176D01*
X97423248Y-101997176D02*
X97286520Y-101926432D01*
X97286520Y-101926432D02*
X97240920Y-101926432D01*
X97240920Y-101926432D02*
X97194121Y-101926432D01*
X97194121Y-101926432D02*
X97053480Y-101984152D01*
X97053480Y-101984152D02*
X96986200Y-102107417D01*
X96986200Y-102107417D02*
X96981001Y-102139976D01*
X96981001Y-102139976D02*
X96979641Y-102149088D01*
X96979641Y-102149088D02*
X96974440Y-102229384D01*
X96974440Y-102229384D02*
X96974440Y-102256296D01*
X96974440Y-102256296D02*
X96784360Y-102256296D01*
X96784360Y-102256296D02*
X96785240Y-102244576D01*
X96785240Y-102244576D02*
X96789560Y-102139976D01*
X96789560Y-102139976D02*
X96791320Y-102129984D01*
X96791320Y-102129984D02*
X96800440Y-102067488D01*
X96800440Y-102067488D02*
X96924520Y-101856120D01*
X96924520Y-101856120D02*
X97151960Y-101770184D01*
X97151960Y-101770184D02*
X97227481Y-101770184D01*
X97227481Y-101770184D02*
X97273480Y-101770184D01*
X97273480Y-101770184D02*
X97410656Y-101796648D01*
X97410656Y-101796648D02*
X97553888Y-101876088D01*
X97553888Y-101876088D02*
X97647200Y-102007160D01*
X97647200Y-102007160D02*
X97680192Y-102143872D01*
X97680192Y-102143872D02*
X97680192Y-102189448D01*
X97680192Y-102189448D02*
X97680192Y-102236328D01*
X97680192Y-102236328D02*
X97641992Y-102378248D01*
X97641992Y-102378248D02*
X97542600Y-102510200D01*
X97542600Y-102510200D02*
X97406760Y-102606984D01*
X97406760Y-102606984D02*
X97294760Y-102668616D01*
X97294760Y-102668616D02*
X97257480Y-102689448D01*
X97257480Y-102689448D02*
X97215801Y-102712448D01*
X97215801Y-102712448D02*
X97049960Y-102832248D01*
X97049960Y-102832248D02*
X96967480Y-103014544D01*
X96967480Y-103014544D02*
X96967480Y-103075304D01*
X96967480Y-103075304D02*
X96967480Y-103128688D01*
X96967480Y-103128688D02*
X97042600Y-103290144D01*
X97042600Y-103290144D02*
X97204040Y-103365234D01*
X97204040Y-103365234D02*
X97257480Y-103365234D01*
X97257480Y-103365234D02*
X97307360Y-103365234D01*
X97307360Y-103365234D02*
X97455800Y-103296656D01*
X97455800Y-103296656D02*
X97529144Y-103141713D01*
X97529144Y-103141713D02*
X97533928Y-103098744D01*
X97533928Y-103098744D02*
X97534792Y-103089624D01*
X97534792Y-103089624D02*
X97536960Y-103011496D01*
X97536960Y-103011496D02*
X97536960Y-102985464D01*
X97536960Y-102985464D02*
X97727072Y-102985464D01*
X97727072Y-102985464D02*
X97727072Y-103018008D01*
X97727072Y-103018008D02*
X97724456Y-103105248D01*
X97724456Y-103105248D02*
X97723592Y-103115664D01*
X97723592Y-103115664D02*
X97718816Y-103158200D01*
X97718816Y-103158200D02*
X97681928Y-103284936D01*
X97681928Y-103284936D02*
X97595560Y-103411676D01*
X97595560Y-103411676D02*
X97456672Y-103490668D01*
X97456672Y-103490668D02*
X97307360Y-103518445D01*
X97307360Y-103518445D02*
X97257480Y-103518445D01*
X97257480Y-103518445D02*
X97205400Y-103518445D01*
X97205400Y-103518445D02*
X97048680Y-103487630D01*
X97048680Y-103487630D02*
X96897640Y-103396917D01*
X96897640Y-103396917D02*
X96805640Y-103247176D01*
X96805640Y-103247176D02*
X96774360Y-103090928D01*
X96774360Y-103090928D02*
X96774360Y-103038840D01*
X96774360Y-103038840D02*
X96774360Y-103038840D01*
X96178440Y-101114360D02*
X96408040Y-101114360D01*
X96408040Y-101114360D02*
X96408040Y-101366976D01*
X96408040Y-101366976D02*
X96178440Y-101366976D01*
X96178440Y-101366976D02*
X96178440Y-101114360D01*
X96178440Y-101114360D02*
X96178440Y-101114360D01*
X96198440Y-101806640D02*
X96388520Y-101806640D01*
X96388520Y-101806640D02*
X96388520Y-103485025D01*
X96388520Y-103485025D02*
X96198440Y-103485025D01*
X96198440Y-103485025D02*
X96198440Y-101806640D01*
X96198440Y-101806640D02*
X96198440Y-101806640D01*
X95119880Y-103485025D02*
X95119880Y-103315320D01*
X95119880Y-103315320D02*
X95130680Y-103316624D01*
X95130680Y-103316624D02*
X95214920Y-103328344D01*
X95214920Y-103328344D02*
X95242680Y-103328344D01*
X95242680Y-103328344D02*
X95280440Y-103328344D01*
X95280440Y-103328344D02*
X95392440Y-103288408D01*
X95392440Y-103288408D02*
X95439320Y-103141273D01*
X95439320Y-103141273D02*
X95439320Y-103092232D01*
X95439320Y-103092232D02*
X95439320Y-101963320D01*
X95439320Y-101963320D02*
X95119880Y-101963320D01*
X95119880Y-101963320D02*
X95119880Y-101806640D01*
X95119880Y-101806640D02*
X95439320Y-101806640D01*
X95439320Y-101806640D02*
X95439320Y-101397352D01*
X95439320Y-101397352D02*
X95629400Y-101483720D01*
X95629400Y-101483720D02*
X95629400Y-101806640D01*
X95629400Y-101806640D02*
X95888920Y-101806640D01*
X95888920Y-101806640D02*
X95888920Y-101963320D01*
X95888920Y-101963320D02*
X95629400Y-101963320D01*
X95629400Y-101963320D02*
X95629400Y-103105688D01*
X95629400Y-103105688D02*
X95629400Y-103148216D01*
X95629400Y-103148216D02*
X95618120Y-103276256D01*
X95618120Y-103276256D02*
X95570840Y-103399088D01*
X95570840Y-103399088D02*
X95467960Y-103473306D01*
X95467960Y-103473306D02*
X95334280Y-103498481D01*
X95334280Y-103498481D02*
X95289560Y-103498481D01*
X95289560Y-103498481D02*
X95247480Y-103498481D01*
X95247480Y-103498481D02*
X95134200Y-103486328D01*
X95134200Y-103486328D02*
X95119880Y-103485025D01*
X95119880Y-103485025D02*
X95119880Y-103485025D01*
X93814360Y-101806640D02*
X94000920Y-101806640D01*
X94000920Y-101806640D02*
X94383720Y-103231984D01*
X94383720Y-103231984D02*
X94776520Y-101806640D01*
X94776520Y-101806640D02*
X94980120Y-101806640D01*
X94980120Y-101806640D02*
X94477080Y-103491536D01*
X94477080Y-103491536D02*
X94663240Y-104124349D01*
X94663240Y-104124349D02*
X94477080Y-104124349D01*
X94477080Y-104124349D02*
X93814360Y-101806640D01*
X93814360Y-101806640D02*
X93814360Y-101806640D01*
X91736600Y-102655592D02*
X91736600Y-102566616D01*
X91736600Y-102566616D02*
X91750040Y-102299696D01*
X91750040Y-102299696D02*
X91816920Y-102019320D01*
X92494440Y-103312712D02*
X92600760Y-103178168D01*
X92600760Y-103178168D02*
X92642040Y-102995440D01*
X92642040Y-102995440D02*
X92648920Y-102847872D01*
X92648920Y-102847872D02*
X92648920Y-102798832D01*
X92648920Y-102798832D02*
X92648920Y-102606120D01*
X92648920Y-102606120D02*
X92648920Y-102550992D01*
X92648920Y-102550992D02*
X92645480Y-102386928D01*
X92645480Y-102386928D02*
X92608120Y-102164704D01*
X92608120Y-102164704D02*
X92498760Y-101992408D01*
X91736600Y-102655592D02*
X91736600Y-102655592D01*
X91933240Y-102805776D02*
X91933240Y-102855248D01*
X91933240Y-102855248D02*
X91943640Y-103004120D01*
X91943640Y-103004120D02*
X91990600Y-103183808D01*
X91990600Y-103183808D02*
X92099000Y-103314456D01*
X92099000Y-103314456D02*
X92244440Y-103365234D01*
X92244440Y-103365234D02*
X92292600Y-103365234D01*
X92292600Y-103365234D02*
X92343320Y-103365234D01*
X92343320Y-103365234D02*
X92494440Y-103312712D01*
X92590360Y-103457682D02*
X92372440Y-103518445D01*
X92372440Y-103518445D02*
X92299560Y-103518445D01*
X92299560Y-103518445D02*
X92228360Y-103518445D01*
X92228360Y-103518445D02*
X92014760Y-103461154D01*
X92014760Y-103461154D02*
X91843320Y-103294056D01*
X91843320Y-103294056D02*
X91759240Y-103023648D01*
X91759240Y-103023648D02*
X91736600Y-102747608D01*
X91736600Y-102747608D02*
X91736600Y-102655592D01*
X92845560Y-102750648D02*
X92828680Y-103015408D01*
X92828680Y-103015408D02*
X92754760Y-103284936D01*
X92754760Y-103284936D02*
X92590360Y-103457682D01*
X92828680Y-102316184D02*
X92845560Y-102575744D01*
X92845560Y-102575744D02*
X92845560Y-102662544D01*
X92845560Y-102662544D02*
X92845560Y-102750648D01*
X91816920Y-102019320D02*
X91978360Y-101835720D01*
X91978360Y-101835720D02*
X92201880Y-101770184D01*
X92201880Y-101770184D02*
X92276120Y-101770184D01*
X92276120Y-101770184D02*
X92352440Y-101770184D01*
X92352440Y-101770184D02*
X92580360Y-101840496D01*
X92580360Y-101840496D02*
X92752200Y-102032760D01*
X92752200Y-102032760D02*
X92828680Y-102316184D01*
D12*
X81750000Y-115531684D02*
X81750000Y-115531684D01*
X74066000Y-116618932D02*
X74399360Y-115798188D01*
X76681920Y-121364157D02*
X75737440Y-120917108D01*
X62021280Y-121909730D02*
X62021280Y-119968316D01*
X73952240Y-117337244D02*
X74066000Y-116618932D01*
X80484400Y-121909730D02*
X80131120Y-121909730D01*
X93595528Y-119125004D02*
X95750040Y-113590292D01*
X74941040Y-115111548D02*
X75679680Y-114556428D01*
X63184000Y-116721796D02*
X68263040Y-116721796D01*
X77987920Y-117980044D02*
X78178000Y-118740020D01*
X95613320Y-121909730D02*
X91560400Y-121909730D01*
X80895040Y-119968316D02*
X81750000Y-119968316D01*
X81750000Y-115531684D02*
X80980480Y-115531684D01*
X77703600Y-113827732D02*
X78966560Y-113648852D01*
X73952240Y-117848100D02*
X73952240Y-117576828D01*
X72298720Y-121909730D02*
X62021280Y-121909730D01*
X99819920Y-113590292D02*
X95613320Y-121909730D01*
X75737440Y-120917108D02*
X74977920Y-120323356D01*
X78676240Y-115979172D02*
X78366800Y-116270404D01*
X80980480Y-115531684D02*
X80793920Y-115531684D01*
X62260880Y-113590292D02*
X72298720Y-113590292D01*
X74417600Y-119574660D02*
X74071280Y-118661900D01*
X77987920Y-117727004D02*
X77987920Y-117980044D01*
X80793920Y-115531684D02*
X80233600Y-115554700D01*
X80382000Y-113590292D02*
X85785600Y-113590292D01*
X95750040Y-113590292D02*
X99819920Y-113590292D01*
X85785600Y-121909730D02*
X80484400Y-121909730D01*
X68263040Y-118662764D02*
X63184000Y-118662764D01*
X81750000Y-119968316D02*
X81750000Y-115531684D01*
X68263040Y-119968316D02*
X68263040Y-118662764D01*
X78152800Y-116652788D02*
X78028240Y-117134988D01*
X80028240Y-113590292D02*
X80382000Y-113590292D01*
X91355520Y-113590292D02*
X93595528Y-119125004D01*
X80583360Y-119968316D02*
X80895040Y-119968316D01*
X73952240Y-117576828D02*
X73952240Y-117337244D01*
X68263040Y-115531684D02*
X62260880Y-115531684D01*
X62260880Y-115531684D02*
X62260880Y-113590292D01*
X74977920Y-120323356D02*
X74417600Y-119574660D01*
X76604240Y-114129356D02*
X77703600Y-113827732D01*
X79604240Y-115630652D02*
X79086800Y-115769108D01*
X95613320Y-121909730D02*
X95613320Y-121909730D01*
X87285120Y-113590292D02*
X91355520Y-113590292D01*
X78366800Y-116270404D02*
X78152800Y-116652788D01*
X68263040Y-116721796D02*
X68263040Y-115531684D01*
X78178000Y-118740020D02*
X78736160Y-119436644D01*
X79086800Y-115769108D02*
X78676240Y-115979172D01*
X79069920Y-121851570D02*
X77797360Y-121672750D01*
X85785600Y-113590292D02*
X85785600Y-121909730D01*
X77987920Y-117578996D02*
X77987920Y-117727004D01*
X80131120Y-121909730D02*
X79069920Y-121851570D01*
X74071280Y-118661900D02*
X73952240Y-117848100D01*
X79647600Y-119838988D02*
X80583360Y-119968316D01*
X74399360Y-115798188D02*
X74941040Y-115111548D01*
X91560400Y-121909730D02*
X87285120Y-113590292D01*
X80233600Y-115554700D02*
X79604240Y-115630652D01*
X80484400Y-121909730D02*
X80484400Y-121909730D01*
X77797360Y-121672750D02*
X76681920Y-121364157D01*
X72298720Y-113590292D02*
X72298720Y-121909730D01*
X78966560Y-113648852D02*
X80028240Y-113590292D01*
X78736160Y-119436644D02*
X79647600Y-119838988D01*
X75679680Y-114556428D02*
X76604240Y-114129356D01*
X63184000Y-118662764D02*
X63184000Y-116721796D01*
X62021280Y-121909730D02*
X62021280Y-121909730D01*
X78028240Y-117134988D02*
X77987920Y-117578996D01*
X62021280Y-119968316D02*
X68263040Y-119968316D01*
D13*
X100018000Y-63924571D02*
X100018000Y-62424571D01*
X99660857Y-62424571D01*
X99446571Y-62496000D01*
X99303714Y-62638857D01*
X99232285Y-62781714D01*
X99160857Y-63067428D01*
X99160857Y-63281714D01*
X99232285Y-63567428D01*
X99303714Y-63710285D01*
X99446571Y-63853142D01*
X99660857Y-63924571D01*
X100018000Y-63924571D01*
X97946571Y-63853142D02*
X98089428Y-63924571D01*
X98375142Y-63924571D01*
X98518000Y-63853142D01*
X98589428Y-63710285D01*
X98589428Y-63138857D01*
X98518000Y-62996000D01*
X98375142Y-62924571D01*
X98089428Y-62924571D01*
X97946571Y-62996000D01*
X97875142Y-63138857D01*
X97875142Y-63281714D01*
X98589428Y-63424571D01*
X97375142Y-62924571D02*
X97018000Y-63924571D01*
X96660857Y-62924571D01*
X95518000Y-63853142D02*
X95660857Y-63924571D01*
X95946571Y-63924571D01*
X96089428Y-63853142D01*
X96160857Y-63710285D01*
X96160857Y-63138857D01*
X96089428Y-62996000D01*
X95946571Y-62924571D01*
X95660857Y-62924571D01*
X95518000Y-62996000D01*
X95446571Y-63138857D01*
X95446571Y-63281714D01*
X96160857Y-63424571D01*
X94589428Y-63924571D02*
X94732285Y-63853142D01*
X94803714Y-63710285D01*
X94803714Y-62424571D01*
X93803714Y-63924571D02*
X93946571Y-63853142D01*
X94018000Y-63781714D01*
X94089428Y-63638857D01*
X94089428Y-63210285D01*
X94018000Y-63067428D01*
X93946571Y-62996000D01*
X93803714Y-62924571D01*
X93589428Y-62924571D01*
X93446571Y-62996000D01*
X93375142Y-63067428D01*
X93303714Y-63210285D01*
X93303714Y-63638857D01*
X93375142Y-63781714D01*
X93446571Y-63853142D01*
X93589428Y-63924571D01*
X93803714Y-63924571D01*
X92660857Y-62924571D02*
X92660857Y-64424571D01*
X92660857Y-62996000D02*
X92518000Y-62924571D01*
X92232285Y-62924571D01*
X92089428Y-62996000D01*
X92018000Y-63067428D01*
X91946571Y-63210285D01*
X91946571Y-63638857D01*
X92018000Y-63781714D01*
X92089428Y-63853142D01*
X92232285Y-63924571D01*
X92518000Y-63924571D01*
X92660857Y-63853142D01*
X90732285Y-63853142D02*
X90875142Y-63924571D01*
X91160857Y-63924571D01*
X91303714Y-63853142D01*
X91375142Y-63710285D01*
X91375142Y-63138857D01*
X91303714Y-62996000D01*
X91160857Y-62924571D01*
X90875142Y-62924571D01*
X90732285Y-62996000D01*
X90660857Y-63138857D01*
X90660857Y-63281714D01*
X91375142Y-63424571D01*
X89375142Y-63924571D02*
X89375142Y-62424571D01*
X89375142Y-63853142D02*
X89518000Y-63924571D01*
X89803714Y-63924571D01*
X89946571Y-63853142D01*
X90018000Y-63781714D01*
X90089428Y-63638857D01*
X90089428Y-63210285D01*
X90018000Y-63067428D01*
X89946571Y-62996000D01*
X89803714Y-62924571D01*
X89518000Y-62924571D01*
X89375142Y-62996000D01*
X87518000Y-63924571D02*
X87518000Y-62424571D01*
X87518000Y-62996000D02*
X87375142Y-62924571D01*
X87089428Y-62924571D01*
X86946571Y-62996000D01*
X86875142Y-63067428D01*
X86803714Y-63210285D01*
X86803714Y-63638857D01*
X86875142Y-63781714D01*
X86946571Y-63853142D01*
X87089428Y-63924571D01*
X87375142Y-63924571D01*
X87518000Y-63853142D01*
X86303714Y-62924571D02*
X85946571Y-63924571D01*
X85589428Y-62924571D02*
X85946571Y-63924571D01*
X86089428Y-64281714D01*
X86160857Y-64353142D01*
X86303714Y-64424571D01*
X83375142Y-63138857D02*
X83875142Y-63138857D01*
X83875142Y-63924571D02*
X83875142Y-62424571D01*
X83160857Y-62424571D01*
X81946571Y-63924571D02*
X81946571Y-63138857D01*
X82018000Y-62996000D01*
X82160857Y-62924571D01*
X82446571Y-62924571D01*
X82589428Y-62996000D01*
X81946571Y-63853142D02*
X82089428Y-63924571D01*
X82446571Y-63924571D01*
X82589428Y-63853142D01*
X82660857Y-63710285D01*
X82660857Y-63567428D01*
X82589428Y-63424571D01*
X82446571Y-63353142D01*
X82089428Y-63353142D01*
X81946571Y-63281714D01*
X81232285Y-63924571D02*
X81232285Y-62424571D01*
X81232285Y-62996000D02*
X81089428Y-62924571D01*
X80803714Y-62924571D01*
X80660857Y-62996000D01*
X80589428Y-63067428D01*
X80518000Y-63210285D01*
X80518000Y-63638857D01*
X80589428Y-63781714D01*
X80660857Y-63853142D01*
X80803714Y-63924571D01*
X81089428Y-63924571D01*
X81232285Y-63853142D01*
X79875142Y-63924571D02*
X79875142Y-62924571D01*
X79875142Y-62424571D02*
X79946571Y-62496000D01*
X79875142Y-62567428D01*
X79803714Y-62496000D01*
X79875142Y-62424571D01*
X79875142Y-62567428D01*
X78518000Y-63924571D02*
X78518000Y-63138857D01*
X78589428Y-62996000D01*
X78732285Y-62924571D01*
X79018000Y-62924571D01*
X79160857Y-62996000D01*
X78518000Y-63853142D02*
X78660857Y-63924571D01*
X79018000Y-63924571D01*
X79160857Y-63853142D01*
X79232285Y-63710285D01*
X79232285Y-63567428D01*
X79160857Y-63424571D01*
X79018000Y-63353142D01*
X78660857Y-63353142D01*
X78518000Y-63281714D01*
X77803714Y-62924571D02*
X77803714Y-63924571D01*
X77803714Y-63067428D02*
X77732285Y-62996000D01*
X77589428Y-62924571D01*
X77375142Y-62924571D01*
X77232285Y-62996000D01*
X77160857Y-63138857D01*
X77160857Y-63924571D01*
X74803714Y-63138857D02*
X75303714Y-63138857D01*
X75303714Y-63924571D02*
X75303714Y-62424571D01*
X74589428Y-62424571D01*
X74018000Y-63924571D02*
X74018000Y-62924571D01*
X74018000Y-63210285D02*
X73946571Y-63067428D01*
X73875142Y-62996000D01*
X73732285Y-62924571D01*
X73589428Y-62924571D01*
X72446571Y-63924571D02*
X72446571Y-63138857D01*
X72518000Y-62996000D01*
X72660857Y-62924571D01*
X72946571Y-62924571D01*
X73089428Y-62996000D01*
X72446571Y-63853142D02*
X72589428Y-63924571D01*
X72946571Y-63924571D01*
X73089428Y-63853142D01*
X73160857Y-63710285D01*
X73160857Y-63567428D01*
X73089428Y-63424571D01*
X72946571Y-63353142D01*
X72589428Y-63353142D01*
X72446571Y-63281714D01*
X71732285Y-62924571D02*
X71732285Y-63924571D01*
X71732285Y-63067428D02*
X71660857Y-62996000D01*
X71518000Y-62924571D01*
X71303714Y-62924571D01*
X71160857Y-62996000D01*
X71089428Y-63138857D01*
X71089428Y-63924571D01*
X70518000Y-62924571D02*
X69732285Y-62924571D01*
X70518000Y-63924571D01*
X69732285Y-63924571D01*
X68232285Y-62424571D02*
X67732285Y-63924571D01*
X67232285Y-62424571D01*
X66446571Y-62424571D02*
X66303714Y-62424571D01*
X66160857Y-62496000D01*
X66089428Y-62567428D01*
X66018000Y-62710285D01*
X65946571Y-62996000D01*
X65946571Y-63353142D01*
X66018000Y-63638857D01*
X66089428Y-63781714D01*
X66160857Y-63853142D01*
X66303714Y-63924571D01*
X66446571Y-63924571D01*
X66589428Y-63853142D01*
X66660857Y-63781714D01*
X66732285Y-63638857D01*
X66803714Y-63353142D01*
X66803714Y-62996000D01*
X66732285Y-62710285D01*
X66660857Y-62567428D01*
X66589428Y-62496000D01*
X66446571Y-62424571D01*
X65232285Y-63924571D02*
X64946571Y-63924571D01*
X64803714Y-63853142D01*
X64732285Y-63781714D01*
X64589428Y-63567428D01*
X64518000Y-63281714D01*
X64518000Y-62710285D01*
X64589428Y-62567428D01*
X64660857Y-62496000D01*
X64803714Y-62424571D01*
X65089428Y-62424571D01*
X65232285Y-62496000D01*
X65303714Y-62567428D01*
X65375142Y-62710285D01*
X65375142Y-63067428D01*
X65303714Y-63210285D01*
X65232285Y-63281714D01*
X65089428Y-63353142D01*
X64803714Y-63353142D01*
X64660857Y-63281714D01*
X64589428Y-63210285D01*
X64518000Y-63067428D01*
X63875142Y-63781714D02*
X63803714Y-63853142D01*
X63875142Y-63924571D01*
X63946571Y-63853142D01*
X63875142Y-63781714D01*
X63875142Y-63924571D01*
X63232285Y-62567428D02*
X63160857Y-62496000D01*
X63018000Y-62424571D01*
X62660857Y-62424571D01*
X62518000Y-62496000D01*
X62446571Y-62567428D01*
X62375142Y-62710285D01*
X62375142Y-62853142D01*
X62446571Y-63067428D01*
X63303714Y-63924571D01*
X62375142Y-63924571D01*
X61803714Y-62567428D02*
X61732285Y-62496000D01*
X61589428Y-62424571D01*
X61232285Y-62424571D01*
X61089428Y-62496000D01*
X61018000Y-62567428D01*
X60946571Y-62710285D01*
X60946571Y-62853142D01*
X61018000Y-63067428D01*
X61875142Y-63924571D01*
X60946571Y-63924571D01*
D14*
X67118666Y-77857142D02*
X67166285Y-77904761D01*
X67309142Y-77952380D01*
X67404380Y-77952380D01*
X67547238Y-77904761D01*
X67642476Y-77809523D01*
X67690095Y-77714285D01*
X67737714Y-77523809D01*
X67737714Y-77380952D01*
X67690095Y-77190476D01*
X67642476Y-77095238D01*
X67547238Y-77000000D01*
X67404380Y-76952380D01*
X67309142Y-76952380D01*
X67166285Y-77000000D01*
X67118666Y-77047619D01*
X66166285Y-77952380D02*
X66737714Y-77952380D01*
X66452000Y-77952380D02*
X66452000Y-76952380D01*
X66547238Y-77095238D01*
X66642476Y-77190476D01*
X66737714Y-77238095D01*
X71817666Y-77857142D02*
X71865285Y-77904761D01*
X72008142Y-77952380D01*
X72103380Y-77952380D01*
X72246238Y-77904761D01*
X72341476Y-77809523D01*
X72389095Y-77714285D01*
X72436714Y-77523809D01*
X72436714Y-77380952D01*
X72389095Y-77190476D01*
X72341476Y-77095238D01*
X72246238Y-77000000D01*
X72103380Y-76952380D01*
X72008142Y-76952380D01*
X71865285Y-77000000D01*
X71817666Y-77047619D01*
X71436714Y-77047619D02*
X71389095Y-77000000D01*
X71293857Y-76952380D01*
X71055761Y-76952380D01*
X70960523Y-77000000D01*
X70912904Y-77047619D01*
X70865285Y-77142857D01*
X70865285Y-77238095D01*
X70912904Y-77380952D01*
X71484333Y-77952380D01*
X70865285Y-77952380D01*
X80366666Y-87657142D02*
X80414285Y-87704761D01*
X80557142Y-87752380D01*
X80652380Y-87752380D01*
X80795238Y-87704761D01*
X80890476Y-87609523D01*
X80938095Y-87514285D01*
X80985714Y-87323809D01*
X80985714Y-87180952D01*
X80938095Y-86990476D01*
X80890476Y-86895238D01*
X80795238Y-86800000D01*
X80652380Y-86752380D01*
X80557142Y-86752380D01*
X80414285Y-86800000D01*
X80366666Y-86847619D01*
X80033333Y-86752380D02*
X79414285Y-86752380D01*
X79747619Y-87133333D01*
X79604761Y-87133333D01*
X79509523Y-87180952D01*
X79461904Y-87228571D01*
X79414285Y-87323809D01*
X79414285Y-87561904D01*
X79461904Y-87657142D01*
X79509523Y-87704761D01*
X79604761Y-87752380D01*
X79890476Y-87752380D01*
X79985714Y-87704761D01*
X80033333Y-87657142D01*
X75566666Y-89057142D02*
X75614285Y-89104761D01*
X75757142Y-89152380D01*
X75852380Y-89152380D01*
X75995238Y-89104761D01*
X76090476Y-89009523D01*
X76138095Y-88914285D01*
X76185714Y-88723809D01*
X76185714Y-88580952D01*
X76138095Y-88390476D01*
X76090476Y-88295238D01*
X75995238Y-88200000D01*
X75852380Y-88152380D01*
X75757142Y-88152380D01*
X75614285Y-88200000D01*
X75566666Y-88247619D01*
X74709523Y-88485714D02*
X74709523Y-89152380D01*
X74947619Y-88104761D02*
X75185714Y-88819047D01*
X74566666Y-88819047D01*
X78612904Y-82891380D02*
X78612904Y-83700904D01*
X78565285Y-83796142D01*
X78517666Y-83843761D01*
X78422428Y-83891380D01*
X78231952Y-83891380D01*
X78136714Y-83843761D01*
X78089095Y-83796142D01*
X78041476Y-83700904D01*
X78041476Y-82891380D01*
X77612904Y-82986619D02*
X77565285Y-82939000D01*
X77470047Y-82891380D01*
X77231952Y-82891380D01*
X77136714Y-82939000D01*
X77089095Y-82986619D01*
X77041476Y-83081857D01*
X77041476Y-83177095D01*
X77089095Y-83319952D01*
X77660523Y-83891380D01*
X77041476Y-83891380D01*
X78017666Y-81002142D02*
X78065285Y-81049761D01*
X78208142Y-81097380D01*
X78303380Y-81097380D01*
X78446238Y-81049761D01*
X78541476Y-80954523D01*
X78589095Y-80859285D01*
X78636714Y-80668809D01*
X78636714Y-80525952D01*
X78589095Y-80335476D01*
X78541476Y-80240238D01*
X78446238Y-80145000D01*
X78303380Y-80097380D01*
X78208142Y-80097380D01*
X78065285Y-80145000D01*
X78017666Y-80192619D01*
X77112904Y-80097380D02*
X77589095Y-80097380D01*
X77636714Y-80573571D01*
X77589095Y-80525952D01*
X77493857Y-80478333D01*
X77255761Y-80478333D01*
X77160523Y-80525952D01*
X77112904Y-80573571D01*
X77065285Y-80668809D01*
X77065285Y-80906904D01*
X77112904Y-81002142D01*
X77160523Y-81049761D01*
X77255761Y-81097380D01*
X77493857Y-81097380D01*
X77589095Y-81049761D01*
X77636714Y-81002142D01*
D10*
X69203000Y-77850000D02*
X69203000Y-77150000D01*
X68003000Y-77150000D02*
X68003000Y-77850000D01*
X69400000Y-77150000D02*
X69400000Y-77850000D01*
X70600000Y-77850000D02*
X70600000Y-77150000D01*
X78150000Y-86700000D02*
X77450000Y-86700000D01*
X77450000Y-87900000D02*
X78150000Y-87900000D01*
X78150000Y-88097000D02*
X77450000Y-88097000D01*
X77450000Y-89297000D02*
X78150000Y-89297000D01*
X78651000Y-84194000D02*
X77051000Y-84194000D01*
X78851000Y-86494000D02*
X76651000Y-86494000D01*
X78201000Y-81315000D02*
X77501000Y-81315000D01*
X77501000Y-82515000D02*
X78201000Y-82515000D01*
M02*
