M48
; DRILL file {KiCad (6.0.1-0)} date 2022 September 26, Monday 15:25:52
; FORMAT={-:-/ absolute / inch / decimal}
; #@! TF.CreationDate,2022-09-26T15:25:52+02:00
; #@! TF.GenerationSoftware,Kicad,Pcbnew,(6.0.1-0)
; #@! TF.FileFunction,Plated,1,2,PTH
FMAT,2
INCH
; #@! TA.AperFunction,Plated,PTH,ViaDrill
T1C0.0157
; #@! TA.AperFunction,Plated,PTH,ComponentDrill
T2C0.0315
; #@! TA.AperFunction,Plated,PTH,ComponentDrill
T3C0.0354
; #@! TA.AperFunction,Plated,PTH,ComponentDrill
T4C0.0394
; #@! TA.AperFunction,Plated,PTH,ComponentDrill
T5C0.0433
; #@! TA.AperFunction,Plated,PTH,ComponentDrill
T6C0.0591
%
G90
G05
T1
X3.3661Y-2.8051
X3.4547Y-2.8051
T2
X2.437Y-3.2509
X2.437Y-3.4055
X2.437Y-3.5658
X2.76Y-2.625
X2.76Y-2.925
X2.8346Y-3.7894
X2.837Y-3.2509
X2.837Y-3.4055
X2.837Y-3.5658
X2.86Y-2.625
X2.86Y-2.925
X2.9346Y-3.7894
X2.96Y-2.625
X2.96Y-2.925
X3.06Y-2.625
X3.06Y-2.925
X3.16Y-2.625
X3.16Y-2.925
X3.26Y-2.625
X3.26Y-2.925
X3.36Y-2.625
X3.36Y-2.925
X3.496Y-3.0906
X3.5016Y-3.248
X3.5016Y-3.4055
X3.5016Y-3.563
X3.896Y-3.0906
X3.9016Y-3.248
X3.9016Y-3.4055
X3.9016Y-3.563
T3
X2.11Y-2.585
X2.11Y-3.65
X2.11Y-4.715
X2.21Y-2.585
X2.21Y-3.65
X2.21Y-4.715
X3.135Y-3.655
X3.235Y-3.655
X4.165Y-2.585
X4.165Y-3.65
X4.165Y-4.715
X4.265Y-2.585
X4.265Y-3.65
X4.265Y-4.715
T4
X3.585Y-2.67
X3.585Y-2.77
X3.585Y-2.87
X3.685Y-2.67
X3.685Y-2.77
X3.685Y-2.87
T5
X2.385Y-4.075
X2.385Y-4.2522
X2.6409Y-4.075
X2.6409Y-4.2522
T6
X2.97Y-4.315
X3.7767Y-4.315
T0
M30
