G04 #@! TF.GenerationSoftware,KiCad,Pcbnew,(6.0.1-0)*
G04 #@! TF.CreationDate,2022-09-26T15:25:48+02:00*
G04 #@! TF.ProjectId,avrCubeRev2,61767243-7562-4655-9265-76322e6b6963,rev?*
G04 #@! TF.SameCoordinates,Original*
G04 #@! TF.FileFunction,Copper,L2,Bot*
G04 #@! TF.FilePolarity,Positive*
%FSLAX46Y46*%
G04 Gerber Fmt 4.6, Leading zero omitted, Abs format (unit mm)*
G04 Created by KiCad (PCBNEW (6.0.1-0)) date 2022-09-26 15:25:48*
%MOMM*%
%LPD*%
G01*
G04 APERTURE LIST*
G04 #@! TA.AperFunction,ComponentPad*
%ADD10R,1.800000X1.800000*%
G04 #@! TD*
G04 #@! TA.AperFunction,ComponentPad*
%ADD11C,1.800000*%
G04 #@! TD*
G04 #@! TA.AperFunction,ComponentPad*
%ADD12C,1.600000*%
G04 #@! TD*
G04 #@! TA.AperFunction,ComponentPad*
%ADD13O,1.600000X1.600000*%
G04 #@! TD*
G04 #@! TA.AperFunction,ComponentPad*
%ADD14C,2.000000*%
G04 #@! TD*
G04 #@! TA.AperFunction,ComponentPad*
%ADD15R,1.700000X1.700000*%
G04 #@! TD*
G04 #@! TA.AperFunction,ComponentPad*
%ADD16O,1.700000X1.700000*%
G04 #@! TD*
G04 #@! TA.AperFunction,ComponentPad*
%ADD17R,1.600000X2.400000*%
G04 #@! TD*
G04 #@! TA.AperFunction,ComponentPad*
%ADD18O,1.600000X2.400000*%
G04 #@! TD*
G04 #@! TA.AperFunction,ComponentPad*
%ADD19R,3.000000X3.000000*%
G04 #@! TD*
G04 #@! TA.AperFunction,ComponentPad*
%ADD20C,3.000000*%
G04 #@! TD*
G04 #@! TA.AperFunction,ComponentPad*
%ADD21C,1.400000*%
G04 #@! TD*
G04 #@! TA.AperFunction,SMDPad,CuDef*
%ADD22R,0.750000X0.800000*%
G04 #@! TD*
G04 #@! TA.AperFunction,SMDPad,CuDef*
%ADD23R,0.800000X0.750000*%
G04 #@! TD*
G04 #@! TA.AperFunction,SMDPad,CuDef*
%ADD24R,0.700000X0.250000*%
G04 #@! TD*
G04 #@! TA.AperFunction,ViaPad*
%ADD25C,0.800000*%
G04 #@! TD*
G04 #@! TA.AperFunction,Conductor*
%ADD26C,0.215900*%
G04 #@! TD*
G04 #@! TA.AperFunction,Conductor*
%ADD27C,0.381000*%
G04 #@! TD*
G04 APERTURE END LIST*
D10*
X53594000Y-65659000D03*
D11*
X56134000Y-65659000D03*
D10*
X105791000Y-65659000D03*
D11*
X108331000Y-65659000D03*
D10*
X105791000Y-92710000D03*
D11*
X108331000Y-92710000D03*
D10*
X105791000Y-119761000D03*
D11*
X108331000Y-119761000D03*
D12*
X61900000Y-82572000D03*
D13*
X72060000Y-82572000D03*
D12*
X98958000Y-78500000D03*
D13*
X88798000Y-78500000D03*
D12*
X61900000Y-86500000D03*
D13*
X72060000Y-86500000D03*
D12*
X99100000Y-86500000D03*
D13*
X88940000Y-86500000D03*
D12*
X61900000Y-90572000D03*
D13*
X72060000Y-90572000D03*
D12*
X99100000Y-90500000D03*
D13*
X88940000Y-90500000D03*
D14*
X67079000Y-103505000D03*
X60579000Y-103505000D03*
X60579000Y-108005000D03*
X67079000Y-108005000D03*
D15*
X91059000Y-67818000D03*
D16*
X93599000Y-67818000D03*
X91059000Y-70358000D03*
X93599000Y-70358000D03*
X91059000Y-72898000D03*
X93599000Y-72898000D03*
D17*
X70104000Y-74295000D03*
D18*
X72644000Y-74295000D03*
X75184000Y-74295000D03*
X77724000Y-74295000D03*
X80264000Y-74295000D03*
X82804000Y-74295000D03*
X85344000Y-74295000D03*
X85344000Y-66675000D03*
X82804000Y-66675000D03*
X80264000Y-66675000D03*
X77724000Y-66675000D03*
X75184000Y-66675000D03*
X72644000Y-66675000D03*
X70104000Y-66675000D03*
D10*
X53594000Y-119761000D03*
D11*
X56134000Y-119761000D03*
D19*
X75438000Y-109601000D03*
D20*
X95928000Y-109601000D03*
D12*
X99100000Y-82500000D03*
D13*
X88940000Y-82500000D03*
D10*
X79629000Y-92837000D03*
D11*
X82169000Y-92837000D03*
D10*
X53594000Y-92710000D03*
D11*
X56134000Y-92710000D03*
D21*
X72000000Y-96250000D03*
X74540000Y-96250000D03*
D22*
X68603000Y-76750000D03*
X68603000Y-78250000D03*
X70000000Y-76750000D03*
X70000000Y-78250000D03*
D23*
X77050000Y-87300000D03*
X78550000Y-87300000D03*
X77050000Y-88697000D03*
X78550000Y-88697000D03*
D24*
X77051000Y-86144000D03*
X77051000Y-85744000D03*
X77051000Y-85344000D03*
X77051000Y-84944000D03*
X77051000Y-84544000D03*
X78651000Y-84544000D03*
X78651000Y-84944000D03*
X78651000Y-85344000D03*
X78651000Y-85744000D03*
X78651000Y-86144000D03*
D23*
X77101000Y-81915000D03*
X78601000Y-81915000D03*
D25*
X87750000Y-71250000D03*
X85500000Y-71250000D03*
D26*
X70000000Y-79000000D02*
X68603000Y-79000000D01*
X78651000Y-84944000D02*
X78651000Y-84544000D01*
X78061078Y-85344000D02*
X78043539Y-85361539D01*
D27*
X67991499Y-73363499D02*
X67991499Y-66774577D01*
D26*
X78043539Y-85858164D02*
X77757703Y-86144000D01*
D27*
X70104000Y-74295000D02*
X70104000Y-76543000D01*
X77050000Y-88697000D02*
X77050000Y-107989000D01*
X70000000Y-76750000D02*
X68603000Y-76750000D01*
D26*
X77757703Y-86144000D02*
X77051000Y-86144000D01*
X78043539Y-85361539D02*
X78043539Y-85858164D01*
D27*
X67991499Y-66774577D02*
X70031595Y-64734481D01*
X70031595Y-64734481D02*
X90515481Y-64734481D01*
D26*
X77051000Y-87299000D02*
X77050000Y-87300000D01*
X78651000Y-85344000D02*
X78061078Y-85344000D01*
D27*
X68923000Y-74295000D02*
X67991499Y-73363499D01*
X92749001Y-66968001D02*
X93599000Y-67818000D01*
X75513120Y-79704120D02*
X75513120Y-85763120D01*
X70104000Y-74295000D02*
X68923000Y-74295000D01*
X77050000Y-88697000D02*
X77050000Y-87300000D01*
X90515481Y-64734481D02*
X92749001Y-66968001D01*
D26*
X77051000Y-86144000D02*
X77051000Y-87299000D01*
D27*
X70104000Y-74295000D02*
X75513120Y-79704120D01*
X75513120Y-85763120D02*
X77050000Y-87300000D01*
X77050000Y-107989000D02*
X75438000Y-109601000D01*
D26*
X76327000Y-84785900D02*
X76485100Y-84944000D01*
X77101000Y-81915000D02*
X76485100Y-81915000D01*
X76327000Y-82073100D02*
X76327000Y-84785900D01*
X76485100Y-84944000D02*
X77051000Y-84944000D01*
X76485100Y-81915000D02*
X76327000Y-82073100D01*
D27*
X77517011Y-69008011D02*
X94000000Y-69008011D01*
X94789011Y-69797022D02*
X94789011Y-73390920D01*
X89679931Y-78500000D02*
X88798000Y-78500000D01*
X94789011Y-73390920D02*
X89679931Y-78500000D01*
X75184000Y-66675000D02*
X77517011Y-69008011D01*
X94000000Y-69008011D02*
X94789011Y-69797022D01*
D26*
X77640922Y-85744000D02*
X77678119Y-85706803D01*
X84845512Y-70358000D02*
X91059000Y-70358000D01*
X77051000Y-85744000D02*
X77640922Y-85744000D01*
X81500000Y-80305922D02*
X81500000Y-73703512D01*
X77678119Y-85706803D02*
X77678119Y-84127803D01*
X81500000Y-73703512D02*
X84845512Y-70358000D01*
X77678119Y-84127803D02*
X81500000Y-80305922D01*
X78651000Y-86144000D02*
X79240922Y-86144000D01*
X85344000Y-80040922D02*
X85344000Y-74295000D01*
X79240922Y-86144000D02*
X85344000Y-80040922D01*
X87750000Y-71250000D02*
X85500000Y-71250000D01*
X89398000Y-72898000D02*
X91059000Y-72898000D01*
X87750000Y-71250000D02*
X89398000Y-72898000D01*
G04 #@! TA.AperFunction,Conductor*
G36*
X111583566Y-61127313D02*
G01*
X111608876Y-61171150D01*
X111610000Y-61184000D01*
X111610000Y-124236000D01*
X111592687Y-124283566D01*
X111548850Y-124308876D01*
X111536000Y-124310000D01*
X50389000Y-124310000D01*
X50341434Y-124292687D01*
X50316124Y-124248850D01*
X50315000Y-124236000D01*
X50315000Y-120672133D01*
X52544001Y-120672133D01*
X52544712Y-120679347D01*
X52551281Y-120712378D01*
X52556752Y-120725587D01*
X52581807Y-120763084D01*
X52591916Y-120773193D01*
X52629415Y-120798249D01*
X52642620Y-120803719D01*
X52675655Y-120810290D01*
X52682865Y-120811000D01*
X53505952Y-120811000D01*
X53515948Y-120807362D01*
X53519000Y-120802075D01*
X53519000Y-120797951D01*
X53669000Y-120797951D01*
X53672638Y-120807947D01*
X53677925Y-120810999D01*
X54505133Y-120810999D01*
X54512347Y-120810288D01*
X54545378Y-120803719D01*
X54558587Y-120798248D01*
X54596084Y-120773193D01*
X54606193Y-120763084D01*
X54631249Y-120725585D01*
X54636719Y-120712380D01*
X54643290Y-120679345D01*
X54644000Y-120672135D01*
X54644000Y-119849048D01*
X54640362Y-119839052D01*
X54635075Y-119836000D01*
X53682048Y-119836000D01*
X53672052Y-119839638D01*
X53669000Y-119844925D01*
X53669000Y-120797951D01*
X53519000Y-120797951D01*
X53519000Y-119849048D01*
X53515362Y-119839052D01*
X53510075Y-119836000D01*
X52557049Y-119836000D01*
X52547053Y-119839638D01*
X52544001Y-119844925D01*
X52544001Y-120672133D01*
X50315000Y-120672133D01*
X50315000Y-119746262D01*
X55078520Y-119746262D01*
X55078823Y-119749871D01*
X55078823Y-119749873D01*
X55086312Y-119839052D01*
X55095759Y-119951553D01*
X55152544Y-120149586D01*
X55154196Y-120152800D01*
X55154197Y-120152803D01*
X55175106Y-120193487D01*
X55246712Y-120332818D01*
X55374677Y-120494270D01*
X55377430Y-120496613D01*
X55377433Y-120496616D01*
X55408062Y-120522683D01*
X55531564Y-120627791D01*
X55578266Y-120653892D01*
X55708239Y-120726532D01*
X55708243Y-120726534D01*
X55711398Y-120728297D01*
X55714834Y-120729414D01*
X55714840Y-120729416D01*
X55818461Y-120763084D01*
X55907329Y-120791959D01*
X55971176Y-120799572D01*
X56108294Y-120815922D01*
X56108297Y-120815922D01*
X56111894Y-120816351D01*
X56181450Y-120810999D01*
X56313689Y-120800824D01*
X56313691Y-120800824D01*
X56317300Y-120800546D01*
X56515725Y-120745145D01*
X56546863Y-120729416D01*
X56660265Y-120672133D01*
X104741001Y-120672133D01*
X104741712Y-120679347D01*
X104748281Y-120712378D01*
X104753752Y-120725587D01*
X104778807Y-120763084D01*
X104788916Y-120773193D01*
X104826415Y-120798249D01*
X104839620Y-120803719D01*
X104872655Y-120810290D01*
X104879865Y-120811000D01*
X105702952Y-120811000D01*
X105712948Y-120807362D01*
X105716000Y-120802075D01*
X105716000Y-120797951D01*
X105866000Y-120797951D01*
X105869638Y-120807947D01*
X105874925Y-120810999D01*
X106702133Y-120810999D01*
X106709347Y-120810288D01*
X106742378Y-120803719D01*
X106755587Y-120798248D01*
X106793084Y-120773193D01*
X106803193Y-120763084D01*
X106828249Y-120725585D01*
X106833719Y-120712380D01*
X106840290Y-120679345D01*
X106841000Y-120672135D01*
X106841000Y-119849048D01*
X106837362Y-119839052D01*
X106832075Y-119836000D01*
X105879048Y-119836000D01*
X105869052Y-119839638D01*
X105866000Y-119844925D01*
X105866000Y-120797951D01*
X105716000Y-120797951D01*
X105716000Y-119849048D01*
X105712362Y-119839052D01*
X105707075Y-119836000D01*
X104754049Y-119836000D01*
X104744053Y-119839638D01*
X104741001Y-119844925D01*
X104741001Y-120672133D01*
X56660265Y-120672133D01*
X56696376Y-120653892D01*
X56696379Y-120653890D01*
X56699610Y-120652258D01*
X56861951Y-120525424D01*
X56996564Y-120369472D01*
X56998347Y-120366333D01*
X56998350Y-120366329D01*
X57047443Y-120279908D01*
X57098323Y-120190344D01*
X57110812Y-120152803D01*
X57162208Y-119998299D01*
X57163351Y-119994863D01*
X57168823Y-119951553D01*
X57188913Y-119792519D01*
X57188913Y-119792513D01*
X57189171Y-119790474D01*
X57189583Y-119761000D01*
X57188138Y-119746262D01*
X107275520Y-119746262D01*
X107275823Y-119749871D01*
X107275823Y-119749873D01*
X107283312Y-119839052D01*
X107292759Y-119951553D01*
X107349544Y-120149586D01*
X107351196Y-120152800D01*
X107351197Y-120152803D01*
X107372106Y-120193487D01*
X107443712Y-120332818D01*
X107571677Y-120494270D01*
X107574430Y-120496613D01*
X107574433Y-120496616D01*
X107605062Y-120522683D01*
X107728564Y-120627791D01*
X107775266Y-120653892D01*
X107905239Y-120726532D01*
X107905243Y-120726534D01*
X107908398Y-120728297D01*
X107911834Y-120729414D01*
X107911840Y-120729416D01*
X108015461Y-120763084D01*
X108104329Y-120791959D01*
X108168176Y-120799572D01*
X108305294Y-120815922D01*
X108305297Y-120815922D01*
X108308894Y-120816351D01*
X108378450Y-120810999D01*
X108510689Y-120800824D01*
X108510691Y-120800824D01*
X108514300Y-120800546D01*
X108712725Y-120745145D01*
X108743863Y-120729416D01*
X108893376Y-120653892D01*
X108893379Y-120653890D01*
X108896610Y-120652258D01*
X109058951Y-120525424D01*
X109193564Y-120369472D01*
X109195347Y-120366333D01*
X109195350Y-120366329D01*
X109244443Y-120279908D01*
X109295323Y-120190344D01*
X109307812Y-120152803D01*
X109359208Y-119998299D01*
X109360351Y-119994863D01*
X109365823Y-119951553D01*
X109385913Y-119792519D01*
X109385913Y-119792513D01*
X109386171Y-119790474D01*
X109386583Y-119761000D01*
X109379230Y-119686000D01*
X109366833Y-119559570D01*
X109366480Y-119555970D01*
X109306935Y-119358749D01*
X109210218Y-119176849D01*
X109080011Y-119017200D01*
X108921275Y-118885882D01*
X108910384Y-118879993D01*
X108743238Y-118789618D01*
X108740055Y-118787897D01*
X108736605Y-118786829D01*
X108736600Y-118786827D01*
X108611996Y-118748256D01*
X108543254Y-118726977D01*
X108338369Y-118705443D01*
X108334765Y-118705771D01*
X108334764Y-118705771D01*
X108334215Y-118705821D01*
X108133203Y-118724114D01*
X108084247Y-118738522D01*
X107939043Y-118781258D01*
X107939039Y-118781260D01*
X107935572Y-118782280D01*
X107883276Y-118809620D01*
X107756209Y-118876049D01*
X107756206Y-118876051D01*
X107753002Y-118877726D01*
X107750184Y-118879992D01*
X107750182Y-118879993D01*
X107595266Y-119004548D01*
X107595263Y-119004551D01*
X107592447Y-119006815D01*
X107590121Y-119009587D01*
X107590119Y-119009589D01*
X107462351Y-119161856D01*
X107462348Y-119161860D01*
X107460024Y-119164630D01*
X107360776Y-119345162D01*
X107298484Y-119541532D01*
X107298081Y-119545123D01*
X107298081Y-119545124D01*
X107296461Y-119559570D01*
X107275520Y-119746262D01*
X57188138Y-119746262D01*
X57182230Y-119686000D01*
X57180951Y-119672952D01*
X104741000Y-119672952D01*
X104744638Y-119682948D01*
X104749925Y-119686000D01*
X105702952Y-119686000D01*
X105712948Y-119682362D01*
X105716000Y-119677075D01*
X105716000Y-119672952D01*
X105866000Y-119672952D01*
X105869638Y-119682948D01*
X105874925Y-119686000D01*
X106827951Y-119686000D01*
X106837947Y-119682362D01*
X106840999Y-119677075D01*
X106840999Y-118849867D01*
X106840288Y-118842653D01*
X106833719Y-118809622D01*
X106828248Y-118796413D01*
X106803193Y-118758916D01*
X106793084Y-118748807D01*
X106755585Y-118723751D01*
X106742380Y-118718281D01*
X106709345Y-118711710D01*
X106702135Y-118711000D01*
X105879048Y-118711000D01*
X105869052Y-118714638D01*
X105866000Y-118719925D01*
X105866000Y-119672952D01*
X105716000Y-119672952D01*
X105716000Y-118724049D01*
X105712362Y-118714053D01*
X105707075Y-118711001D01*
X104879867Y-118711001D01*
X104872653Y-118711712D01*
X104839622Y-118718281D01*
X104826413Y-118723752D01*
X104788916Y-118748807D01*
X104778807Y-118758916D01*
X104753751Y-118796415D01*
X104748281Y-118809620D01*
X104741710Y-118842655D01*
X104741000Y-118849865D01*
X104741000Y-119672952D01*
X57180951Y-119672952D01*
X57169833Y-119559570D01*
X57169480Y-119555970D01*
X57109935Y-119358749D01*
X57013218Y-119176849D01*
X56883011Y-119017200D01*
X56724275Y-118885882D01*
X56713384Y-118879993D01*
X56546238Y-118789618D01*
X56543055Y-118787897D01*
X56539605Y-118786829D01*
X56539600Y-118786827D01*
X56414996Y-118748256D01*
X56346254Y-118726977D01*
X56141369Y-118705443D01*
X56137765Y-118705771D01*
X56137764Y-118705771D01*
X56137215Y-118705821D01*
X55936203Y-118724114D01*
X55887247Y-118738522D01*
X55742043Y-118781258D01*
X55742039Y-118781260D01*
X55738572Y-118782280D01*
X55686276Y-118809620D01*
X55559209Y-118876049D01*
X55559206Y-118876051D01*
X55556002Y-118877726D01*
X55553184Y-118879992D01*
X55553182Y-118879993D01*
X55398266Y-119004548D01*
X55398263Y-119004551D01*
X55395447Y-119006815D01*
X55393121Y-119009587D01*
X55393119Y-119009589D01*
X55265351Y-119161856D01*
X55265348Y-119161860D01*
X55263024Y-119164630D01*
X55163776Y-119345162D01*
X55101484Y-119541532D01*
X55101081Y-119545123D01*
X55101081Y-119545124D01*
X55099461Y-119559570D01*
X55078520Y-119746262D01*
X50315000Y-119746262D01*
X50315000Y-119672952D01*
X52544000Y-119672952D01*
X52547638Y-119682948D01*
X52552925Y-119686000D01*
X53505952Y-119686000D01*
X53515948Y-119682362D01*
X53519000Y-119677075D01*
X53519000Y-119672952D01*
X53669000Y-119672952D01*
X53672638Y-119682948D01*
X53677925Y-119686000D01*
X54630951Y-119686000D01*
X54640947Y-119682362D01*
X54643999Y-119677075D01*
X54643999Y-118849867D01*
X54643288Y-118842653D01*
X54636719Y-118809622D01*
X54631248Y-118796413D01*
X54606193Y-118758916D01*
X54596084Y-118748807D01*
X54558585Y-118723751D01*
X54545380Y-118718281D01*
X54512345Y-118711710D01*
X54505135Y-118711000D01*
X53682048Y-118711000D01*
X53672052Y-118714638D01*
X53669000Y-118719925D01*
X53669000Y-119672952D01*
X53519000Y-119672952D01*
X53519000Y-118724049D01*
X53515362Y-118714053D01*
X53510075Y-118711001D01*
X52682867Y-118711001D01*
X52675653Y-118711712D01*
X52642622Y-118718281D01*
X52629413Y-118723752D01*
X52591916Y-118748807D01*
X52581807Y-118758916D01*
X52556751Y-118796415D01*
X52551281Y-118809620D01*
X52544710Y-118842655D01*
X52544000Y-118849865D01*
X52544000Y-119672952D01*
X50315000Y-119672952D01*
X50315000Y-108871052D01*
X59824158Y-108871052D01*
X59825680Y-108876730D01*
X59849749Y-108900178D01*
X59855004Y-108904434D01*
X60025095Y-109018085D01*
X60031032Y-109021309D01*
X60218992Y-109102062D01*
X60225421Y-109104151D01*
X60424936Y-109149296D01*
X60431647Y-109150179D01*
X60636049Y-109158211D01*
X60642808Y-109157856D01*
X60845254Y-109128503D01*
X60851822Y-109126926D01*
X61045543Y-109061167D01*
X61051707Y-109058423D01*
X61230196Y-108958465D01*
X61235772Y-108954632D01*
X61327719Y-108878161D01*
X61331864Y-108871052D01*
X66324158Y-108871052D01*
X66325680Y-108876730D01*
X66349749Y-108900178D01*
X66355004Y-108904434D01*
X66525095Y-109018085D01*
X66531032Y-109021309D01*
X66718992Y-109102062D01*
X66725421Y-109104151D01*
X66924936Y-109149296D01*
X66931647Y-109150179D01*
X67136049Y-109158211D01*
X67142808Y-109157856D01*
X67345254Y-109128503D01*
X67351822Y-109126926D01*
X67545543Y-109061167D01*
X67551707Y-109058423D01*
X67730196Y-108958465D01*
X67735772Y-108954632D01*
X67827719Y-108878161D01*
X67833078Y-108868971D01*
X67832284Y-108864350D01*
X67088226Y-108120292D01*
X67078587Y-108115797D01*
X67072688Y-108117378D01*
X66328653Y-108861413D01*
X66324158Y-108871052D01*
X61331864Y-108871052D01*
X61333078Y-108868971D01*
X61332284Y-108864350D01*
X60588226Y-108120292D01*
X60578587Y-108115797D01*
X60572688Y-108117378D01*
X59828653Y-108861413D01*
X59824158Y-108871052D01*
X50315000Y-108871052D01*
X50315000Y-107978155D01*
X59424691Y-107978155D01*
X59438071Y-108182293D01*
X59439126Y-108188953D01*
X59489482Y-108387232D01*
X59491738Y-108393603D01*
X59577385Y-108579386D01*
X59580762Y-108585233D01*
X59698829Y-108752294D01*
X59702788Y-108756929D01*
X59712325Y-108761225D01*
X59718431Y-108759503D01*
X60463708Y-108014226D01*
X60467818Y-108005413D01*
X60689797Y-108005413D01*
X60691378Y-108011312D01*
X61434591Y-108754525D01*
X61444230Y-108759020D01*
X61448762Y-108757805D01*
X61528632Y-108661772D01*
X61532465Y-108656196D01*
X61632423Y-108477707D01*
X61635167Y-108471543D01*
X61700926Y-108277822D01*
X61702503Y-108271254D01*
X61732031Y-108067606D01*
X61732401Y-108063265D01*
X61733870Y-108007166D01*
X61733729Y-108002842D01*
X61731461Y-107978155D01*
X65924691Y-107978155D01*
X65938071Y-108182293D01*
X65939126Y-108188953D01*
X65989482Y-108387232D01*
X65991738Y-108393603D01*
X66077385Y-108579386D01*
X66080762Y-108585233D01*
X66198829Y-108752294D01*
X66202788Y-108756929D01*
X66212325Y-108761225D01*
X66218431Y-108759503D01*
X66963708Y-108014226D01*
X66967818Y-108005413D01*
X67189797Y-108005413D01*
X67191378Y-108011312D01*
X67934591Y-108754525D01*
X67944230Y-108759020D01*
X67948762Y-108757805D01*
X68028632Y-108661772D01*
X68032465Y-108656196D01*
X68132423Y-108477707D01*
X68135167Y-108471543D01*
X68200926Y-108277822D01*
X68202503Y-108271254D01*
X68232031Y-108067606D01*
X68232401Y-108063265D01*
X68233870Y-108007166D01*
X68233729Y-108002842D01*
X68214898Y-107797908D01*
X68213668Y-107791267D01*
X68158138Y-107594376D01*
X68155716Y-107588068D01*
X68065235Y-107404591D01*
X68061710Y-107398837D01*
X67953885Y-107254443D01*
X67944990Y-107248611D01*
X67940980Y-107249086D01*
X67194292Y-107995774D01*
X67189797Y-108005413D01*
X66967818Y-108005413D01*
X66968203Y-108004587D01*
X66966622Y-107998688D01*
X66222563Y-107254629D01*
X66212924Y-107250134D01*
X66208719Y-107251261D01*
X66112501Y-107373313D01*
X66108815Y-107378989D01*
X66013571Y-107560017D01*
X66010978Y-107566280D01*
X65950317Y-107761637D01*
X65948913Y-107768243D01*
X65924868Y-107971395D01*
X65924691Y-107978155D01*
X61731461Y-107978155D01*
X61714898Y-107797908D01*
X61713668Y-107791267D01*
X61658138Y-107594376D01*
X61655716Y-107588068D01*
X61565235Y-107404591D01*
X61561710Y-107398837D01*
X61453885Y-107254443D01*
X61444990Y-107248611D01*
X61440980Y-107249086D01*
X60694292Y-107995774D01*
X60689797Y-108005413D01*
X60467818Y-108005413D01*
X60468203Y-108004587D01*
X60466622Y-107998688D01*
X59722563Y-107254629D01*
X59712924Y-107250134D01*
X59708719Y-107251261D01*
X59612501Y-107373313D01*
X59608815Y-107378989D01*
X59513571Y-107560017D01*
X59510978Y-107566280D01*
X59450317Y-107761637D01*
X59448913Y-107768243D01*
X59424868Y-107971395D01*
X59424691Y-107978155D01*
X50315000Y-107978155D01*
X50315000Y-107141190D01*
X59825226Y-107141190D01*
X59826212Y-107146146D01*
X60569774Y-107889708D01*
X60579413Y-107894203D01*
X60585312Y-107892622D01*
X61328515Y-107149419D01*
X61332352Y-107141190D01*
X66325226Y-107141190D01*
X66326212Y-107146146D01*
X67069774Y-107889708D01*
X67079413Y-107894203D01*
X67085312Y-107892622D01*
X67828515Y-107149419D01*
X67833010Y-107139780D01*
X67831599Y-107134515D01*
X67784570Y-107091041D01*
X67779201Y-107086922D01*
X67606195Y-106977763D01*
X67600175Y-106974696D01*
X67410171Y-106898891D01*
X67403686Y-106896971D01*
X67203047Y-106857061D01*
X67196337Y-106856356D01*
X66991778Y-106853677D01*
X66985038Y-106854208D01*
X66783431Y-106888851D01*
X66776896Y-106890602D01*
X66584972Y-106961407D01*
X66578878Y-106964313D01*
X66403063Y-107068912D01*
X66397603Y-107072878D01*
X66330343Y-107131864D01*
X66325226Y-107141190D01*
X61332352Y-107141190D01*
X61333010Y-107139780D01*
X61331599Y-107134515D01*
X61284570Y-107091041D01*
X61279201Y-107086922D01*
X61106195Y-106977763D01*
X61100175Y-106974696D01*
X60910171Y-106898891D01*
X60903686Y-106896971D01*
X60703047Y-106857061D01*
X60696337Y-106856356D01*
X60491778Y-106853677D01*
X60485038Y-106854208D01*
X60283431Y-106888851D01*
X60276896Y-106890602D01*
X60084972Y-106961407D01*
X60078878Y-106964313D01*
X59903063Y-107068912D01*
X59897603Y-107072878D01*
X59830343Y-107131864D01*
X59825226Y-107141190D01*
X50315000Y-107141190D01*
X50315000Y-103474754D01*
X59423967Y-103474754D01*
X59437796Y-103685749D01*
X59489845Y-103890690D01*
X59491261Y-103893762D01*
X59491263Y-103893767D01*
X59530055Y-103977913D01*
X59578369Y-104082714D01*
X59580327Y-104085484D01*
X59698446Y-104252620D01*
X59698450Y-104252624D01*
X59700405Y-104255391D01*
X59702830Y-104257753D01*
X59702834Y-104257758D01*
X59766110Y-104319398D01*
X59851865Y-104402937D01*
X59854683Y-104404820D01*
X59854688Y-104404824D01*
X59935586Y-104458878D01*
X60027677Y-104520411D01*
X60030791Y-104521749D01*
X60030793Y-104521750D01*
X60117219Y-104558881D01*
X60221953Y-104603878D01*
X60428186Y-104650544D01*
X60533828Y-104654695D01*
X60636075Y-104658713D01*
X60636079Y-104658713D01*
X60639470Y-104658846D01*
X60705075Y-104649333D01*
X60845368Y-104628992D01*
X60845373Y-104628991D01*
X60848730Y-104628504D01*
X61048955Y-104560537D01*
X61051908Y-104558883D01*
X61051913Y-104558881D01*
X61230480Y-104458878D01*
X61230482Y-104458877D01*
X61233442Y-104457219D01*
X61396012Y-104322012D01*
X61531219Y-104159442D01*
X61575912Y-104079637D01*
X61632881Y-103977913D01*
X61632883Y-103977908D01*
X61634537Y-103974955D01*
X61702504Y-103774730D01*
X61702991Y-103771373D01*
X61702992Y-103771368D01*
X61732533Y-103567629D01*
X61732533Y-103567628D01*
X61732846Y-103565470D01*
X61734429Y-103505000D01*
X61731650Y-103474754D01*
X65923967Y-103474754D01*
X65937796Y-103685749D01*
X65989845Y-103890690D01*
X65991261Y-103893762D01*
X65991263Y-103893767D01*
X66030055Y-103977913D01*
X66078369Y-104082714D01*
X66080327Y-104085484D01*
X66198446Y-104252620D01*
X66198450Y-104252624D01*
X66200405Y-104255391D01*
X66202830Y-104257753D01*
X66202834Y-104257758D01*
X66266110Y-104319398D01*
X66351865Y-104402937D01*
X66354683Y-104404820D01*
X66354688Y-104404824D01*
X66435586Y-104458878D01*
X66527677Y-104520411D01*
X66530791Y-104521749D01*
X66530793Y-104521750D01*
X66617219Y-104558881D01*
X66721953Y-104603878D01*
X66928186Y-104650544D01*
X67033828Y-104654695D01*
X67136075Y-104658713D01*
X67136079Y-104658713D01*
X67139470Y-104658846D01*
X67205075Y-104649333D01*
X67345368Y-104628992D01*
X67345373Y-104628991D01*
X67348730Y-104628504D01*
X67548955Y-104560537D01*
X67551908Y-104558883D01*
X67551913Y-104558881D01*
X67730480Y-104458878D01*
X67730482Y-104458877D01*
X67733442Y-104457219D01*
X67896012Y-104322012D01*
X68031219Y-104159442D01*
X68075912Y-104079637D01*
X68132881Y-103977913D01*
X68132883Y-103977908D01*
X68134537Y-103974955D01*
X68202504Y-103774730D01*
X68202991Y-103771373D01*
X68202992Y-103771368D01*
X68232533Y-103567629D01*
X68232533Y-103567628D01*
X68232846Y-103565470D01*
X68234429Y-103505000D01*
X68231340Y-103471381D01*
X68215392Y-103297819D01*
X68215391Y-103297814D01*
X68215081Y-103294440D01*
X68205801Y-103261533D01*
X68158605Y-103094191D01*
X68157686Y-103090931D01*
X68064165Y-102901290D01*
X68047300Y-102878704D01*
X67939683Y-102734588D01*
X67939682Y-102734587D01*
X67937651Y-102731867D01*
X67878306Y-102677010D01*
X67784873Y-102590640D01*
X67784869Y-102590637D01*
X67782381Y-102588337D01*
X67603554Y-102475505D01*
X67600412Y-102474251D01*
X67600409Y-102474250D01*
X67410314Y-102398410D01*
X67410311Y-102398409D01*
X67407160Y-102397152D01*
X67250791Y-102366049D01*
X67203099Y-102356562D01*
X67203097Y-102356562D01*
X67199775Y-102355901D01*
X67106571Y-102354681D01*
X66991739Y-102353177D01*
X66991734Y-102353177D01*
X66988346Y-102353133D01*
X66985000Y-102353708D01*
X66984999Y-102353708D01*
X66968390Y-102356562D01*
X66779953Y-102388941D01*
X66581575Y-102462127D01*
X66399856Y-102570238D01*
X66397312Y-102572469D01*
X66397308Y-102572472D01*
X66310282Y-102648792D01*
X66240881Y-102709655D01*
X66238784Y-102712314D01*
X66238783Y-102712316D01*
X66221226Y-102734588D01*
X66109976Y-102875708D01*
X66011523Y-103062836D01*
X65948820Y-103264773D01*
X65923967Y-103474754D01*
X61731650Y-103474754D01*
X61731340Y-103471381D01*
X61715392Y-103297819D01*
X61715391Y-103297814D01*
X61715081Y-103294440D01*
X61705801Y-103261533D01*
X61658605Y-103094191D01*
X61657686Y-103090931D01*
X61564165Y-102901290D01*
X61547300Y-102878704D01*
X61439683Y-102734588D01*
X61439682Y-102734587D01*
X61437651Y-102731867D01*
X61378306Y-102677010D01*
X61284873Y-102590640D01*
X61284869Y-102590637D01*
X61282381Y-102588337D01*
X61103554Y-102475505D01*
X61100412Y-102474251D01*
X61100409Y-102474250D01*
X60910314Y-102398410D01*
X60910311Y-102398409D01*
X60907160Y-102397152D01*
X60750791Y-102366049D01*
X60703099Y-102356562D01*
X60703097Y-102356562D01*
X60699775Y-102355901D01*
X60606571Y-102354681D01*
X60491739Y-102353177D01*
X60491734Y-102353177D01*
X60488346Y-102353133D01*
X60485000Y-102353708D01*
X60484999Y-102353708D01*
X60468390Y-102356562D01*
X60279953Y-102388941D01*
X60081575Y-102462127D01*
X59899856Y-102570238D01*
X59897312Y-102572469D01*
X59897308Y-102572472D01*
X59810282Y-102648792D01*
X59740881Y-102709655D01*
X59738784Y-102712314D01*
X59738783Y-102712316D01*
X59721226Y-102734588D01*
X59609976Y-102875708D01*
X59511523Y-103062836D01*
X59448820Y-103264773D01*
X59423967Y-103474754D01*
X50315000Y-103474754D01*
X50315000Y-96250000D01*
X71144815Y-96250000D01*
X71163503Y-96427803D01*
X71218750Y-96597835D01*
X71308141Y-96752665D01*
X71427770Y-96885526D01*
X71430908Y-96887806D01*
X71452618Y-96903579D01*
X71572407Y-96990612D01*
X71575958Y-96992193D01*
X71732183Y-97061749D01*
X71732188Y-97061750D01*
X71735733Y-97063329D01*
X71910609Y-97100500D01*
X72089391Y-97100500D01*
X72264267Y-97063329D01*
X72267812Y-97061750D01*
X72267817Y-97061749D01*
X72424042Y-96992193D01*
X72427593Y-96990612D01*
X72547383Y-96903579D01*
X73997631Y-96903579D01*
X73998638Y-96907335D01*
X74109522Y-96987897D01*
X74116201Y-96991753D01*
X74272344Y-97061273D01*
X74279684Y-97063658D01*
X74446864Y-97099193D01*
X74454543Y-97100000D01*
X74625457Y-97100000D01*
X74633136Y-97099193D01*
X74800316Y-97063658D01*
X74807656Y-97061273D01*
X74963799Y-96991753D01*
X74970478Y-96987897D01*
X75076542Y-96910837D01*
X75082492Y-96902016D01*
X75082085Y-96898151D01*
X74549226Y-96365292D01*
X74539587Y-96360797D01*
X74533688Y-96362378D01*
X74002126Y-96893940D01*
X73997631Y-96903579D01*
X72547383Y-96903579D01*
X72569092Y-96887806D01*
X72572230Y-96885526D01*
X72691859Y-96752665D01*
X72781250Y-96597835D01*
X72836497Y-96427803D01*
X72854780Y-96253853D01*
X73685723Y-96253853D01*
X73703590Y-96423847D01*
X73705193Y-96431384D01*
X73758010Y-96593940D01*
X73761148Y-96600988D01*
X73846608Y-96749008D01*
X73851146Y-96755254D01*
X73879149Y-96786355D01*
X73888543Y-96791350D01*
X73893675Y-96790259D01*
X74424708Y-96259226D01*
X74428818Y-96250413D01*
X74650797Y-96250413D01*
X74652378Y-96256312D01*
X75182893Y-96786827D01*
X75192532Y-96791322D01*
X75197603Y-96789963D01*
X75228854Y-96755254D01*
X75233392Y-96749008D01*
X75318852Y-96600988D01*
X75321990Y-96593940D01*
X75374807Y-96431384D01*
X75376410Y-96423847D01*
X75394277Y-96253853D01*
X75394277Y-96246147D01*
X75376410Y-96076153D01*
X75374807Y-96068616D01*
X75321990Y-95906060D01*
X75318852Y-95899012D01*
X75233392Y-95750992D01*
X75228854Y-95744746D01*
X75200851Y-95713645D01*
X75191457Y-95708650D01*
X75186325Y-95709741D01*
X74655292Y-96240774D01*
X74650797Y-96250413D01*
X74428818Y-96250413D01*
X74429203Y-96249587D01*
X74427622Y-96243688D01*
X73897107Y-95713173D01*
X73887468Y-95708678D01*
X73882397Y-95710037D01*
X73851146Y-95744746D01*
X73846608Y-95750992D01*
X73761148Y-95899012D01*
X73758010Y-95906060D01*
X73705193Y-96068616D01*
X73703590Y-96076153D01*
X73685723Y-96246147D01*
X73685723Y-96253853D01*
X72854780Y-96253853D01*
X72855185Y-96250000D01*
X72836497Y-96072197D01*
X72781250Y-95902165D01*
X72691859Y-95747335D01*
X72572230Y-95614474D01*
X72560649Y-95606060D01*
X72549534Y-95597984D01*
X73997508Y-95597984D01*
X73997915Y-95601849D01*
X74530774Y-96134708D01*
X74540413Y-96139203D01*
X74546312Y-96137622D01*
X75077874Y-95606060D01*
X75082369Y-95596421D01*
X75081362Y-95592665D01*
X74970478Y-95512103D01*
X74963799Y-95508247D01*
X74807656Y-95438727D01*
X74800316Y-95436342D01*
X74633136Y-95400807D01*
X74625457Y-95400000D01*
X74454543Y-95400000D01*
X74446864Y-95400807D01*
X74279684Y-95436342D01*
X74272344Y-95438727D01*
X74116201Y-95508247D01*
X74109522Y-95512103D01*
X74003458Y-95589163D01*
X73997508Y-95597984D01*
X72549534Y-95597984D01*
X72430737Y-95511672D01*
X72430735Y-95511671D01*
X72427593Y-95509388D01*
X72424042Y-95507807D01*
X72267817Y-95438251D01*
X72267811Y-95438249D01*
X72264267Y-95436671D01*
X72089391Y-95399500D01*
X71910609Y-95399500D01*
X71906813Y-95400307D01*
X71906812Y-95400307D01*
X71739528Y-95435864D01*
X71739525Y-95435865D01*
X71735733Y-95436671D01*
X71732191Y-95438248D01*
X71732188Y-95438249D01*
X71576203Y-95507698D01*
X71572408Y-95509388D01*
X71427770Y-95614474D01*
X71308141Y-95747335D01*
X71218750Y-95902165D01*
X71163503Y-96072197D01*
X71144815Y-96250000D01*
X50315000Y-96250000D01*
X50315000Y-93621133D01*
X52544001Y-93621133D01*
X52544712Y-93628347D01*
X52551281Y-93661378D01*
X52556752Y-93674587D01*
X52581807Y-93712084D01*
X52591916Y-93722193D01*
X52629415Y-93747249D01*
X52642620Y-93752719D01*
X52675655Y-93759290D01*
X52682865Y-93760000D01*
X53505952Y-93760000D01*
X53515948Y-93756362D01*
X53519000Y-93751075D01*
X53519000Y-93746951D01*
X53669000Y-93746951D01*
X53672638Y-93756947D01*
X53677925Y-93759999D01*
X54505133Y-93759999D01*
X54512347Y-93759288D01*
X54545378Y-93752719D01*
X54558587Y-93747248D01*
X54596084Y-93722193D01*
X54606193Y-93712084D01*
X54631249Y-93674585D01*
X54636719Y-93661380D01*
X54643290Y-93628345D01*
X54644000Y-93621135D01*
X54644000Y-92798048D01*
X54640362Y-92788052D01*
X54635075Y-92785000D01*
X53682048Y-92785000D01*
X53672052Y-92788638D01*
X53669000Y-92793925D01*
X53669000Y-93746951D01*
X53519000Y-93746951D01*
X53519000Y-92798048D01*
X53515362Y-92788052D01*
X53510075Y-92785000D01*
X52557049Y-92785000D01*
X52547053Y-92788638D01*
X52544001Y-92793925D01*
X52544001Y-93621133D01*
X50315000Y-93621133D01*
X50315000Y-92695262D01*
X55078520Y-92695262D01*
X55078823Y-92698871D01*
X55078823Y-92698873D01*
X55086312Y-92788052D01*
X55095759Y-92900553D01*
X55152544Y-93098586D01*
X55154196Y-93101800D01*
X55154197Y-93101803D01*
X55175106Y-93142487D01*
X55246712Y-93281818D01*
X55374677Y-93443270D01*
X55377430Y-93445613D01*
X55377433Y-93445616D01*
X55380481Y-93448210D01*
X55531564Y-93576791D01*
X55578266Y-93602892D01*
X55708239Y-93675532D01*
X55708243Y-93675534D01*
X55711398Y-93677297D01*
X55714834Y-93678414D01*
X55714840Y-93678416D01*
X55798376Y-93705558D01*
X55907329Y-93740959D01*
X55967494Y-93748133D01*
X56108294Y-93764922D01*
X56108297Y-93764922D01*
X56111894Y-93765351D01*
X56181450Y-93759999D01*
X56313689Y-93749824D01*
X56313691Y-93749824D01*
X56317300Y-93749546D01*
X56515725Y-93694145D01*
X56546863Y-93678416D01*
X56696376Y-93602892D01*
X56696379Y-93602890D01*
X56699610Y-93601258D01*
X56861951Y-93474424D01*
X56886817Y-93445616D01*
X56994201Y-93321210D01*
X56994203Y-93321208D01*
X56996564Y-93318472D01*
X56998347Y-93315333D01*
X56998350Y-93315329D01*
X57051307Y-93222107D01*
X57098323Y-93139344D01*
X57110812Y-93101803D01*
X57162208Y-92947299D01*
X57163351Y-92943863D01*
X57167377Y-92912000D01*
X57188913Y-92741519D01*
X57188913Y-92741513D01*
X57189171Y-92739474D01*
X57189583Y-92710000D01*
X57182230Y-92635000D01*
X57169833Y-92508570D01*
X57169480Y-92504970D01*
X57109935Y-92307749D01*
X57013218Y-92125849D01*
X56883011Y-91966200D01*
X56769642Y-91872413D01*
X56727070Y-91837194D01*
X56727069Y-91837193D01*
X56724275Y-91834882D01*
X56713384Y-91828993D01*
X56546238Y-91738618D01*
X56543055Y-91736897D01*
X56539605Y-91735829D01*
X56539600Y-91735827D01*
X56414996Y-91697256D01*
X56346254Y-91675977D01*
X56141369Y-91654443D01*
X56137765Y-91654771D01*
X56137764Y-91654771D01*
X56137215Y-91654821D01*
X55936203Y-91673114D01*
X55887247Y-91687522D01*
X55742043Y-91730258D01*
X55742039Y-91730260D01*
X55738572Y-91731280D01*
X55686276Y-91758620D01*
X55559209Y-91825049D01*
X55559206Y-91825051D01*
X55556002Y-91826726D01*
X55553184Y-91828992D01*
X55553182Y-91828993D01*
X55398266Y-91953548D01*
X55398263Y-91953551D01*
X55395447Y-91955815D01*
X55393121Y-91958587D01*
X55393119Y-91958589D01*
X55265351Y-92110856D01*
X55265348Y-92110860D01*
X55263024Y-92113630D01*
X55163776Y-92294162D01*
X55101484Y-92490532D01*
X55101081Y-92494123D01*
X55101081Y-92494124D01*
X55099461Y-92508570D01*
X55078520Y-92695262D01*
X50315000Y-92695262D01*
X50315000Y-92621952D01*
X52544000Y-92621952D01*
X52547638Y-92631948D01*
X52552925Y-92635000D01*
X53505952Y-92635000D01*
X53515948Y-92631362D01*
X53519000Y-92626075D01*
X53519000Y-92621952D01*
X53669000Y-92621952D01*
X53672638Y-92631948D01*
X53677925Y-92635000D01*
X54630951Y-92635000D01*
X54640947Y-92631362D01*
X54643999Y-92626075D01*
X54643999Y-91798867D01*
X54643288Y-91791653D01*
X54636719Y-91758622D01*
X54631248Y-91745413D01*
X54606193Y-91707916D01*
X54596084Y-91697807D01*
X54558585Y-91672751D01*
X54545380Y-91667281D01*
X54512345Y-91660710D01*
X54505135Y-91660000D01*
X53682048Y-91660000D01*
X53672052Y-91663638D01*
X53669000Y-91668925D01*
X53669000Y-92621952D01*
X53519000Y-92621952D01*
X53519000Y-91673049D01*
X53515362Y-91663053D01*
X53510075Y-91660001D01*
X52682867Y-91660001D01*
X52675653Y-91660712D01*
X52642622Y-91667281D01*
X52629413Y-91672752D01*
X52591916Y-91697807D01*
X52581807Y-91707916D01*
X52556751Y-91745415D01*
X52551281Y-91758620D01*
X52544710Y-91791655D01*
X52544000Y-91798865D01*
X52544000Y-92621952D01*
X50315000Y-92621952D01*
X50315000Y-90558665D01*
X60944994Y-90558665D01*
X60945297Y-90562274D01*
X60945297Y-90562276D01*
X60957837Y-90711601D01*
X60960592Y-90744414D01*
X61011971Y-90923595D01*
X61013624Y-90926811D01*
X61095520Y-91086164D01*
X61095523Y-91086169D01*
X61097176Y-91089385D01*
X61212959Y-91235468D01*
X61354912Y-91356279D01*
X61358074Y-91358046D01*
X61514468Y-91445452D01*
X61514472Y-91445454D01*
X61517627Y-91447217D01*
X61521063Y-91448334D01*
X61521069Y-91448336D01*
X61633313Y-91484806D01*
X61694907Y-91504819D01*
X61762399Y-91512867D01*
X61876398Y-91526461D01*
X61876401Y-91526461D01*
X61879998Y-91526890D01*
X61939440Y-91522316D01*
X62062240Y-91512867D01*
X62062241Y-91512867D01*
X62065851Y-91512589D01*
X62245387Y-91462462D01*
X62260377Y-91454890D01*
X62408534Y-91380051D01*
X62408537Y-91380049D01*
X62411768Y-91378417D01*
X62558655Y-91263656D01*
X62680454Y-91122550D01*
X62682237Y-91119411D01*
X62682240Y-91119407D01*
X62742026Y-91014164D01*
X62772526Y-90960474D01*
X62773668Y-90957042D01*
X62830221Y-90787038D01*
X62830222Y-90787035D01*
X62831364Y-90783601D01*
X62854727Y-90598668D01*
X62855099Y-90572000D01*
X62853792Y-90558665D01*
X71104994Y-90558665D01*
X71105297Y-90562274D01*
X71105297Y-90562276D01*
X71117837Y-90711601D01*
X71120592Y-90744414D01*
X71171971Y-90923595D01*
X71173624Y-90926811D01*
X71255520Y-91086164D01*
X71255523Y-91086169D01*
X71257176Y-91089385D01*
X71372959Y-91235468D01*
X71514912Y-91356279D01*
X71518074Y-91358046D01*
X71674468Y-91445452D01*
X71674472Y-91445454D01*
X71677627Y-91447217D01*
X71681063Y-91448334D01*
X71681069Y-91448336D01*
X71793313Y-91484806D01*
X71854907Y-91504819D01*
X71922399Y-91512867D01*
X72036398Y-91526461D01*
X72036401Y-91526461D01*
X72039998Y-91526890D01*
X72099440Y-91522316D01*
X72222240Y-91512867D01*
X72222241Y-91512867D01*
X72225851Y-91512589D01*
X72405387Y-91462462D01*
X72420377Y-91454890D01*
X72568534Y-91380051D01*
X72568537Y-91380049D01*
X72571768Y-91378417D01*
X72718655Y-91263656D01*
X72840454Y-91122550D01*
X72842237Y-91119411D01*
X72842240Y-91119407D01*
X72902026Y-91014164D01*
X72932526Y-90960474D01*
X72933668Y-90957042D01*
X72990221Y-90787038D01*
X72990222Y-90787035D01*
X72991364Y-90783601D01*
X73014727Y-90598668D01*
X73015099Y-90572000D01*
X73013792Y-90558665D01*
X72997262Y-90390090D01*
X72996909Y-90386487D01*
X72943033Y-90208040D01*
X72855522Y-90043456D01*
X72737710Y-89899005D01*
X72594085Y-89780187D01*
X72430116Y-89691529D01*
X72252049Y-89636409D01*
X72066668Y-89616924D01*
X72050978Y-89618352D01*
X71884645Y-89633489D01*
X71884643Y-89633489D01*
X71881032Y-89633818D01*
X71702214Y-89686448D01*
X71699015Y-89688120D01*
X71699011Y-89688122D01*
X71626596Y-89725980D01*
X71537023Y-89772807D01*
X71534205Y-89775073D01*
X71534203Y-89775074D01*
X71484121Y-89815341D01*
X71391752Y-89889608D01*
X71271935Y-90032401D01*
X71182135Y-90195746D01*
X71125772Y-90373424D01*
X71104994Y-90558665D01*
X62853792Y-90558665D01*
X62837262Y-90390090D01*
X62836909Y-90386487D01*
X62783033Y-90208040D01*
X62695522Y-90043456D01*
X62577710Y-89899005D01*
X62434085Y-89780187D01*
X62270116Y-89691529D01*
X62092049Y-89636409D01*
X61906668Y-89616924D01*
X61890978Y-89618352D01*
X61724645Y-89633489D01*
X61724643Y-89633489D01*
X61721032Y-89633818D01*
X61542214Y-89686448D01*
X61539015Y-89688120D01*
X61539011Y-89688122D01*
X61466596Y-89725980D01*
X61377023Y-89772807D01*
X61374205Y-89775073D01*
X61374203Y-89775074D01*
X61324121Y-89815341D01*
X61231752Y-89889608D01*
X61111935Y-90032401D01*
X61022135Y-90195746D01*
X60965772Y-90373424D01*
X60944994Y-90558665D01*
X50315000Y-90558665D01*
X50315000Y-86486665D01*
X60944994Y-86486665D01*
X60960592Y-86672414D01*
X61011971Y-86851595D01*
X61029161Y-86885042D01*
X61095520Y-87014164D01*
X61095523Y-87014169D01*
X61097176Y-87017385D01*
X61212959Y-87163468D01*
X61215712Y-87165811D01*
X61215713Y-87165812D01*
X61293186Y-87231746D01*
X61354912Y-87284279D01*
X61358074Y-87286046D01*
X61514468Y-87373452D01*
X61514472Y-87373454D01*
X61517627Y-87375217D01*
X61521063Y-87376334D01*
X61521069Y-87376336D01*
X61633313Y-87412806D01*
X61694907Y-87432819D01*
X61762399Y-87440867D01*
X61876398Y-87454461D01*
X61876401Y-87454461D01*
X61879998Y-87454890D01*
X61939440Y-87450316D01*
X62062240Y-87440867D01*
X62062241Y-87440867D01*
X62065851Y-87440589D01*
X62245387Y-87390462D01*
X62279061Y-87373452D01*
X62408534Y-87308051D01*
X62408537Y-87308049D01*
X62411768Y-87306417D01*
X62558655Y-87191656D01*
X62680454Y-87050550D01*
X62682237Y-87047411D01*
X62682240Y-87047407D01*
X62726490Y-86969512D01*
X62772526Y-86888474D01*
X62777467Y-86873622D01*
X62830221Y-86715038D01*
X62830222Y-86715035D01*
X62831364Y-86711601D01*
X62854727Y-86526668D01*
X62855099Y-86500000D01*
X62853792Y-86486665D01*
X71104994Y-86486665D01*
X71120592Y-86672414D01*
X71171971Y-86851595D01*
X71189161Y-86885042D01*
X71255520Y-87014164D01*
X71255523Y-87014169D01*
X71257176Y-87017385D01*
X71372959Y-87163468D01*
X71375712Y-87165811D01*
X71375713Y-87165812D01*
X71453186Y-87231746D01*
X71514912Y-87284279D01*
X71518074Y-87286046D01*
X71674468Y-87373452D01*
X71674472Y-87373454D01*
X71677627Y-87375217D01*
X71681063Y-87376334D01*
X71681069Y-87376336D01*
X71793313Y-87412806D01*
X71854907Y-87432819D01*
X71922399Y-87440867D01*
X72036398Y-87454461D01*
X72036401Y-87454461D01*
X72039998Y-87454890D01*
X72099440Y-87450316D01*
X72222240Y-87440867D01*
X72222241Y-87440867D01*
X72225851Y-87440589D01*
X72405387Y-87390462D01*
X72439061Y-87373452D01*
X72568534Y-87308051D01*
X72568537Y-87308049D01*
X72571768Y-87306417D01*
X72718655Y-87191656D01*
X72840454Y-87050550D01*
X72842237Y-87047411D01*
X72842240Y-87047407D01*
X72886490Y-86969512D01*
X72932526Y-86888474D01*
X72937467Y-86873622D01*
X72990221Y-86715038D01*
X72990222Y-86715035D01*
X72991364Y-86711601D01*
X73014727Y-86526668D01*
X73015099Y-86500000D01*
X73013792Y-86486665D01*
X73002494Y-86371444D01*
X72996909Y-86314487D01*
X72995179Y-86308755D01*
X72944108Y-86139602D01*
X72943033Y-86136040D01*
X72872922Y-86004180D01*
X72857221Y-85974651D01*
X72857220Y-85974650D01*
X72855522Y-85971456D01*
X72737710Y-85827005D01*
X72594085Y-85708187D01*
X72430116Y-85619529D01*
X72252049Y-85564409D01*
X72066668Y-85544924D01*
X72050978Y-85546352D01*
X71884645Y-85561489D01*
X71884643Y-85561489D01*
X71881032Y-85561818D01*
X71702214Y-85614448D01*
X71699015Y-85616120D01*
X71699011Y-85616122D01*
X71646552Y-85643547D01*
X71537023Y-85700807D01*
X71534205Y-85703073D01*
X71534203Y-85703074D01*
X71482058Y-85745000D01*
X71391752Y-85817608D01*
X71271935Y-85960401D01*
X71270193Y-85963569D01*
X71270192Y-85963571D01*
X71233720Y-86029913D01*
X71182135Y-86123746D01*
X71181041Y-86127195D01*
X71130323Y-86287078D01*
X71125772Y-86301424D01*
X71104994Y-86486665D01*
X62853792Y-86486665D01*
X62842494Y-86371444D01*
X62836909Y-86314487D01*
X62835179Y-86308755D01*
X62784108Y-86139602D01*
X62783033Y-86136040D01*
X62712922Y-86004180D01*
X62697221Y-85974651D01*
X62697220Y-85974650D01*
X62695522Y-85971456D01*
X62577710Y-85827005D01*
X62434085Y-85708187D01*
X62270116Y-85619529D01*
X62092049Y-85564409D01*
X61906668Y-85544924D01*
X61890978Y-85546352D01*
X61724645Y-85561489D01*
X61724643Y-85561489D01*
X61721032Y-85561818D01*
X61542214Y-85614448D01*
X61539015Y-85616120D01*
X61539011Y-85616122D01*
X61486552Y-85643547D01*
X61377023Y-85700807D01*
X61374205Y-85703073D01*
X61374203Y-85703074D01*
X61322058Y-85745000D01*
X61231752Y-85817608D01*
X61111935Y-85960401D01*
X61110193Y-85963569D01*
X61110192Y-85963571D01*
X61073720Y-86029913D01*
X61022135Y-86123746D01*
X61021041Y-86127195D01*
X60970323Y-86287078D01*
X60965772Y-86301424D01*
X60944994Y-86486665D01*
X50315000Y-86486665D01*
X50315000Y-82558665D01*
X60944994Y-82558665D01*
X60945297Y-82562274D01*
X60945297Y-82562276D01*
X60957837Y-82711601D01*
X60960592Y-82744414D01*
X61011971Y-82923595D01*
X61013624Y-82926811D01*
X61095520Y-83086164D01*
X61095523Y-83086169D01*
X61097176Y-83089385D01*
X61212959Y-83235468D01*
X61354912Y-83356279D01*
X61358074Y-83358046D01*
X61514468Y-83445452D01*
X61514472Y-83445454D01*
X61517627Y-83447217D01*
X61521063Y-83448334D01*
X61521069Y-83448336D01*
X61633313Y-83484806D01*
X61694907Y-83504819D01*
X61762399Y-83512867D01*
X61876398Y-83526461D01*
X61876401Y-83526461D01*
X61879998Y-83526890D01*
X61939440Y-83522316D01*
X62062240Y-83512867D01*
X62062241Y-83512867D01*
X62065851Y-83512589D01*
X62245387Y-83462462D01*
X62260377Y-83454890D01*
X62408534Y-83380051D01*
X62408537Y-83380049D01*
X62411768Y-83378417D01*
X62558655Y-83263656D01*
X62680454Y-83122550D01*
X62682237Y-83119411D01*
X62682240Y-83119407D01*
X62742026Y-83014164D01*
X62772526Y-82960474D01*
X62773668Y-82957042D01*
X62830221Y-82787038D01*
X62830222Y-82787035D01*
X62831364Y-82783601D01*
X62854727Y-82598668D01*
X62855099Y-82572000D01*
X62853792Y-82558665D01*
X71104994Y-82558665D01*
X71105297Y-82562274D01*
X71105297Y-82562276D01*
X71117837Y-82711601D01*
X71120592Y-82744414D01*
X71171971Y-82923595D01*
X71173624Y-82926811D01*
X71255520Y-83086164D01*
X71255523Y-83086169D01*
X71257176Y-83089385D01*
X71372959Y-83235468D01*
X71514912Y-83356279D01*
X71518074Y-83358046D01*
X71674468Y-83445452D01*
X71674472Y-83445454D01*
X71677627Y-83447217D01*
X71681063Y-83448334D01*
X71681069Y-83448336D01*
X71793313Y-83484806D01*
X71854907Y-83504819D01*
X71922399Y-83512867D01*
X72036398Y-83526461D01*
X72036401Y-83526461D01*
X72039998Y-83526890D01*
X72099440Y-83522316D01*
X72222240Y-83512867D01*
X72222241Y-83512867D01*
X72225851Y-83512589D01*
X72405387Y-83462462D01*
X72420377Y-83454890D01*
X72568534Y-83380051D01*
X72568537Y-83380049D01*
X72571768Y-83378417D01*
X72718655Y-83263656D01*
X72840454Y-83122550D01*
X72842237Y-83119411D01*
X72842240Y-83119407D01*
X72902026Y-83014164D01*
X72932526Y-82960474D01*
X72933668Y-82957042D01*
X72990221Y-82787038D01*
X72990222Y-82787035D01*
X72991364Y-82783601D01*
X73014727Y-82598668D01*
X73015099Y-82572000D01*
X73013792Y-82558665D01*
X73004418Y-82463067D01*
X72996909Y-82386487D01*
X72943033Y-82208040D01*
X72884818Y-82098553D01*
X72857221Y-82046651D01*
X72857220Y-82046650D01*
X72855522Y-82043456D01*
X72737710Y-81899005D01*
X72594085Y-81780187D01*
X72498803Y-81728668D01*
X72433299Y-81693250D01*
X72430116Y-81691529D01*
X72252049Y-81636409D01*
X72066668Y-81616924D01*
X72050978Y-81618352D01*
X71884645Y-81633489D01*
X71884643Y-81633489D01*
X71881032Y-81633818D01*
X71702214Y-81686448D01*
X71699015Y-81688120D01*
X71699011Y-81688122D01*
X71629199Y-81724619D01*
X71537023Y-81772807D01*
X71534205Y-81775073D01*
X71534203Y-81775074D01*
X71484121Y-81815341D01*
X71391752Y-81889608D01*
X71271935Y-82032401D01*
X71182135Y-82195746D01*
X71181041Y-82199195D01*
X71135938Y-82341378D01*
X71125772Y-82373424D01*
X71104994Y-82558665D01*
X62853792Y-82558665D01*
X62844418Y-82463067D01*
X62836909Y-82386487D01*
X62783033Y-82208040D01*
X62724818Y-82098553D01*
X62697221Y-82046651D01*
X62697220Y-82046650D01*
X62695522Y-82043456D01*
X62577710Y-81899005D01*
X62434085Y-81780187D01*
X62338803Y-81728668D01*
X62273299Y-81693250D01*
X62270116Y-81691529D01*
X62092049Y-81636409D01*
X61906668Y-81616924D01*
X61890978Y-81618352D01*
X61724645Y-81633489D01*
X61724643Y-81633489D01*
X61721032Y-81633818D01*
X61542214Y-81686448D01*
X61539015Y-81688120D01*
X61539011Y-81688122D01*
X61469199Y-81724619D01*
X61377023Y-81772807D01*
X61374205Y-81775073D01*
X61374203Y-81775074D01*
X61324121Y-81815341D01*
X61231752Y-81889608D01*
X61111935Y-82032401D01*
X61022135Y-82195746D01*
X61021041Y-82199195D01*
X60975938Y-82341378D01*
X60965772Y-82373424D01*
X60944994Y-82558665D01*
X50315000Y-82558665D01*
X50315000Y-78661133D01*
X68078001Y-78661133D01*
X68078712Y-78668347D01*
X68085281Y-78701378D01*
X68090752Y-78714587D01*
X68115807Y-78752084D01*
X68125916Y-78762193D01*
X68163415Y-78787249D01*
X68176620Y-78792719D01*
X68209655Y-78799290D01*
X68216865Y-78800000D01*
X68514952Y-78800000D01*
X68524948Y-78796362D01*
X68528000Y-78791075D01*
X68528000Y-78786951D01*
X68678000Y-78786951D01*
X68681638Y-78796947D01*
X68686925Y-78799999D01*
X68989133Y-78799999D01*
X68996347Y-78799288D01*
X69029378Y-78792719D01*
X69042587Y-78787248D01*
X69080084Y-78762193D01*
X69090193Y-78752084D01*
X69115249Y-78714585D01*
X69120719Y-78701380D01*
X69127290Y-78668345D01*
X69128000Y-78661135D01*
X69128000Y-78661133D01*
X69475001Y-78661133D01*
X69475712Y-78668347D01*
X69482281Y-78701378D01*
X69487752Y-78714587D01*
X69512807Y-78752084D01*
X69522916Y-78762193D01*
X69560415Y-78787249D01*
X69573620Y-78792719D01*
X69606655Y-78799290D01*
X69613865Y-78800000D01*
X69911952Y-78800000D01*
X69921948Y-78796362D01*
X69925000Y-78791075D01*
X69925000Y-78786951D01*
X70075000Y-78786951D01*
X70078638Y-78796947D01*
X70083925Y-78799999D01*
X70386133Y-78799999D01*
X70393347Y-78799288D01*
X70426378Y-78792719D01*
X70439587Y-78787248D01*
X70477084Y-78762193D01*
X70487193Y-78752084D01*
X70512249Y-78714585D01*
X70517719Y-78701380D01*
X70524290Y-78668345D01*
X70525000Y-78661135D01*
X70525000Y-78338048D01*
X70521362Y-78328052D01*
X70516075Y-78325000D01*
X70088048Y-78325000D01*
X70078052Y-78328638D01*
X70075000Y-78333925D01*
X70075000Y-78786951D01*
X69925000Y-78786951D01*
X69925000Y-78338048D01*
X69921362Y-78328052D01*
X69916075Y-78325000D01*
X69488049Y-78325000D01*
X69478053Y-78328638D01*
X69475001Y-78333925D01*
X69475001Y-78661133D01*
X69128000Y-78661133D01*
X69128000Y-78338048D01*
X69124362Y-78328052D01*
X69119075Y-78325000D01*
X68691048Y-78325000D01*
X68681052Y-78328638D01*
X68678000Y-78333925D01*
X68678000Y-78786951D01*
X68528000Y-78786951D01*
X68528000Y-78338048D01*
X68524362Y-78328052D01*
X68519075Y-78325000D01*
X68091049Y-78325000D01*
X68081053Y-78328638D01*
X68078001Y-78333925D01*
X68078001Y-78661133D01*
X50315000Y-78661133D01*
X50315000Y-78161952D01*
X68078000Y-78161952D01*
X68081638Y-78171948D01*
X68086925Y-78175000D01*
X68514952Y-78175000D01*
X68524948Y-78171362D01*
X68528000Y-78166075D01*
X68528000Y-78161952D01*
X68678000Y-78161952D01*
X68681638Y-78171948D01*
X68686925Y-78175000D01*
X69114951Y-78175000D01*
X69124947Y-78171362D01*
X69127999Y-78166075D01*
X69127999Y-78161952D01*
X69475000Y-78161952D01*
X69478638Y-78171948D01*
X69483925Y-78175000D01*
X69911952Y-78175000D01*
X69921948Y-78171362D01*
X69925000Y-78166075D01*
X69925000Y-78161952D01*
X70075000Y-78161952D01*
X70078638Y-78171948D01*
X70083925Y-78175000D01*
X70511951Y-78175000D01*
X70521947Y-78171362D01*
X70524999Y-78166075D01*
X70524999Y-77838867D01*
X70524288Y-77831653D01*
X70517719Y-77798622D01*
X70512248Y-77785413D01*
X70487193Y-77747916D01*
X70477084Y-77737807D01*
X70439585Y-77712751D01*
X70426380Y-77707281D01*
X70393345Y-77700710D01*
X70386135Y-77700000D01*
X70088048Y-77700000D01*
X70078052Y-77703638D01*
X70075000Y-77708925D01*
X70075000Y-78161952D01*
X69925000Y-78161952D01*
X69925000Y-77713049D01*
X69921362Y-77703053D01*
X69916075Y-77700001D01*
X69613867Y-77700001D01*
X69606653Y-77700712D01*
X69573622Y-77707281D01*
X69560413Y-77712752D01*
X69522916Y-77737807D01*
X69512807Y-77747916D01*
X69487751Y-77785415D01*
X69482281Y-77798620D01*
X69475710Y-77831655D01*
X69475000Y-77838865D01*
X69475000Y-78161952D01*
X69127999Y-78161952D01*
X69127999Y-77838867D01*
X69127288Y-77831653D01*
X69120719Y-77798622D01*
X69115248Y-77785413D01*
X69090193Y-77747916D01*
X69080084Y-77737807D01*
X69042585Y-77712751D01*
X69029380Y-77707281D01*
X68996345Y-77700710D01*
X68989135Y-77700000D01*
X68691048Y-77700000D01*
X68681052Y-77703638D01*
X68678000Y-77708925D01*
X68678000Y-78161952D01*
X68528000Y-78161952D01*
X68528000Y-77713049D01*
X68524362Y-77703053D01*
X68519075Y-77700001D01*
X68216867Y-77700001D01*
X68209653Y-77700712D01*
X68176622Y-77707281D01*
X68163413Y-77712752D01*
X68125916Y-77737807D01*
X68115807Y-77747916D01*
X68090751Y-77785415D01*
X68085281Y-77798620D01*
X68078710Y-77831655D01*
X68078000Y-77838865D01*
X68078000Y-78161952D01*
X50315000Y-78161952D01*
X50315000Y-73393678D01*
X67646556Y-73393678D01*
X67655579Y-73427353D01*
X67657428Y-73434252D01*
X67658825Y-73440552D01*
X67666121Y-73481927D01*
X67669357Y-73487531D01*
X67670360Y-73490288D01*
X67674760Y-73500910D01*
X67676005Y-73503580D01*
X67677681Y-73509835D01*
X67681393Y-73515137D01*
X67681394Y-73515138D01*
X67701776Y-73544246D01*
X67705245Y-73549692D01*
X67726248Y-73586071D01*
X67731210Y-73590234D01*
X67731212Y-73590237D01*
X67758428Y-73613074D01*
X67763188Y-73617435D01*
X68669064Y-74523311D01*
X68673425Y-74528071D01*
X68696262Y-74555287D01*
X68696265Y-74555289D01*
X68700428Y-74560251D01*
X68724807Y-74574326D01*
X68736807Y-74581254D01*
X68742253Y-74584723D01*
X68776664Y-74608818D01*
X68782919Y-74610494D01*
X68785589Y-74611739D01*
X68796211Y-74616139D01*
X68798968Y-74617142D01*
X68804572Y-74620378D01*
X68845947Y-74627674D01*
X68852244Y-74629070D01*
X68892821Y-74639943D01*
X68899269Y-74639379D01*
X68899271Y-74639379D01*
X68934662Y-74636282D01*
X68941112Y-74636000D01*
X69079500Y-74636000D01*
X69127066Y-74653313D01*
X69152376Y-74697150D01*
X69153500Y-74710000D01*
X69153500Y-75509820D01*
X69162233Y-75553722D01*
X69195496Y-75603504D01*
X69245278Y-75636767D01*
X69252424Y-75638188D01*
X69252425Y-75638189D01*
X69285610Y-75644790D01*
X69285611Y-75644790D01*
X69289180Y-75645500D01*
X69689000Y-75645500D01*
X69736566Y-75662813D01*
X69761876Y-75706650D01*
X69763000Y-75719500D01*
X69763000Y-76125500D01*
X69745687Y-76173066D01*
X69701850Y-76198376D01*
X69689000Y-76199500D01*
X69610180Y-76199500D01*
X69606611Y-76200210D01*
X69606610Y-76200210D01*
X69573425Y-76206811D01*
X69573424Y-76206812D01*
X69566278Y-76208233D01*
X69516496Y-76241496D01*
X69483233Y-76291278D01*
X69474500Y-76335180D01*
X69474500Y-76338820D01*
X69474162Y-76342252D01*
X69452271Y-76387893D01*
X69406164Y-76408784D01*
X69400518Y-76409000D01*
X69202482Y-76409000D01*
X69154916Y-76391687D01*
X69129606Y-76347850D01*
X69128838Y-76342252D01*
X69128500Y-76338820D01*
X69128500Y-76335180D01*
X69119767Y-76291278D01*
X69086504Y-76241496D01*
X69036722Y-76208233D01*
X69029576Y-76206812D01*
X69029575Y-76206811D01*
X68996390Y-76200210D01*
X68996389Y-76200210D01*
X68992820Y-76199500D01*
X68213180Y-76199500D01*
X68209611Y-76200210D01*
X68209610Y-76200210D01*
X68176425Y-76206811D01*
X68176424Y-76206812D01*
X68169278Y-76208233D01*
X68119496Y-76241496D01*
X68086233Y-76291278D01*
X68077500Y-76335180D01*
X68077500Y-77164820D01*
X68086233Y-77208722D01*
X68119496Y-77258504D01*
X68169278Y-77291767D01*
X68176424Y-77293188D01*
X68176425Y-77293189D01*
X68209610Y-77299790D01*
X68209611Y-77299790D01*
X68213180Y-77300500D01*
X68992820Y-77300500D01*
X68996389Y-77299790D01*
X68996390Y-77299790D01*
X69029575Y-77293189D01*
X69029576Y-77293188D01*
X69036722Y-77291767D01*
X69086504Y-77258504D01*
X69119767Y-77208722D01*
X69128500Y-77164820D01*
X69128500Y-77161180D01*
X69128838Y-77157748D01*
X69150729Y-77112107D01*
X69196836Y-77091216D01*
X69202482Y-77091000D01*
X69400518Y-77091000D01*
X69448084Y-77108313D01*
X69473394Y-77152150D01*
X69474162Y-77157748D01*
X69474500Y-77161180D01*
X69474500Y-77164820D01*
X69483233Y-77208722D01*
X69516496Y-77258504D01*
X69566278Y-77291767D01*
X69573424Y-77293188D01*
X69573425Y-77293189D01*
X69606610Y-77299790D01*
X69606611Y-77299790D01*
X69610180Y-77300500D01*
X70389820Y-77300500D01*
X70393389Y-77299790D01*
X70393390Y-77299790D01*
X70426575Y-77293189D01*
X70426576Y-77293188D01*
X70433722Y-77291767D01*
X70483504Y-77258504D01*
X70516767Y-77208722D01*
X70525500Y-77164820D01*
X70525500Y-76335180D01*
X70516767Y-76291278D01*
X70483504Y-76241496D01*
X70477444Y-76237447D01*
X70472290Y-76232293D01*
X70473215Y-76231368D01*
X70447958Y-76196927D01*
X70445000Y-76176215D01*
X70445000Y-75719500D01*
X70462313Y-75671934D01*
X70506150Y-75646624D01*
X70519000Y-75645500D01*
X70918820Y-75645500D01*
X70922392Y-75644790D01*
X70922397Y-75644789D01*
X70924601Y-75644351D01*
X70925477Y-75644486D01*
X70926003Y-75644434D01*
X70926016Y-75644569D01*
X70974630Y-75652055D01*
X70991357Y-75664604D01*
X75150446Y-79823693D01*
X75171838Y-79869569D01*
X75172120Y-79876019D01*
X75172120Y-85745000D01*
X75171838Y-85751449D01*
X75168177Y-85793299D01*
X75179049Y-85833873D01*
X75180446Y-85840173D01*
X75187742Y-85881548D01*
X75190978Y-85887152D01*
X75191981Y-85889909D01*
X75196381Y-85900531D01*
X75197626Y-85903201D01*
X75199302Y-85909456D01*
X75203014Y-85914758D01*
X75203015Y-85914759D01*
X75223397Y-85943867D01*
X75226866Y-85949313D01*
X75247869Y-85985692D01*
X75252831Y-85989855D01*
X75252833Y-85989858D01*
X75280049Y-86012695D01*
X75284809Y-86017056D01*
X76477826Y-87210072D01*
X76499218Y-87255948D01*
X76499500Y-87262398D01*
X76499500Y-87689820D01*
X76500210Y-87693389D01*
X76500210Y-87693390D01*
X76506773Y-87726380D01*
X76508233Y-87733722D01*
X76541496Y-87783504D01*
X76591278Y-87816767D01*
X76598424Y-87818188D01*
X76598425Y-87818189D01*
X76626822Y-87823837D01*
X76635180Y-87825500D01*
X76638820Y-87825500D01*
X76642252Y-87825838D01*
X76687893Y-87847729D01*
X76708784Y-87893836D01*
X76709000Y-87899482D01*
X76709000Y-88097518D01*
X76691687Y-88145084D01*
X76647850Y-88170394D01*
X76642252Y-88171162D01*
X76638820Y-88171500D01*
X76635180Y-88171500D01*
X76631610Y-88172210D01*
X76631611Y-88172210D01*
X76598425Y-88178811D01*
X76598424Y-88178812D01*
X76591278Y-88180233D01*
X76541496Y-88213496D01*
X76508233Y-88263278D01*
X76506812Y-88270424D01*
X76506811Y-88270425D01*
X76506772Y-88270622D01*
X76499500Y-88307180D01*
X76499500Y-89086820D01*
X76500210Y-89090389D01*
X76500210Y-89090390D01*
X76506773Y-89123380D01*
X76508233Y-89130722D01*
X76541496Y-89180504D01*
X76591278Y-89213767D01*
X76598424Y-89215188D01*
X76598425Y-89215189D01*
X76626822Y-89220837D01*
X76635180Y-89222500D01*
X76638820Y-89222500D01*
X76642252Y-89222838D01*
X76687893Y-89244729D01*
X76708784Y-89290836D01*
X76709000Y-89296482D01*
X76709000Y-107817101D01*
X76691687Y-107864667D01*
X76687326Y-107869427D01*
X76627927Y-107928826D01*
X76582051Y-107950218D01*
X76575601Y-107950500D01*
X73923180Y-107950500D01*
X73919611Y-107951210D01*
X73919610Y-107951210D01*
X73886425Y-107957811D01*
X73886424Y-107957812D01*
X73879278Y-107959233D01*
X73829496Y-107992496D01*
X73796233Y-108042278D01*
X73794812Y-108049424D01*
X73794811Y-108049425D01*
X73792058Y-108063265D01*
X73787500Y-108086180D01*
X73787500Y-111115820D01*
X73796233Y-111159722D01*
X73829496Y-111209504D01*
X73879278Y-111242767D01*
X73886424Y-111244188D01*
X73886425Y-111244189D01*
X73919610Y-111250790D01*
X73919611Y-111250790D01*
X73923180Y-111251500D01*
X76952820Y-111251500D01*
X76956389Y-111250790D01*
X76956390Y-111250790D01*
X76989575Y-111244189D01*
X76989576Y-111244188D01*
X76996722Y-111242767D01*
X77046504Y-111209504D01*
X77079767Y-111159722D01*
X77088500Y-111115820D01*
X77088500Y-110820606D01*
X94819604Y-110820606D01*
X94820865Y-110825311D01*
X94952938Y-110938112D01*
X94957642Y-110941530D01*
X95174119Y-111074187D01*
X95179284Y-111076819D01*
X95413857Y-111173983D01*
X95419376Y-111175776D01*
X95666261Y-111235047D01*
X95671977Y-111235953D01*
X95925103Y-111255874D01*
X95930897Y-111255874D01*
X96184023Y-111235953D01*
X96189739Y-111235047D01*
X96436624Y-111175776D01*
X96442143Y-111173983D01*
X96676716Y-111076819D01*
X96681881Y-111074187D01*
X96898358Y-110941530D01*
X96903062Y-110938112D01*
X97031206Y-110828667D01*
X97036443Y-110819410D01*
X97035555Y-110814621D01*
X95937226Y-109716292D01*
X95927587Y-109711797D01*
X95921688Y-109713378D01*
X94824099Y-110810967D01*
X94819604Y-110820606D01*
X77088500Y-110820606D01*
X77088500Y-109603897D01*
X94273126Y-109603897D01*
X94293047Y-109857023D01*
X94293953Y-109862739D01*
X94353224Y-110109624D01*
X94355017Y-110115143D01*
X94452181Y-110349716D01*
X94454813Y-110354881D01*
X94587470Y-110571358D01*
X94590888Y-110576062D01*
X94700333Y-110704206D01*
X94709590Y-110709443D01*
X94714379Y-110708555D01*
X95812708Y-109610226D01*
X95816818Y-109601413D01*
X96038797Y-109601413D01*
X96040378Y-109607312D01*
X97137967Y-110704901D01*
X97147606Y-110709396D01*
X97152311Y-110708135D01*
X97265112Y-110576062D01*
X97268530Y-110571358D01*
X97401187Y-110354881D01*
X97403819Y-110349716D01*
X97500983Y-110115143D01*
X97502776Y-110109624D01*
X97562047Y-109862739D01*
X97562953Y-109857023D01*
X97582874Y-109603897D01*
X97582874Y-109598103D01*
X97562953Y-109344977D01*
X97562047Y-109339261D01*
X97502776Y-109092376D01*
X97500983Y-109086857D01*
X97403819Y-108852284D01*
X97401187Y-108847119D01*
X97268530Y-108630642D01*
X97265112Y-108625938D01*
X97155667Y-108497794D01*
X97146410Y-108492557D01*
X97141621Y-108493445D01*
X96043292Y-109591774D01*
X96038797Y-109601413D01*
X95816818Y-109601413D01*
X95817203Y-109600587D01*
X95815622Y-109594688D01*
X94718033Y-108497099D01*
X94708394Y-108492604D01*
X94703689Y-108493865D01*
X94590888Y-108625938D01*
X94587470Y-108630642D01*
X94454813Y-108847119D01*
X94452181Y-108852284D01*
X94355017Y-109086857D01*
X94353224Y-109092376D01*
X94293953Y-109339261D01*
X94293047Y-109344977D01*
X94273126Y-109598103D01*
X94273126Y-109603897D01*
X77088500Y-109603897D01*
X77088500Y-108463399D01*
X77105813Y-108415833D01*
X77110174Y-108411073D01*
X77138657Y-108382590D01*
X94819557Y-108382590D01*
X94820445Y-108387379D01*
X95918774Y-109485708D01*
X95928413Y-109490203D01*
X95934312Y-109488622D01*
X97031901Y-108391033D01*
X97036396Y-108381394D01*
X97035135Y-108376689D01*
X96903062Y-108263888D01*
X96898358Y-108260470D01*
X96681881Y-108127813D01*
X96676716Y-108125181D01*
X96442143Y-108028017D01*
X96436624Y-108026224D01*
X96189739Y-107966953D01*
X96184023Y-107966047D01*
X95930897Y-107946126D01*
X95925103Y-107946126D01*
X95671977Y-107966047D01*
X95666261Y-107966953D01*
X95419376Y-108026224D01*
X95413857Y-108028017D01*
X95179284Y-108125181D01*
X95174119Y-108127813D01*
X94957642Y-108260470D01*
X94952938Y-108263888D01*
X94824794Y-108373333D01*
X94819557Y-108382590D01*
X77138657Y-108382590D01*
X77278311Y-108242936D01*
X77283071Y-108238575D01*
X77310287Y-108215738D01*
X77310289Y-108215735D01*
X77315251Y-108211572D01*
X77336254Y-108175193D01*
X77339723Y-108169747D01*
X77360105Y-108140639D01*
X77360106Y-108140638D01*
X77363818Y-108135336D01*
X77365494Y-108129081D01*
X77366739Y-108126411D01*
X77371139Y-108115789D01*
X77372142Y-108113032D01*
X77375378Y-108107428D01*
X77382674Y-108066053D01*
X77384071Y-108059753D01*
X77394943Y-108019179D01*
X77393667Y-108004587D01*
X77391282Y-107977338D01*
X77391000Y-107970888D01*
X77391000Y-93748133D01*
X78579001Y-93748133D01*
X78579712Y-93755347D01*
X78586281Y-93788378D01*
X78591752Y-93801587D01*
X78616807Y-93839084D01*
X78626916Y-93849193D01*
X78664415Y-93874249D01*
X78677620Y-93879719D01*
X78710655Y-93886290D01*
X78717865Y-93887000D01*
X79540952Y-93887000D01*
X79550948Y-93883362D01*
X79554000Y-93878075D01*
X79554000Y-93873951D01*
X79704000Y-93873951D01*
X79707638Y-93883947D01*
X79712925Y-93886999D01*
X80540133Y-93886999D01*
X80547347Y-93886288D01*
X80580378Y-93879719D01*
X80593587Y-93874248D01*
X80631084Y-93849193D01*
X80641193Y-93839084D01*
X80666249Y-93801585D01*
X80671719Y-93788380D01*
X80678290Y-93755345D01*
X80679000Y-93748135D01*
X80679000Y-92925048D01*
X80675362Y-92915052D01*
X80670075Y-92912000D01*
X79717048Y-92912000D01*
X79707052Y-92915638D01*
X79704000Y-92920925D01*
X79704000Y-93873951D01*
X79554000Y-93873951D01*
X79554000Y-92925048D01*
X79550362Y-92915052D01*
X79545075Y-92912000D01*
X78592049Y-92912000D01*
X78582053Y-92915638D01*
X78579001Y-92920925D01*
X78579001Y-93748133D01*
X77391000Y-93748133D01*
X77391000Y-92822262D01*
X81113520Y-92822262D01*
X81113823Y-92825871D01*
X81113823Y-92825873D01*
X81121312Y-92915052D01*
X81130759Y-93027553D01*
X81187544Y-93225586D01*
X81189196Y-93228800D01*
X81189197Y-93228803D01*
X81236688Y-93321210D01*
X81281712Y-93408818D01*
X81409677Y-93570270D01*
X81412430Y-93572613D01*
X81412433Y-93572616D01*
X81446088Y-93601258D01*
X81566564Y-93703791D01*
X81613266Y-93729892D01*
X81743239Y-93802532D01*
X81743243Y-93802534D01*
X81746398Y-93804297D01*
X81749834Y-93805414D01*
X81749840Y-93805416D01*
X81853461Y-93839084D01*
X81942329Y-93867959D01*
X82006176Y-93875572D01*
X82143294Y-93891922D01*
X82143297Y-93891922D01*
X82146894Y-93892351D01*
X82216450Y-93886999D01*
X82348689Y-93876824D01*
X82348691Y-93876824D01*
X82352300Y-93876546D01*
X82550725Y-93821145D01*
X82581863Y-93805416D01*
X82731376Y-93729892D01*
X82731379Y-93729890D01*
X82734610Y-93728258D01*
X82871724Y-93621133D01*
X104741001Y-93621133D01*
X104741712Y-93628347D01*
X104748281Y-93661378D01*
X104753752Y-93674587D01*
X104778807Y-93712084D01*
X104788916Y-93722193D01*
X104826415Y-93747249D01*
X104839620Y-93752719D01*
X104872655Y-93759290D01*
X104879865Y-93760000D01*
X105702952Y-93760000D01*
X105712948Y-93756362D01*
X105716000Y-93751075D01*
X105716000Y-93746951D01*
X105866000Y-93746951D01*
X105869638Y-93756947D01*
X105874925Y-93759999D01*
X106702133Y-93759999D01*
X106709347Y-93759288D01*
X106742378Y-93752719D01*
X106755587Y-93747248D01*
X106793084Y-93722193D01*
X106803193Y-93712084D01*
X106828249Y-93674585D01*
X106833719Y-93661380D01*
X106840290Y-93628345D01*
X106841000Y-93621135D01*
X106841000Y-92798048D01*
X106837362Y-92788052D01*
X106832075Y-92785000D01*
X105879048Y-92785000D01*
X105869052Y-92788638D01*
X105866000Y-92793925D01*
X105866000Y-93746951D01*
X105716000Y-93746951D01*
X105716000Y-92798048D01*
X105712362Y-92788052D01*
X105707075Y-92785000D01*
X104754049Y-92785000D01*
X104744053Y-92788638D01*
X104741001Y-92793925D01*
X104741001Y-93621133D01*
X82871724Y-93621133D01*
X82896951Y-93601424D01*
X82916688Y-93578558D01*
X83029201Y-93448210D01*
X83029203Y-93448208D01*
X83031564Y-93445472D01*
X83033347Y-93442333D01*
X83033350Y-93442329D01*
X83103710Y-93318472D01*
X83133323Y-93266344D01*
X83145812Y-93228803D01*
X83197208Y-93074299D01*
X83198351Y-93070863D01*
X83203823Y-93027553D01*
X83223913Y-92868519D01*
X83223913Y-92868513D01*
X83224171Y-92866474D01*
X83224583Y-92837000D01*
X83219485Y-92785000D01*
X83210686Y-92695262D01*
X107275520Y-92695262D01*
X107275823Y-92698871D01*
X107275823Y-92698873D01*
X107283312Y-92788052D01*
X107292759Y-92900553D01*
X107349544Y-93098586D01*
X107351196Y-93101800D01*
X107351197Y-93101803D01*
X107372106Y-93142487D01*
X107443712Y-93281818D01*
X107571677Y-93443270D01*
X107574430Y-93445613D01*
X107574433Y-93445616D01*
X107577481Y-93448210D01*
X107728564Y-93576791D01*
X107775266Y-93602892D01*
X107905239Y-93675532D01*
X107905243Y-93675534D01*
X107908398Y-93677297D01*
X107911834Y-93678414D01*
X107911840Y-93678416D01*
X107995376Y-93705558D01*
X108104329Y-93740959D01*
X108164494Y-93748133D01*
X108305294Y-93764922D01*
X108305297Y-93764922D01*
X108308894Y-93765351D01*
X108378450Y-93759999D01*
X108510689Y-93749824D01*
X108510691Y-93749824D01*
X108514300Y-93749546D01*
X108712725Y-93694145D01*
X108743863Y-93678416D01*
X108893376Y-93602892D01*
X108893379Y-93602890D01*
X108896610Y-93601258D01*
X109058951Y-93474424D01*
X109083817Y-93445616D01*
X109191201Y-93321210D01*
X109191203Y-93321208D01*
X109193564Y-93318472D01*
X109195347Y-93315333D01*
X109195350Y-93315329D01*
X109248307Y-93222107D01*
X109295323Y-93139344D01*
X109307812Y-93101803D01*
X109359208Y-92947299D01*
X109360351Y-92943863D01*
X109364377Y-92912000D01*
X109385913Y-92741519D01*
X109385913Y-92741513D01*
X109386171Y-92739474D01*
X109386583Y-92710000D01*
X109379230Y-92635000D01*
X109366833Y-92508570D01*
X109366480Y-92504970D01*
X109306935Y-92307749D01*
X109210218Y-92125849D01*
X109080011Y-91966200D01*
X108966642Y-91872413D01*
X108924070Y-91837194D01*
X108924069Y-91837193D01*
X108921275Y-91834882D01*
X108910384Y-91828993D01*
X108743238Y-91738618D01*
X108740055Y-91736897D01*
X108736605Y-91735829D01*
X108736600Y-91735827D01*
X108611996Y-91697256D01*
X108543254Y-91675977D01*
X108338369Y-91654443D01*
X108334765Y-91654771D01*
X108334764Y-91654771D01*
X108334215Y-91654821D01*
X108133203Y-91673114D01*
X108084247Y-91687522D01*
X107939043Y-91730258D01*
X107939039Y-91730260D01*
X107935572Y-91731280D01*
X107883276Y-91758620D01*
X107756209Y-91825049D01*
X107756206Y-91825051D01*
X107753002Y-91826726D01*
X107750184Y-91828992D01*
X107750182Y-91828993D01*
X107595266Y-91953548D01*
X107595263Y-91953551D01*
X107592447Y-91955815D01*
X107590121Y-91958587D01*
X107590119Y-91958589D01*
X107462351Y-92110856D01*
X107462348Y-92110860D01*
X107460024Y-92113630D01*
X107360776Y-92294162D01*
X107298484Y-92490532D01*
X107298081Y-92494123D01*
X107298081Y-92494124D01*
X107296461Y-92508570D01*
X107275520Y-92695262D01*
X83210686Y-92695262D01*
X83204833Y-92635570D01*
X83204480Y-92631970D01*
X83201455Y-92621952D01*
X104741000Y-92621952D01*
X104744638Y-92631948D01*
X104749925Y-92635000D01*
X105702952Y-92635000D01*
X105712948Y-92631362D01*
X105716000Y-92626075D01*
X105716000Y-92621952D01*
X105866000Y-92621952D01*
X105869638Y-92631948D01*
X105874925Y-92635000D01*
X106827951Y-92635000D01*
X106837947Y-92631362D01*
X106840999Y-92626075D01*
X106840999Y-91798867D01*
X106840288Y-91791653D01*
X106833719Y-91758622D01*
X106828248Y-91745413D01*
X106803193Y-91707916D01*
X106793084Y-91697807D01*
X106755585Y-91672751D01*
X106742380Y-91667281D01*
X106709345Y-91660710D01*
X106702135Y-91660000D01*
X105879048Y-91660000D01*
X105869052Y-91663638D01*
X105866000Y-91668925D01*
X105866000Y-92621952D01*
X105716000Y-92621952D01*
X105716000Y-91673049D01*
X105712362Y-91663053D01*
X105707075Y-91660001D01*
X104879867Y-91660001D01*
X104872653Y-91660712D01*
X104839622Y-91667281D01*
X104826413Y-91672752D01*
X104788916Y-91697807D01*
X104778807Y-91707916D01*
X104753751Y-91745415D01*
X104748281Y-91758620D01*
X104741710Y-91791655D01*
X104741000Y-91798865D01*
X104741000Y-92621952D01*
X83201455Y-92621952D01*
X83144935Y-92434749D01*
X83048218Y-92252849D01*
X82918011Y-92093200D01*
X82759275Y-91961882D01*
X82748384Y-91955993D01*
X82581238Y-91865618D01*
X82578055Y-91863897D01*
X82574605Y-91862829D01*
X82574600Y-91862827D01*
X82449996Y-91824256D01*
X82381254Y-91802977D01*
X82176369Y-91781443D01*
X82172765Y-91781771D01*
X82172764Y-91781771D01*
X82172215Y-91781821D01*
X81971203Y-91800114D01*
X81922247Y-91814522D01*
X81777043Y-91857258D01*
X81777039Y-91857260D01*
X81773572Y-91858280D01*
X81721276Y-91885620D01*
X81594209Y-91952049D01*
X81594206Y-91952051D01*
X81591002Y-91953726D01*
X81588184Y-91955992D01*
X81588182Y-91955993D01*
X81433266Y-92080548D01*
X81433263Y-92080551D01*
X81430447Y-92082815D01*
X81428121Y-92085587D01*
X81428119Y-92085589D01*
X81300351Y-92237856D01*
X81300348Y-92237860D01*
X81298024Y-92240630D01*
X81198776Y-92421162D01*
X81197682Y-92424611D01*
X81172191Y-92504970D01*
X81136484Y-92617532D01*
X81136081Y-92621123D01*
X81136081Y-92621124D01*
X81134525Y-92635000D01*
X81113520Y-92822262D01*
X77391000Y-92822262D01*
X77391000Y-92748952D01*
X78579000Y-92748952D01*
X78582638Y-92758948D01*
X78587925Y-92762000D01*
X79540952Y-92762000D01*
X79550948Y-92758362D01*
X79554000Y-92753075D01*
X79554000Y-92748952D01*
X79704000Y-92748952D01*
X79707638Y-92758948D01*
X79712925Y-92762000D01*
X80665951Y-92762000D01*
X80675947Y-92758362D01*
X80678999Y-92753075D01*
X80678999Y-91925867D01*
X80678288Y-91918653D01*
X80671719Y-91885622D01*
X80666248Y-91872413D01*
X80641193Y-91834916D01*
X80631084Y-91824807D01*
X80593585Y-91799751D01*
X80580380Y-91794281D01*
X80547345Y-91787710D01*
X80540135Y-91787000D01*
X79717048Y-91787000D01*
X79707052Y-91790638D01*
X79704000Y-91795925D01*
X79704000Y-92748952D01*
X79554000Y-92748952D01*
X79554000Y-91800049D01*
X79550362Y-91790053D01*
X79545075Y-91787001D01*
X78717867Y-91787001D01*
X78710653Y-91787712D01*
X78677622Y-91794281D01*
X78664413Y-91799752D01*
X78626916Y-91824807D01*
X78616807Y-91834916D01*
X78591751Y-91872415D01*
X78586281Y-91885620D01*
X78579710Y-91918655D01*
X78579000Y-91925865D01*
X78579000Y-92748952D01*
X77391000Y-92748952D01*
X77391000Y-90486665D01*
X87984994Y-90486665D01*
X88000592Y-90672414D01*
X88051971Y-90851595D01*
X88053624Y-90854811D01*
X88135520Y-91014164D01*
X88135523Y-91014169D01*
X88137176Y-91017385D01*
X88252959Y-91163468D01*
X88394912Y-91284279D01*
X88398074Y-91286046D01*
X88554468Y-91373452D01*
X88554472Y-91373454D01*
X88557627Y-91375217D01*
X88561063Y-91376334D01*
X88561069Y-91376336D01*
X88673313Y-91412806D01*
X88734907Y-91432819D01*
X88802399Y-91440867D01*
X88916398Y-91454461D01*
X88916401Y-91454461D01*
X88919998Y-91454890D01*
X89019715Y-91447217D01*
X89102240Y-91440867D01*
X89102241Y-91440867D01*
X89105851Y-91440589D01*
X89285387Y-91390462D01*
X89288614Y-91388832D01*
X89448534Y-91308051D01*
X89448537Y-91308049D01*
X89451768Y-91306417D01*
X89598655Y-91191656D01*
X89720454Y-91050550D01*
X89722237Y-91047411D01*
X89722240Y-91047407D01*
X89773574Y-90957042D01*
X89812526Y-90888474D01*
X89813668Y-90885042D01*
X89870221Y-90715038D01*
X89870222Y-90715035D01*
X89871364Y-90711601D01*
X89894727Y-90526668D01*
X89895099Y-90500000D01*
X89893792Y-90486665D01*
X98144994Y-90486665D01*
X98160592Y-90672414D01*
X98211971Y-90851595D01*
X98213624Y-90854811D01*
X98295520Y-91014164D01*
X98295523Y-91014169D01*
X98297176Y-91017385D01*
X98412959Y-91163468D01*
X98554912Y-91284279D01*
X98558074Y-91286046D01*
X98714468Y-91373452D01*
X98714472Y-91373454D01*
X98717627Y-91375217D01*
X98721063Y-91376334D01*
X98721069Y-91376336D01*
X98833313Y-91412806D01*
X98894907Y-91432819D01*
X98962399Y-91440867D01*
X99076398Y-91454461D01*
X99076401Y-91454461D01*
X99079998Y-91454890D01*
X99179715Y-91447217D01*
X99262240Y-91440867D01*
X99262241Y-91440867D01*
X99265851Y-91440589D01*
X99445387Y-91390462D01*
X99448614Y-91388832D01*
X99608534Y-91308051D01*
X99608537Y-91308049D01*
X99611768Y-91306417D01*
X99758655Y-91191656D01*
X99880454Y-91050550D01*
X99882237Y-91047411D01*
X99882240Y-91047407D01*
X99933574Y-90957042D01*
X99972526Y-90888474D01*
X99973668Y-90885042D01*
X100030221Y-90715038D01*
X100030222Y-90715035D01*
X100031364Y-90711601D01*
X100054727Y-90526668D01*
X100055099Y-90500000D01*
X100053792Y-90486665D01*
X100037262Y-90318090D01*
X100036909Y-90314487D01*
X99983033Y-90136040D01*
X99895522Y-89971456D01*
X99777710Y-89827005D01*
X99634085Y-89708187D01*
X99470116Y-89619529D01*
X99292049Y-89564409D01*
X99106668Y-89544924D01*
X99090978Y-89546352D01*
X98924645Y-89561489D01*
X98924643Y-89561489D01*
X98921032Y-89561818D01*
X98742214Y-89614448D01*
X98739015Y-89616120D01*
X98739011Y-89616122D01*
X98700929Y-89636031D01*
X98577023Y-89700807D01*
X98574205Y-89703073D01*
X98574203Y-89703074D01*
X98504388Y-89759207D01*
X98431752Y-89817608D01*
X98311935Y-89960401D01*
X98222135Y-90123746D01*
X98165772Y-90301424D01*
X98144994Y-90486665D01*
X89893792Y-90486665D01*
X89877262Y-90318090D01*
X89876909Y-90314487D01*
X89823033Y-90136040D01*
X89735522Y-89971456D01*
X89617710Y-89827005D01*
X89474085Y-89708187D01*
X89310116Y-89619529D01*
X89132049Y-89564409D01*
X88946668Y-89544924D01*
X88930978Y-89546352D01*
X88764645Y-89561489D01*
X88764643Y-89561489D01*
X88761032Y-89561818D01*
X88582214Y-89614448D01*
X88579015Y-89616120D01*
X88579011Y-89616122D01*
X88540929Y-89636031D01*
X88417023Y-89700807D01*
X88414205Y-89703073D01*
X88414203Y-89703074D01*
X88344388Y-89759207D01*
X88271752Y-89817608D01*
X88151935Y-89960401D01*
X88062135Y-90123746D01*
X88005772Y-90301424D01*
X87984994Y-90486665D01*
X77391000Y-90486665D01*
X77391000Y-89296482D01*
X77408313Y-89248916D01*
X77452150Y-89223606D01*
X77457748Y-89222838D01*
X77461180Y-89222500D01*
X77464820Y-89222500D01*
X77473178Y-89220837D01*
X77501575Y-89215189D01*
X77501576Y-89215188D01*
X77508722Y-89213767D01*
X77558504Y-89180504D01*
X77591767Y-89130722D01*
X77593228Y-89123380D01*
X77599790Y-89090390D01*
X77599790Y-89090389D01*
X77600500Y-89086820D01*
X77600500Y-89083133D01*
X78000001Y-89083133D01*
X78000712Y-89090347D01*
X78007281Y-89123378D01*
X78012752Y-89136587D01*
X78037807Y-89174084D01*
X78047916Y-89184193D01*
X78085415Y-89209249D01*
X78098620Y-89214719D01*
X78131655Y-89221290D01*
X78138865Y-89222000D01*
X78461952Y-89222000D01*
X78471948Y-89218362D01*
X78475000Y-89213075D01*
X78475000Y-89208951D01*
X78625000Y-89208951D01*
X78628638Y-89218947D01*
X78633925Y-89221999D01*
X78961133Y-89221999D01*
X78968347Y-89221288D01*
X79001378Y-89214719D01*
X79014587Y-89209248D01*
X79052084Y-89184193D01*
X79062193Y-89174084D01*
X79087249Y-89136585D01*
X79092719Y-89123380D01*
X79099290Y-89090345D01*
X79100000Y-89083135D01*
X79100000Y-88785048D01*
X79096362Y-88775052D01*
X79091075Y-88772000D01*
X78638048Y-88772000D01*
X78628052Y-88775638D01*
X78625000Y-88780925D01*
X78625000Y-89208951D01*
X78475000Y-89208951D01*
X78475000Y-88785048D01*
X78471362Y-88775052D01*
X78466075Y-88772000D01*
X78013049Y-88772000D01*
X78003053Y-88775638D01*
X78000001Y-88780925D01*
X78000001Y-89083133D01*
X77600500Y-89083133D01*
X77600500Y-88608952D01*
X78000000Y-88608952D01*
X78003638Y-88618948D01*
X78008925Y-88622000D01*
X78461952Y-88622000D01*
X78471948Y-88618362D01*
X78475000Y-88613075D01*
X78475000Y-88608952D01*
X78625000Y-88608952D01*
X78628638Y-88618948D01*
X78633925Y-88622000D01*
X79086951Y-88622000D01*
X79096947Y-88618362D01*
X79099999Y-88613075D01*
X79099999Y-88310867D01*
X79099288Y-88303653D01*
X79092719Y-88270622D01*
X79087248Y-88257413D01*
X79062193Y-88219916D01*
X79052084Y-88209807D01*
X79014585Y-88184751D01*
X79001380Y-88179281D01*
X78968345Y-88172710D01*
X78961135Y-88172000D01*
X78638048Y-88172000D01*
X78628052Y-88175638D01*
X78625000Y-88180925D01*
X78625000Y-88608952D01*
X78475000Y-88608952D01*
X78475000Y-88185049D01*
X78471362Y-88175053D01*
X78466075Y-88172001D01*
X78138867Y-88172001D01*
X78131653Y-88172712D01*
X78098622Y-88179281D01*
X78085413Y-88184752D01*
X78047916Y-88209807D01*
X78037807Y-88219916D01*
X78012751Y-88257415D01*
X78007281Y-88270620D01*
X78000710Y-88303655D01*
X78000000Y-88310865D01*
X78000000Y-88608952D01*
X77600500Y-88608952D01*
X77600500Y-88307180D01*
X77593228Y-88270622D01*
X77593189Y-88270425D01*
X77593188Y-88270424D01*
X77591767Y-88263278D01*
X77558504Y-88213496D01*
X77508722Y-88180233D01*
X77501576Y-88178812D01*
X77501575Y-88178811D01*
X77468389Y-88172210D01*
X77468390Y-88172210D01*
X77464820Y-88171500D01*
X77461180Y-88171500D01*
X77457748Y-88171162D01*
X77412107Y-88149271D01*
X77391216Y-88103164D01*
X77391000Y-88097518D01*
X77391000Y-87899482D01*
X77408313Y-87851916D01*
X77452150Y-87826606D01*
X77457748Y-87825838D01*
X77461180Y-87825500D01*
X77464820Y-87825500D01*
X77473178Y-87823837D01*
X77501575Y-87818189D01*
X77501576Y-87818188D01*
X77508722Y-87816767D01*
X77558504Y-87783504D01*
X77591767Y-87733722D01*
X77593228Y-87726380D01*
X77599790Y-87693390D01*
X77599790Y-87693389D01*
X77600500Y-87689820D01*
X77600500Y-87686133D01*
X78000001Y-87686133D01*
X78000712Y-87693347D01*
X78007281Y-87726378D01*
X78012752Y-87739587D01*
X78037807Y-87777084D01*
X78047916Y-87787193D01*
X78085415Y-87812249D01*
X78098620Y-87817719D01*
X78131655Y-87824290D01*
X78138865Y-87825000D01*
X78461952Y-87825000D01*
X78471948Y-87821362D01*
X78475000Y-87816075D01*
X78475000Y-87811951D01*
X78625000Y-87811951D01*
X78628638Y-87821947D01*
X78633925Y-87824999D01*
X78961133Y-87824999D01*
X78968347Y-87824288D01*
X79001378Y-87817719D01*
X79014587Y-87812248D01*
X79052084Y-87787193D01*
X79062193Y-87777084D01*
X79087249Y-87739585D01*
X79092719Y-87726380D01*
X79099290Y-87693345D01*
X79100000Y-87686135D01*
X79100000Y-87388048D01*
X79096362Y-87378052D01*
X79091075Y-87375000D01*
X78638048Y-87375000D01*
X78628052Y-87378638D01*
X78625000Y-87383925D01*
X78625000Y-87811951D01*
X78475000Y-87811951D01*
X78475000Y-87388048D01*
X78471362Y-87378052D01*
X78466075Y-87375000D01*
X78013049Y-87375000D01*
X78003053Y-87378638D01*
X78000001Y-87383925D01*
X78000001Y-87686133D01*
X77600500Y-87686133D01*
X77600500Y-87211952D01*
X78000000Y-87211952D01*
X78003638Y-87221948D01*
X78008925Y-87225000D01*
X78461952Y-87225000D01*
X78471948Y-87221362D01*
X78475000Y-87216075D01*
X78475000Y-87211952D01*
X78625000Y-87211952D01*
X78628638Y-87221948D01*
X78633925Y-87225000D01*
X79086951Y-87225000D01*
X79096947Y-87221362D01*
X79099999Y-87216075D01*
X79099999Y-86913867D01*
X79099288Y-86906653D01*
X79092719Y-86873622D01*
X79087248Y-86860413D01*
X79062193Y-86822916D01*
X79052084Y-86812807D01*
X79014585Y-86787751D01*
X79001380Y-86782281D01*
X78968345Y-86775710D01*
X78961135Y-86775000D01*
X78638048Y-86775000D01*
X78628052Y-86778638D01*
X78625000Y-86783925D01*
X78625000Y-87211952D01*
X78475000Y-87211952D01*
X78475000Y-86788049D01*
X78471362Y-86778053D01*
X78466075Y-86775001D01*
X78138867Y-86775001D01*
X78131653Y-86775712D01*
X78098622Y-86782281D01*
X78085413Y-86787752D01*
X78047916Y-86812807D01*
X78037807Y-86822916D01*
X78012751Y-86860415D01*
X78007281Y-86873620D01*
X78000710Y-86906655D01*
X78000000Y-86913865D01*
X78000000Y-87211952D01*
X77600500Y-87211952D01*
X77600500Y-86910180D01*
X77599790Y-86906610D01*
X77593189Y-86873425D01*
X77593188Y-86873424D01*
X77591767Y-86866278D01*
X77558504Y-86816496D01*
X77508722Y-86783233D01*
X77501576Y-86781812D01*
X77501575Y-86781811D01*
X77468390Y-86775210D01*
X77468389Y-86775210D01*
X77464820Y-86774500D01*
X77383450Y-86774500D01*
X77335884Y-86757187D01*
X77310574Y-86713350D01*
X77309450Y-86700500D01*
X77309450Y-86493500D01*
X77311938Y-86486665D01*
X87984994Y-86486665D01*
X88000592Y-86672414D01*
X88051971Y-86851595D01*
X88069161Y-86885042D01*
X88135520Y-87014164D01*
X88135523Y-87014169D01*
X88137176Y-87017385D01*
X88252959Y-87163468D01*
X88255712Y-87165811D01*
X88255713Y-87165812D01*
X88333186Y-87231746D01*
X88394912Y-87284279D01*
X88398074Y-87286046D01*
X88554468Y-87373452D01*
X88554472Y-87373454D01*
X88557627Y-87375217D01*
X88561063Y-87376334D01*
X88561069Y-87376336D01*
X88673313Y-87412806D01*
X88734907Y-87432819D01*
X88802399Y-87440867D01*
X88916398Y-87454461D01*
X88916401Y-87454461D01*
X88919998Y-87454890D01*
X88979440Y-87450316D01*
X89102240Y-87440867D01*
X89102241Y-87440867D01*
X89105851Y-87440589D01*
X89285387Y-87390462D01*
X89319061Y-87373452D01*
X89448534Y-87308051D01*
X89448537Y-87308049D01*
X89451768Y-87306417D01*
X89598655Y-87191656D01*
X89720454Y-87050550D01*
X89722237Y-87047411D01*
X89722240Y-87047407D01*
X89766490Y-86969512D01*
X89812526Y-86888474D01*
X89817467Y-86873622D01*
X89870221Y-86715038D01*
X89870222Y-86715035D01*
X89871364Y-86711601D01*
X89894727Y-86526668D01*
X89895099Y-86500000D01*
X89893792Y-86486665D01*
X98144994Y-86486665D01*
X98160592Y-86672414D01*
X98211971Y-86851595D01*
X98229161Y-86885042D01*
X98295520Y-87014164D01*
X98295523Y-87014169D01*
X98297176Y-87017385D01*
X98412959Y-87163468D01*
X98415712Y-87165811D01*
X98415713Y-87165812D01*
X98493186Y-87231746D01*
X98554912Y-87284279D01*
X98558074Y-87286046D01*
X98714468Y-87373452D01*
X98714472Y-87373454D01*
X98717627Y-87375217D01*
X98721063Y-87376334D01*
X98721069Y-87376336D01*
X98833313Y-87412806D01*
X98894907Y-87432819D01*
X98962399Y-87440867D01*
X99076398Y-87454461D01*
X99076401Y-87454461D01*
X99079998Y-87454890D01*
X99139440Y-87450316D01*
X99262240Y-87440867D01*
X99262241Y-87440867D01*
X99265851Y-87440589D01*
X99445387Y-87390462D01*
X99479061Y-87373452D01*
X99608534Y-87308051D01*
X99608537Y-87308049D01*
X99611768Y-87306417D01*
X99758655Y-87191656D01*
X99880454Y-87050550D01*
X99882237Y-87047411D01*
X99882240Y-87047407D01*
X99926490Y-86969512D01*
X99972526Y-86888474D01*
X99977467Y-86873622D01*
X100030221Y-86715038D01*
X100030222Y-86715035D01*
X100031364Y-86711601D01*
X100054727Y-86526668D01*
X100055099Y-86500000D01*
X100053792Y-86486665D01*
X100042494Y-86371444D01*
X100036909Y-86314487D01*
X100035179Y-86308755D01*
X99984108Y-86139602D01*
X99983033Y-86136040D01*
X99912922Y-86004180D01*
X99897221Y-85974651D01*
X99897220Y-85974650D01*
X99895522Y-85971456D01*
X99777710Y-85827005D01*
X99634085Y-85708187D01*
X99470116Y-85619529D01*
X99292049Y-85564409D01*
X99106668Y-85544924D01*
X99090978Y-85546352D01*
X98924645Y-85561489D01*
X98924643Y-85561489D01*
X98921032Y-85561818D01*
X98742214Y-85614448D01*
X98739015Y-85616120D01*
X98739011Y-85616122D01*
X98686552Y-85643547D01*
X98577023Y-85700807D01*
X98574205Y-85703073D01*
X98574203Y-85703074D01*
X98522058Y-85745000D01*
X98431752Y-85817608D01*
X98311935Y-85960401D01*
X98310193Y-85963569D01*
X98310192Y-85963571D01*
X98273720Y-86029913D01*
X98222135Y-86123746D01*
X98221041Y-86127195D01*
X98170323Y-86287078D01*
X98165772Y-86301424D01*
X98144994Y-86486665D01*
X89893792Y-86486665D01*
X89882494Y-86371444D01*
X89876909Y-86314487D01*
X89875179Y-86308755D01*
X89824108Y-86139602D01*
X89823033Y-86136040D01*
X89752922Y-86004180D01*
X89737221Y-85974651D01*
X89737220Y-85974650D01*
X89735522Y-85971456D01*
X89617710Y-85827005D01*
X89474085Y-85708187D01*
X89310116Y-85619529D01*
X89132049Y-85564409D01*
X88946668Y-85544924D01*
X88930978Y-85546352D01*
X88764645Y-85561489D01*
X88764643Y-85561489D01*
X88761032Y-85561818D01*
X88582214Y-85614448D01*
X88579015Y-85616120D01*
X88579011Y-85616122D01*
X88526552Y-85643547D01*
X88417023Y-85700807D01*
X88414205Y-85703073D01*
X88414203Y-85703074D01*
X88362058Y-85745000D01*
X88271752Y-85817608D01*
X88151935Y-85960401D01*
X88150193Y-85963569D01*
X88150192Y-85963571D01*
X88113720Y-86029913D01*
X88062135Y-86123746D01*
X88061041Y-86127195D01*
X88010323Y-86287078D01*
X88005772Y-86301424D01*
X87984994Y-86486665D01*
X77311938Y-86486665D01*
X77326763Y-86445934D01*
X77370600Y-86420624D01*
X77383450Y-86419500D01*
X77415820Y-86419500D01*
X77419389Y-86418790D01*
X77419390Y-86418790D01*
X77452575Y-86412189D01*
X77452576Y-86412188D01*
X77459722Y-86410767D01*
X77464269Y-86407729D01*
X77490804Y-86402450D01*
X77724962Y-86402450D01*
X77739399Y-86403872D01*
X77757703Y-86407513D01*
X77783156Y-86402450D01*
X77851398Y-86388876D01*
X77851400Y-86388875D01*
X77858545Y-86387454D01*
X77944035Y-86330332D01*
X77954403Y-86314815D01*
X77963606Y-86303601D01*
X78025209Y-86241998D01*
X78071085Y-86220606D01*
X78119980Y-86233707D01*
X78149014Y-86275171D01*
X78150500Y-86283344D01*
X78150500Y-86283820D01*
X78151209Y-86287383D01*
X78151209Y-86287386D01*
X78157317Y-86318090D01*
X78159233Y-86327722D01*
X78192496Y-86377504D01*
X78242278Y-86410767D01*
X78249424Y-86412188D01*
X78249425Y-86412189D01*
X78282610Y-86418790D01*
X78282611Y-86418790D01*
X78286180Y-86419500D01*
X79015820Y-86419500D01*
X79019389Y-86418790D01*
X79019390Y-86418790D01*
X79052575Y-86412189D01*
X79052576Y-86412188D01*
X79059722Y-86410767D01*
X79064269Y-86407729D01*
X79090804Y-86402450D01*
X79208181Y-86402450D01*
X79222618Y-86403872D01*
X79240922Y-86407513D01*
X79266375Y-86402450D01*
X79334617Y-86388876D01*
X79334619Y-86388875D01*
X79341764Y-86387454D01*
X79427254Y-86330332D01*
X79437622Y-86314815D01*
X79446825Y-86303601D01*
X83263761Y-82486665D01*
X87984994Y-82486665D01*
X87985297Y-82490274D01*
X87985297Y-82490276D01*
X87988180Y-82524608D01*
X88000592Y-82672414D01*
X88051971Y-82851595D01*
X88053624Y-82854811D01*
X88135520Y-83014164D01*
X88135523Y-83014169D01*
X88137176Y-83017385D01*
X88252959Y-83163468D01*
X88394912Y-83284279D01*
X88398074Y-83286046D01*
X88554468Y-83373452D01*
X88554472Y-83373454D01*
X88557627Y-83375217D01*
X88561063Y-83376334D01*
X88561069Y-83376336D01*
X88673313Y-83412806D01*
X88734907Y-83432819D01*
X88802399Y-83440867D01*
X88916398Y-83454461D01*
X88916401Y-83454461D01*
X88919998Y-83454890D01*
X89019715Y-83447217D01*
X89102240Y-83440867D01*
X89102241Y-83440867D01*
X89105851Y-83440589D01*
X89285387Y-83390462D01*
X89288614Y-83388832D01*
X89448534Y-83308051D01*
X89448537Y-83308049D01*
X89451768Y-83306417D01*
X89598655Y-83191656D01*
X89720454Y-83050550D01*
X89722237Y-83047411D01*
X89722240Y-83047407D01*
X89773574Y-82957042D01*
X89812526Y-82888474D01*
X89813668Y-82885042D01*
X89870221Y-82715038D01*
X89870222Y-82715035D01*
X89871364Y-82711601D01*
X89894727Y-82526668D01*
X89895099Y-82500000D01*
X89893792Y-82486665D01*
X98144994Y-82486665D01*
X98145297Y-82490274D01*
X98145297Y-82490276D01*
X98148180Y-82524608D01*
X98160592Y-82672414D01*
X98211971Y-82851595D01*
X98213624Y-82854811D01*
X98295520Y-83014164D01*
X98295523Y-83014169D01*
X98297176Y-83017385D01*
X98412959Y-83163468D01*
X98554912Y-83284279D01*
X98558074Y-83286046D01*
X98714468Y-83373452D01*
X98714472Y-83373454D01*
X98717627Y-83375217D01*
X98721063Y-83376334D01*
X98721069Y-83376336D01*
X98833313Y-83412806D01*
X98894907Y-83432819D01*
X98962399Y-83440867D01*
X99076398Y-83454461D01*
X99076401Y-83454461D01*
X99079998Y-83454890D01*
X99179715Y-83447217D01*
X99262240Y-83440867D01*
X99262241Y-83440867D01*
X99265851Y-83440589D01*
X99445387Y-83390462D01*
X99448614Y-83388832D01*
X99608534Y-83308051D01*
X99608537Y-83308049D01*
X99611768Y-83306417D01*
X99758655Y-83191656D01*
X99880454Y-83050550D01*
X99882237Y-83047411D01*
X99882240Y-83047407D01*
X99933574Y-82957042D01*
X99972526Y-82888474D01*
X99973668Y-82885042D01*
X100030221Y-82715038D01*
X100030222Y-82715035D01*
X100031364Y-82711601D01*
X100054727Y-82526668D01*
X100055099Y-82500000D01*
X100053792Y-82486665D01*
X100037262Y-82318090D01*
X100036909Y-82314487D01*
X100032892Y-82301180D01*
X100003806Y-82204845D01*
X99983033Y-82136040D01*
X99910128Y-81998925D01*
X99897221Y-81974651D01*
X99897220Y-81974650D01*
X99895522Y-81971456D01*
X99777710Y-81827005D01*
X99634085Y-81708187D01*
X99470116Y-81619529D01*
X99292049Y-81564409D01*
X99106668Y-81544924D01*
X99090978Y-81546352D01*
X98924645Y-81561489D01*
X98924643Y-81561489D01*
X98921032Y-81561818D01*
X98742214Y-81614448D01*
X98739015Y-81616120D01*
X98739011Y-81616122D01*
X98700929Y-81636031D01*
X98577023Y-81700807D01*
X98574205Y-81703073D01*
X98574203Y-81703074D01*
X98547407Y-81724619D01*
X98431752Y-81817608D01*
X98311935Y-81960401D01*
X98310193Y-81963569D01*
X98310192Y-81963571D01*
X98273878Y-82029627D01*
X98222135Y-82123746D01*
X98165772Y-82301424D01*
X98144994Y-82486665D01*
X89893792Y-82486665D01*
X89877262Y-82318090D01*
X89876909Y-82314487D01*
X89872892Y-82301180D01*
X89843806Y-82204845D01*
X89823033Y-82136040D01*
X89750128Y-81998925D01*
X89737221Y-81974651D01*
X89737220Y-81974650D01*
X89735522Y-81971456D01*
X89617710Y-81827005D01*
X89474085Y-81708187D01*
X89310116Y-81619529D01*
X89132049Y-81564409D01*
X88946668Y-81544924D01*
X88930978Y-81546352D01*
X88764645Y-81561489D01*
X88764643Y-81561489D01*
X88761032Y-81561818D01*
X88582214Y-81614448D01*
X88579015Y-81616120D01*
X88579011Y-81616122D01*
X88540929Y-81636031D01*
X88417023Y-81700807D01*
X88414205Y-81703073D01*
X88414203Y-81703074D01*
X88387407Y-81724619D01*
X88271752Y-81817608D01*
X88151935Y-81960401D01*
X88150193Y-81963569D01*
X88150192Y-81963571D01*
X88113878Y-82029627D01*
X88062135Y-82123746D01*
X88005772Y-82301424D01*
X87984994Y-82486665D01*
X83263761Y-82486665D01*
X85503601Y-80246825D01*
X85514815Y-80237622D01*
X85524272Y-80231303D01*
X85530332Y-80227254D01*
X85587454Y-80141764D01*
X85602450Y-80066375D01*
X85607513Y-80040922D01*
X85603872Y-80022618D01*
X85602450Y-80008181D01*
X85602450Y-75664338D01*
X85619763Y-75616772D01*
X85650898Y-75594889D01*
X85677372Y-75585148D01*
X85762821Y-75553710D01*
X85926934Y-75451955D01*
X86067235Y-75319279D01*
X86177991Y-75161102D01*
X86215402Y-75074651D01*
X86253194Y-74987320D01*
X86253195Y-74987316D01*
X86254680Y-74983885D01*
X86274898Y-74887110D01*
X86293587Y-74797648D01*
X86294168Y-74794867D01*
X86294500Y-74788532D01*
X86294500Y-73846741D01*
X86291709Y-73819257D01*
X86280267Y-73706621D01*
X86279888Y-73702890D01*
X86260335Y-73640495D01*
X86223265Y-73522203D01*
X86223264Y-73522200D01*
X86222144Y-73518627D01*
X86128528Y-73349739D01*
X86124795Y-73345383D01*
X86005303Y-73205971D01*
X86002864Y-73203125D01*
X85999904Y-73200829D01*
X85999902Y-73200827D01*
X85853252Y-73087073D01*
X85853248Y-73087070D01*
X85850286Y-73084773D01*
X85837075Y-73078272D01*
X85680389Y-73001174D01*
X85677026Y-72999519D01*
X85490163Y-72950845D01*
X85486424Y-72950649D01*
X85301074Y-72940935D01*
X85301071Y-72940935D01*
X85297329Y-72940739D01*
X85293620Y-72941300D01*
X85293619Y-72941300D01*
X85110108Y-72969053D01*
X85110104Y-72969054D01*
X85106401Y-72969614D01*
X84925179Y-73036290D01*
X84921996Y-73038263D01*
X84921995Y-73038264D01*
X84872722Y-73068815D01*
X84761066Y-73138045D01*
X84758344Y-73140619D01*
X84737753Y-73160091D01*
X84620765Y-73270721D01*
X84510009Y-73428898D01*
X84488972Y-73477511D01*
X84434811Y-73602670D01*
X84433320Y-73606115D01*
X84432555Y-73609777D01*
X84432554Y-73609780D01*
X84408420Y-73725302D01*
X84393832Y-73795133D01*
X84393500Y-73801468D01*
X84393500Y-74743259D01*
X84393689Y-74745116D01*
X84393689Y-74745123D01*
X84407733Y-74883379D01*
X84408112Y-74887110D01*
X84409233Y-74890687D01*
X84449999Y-75020772D01*
X84465856Y-75071373D01*
X84559472Y-75240261D01*
X84685136Y-75386875D01*
X84688096Y-75389171D01*
X84688098Y-75389173D01*
X84834748Y-75502927D01*
X84834752Y-75502930D01*
X84837714Y-75505227D01*
X84841079Y-75506883D01*
X84841081Y-75506884D01*
X84921745Y-75546575D01*
X85010974Y-75590481D01*
X85030204Y-75595490D01*
X85071870Y-75624234D01*
X85085550Y-75667100D01*
X85085550Y-79903216D01*
X85068237Y-79950782D01*
X85063876Y-79955542D01*
X79263850Y-85755568D01*
X79246203Y-85763797D01*
X79235976Y-85783442D01*
X79219214Y-85800204D01*
X79173338Y-85821596D01*
X79157555Y-85818097D01*
X79157402Y-85819843D01*
X79147764Y-85819000D01*
X78650000Y-85819000D01*
X78602434Y-85801687D01*
X78577124Y-85757850D01*
X78576000Y-85745000D01*
X78576000Y-85743000D01*
X78593313Y-85695434D01*
X78637150Y-85670124D01*
X78650000Y-85669000D01*
X79137951Y-85669000D01*
X79147947Y-85665362D01*
X79150999Y-85660075D01*
X79150999Y-85607867D01*
X79150288Y-85600653D01*
X79142297Y-85560473D01*
X79145365Y-85559863D01*
X79143978Y-85527963D01*
X79142767Y-85527722D01*
X79143752Y-85522770D01*
X79151500Y-85483820D01*
X79151500Y-85204180D01*
X79142767Y-85160278D01*
X79145420Y-85159750D01*
X79144028Y-85127871D01*
X79142297Y-85127527D01*
X79150290Y-85087345D01*
X79151000Y-85080135D01*
X79151000Y-85032048D01*
X79147362Y-85022052D01*
X79142075Y-85019000D01*
X78164049Y-85019000D01*
X78154053Y-85022638D01*
X78142210Y-85043151D01*
X78139243Y-85041438D01*
X78130252Y-85060718D01*
X78084375Y-85082108D01*
X78075515Y-85081624D01*
X78075515Y-85081909D01*
X78068227Y-85081909D01*
X78061078Y-85080487D01*
X78053929Y-85081909D01*
X78053928Y-85081909D01*
X78025005Y-85087662D01*
X77974976Y-85079962D01*
X77941600Y-85041904D01*
X77936569Y-85015084D01*
X77936569Y-84855952D01*
X78151000Y-84855952D01*
X78154638Y-84865948D01*
X78159925Y-84869000D01*
X78562952Y-84869000D01*
X78572948Y-84865362D01*
X78576000Y-84860075D01*
X78576000Y-84855952D01*
X78726000Y-84855952D01*
X78729638Y-84865948D01*
X78734925Y-84869000D01*
X79137951Y-84869000D01*
X79147947Y-84865362D01*
X79150999Y-84860075D01*
X79150999Y-84807867D01*
X79150288Y-84800653D01*
X79142297Y-84760473D01*
X79145124Y-84759911D01*
X79143719Y-84727810D01*
X79142297Y-84727527D01*
X79150290Y-84687345D01*
X79151000Y-84680135D01*
X79151000Y-84632048D01*
X79147362Y-84622052D01*
X79142075Y-84619000D01*
X78739048Y-84619000D01*
X78729052Y-84622638D01*
X78726000Y-84627925D01*
X78726000Y-84855952D01*
X78576000Y-84855952D01*
X78576000Y-84632048D01*
X78572362Y-84622052D01*
X78567075Y-84619000D01*
X78164049Y-84619000D01*
X78154053Y-84622638D01*
X78151001Y-84627925D01*
X78151001Y-84680133D01*
X78151712Y-84687347D01*
X78159703Y-84727527D01*
X78156876Y-84728089D01*
X78158281Y-84760190D01*
X78159703Y-84760473D01*
X78151710Y-84800655D01*
X78151000Y-84807865D01*
X78151000Y-84855952D01*
X77936569Y-84855952D01*
X77936569Y-84455952D01*
X78151000Y-84455952D01*
X78154638Y-84465948D01*
X78159925Y-84469000D01*
X78562952Y-84469000D01*
X78572948Y-84465362D01*
X78576000Y-84460075D01*
X78576000Y-84455952D01*
X78726000Y-84455952D01*
X78729638Y-84465948D01*
X78734925Y-84469000D01*
X79137951Y-84469000D01*
X79147947Y-84465362D01*
X79150999Y-84460075D01*
X79150999Y-84407867D01*
X79150288Y-84400653D01*
X79143719Y-84367622D01*
X79138248Y-84354413D01*
X79113193Y-84316916D01*
X79103084Y-84306807D01*
X79065585Y-84281751D01*
X79052380Y-84276281D01*
X79019345Y-84269710D01*
X79012135Y-84269000D01*
X78739048Y-84269000D01*
X78729052Y-84272638D01*
X78726000Y-84277925D01*
X78726000Y-84455952D01*
X78576000Y-84455952D01*
X78576000Y-84282049D01*
X78572362Y-84272053D01*
X78567075Y-84269001D01*
X78289867Y-84269001D01*
X78282653Y-84269712D01*
X78249622Y-84276281D01*
X78236413Y-84281752D01*
X78198916Y-84306807D01*
X78188807Y-84316916D01*
X78163751Y-84354415D01*
X78158281Y-84367620D01*
X78151710Y-84400655D01*
X78151000Y-84407865D01*
X78151000Y-84455952D01*
X77936569Y-84455952D01*
X77936569Y-84265509D01*
X77953882Y-84217943D01*
X77958243Y-84213183D01*
X81659601Y-80511825D01*
X81670815Y-80502622D01*
X81680272Y-80496303D01*
X81686332Y-80492254D01*
X81743454Y-80406764D01*
X81758450Y-80331375D01*
X81763513Y-80305922D01*
X81759872Y-80287618D01*
X81758450Y-80273181D01*
X81758450Y-75020772D01*
X81775763Y-74973206D01*
X81819600Y-74947896D01*
X81869450Y-74956686D01*
X81903064Y-74998643D01*
X81925856Y-75071373D01*
X82019472Y-75240261D01*
X82145136Y-75386875D01*
X82148096Y-75389171D01*
X82148098Y-75389173D01*
X82294748Y-75502927D01*
X82294752Y-75502930D01*
X82297714Y-75505227D01*
X82301079Y-75506883D01*
X82301081Y-75506884D01*
X82381745Y-75546575D01*
X82470974Y-75590481D01*
X82657837Y-75639155D01*
X82661576Y-75639351D01*
X82846926Y-75649065D01*
X82846929Y-75649065D01*
X82850671Y-75649261D01*
X82854380Y-75648700D01*
X82854381Y-75648700D01*
X83037892Y-75620947D01*
X83037896Y-75620946D01*
X83041599Y-75620386D01*
X83222821Y-75553710D01*
X83386934Y-75451955D01*
X83527235Y-75319279D01*
X83637991Y-75161102D01*
X83675402Y-75074651D01*
X83713194Y-74987320D01*
X83713195Y-74987316D01*
X83714680Y-74983885D01*
X83734898Y-74887110D01*
X83753587Y-74797648D01*
X83754168Y-74794867D01*
X83754500Y-74788532D01*
X83754500Y-73846741D01*
X83751709Y-73819257D01*
X83740267Y-73706621D01*
X83739888Y-73702890D01*
X83720335Y-73640495D01*
X83683265Y-73522203D01*
X83683264Y-73522200D01*
X83682144Y-73518627D01*
X83588528Y-73349739D01*
X83584795Y-73345383D01*
X83465303Y-73205971D01*
X83462864Y-73203125D01*
X83459904Y-73200829D01*
X83459902Y-73200827D01*
X83313252Y-73087073D01*
X83313248Y-73087070D01*
X83310286Y-73084773D01*
X83297075Y-73078272D01*
X83140389Y-73001174D01*
X83137026Y-72999519D01*
X82950163Y-72950845D01*
X82946424Y-72950649D01*
X82800683Y-72943011D01*
X82754088Y-72923232D01*
X82731108Y-72878130D01*
X82742494Y-72828809D01*
X82752230Y-72816786D01*
X84930891Y-70638124D01*
X84976767Y-70616732D01*
X84983217Y-70616450D01*
X85218977Y-70616450D01*
X85266543Y-70633763D01*
X85291853Y-70677600D01*
X85283063Y-70727450D01*
X85247295Y-70758817D01*
X85222375Y-70769139D01*
X85107379Y-70857379D01*
X85019139Y-70972375D01*
X84963670Y-71106291D01*
X84944750Y-71250000D01*
X84963670Y-71393709D01*
X85019139Y-71527625D01*
X85107379Y-71642621D01*
X85222375Y-71730861D01*
X85356291Y-71786330D01*
X85500000Y-71805250D01*
X85504808Y-71804617D01*
X85638901Y-71786963D01*
X85643709Y-71786330D01*
X85777625Y-71730861D01*
X85892621Y-71642621D01*
X85973360Y-71537400D01*
X86016051Y-71510204D01*
X86032067Y-71508450D01*
X87217933Y-71508450D01*
X87265499Y-71525763D01*
X87276638Y-71537398D01*
X87357379Y-71642621D01*
X87472375Y-71730861D01*
X87606291Y-71786330D01*
X87750000Y-71805250D01*
X87754808Y-71804617D01*
X87881491Y-71787939D01*
X87930910Y-71798895D01*
X87943476Y-71808980D01*
X89192097Y-73057601D01*
X89201300Y-73068815D01*
X89211668Y-73084332D01*
X89217728Y-73088381D01*
X89233245Y-73098749D01*
X89233246Y-73098750D01*
X89291099Y-73137406D01*
X89291101Y-73137407D01*
X89297158Y-73141454D01*
X89304303Y-73142875D01*
X89304305Y-73142876D01*
X89390851Y-73160091D01*
X89398000Y-73161513D01*
X89416304Y-73157872D01*
X89430741Y-73156450D01*
X90036483Y-73156450D01*
X90084049Y-73173763D01*
X90107615Y-73210052D01*
X90124258Y-73268091D01*
X90142444Y-73303477D01*
X90212288Y-73439380D01*
X90212291Y-73439385D01*
X90213944Y-73442601D01*
X90335818Y-73596369D01*
X90338571Y-73598712D01*
X90338572Y-73598713D01*
X90360833Y-73617658D01*
X90485238Y-73723535D01*
X90488400Y-73725302D01*
X90653354Y-73817492D01*
X90653358Y-73817494D01*
X90656513Y-73819257D01*
X90659949Y-73820374D01*
X90659955Y-73820376D01*
X90778467Y-73858882D01*
X90843118Y-73879889D01*
X90903541Y-73887094D01*
X91034346Y-73902692D01*
X91034349Y-73902692D01*
X91037946Y-73903121D01*
X91148166Y-73894640D01*
X91229965Y-73888346D01*
X91229966Y-73888346D01*
X91233576Y-73888068D01*
X91422556Y-73835303D01*
X91425783Y-73833673D01*
X91594455Y-73748471D01*
X91594458Y-73748469D01*
X91597689Y-73746837D01*
X91752303Y-73626040D01*
X91880509Y-73477511D01*
X91882292Y-73474372D01*
X91882295Y-73474368D01*
X91954711Y-73346893D01*
X91977425Y-73306909D01*
X91988442Y-73273793D01*
X92038215Y-73124168D01*
X92039358Y-73120732D01*
X92043957Y-73084332D01*
X92057037Y-72980792D01*
X92602389Y-72980792D01*
X92610366Y-73075785D01*
X92611667Y-73082873D01*
X92663727Y-73264427D01*
X92666377Y-73271122D01*
X92752711Y-73439110D01*
X92756616Y-73445168D01*
X92873930Y-73593182D01*
X92878935Y-73598366D01*
X93022768Y-73720776D01*
X93028687Y-73724890D01*
X93193555Y-73817032D01*
X93200156Y-73819915D01*
X93379780Y-73878278D01*
X93386825Y-73879827D01*
X93511043Y-73894640D01*
X93521400Y-73892211D01*
X93524000Y-73888736D01*
X93524000Y-72986048D01*
X93520362Y-72976052D01*
X93515075Y-72973000D01*
X92614783Y-72973000D01*
X92604787Y-72976638D01*
X92602389Y-72980792D01*
X92057037Y-72980792D01*
X92063691Y-72928115D01*
X92063691Y-72928111D01*
X92063949Y-72926071D01*
X92064341Y-72898000D01*
X92055716Y-72810033D01*
X92602552Y-72810033D01*
X92605054Y-72820372D01*
X92608619Y-72823000D01*
X93510952Y-72823000D01*
X93520948Y-72819362D01*
X93524000Y-72814075D01*
X93524000Y-71913697D01*
X93520362Y-71903701D01*
X93516290Y-71901351D01*
X93414325Y-71910630D01*
X93407234Y-71911983D01*
X93226048Y-71965310D01*
X93219378Y-71968004D01*
X93051994Y-72055510D01*
X93045967Y-72059454D01*
X92898770Y-72177803D01*
X92893623Y-72182844D01*
X92772221Y-72327525D01*
X92768152Y-72333469D01*
X92677159Y-72498984D01*
X92674323Y-72505601D01*
X92617212Y-72685635D01*
X92615716Y-72692673D01*
X92602552Y-72810033D01*
X92055716Y-72810033D01*
X92045194Y-72702728D01*
X91988484Y-72514894D01*
X91896370Y-72341653D01*
X91772361Y-72189602D01*
X91621180Y-72064535D01*
X91606814Y-72056767D01*
X91451768Y-71972934D01*
X91448585Y-71971213D01*
X91445135Y-71970145D01*
X91445130Y-71970143D01*
X91326841Y-71933527D01*
X91261152Y-71913193D01*
X91066019Y-71892683D01*
X90870618Y-71910466D01*
X90859640Y-71913697D01*
X90685864Y-71964842D01*
X90685860Y-71964844D01*
X90682393Y-71965864D01*
X90591115Y-72013583D01*
X90511719Y-72055090D01*
X90511716Y-72055092D01*
X90508512Y-72056767D01*
X90505694Y-72059033D01*
X90505692Y-72059034D01*
X90358419Y-72177444D01*
X90358416Y-72177447D01*
X90355600Y-72179711D01*
X90229480Y-72330016D01*
X90227738Y-72333184D01*
X90227737Y-72333186D01*
X90224624Y-72338849D01*
X90134956Y-72501954D01*
X90133863Y-72505400D01*
X90107684Y-72587926D01*
X90076799Y-72628030D01*
X90037148Y-72639550D01*
X89535706Y-72639550D01*
X89488140Y-72622237D01*
X89483380Y-72617876D01*
X88308980Y-71443476D01*
X88287588Y-71397600D01*
X88287939Y-71381491D01*
X88304617Y-71254808D01*
X88305250Y-71250000D01*
X88286330Y-71106291D01*
X88230861Y-70972375D01*
X88142621Y-70857379D01*
X88027625Y-70769139D01*
X88002705Y-70758817D01*
X87965384Y-70724620D01*
X87958777Y-70674434D01*
X87985974Y-70631742D01*
X88031023Y-70616450D01*
X90036483Y-70616450D01*
X90084049Y-70633763D01*
X90107615Y-70670052D01*
X90124258Y-70728091D01*
X90125911Y-70731307D01*
X90212288Y-70899380D01*
X90212291Y-70899385D01*
X90213944Y-70902601D01*
X90335818Y-71056369D01*
X90485238Y-71183535D01*
X90488400Y-71185302D01*
X90653354Y-71277492D01*
X90653358Y-71277494D01*
X90656513Y-71279257D01*
X90659949Y-71280374D01*
X90659955Y-71280376D01*
X90778467Y-71318882D01*
X90843118Y-71339889D01*
X90903541Y-71347094D01*
X91034346Y-71362692D01*
X91034349Y-71362692D01*
X91037946Y-71363121D01*
X91102365Y-71358164D01*
X91229965Y-71348346D01*
X91229966Y-71348346D01*
X91233576Y-71348068D01*
X91422556Y-71295303D01*
X91425783Y-71293673D01*
X91594455Y-71208471D01*
X91594458Y-71208469D01*
X91597689Y-71206837D01*
X91752303Y-71086040D01*
X91880509Y-70937511D01*
X91882292Y-70934372D01*
X91882295Y-70934368D01*
X91974479Y-70772094D01*
X91977425Y-70766909D01*
X91989269Y-70731307D01*
X92038215Y-70584168D01*
X92039358Y-70580732D01*
X92044130Y-70542962D01*
X92063691Y-70388115D01*
X92063691Y-70388111D01*
X92063949Y-70386071D01*
X92064341Y-70358000D01*
X92045194Y-70162728D01*
X91988484Y-69974894D01*
X91901822Y-69811907D01*
X91898069Y-69804848D01*
X91898068Y-69804847D01*
X91896370Y-69801653D01*
X91772361Y-69649602D01*
X91646369Y-69545373D01*
X91623975Y-69526847D01*
X91623974Y-69526846D01*
X91621180Y-69524535D01*
X91606814Y-69516767D01*
X91553804Y-69488105D01*
X91520197Y-69450252D01*
X91518783Y-69399653D01*
X91550225Y-69359983D01*
X91589000Y-69349011D01*
X93068126Y-69349011D01*
X93115692Y-69366324D01*
X93141002Y-69410161D01*
X93132212Y-69460011D01*
X93102410Y-69488590D01*
X93051719Y-69515090D01*
X93051716Y-69515092D01*
X93048512Y-69516767D01*
X93045694Y-69519033D01*
X93045692Y-69519034D01*
X92898419Y-69637444D01*
X92898416Y-69637447D01*
X92895600Y-69639711D01*
X92769480Y-69790016D01*
X92674956Y-69961954D01*
X92673864Y-69965397D01*
X92673863Y-69965399D01*
X92626551Y-70114546D01*
X92615628Y-70148978D01*
X92615225Y-70152574D01*
X92615224Y-70152577D01*
X92613537Y-70167619D01*
X92593757Y-70343963D01*
X92594060Y-70347572D01*
X92594060Y-70347574D01*
X92597293Y-70386071D01*
X92610175Y-70539483D01*
X92632245Y-70616450D01*
X92660123Y-70713670D01*
X92664258Y-70728091D01*
X92665911Y-70731307D01*
X92752288Y-70899380D01*
X92752291Y-70899385D01*
X92753944Y-70902601D01*
X92875818Y-71056369D01*
X93025238Y-71183535D01*
X93028400Y-71185302D01*
X93193354Y-71277492D01*
X93193358Y-71277494D01*
X93196513Y-71279257D01*
X93199949Y-71280374D01*
X93199955Y-71280376D01*
X93318467Y-71318882D01*
X93383118Y-71339889D01*
X93443541Y-71347094D01*
X93574346Y-71362692D01*
X93574349Y-71362692D01*
X93577946Y-71363121D01*
X93642365Y-71358164D01*
X93769965Y-71348346D01*
X93769966Y-71348346D01*
X93773576Y-71348068D01*
X93962556Y-71295303D01*
X93965783Y-71293673D01*
X94134455Y-71208471D01*
X94134458Y-71208469D01*
X94137689Y-71206837D01*
X94292303Y-71086040D01*
X94317992Y-71056278D01*
X94362180Y-71031583D01*
X94411902Y-71041068D01*
X94443895Y-71080295D01*
X94448011Y-71104631D01*
X94448011Y-72148901D01*
X94430698Y-72196467D01*
X94386861Y-72221777D01*
X94337011Y-72212987D01*
X94316665Y-72195671D01*
X94314291Y-72192760D01*
X94309215Y-72187649D01*
X94163694Y-72067263D01*
X94157709Y-72063226D01*
X93991574Y-71973397D01*
X93984936Y-71970607D01*
X93804510Y-71914756D01*
X93797450Y-71913307D01*
X93686977Y-71901695D01*
X93676657Y-71904268D01*
X93674000Y-71907925D01*
X93674000Y-73882181D01*
X93678606Y-73894836D01*
X93707723Y-73929536D01*
X93707723Y-73980155D01*
X93690512Y-74007172D01*
X89710171Y-77987513D01*
X89664295Y-78008905D01*
X89615400Y-77995804D01*
X89596209Y-77976139D01*
X89595223Y-77974654D01*
X89593522Y-77971456D01*
X89475710Y-77827005D01*
X89332085Y-77708187D01*
X89168116Y-77619529D01*
X88990049Y-77564409D01*
X88804668Y-77544924D01*
X88788978Y-77546352D01*
X88622645Y-77561489D01*
X88622643Y-77561489D01*
X88619032Y-77561818D01*
X88440214Y-77614448D01*
X88437015Y-77616120D01*
X88437011Y-77616122D01*
X88364596Y-77653980D01*
X88275023Y-77700807D01*
X88272205Y-77703073D01*
X88272203Y-77703074D01*
X88260166Y-77712752D01*
X88129752Y-77817608D01*
X88009935Y-77960401D01*
X87920135Y-78123746D01*
X87863772Y-78301424D01*
X87842994Y-78486665D01*
X87858592Y-78672414D01*
X87909971Y-78851595D01*
X87911624Y-78854811D01*
X87993520Y-79014164D01*
X87993523Y-79014169D01*
X87995176Y-79017385D01*
X88110959Y-79163468D01*
X88252912Y-79284279D01*
X88256074Y-79286046D01*
X88412468Y-79373452D01*
X88412472Y-79373454D01*
X88415627Y-79375217D01*
X88419063Y-79376334D01*
X88419069Y-79376336D01*
X88531313Y-79412806D01*
X88592907Y-79432819D01*
X88660399Y-79440867D01*
X88774398Y-79454461D01*
X88774401Y-79454461D01*
X88777998Y-79454890D01*
X88839156Y-79450184D01*
X88960240Y-79440867D01*
X88960241Y-79440867D01*
X88963851Y-79440589D01*
X89143387Y-79390462D01*
X89177061Y-79373452D01*
X89306534Y-79308051D01*
X89306537Y-79308049D01*
X89309768Y-79306417D01*
X89456655Y-79191656D01*
X89578454Y-79050550D01*
X89580237Y-79047411D01*
X89580240Y-79047407D01*
X89641745Y-78939139D01*
X89670526Y-78888474D01*
X89671668Y-78885042D01*
X89672375Y-78883454D01*
X89707536Y-78847040D01*
X89720825Y-78842072D01*
X89732446Y-78838958D01*
X89750687Y-78834070D01*
X89756984Y-78832674D01*
X89798359Y-78825378D01*
X89803963Y-78822142D01*
X89806720Y-78821139D01*
X89817342Y-78816739D01*
X89820012Y-78815494D01*
X89826267Y-78813818D01*
X89846001Y-78800000D01*
X89860678Y-78789723D01*
X89866124Y-78786254D01*
X89878124Y-78779326D01*
X89902503Y-78765251D01*
X89906666Y-78760289D01*
X89906669Y-78760287D01*
X89929506Y-78733071D01*
X89933867Y-78728311D01*
X90175513Y-78486665D01*
X98002994Y-78486665D01*
X98018592Y-78672414D01*
X98069971Y-78851595D01*
X98071624Y-78854811D01*
X98153520Y-79014164D01*
X98153523Y-79014169D01*
X98155176Y-79017385D01*
X98270959Y-79163468D01*
X98412912Y-79284279D01*
X98416074Y-79286046D01*
X98572468Y-79373452D01*
X98572472Y-79373454D01*
X98575627Y-79375217D01*
X98579063Y-79376334D01*
X98579069Y-79376336D01*
X98691313Y-79412806D01*
X98752907Y-79432819D01*
X98820399Y-79440867D01*
X98934398Y-79454461D01*
X98934401Y-79454461D01*
X98937998Y-79454890D01*
X98999156Y-79450184D01*
X99120240Y-79440867D01*
X99120241Y-79440867D01*
X99123851Y-79440589D01*
X99303387Y-79390462D01*
X99337061Y-79373452D01*
X99466534Y-79308051D01*
X99466537Y-79308049D01*
X99469768Y-79306417D01*
X99616655Y-79191656D01*
X99738454Y-79050550D01*
X99740237Y-79047411D01*
X99740240Y-79047407D01*
X99784490Y-78969512D01*
X99830526Y-78888474D01*
X99832196Y-78883454D01*
X99888221Y-78715038D01*
X99888222Y-78715035D01*
X99889364Y-78711601D01*
X99912727Y-78526668D01*
X99913099Y-78500000D01*
X99911792Y-78486665D01*
X99896815Y-78333925D01*
X99894909Y-78314487D01*
X99841033Y-78136040D01*
X99753522Y-77971456D01*
X99635710Y-77827005D01*
X99492085Y-77708187D01*
X99328116Y-77619529D01*
X99150049Y-77564409D01*
X98964668Y-77544924D01*
X98948978Y-77546352D01*
X98782645Y-77561489D01*
X98782643Y-77561489D01*
X98779032Y-77561818D01*
X98600214Y-77614448D01*
X98597015Y-77616120D01*
X98597011Y-77616122D01*
X98524596Y-77653980D01*
X98435023Y-77700807D01*
X98432205Y-77703073D01*
X98432203Y-77703074D01*
X98420166Y-77712752D01*
X98289752Y-77817608D01*
X98169935Y-77960401D01*
X98080135Y-78123746D01*
X98023772Y-78301424D01*
X98002994Y-78486665D01*
X90175513Y-78486665D01*
X95017322Y-73644856D01*
X95022082Y-73640495D01*
X95049298Y-73617658D01*
X95049300Y-73617655D01*
X95054262Y-73613492D01*
X95070093Y-73586071D01*
X95075265Y-73577113D01*
X95078734Y-73571667D01*
X95099116Y-73542559D01*
X95099117Y-73542558D01*
X95102829Y-73537256D01*
X95104505Y-73531001D01*
X95105750Y-73528331D01*
X95110150Y-73517709D01*
X95111153Y-73514952D01*
X95114389Y-73509348D01*
X95121685Y-73467973D01*
X95123082Y-73461673D01*
X95133954Y-73421099D01*
X95130293Y-73379258D01*
X95130011Y-73372808D01*
X95130011Y-69815134D01*
X95130293Y-69808684D01*
X95133390Y-69773293D01*
X95133390Y-69773291D01*
X95133954Y-69766843D01*
X95123081Y-69726266D01*
X95121684Y-69719966D01*
X95115513Y-69684968D01*
X95114389Y-69678594D01*
X95111153Y-69672990D01*
X95110150Y-69670233D01*
X95105750Y-69659611D01*
X95104505Y-69656941D01*
X95102829Y-69650686D01*
X95099116Y-69645383D01*
X95078734Y-69616275D01*
X95075265Y-69610829D01*
X95057501Y-69580061D01*
X95054262Y-69574450D01*
X95049300Y-69570287D01*
X95049298Y-69570284D01*
X95022082Y-69547447D01*
X95017322Y-69543086D01*
X94253936Y-68779700D01*
X94249575Y-68774940D01*
X94226738Y-68747724D01*
X94226735Y-68747722D01*
X94222572Y-68742760D01*
X94212889Y-68737169D01*
X94180352Y-68698393D01*
X94180352Y-68647774D01*
X94204329Y-68614772D01*
X94292303Y-68546040D01*
X94420509Y-68397511D01*
X94422292Y-68394372D01*
X94422295Y-68394368D01*
X94468967Y-68312210D01*
X94517425Y-68226909D01*
X94529269Y-68191307D01*
X94578215Y-68044168D01*
X94579358Y-68040732D01*
X94581548Y-68023401D01*
X94603691Y-67848115D01*
X94603691Y-67848111D01*
X94603949Y-67846071D01*
X94604341Y-67818000D01*
X94585194Y-67622728D01*
X94583374Y-67616698D01*
X94559435Y-67537411D01*
X94528484Y-67434894D01*
X94482427Y-67348274D01*
X94438069Y-67264848D01*
X94438068Y-67264847D01*
X94436370Y-67261653D01*
X94312361Y-67109602D01*
X94161180Y-66984535D01*
X94109923Y-66956820D01*
X93991768Y-66892934D01*
X93988585Y-66891213D01*
X93985135Y-66890145D01*
X93985130Y-66890143D01*
X93866841Y-66853527D01*
X93801152Y-66833193D01*
X93606019Y-66812683D01*
X93410618Y-66830466D01*
X93222393Y-66885864D01*
X93219177Y-66887545D01*
X93215886Y-66888875D01*
X93165298Y-66890643D01*
X93135837Y-66872590D01*
X92833380Y-66570133D01*
X104741001Y-66570133D01*
X104741712Y-66577347D01*
X104748281Y-66610378D01*
X104753752Y-66623587D01*
X104778807Y-66661084D01*
X104788916Y-66671193D01*
X104826415Y-66696249D01*
X104839620Y-66701719D01*
X104872655Y-66708290D01*
X104879865Y-66709000D01*
X105702952Y-66709000D01*
X105712948Y-66705362D01*
X105716000Y-66700075D01*
X105716000Y-66695951D01*
X105866000Y-66695951D01*
X105869638Y-66705947D01*
X105874925Y-66708999D01*
X106702133Y-66708999D01*
X106709347Y-66708288D01*
X106742378Y-66701719D01*
X106755587Y-66696248D01*
X106793084Y-66671193D01*
X106803193Y-66661084D01*
X106828249Y-66623585D01*
X106833719Y-66610380D01*
X106840290Y-66577345D01*
X106841000Y-66570135D01*
X106841000Y-65747048D01*
X106837362Y-65737052D01*
X106832075Y-65734000D01*
X105879048Y-65734000D01*
X105869052Y-65737638D01*
X105866000Y-65742925D01*
X105866000Y-66695951D01*
X105716000Y-66695951D01*
X105716000Y-65747048D01*
X105712362Y-65737052D01*
X105707075Y-65734000D01*
X104754049Y-65734000D01*
X104744053Y-65737638D01*
X104741001Y-65742925D01*
X104741001Y-66570133D01*
X92833380Y-66570133D01*
X91907509Y-65644262D01*
X107275520Y-65644262D01*
X107275823Y-65647871D01*
X107275823Y-65647873D01*
X107283312Y-65737052D01*
X107292759Y-65849553D01*
X107349544Y-66047586D01*
X107351196Y-66050800D01*
X107351197Y-66050803D01*
X107418848Y-66182438D01*
X107443712Y-66230818D01*
X107571677Y-66392270D01*
X107574430Y-66394613D01*
X107574433Y-66394616D01*
X107605062Y-66420683D01*
X107728564Y-66525791D01*
X107775266Y-66551892D01*
X107905239Y-66624532D01*
X107905243Y-66624534D01*
X107908398Y-66626297D01*
X107911834Y-66627414D01*
X107911840Y-66627416D01*
X108015461Y-66661084D01*
X108104329Y-66689959D01*
X108167748Y-66697521D01*
X108305294Y-66713922D01*
X108305297Y-66713922D01*
X108308894Y-66714351D01*
X108378450Y-66708999D01*
X108510689Y-66698824D01*
X108510691Y-66698824D01*
X108514300Y-66698546D01*
X108632550Y-66665530D01*
X108709244Y-66644117D01*
X108709245Y-66644117D01*
X108712725Y-66643145D01*
X108715952Y-66641515D01*
X108893376Y-66551892D01*
X108893379Y-66551890D01*
X108896610Y-66550258D01*
X109058951Y-66423424D01*
X109193564Y-66267472D01*
X109195347Y-66264333D01*
X109195350Y-66264329D01*
X109247600Y-66172352D01*
X109295323Y-66088344D01*
X109297138Y-66082890D01*
X109359208Y-65896299D01*
X109360351Y-65892863D01*
X109365823Y-65849553D01*
X109385913Y-65690519D01*
X109385913Y-65690513D01*
X109386171Y-65688474D01*
X109386583Y-65659000D01*
X109386073Y-65653793D01*
X109366833Y-65457570D01*
X109366480Y-65453970D01*
X109306935Y-65256749D01*
X109222078Y-65097155D01*
X109211917Y-65078044D01*
X109211916Y-65078042D01*
X109210218Y-65074849D01*
X109080011Y-64915200D01*
X108921275Y-64783882D01*
X108910384Y-64777993D01*
X108743238Y-64687618D01*
X108740055Y-64685897D01*
X108736605Y-64684829D01*
X108736600Y-64684827D01*
X108611996Y-64646256D01*
X108543254Y-64624977D01*
X108338369Y-64603443D01*
X108334765Y-64603771D01*
X108334764Y-64603771D01*
X108334215Y-64603821D01*
X108133203Y-64622114D01*
X108084247Y-64636522D01*
X107939043Y-64679258D01*
X107939039Y-64679260D01*
X107935572Y-64680280D01*
X107883276Y-64707620D01*
X107756209Y-64774049D01*
X107756206Y-64774051D01*
X107753002Y-64775726D01*
X107750184Y-64777992D01*
X107750182Y-64777993D01*
X107595266Y-64902548D01*
X107595263Y-64902551D01*
X107592447Y-64904815D01*
X107590121Y-64907587D01*
X107590119Y-64907589D01*
X107462351Y-65059856D01*
X107462348Y-65059860D01*
X107460024Y-65062630D01*
X107360776Y-65243162D01*
X107359682Y-65246611D01*
X107305231Y-65418264D01*
X107298484Y-65439532D01*
X107298081Y-65443123D01*
X107298081Y-65443124D01*
X107296461Y-65457570D01*
X107275520Y-65644262D01*
X91907509Y-65644262D01*
X91834199Y-65570952D01*
X104741000Y-65570952D01*
X104744638Y-65580948D01*
X104749925Y-65584000D01*
X105702952Y-65584000D01*
X105712948Y-65580362D01*
X105716000Y-65575075D01*
X105716000Y-65570952D01*
X105866000Y-65570952D01*
X105869638Y-65580948D01*
X105874925Y-65584000D01*
X106827951Y-65584000D01*
X106837947Y-65580362D01*
X106840999Y-65575075D01*
X106840999Y-64747867D01*
X106840288Y-64740653D01*
X106833719Y-64707622D01*
X106828248Y-64694413D01*
X106803193Y-64656916D01*
X106793084Y-64646807D01*
X106755585Y-64621751D01*
X106742380Y-64616281D01*
X106709345Y-64609710D01*
X106702135Y-64609000D01*
X105879048Y-64609000D01*
X105869052Y-64612638D01*
X105866000Y-64617925D01*
X105866000Y-65570952D01*
X105716000Y-65570952D01*
X105716000Y-64622049D01*
X105712362Y-64612053D01*
X105707075Y-64609001D01*
X104879867Y-64609001D01*
X104872653Y-64609712D01*
X104839622Y-64616281D01*
X104826413Y-64621752D01*
X104788916Y-64646807D01*
X104778807Y-64656916D01*
X104753751Y-64694415D01*
X104748281Y-64707620D01*
X104741710Y-64740655D01*
X104741000Y-64747865D01*
X104741000Y-65570952D01*
X91834199Y-65570952D01*
X90769417Y-64506170D01*
X90765056Y-64501410D01*
X90742219Y-64474194D01*
X90742216Y-64474192D01*
X90738053Y-64469230D01*
X90701674Y-64448227D01*
X90696228Y-64444758D01*
X90667120Y-64424376D01*
X90667119Y-64424375D01*
X90661817Y-64420663D01*
X90655562Y-64418987D01*
X90652892Y-64417742D01*
X90642270Y-64413342D01*
X90639513Y-64412339D01*
X90633909Y-64409103D01*
X90592534Y-64401807D01*
X90586237Y-64400411D01*
X90545660Y-64389538D01*
X90539212Y-64390102D01*
X90539210Y-64390102D01*
X90503814Y-64393199D01*
X90497365Y-64393481D01*
X70049707Y-64393481D01*
X70043257Y-64393199D01*
X70007866Y-64390102D01*
X70007864Y-64390102D01*
X70001416Y-64389538D01*
X69960839Y-64400411D01*
X69954542Y-64401807D01*
X69913167Y-64409103D01*
X69907563Y-64412339D01*
X69904806Y-64413342D01*
X69894184Y-64417742D01*
X69891514Y-64418987D01*
X69885259Y-64420663D01*
X69879957Y-64424375D01*
X69879956Y-64424376D01*
X69850848Y-64444758D01*
X69845402Y-64448227D01*
X69809023Y-64469230D01*
X69804860Y-64474192D01*
X69804857Y-64474194D01*
X69782020Y-64501410D01*
X69777659Y-64506170D01*
X67763188Y-66520641D01*
X67758428Y-66525002D01*
X67731212Y-66547839D01*
X67731210Y-66547842D01*
X67726248Y-66552005D01*
X67723009Y-66557616D01*
X67705245Y-66588384D01*
X67701776Y-66593830D01*
X67681394Y-66622938D01*
X67677681Y-66628241D01*
X67676005Y-66634496D01*
X67674760Y-66637166D01*
X67670360Y-66647788D01*
X67669357Y-66650545D01*
X67666121Y-66656149D01*
X67664997Y-66662523D01*
X67658826Y-66697521D01*
X67657429Y-66703821D01*
X67646556Y-66744398D01*
X67647120Y-66750846D01*
X67647120Y-66750847D01*
X67650217Y-66786244D01*
X67650499Y-66792693D01*
X67650499Y-73345383D01*
X67650217Y-73351832D01*
X67647818Y-73379258D01*
X67646556Y-73393678D01*
X50315000Y-73393678D01*
X50315000Y-66570133D01*
X52544001Y-66570133D01*
X52544712Y-66577347D01*
X52551281Y-66610378D01*
X52556752Y-66623587D01*
X52581807Y-66661084D01*
X52591916Y-66671193D01*
X52629415Y-66696249D01*
X52642620Y-66701719D01*
X52675655Y-66708290D01*
X52682865Y-66709000D01*
X53505952Y-66709000D01*
X53515948Y-66705362D01*
X53519000Y-66700075D01*
X53519000Y-66695951D01*
X53669000Y-66695951D01*
X53672638Y-66705947D01*
X53677925Y-66708999D01*
X54505133Y-66708999D01*
X54512347Y-66708288D01*
X54545378Y-66701719D01*
X54558587Y-66696248D01*
X54596084Y-66671193D01*
X54606193Y-66661084D01*
X54631249Y-66623585D01*
X54636719Y-66610380D01*
X54643290Y-66577345D01*
X54644000Y-66570135D01*
X54644000Y-65747048D01*
X54640362Y-65737052D01*
X54635075Y-65734000D01*
X53682048Y-65734000D01*
X53672052Y-65737638D01*
X53669000Y-65742925D01*
X53669000Y-66695951D01*
X53519000Y-66695951D01*
X53519000Y-65747048D01*
X53515362Y-65737052D01*
X53510075Y-65734000D01*
X52557049Y-65734000D01*
X52547053Y-65737638D01*
X52544001Y-65742925D01*
X52544001Y-66570133D01*
X50315000Y-66570133D01*
X50315000Y-65644262D01*
X55078520Y-65644262D01*
X55078823Y-65647871D01*
X55078823Y-65647873D01*
X55086312Y-65737052D01*
X55095759Y-65849553D01*
X55152544Y-66047586D01*
X55154196Y-66050800D01*
X55154197Y-66050803D01*
X55221848Y-66182438D01*
X55246712Y-66230818D01*
X55374677Y-66392270D01*
X55377430Y-66394613D01*
X55377433Y-66394616D01*
X55408062Y-66420683D01*
X55531564Y-66525791D01*
X55578266Y-66551892D01*
X55708239Y-66624532D01*
X55708243Y-66624534D01*
X55711398Y-66626297D01*
X55714834Y-66627414D01*
X55714840Y-66627416D01*
X55818461Y-66661084D01*
X55907329Y-66689959D01*
X55970748Y-66697521D01*
X56108294Y-66713922D01*
X56108297Y-66713922D01*
X56111894Y-66714351D01*
X56181450Y-66708999D01*
X56313689Y-66698824D01*
X56313691Y-66698824D01*
X56317300Y-66698546D01*
X56435550Y-66665530D01*
X56512244Y-66644117D01*
X56512245Y-66644117D01*
X56515725Y-66643145D01*
X56518952Y-66641515D01*
X56696376Y-66551892D01*
X56696379Y-66551890D01*
X56699610Y-66550258D01*
X56861951Y-66423424D01*
X56996564Y-66267472D01*
X56998347Y-66264333D01*
X56998350Y-66264329D01*
X57050600Y-66172352D01*
X57098323Y-66088344D01*
X57100138Y-66082890D01*
X57162208Y-65896299D01*
X57163351Y-65892863D01*
X57168823Y-65849553D01*
X57188913Y-65690519D01*
X57188913Y-65690513D01*
X57189171Y-65688474D01*
X57189583Y-65659000D01*
X57189073Y-65653793D01*
X57169833Y-65457570D01*
X57169480Y-65453970D01*
X57109935Y-65256749D01*
X57025078Y-65097155D01*
X57014917Y-65078044D01*
X57014916Y-65078042D01*
X57013218Y-65074849D01*
X56883011Y-64915200D01*
X56724275Y-64783882D01*
X56713384Y-64777993D01*
X56546238Y-64687618D01*
X56543055Y-64685897D01*
X56539605Y-64684829D01*
X56539600Y-64684827D01*
X56414996Y-64646256D01*
X56346254Y-64624977D01*
X56141369Y-64603443D01*
X56137765Y-64603771D01*
X56137764Y-64603771D01*
X56137215Y-64603821D01*
X55936203Y-64622114D01*
X55887247Y-64636522D01*
X55742043Y-64679258D01*
X55742039Y-64679260D01*
X55738572Y-64680280D01*
X55686276Y-64707620D01*
X55559209Y-64774049D01*
X55559206Y-64774051D01*
X55556002Y-64775726D01*
X55553184Y-64777992D01*
X55553182Y-64777993D01*
X55398266Y-64902548D01*
X55398263Y-64902551D01*
X55395447Y-64904815D01*
X55393121Y-64907587D01*
X55393119Y-64907589D01*
X55265351Y-65059856D01*
X55265348Y-65059860D01*
X55263024Y-65062630D01*
X55163776Y-65243162D01*
X55162682Y-65246611D01*
X55108231Y-65418264D01*
X55101484Y-65439532D01*
X55101081Y-65443123D01*
X55101081Y-65443124D01*
X55099461Y-65457570D01*
X55078520Y-65644262D01*
X50315000Y-65644262D01*
X50315000Y-65570952D01*
X52544000Y-65570952D01*
X52547638Y-65580948D01*
X52552925Y-65584000D01*
X53505952Y-65584000D01*
X53515948Y-65580362D01*
X53519000Y-65575075D01*
X53519000Y-65570952D01*
X53669000Y-65570952D01*
X53672638Y-65580948D01*
X53677925Y-65584000D01*
X54630951Y-65584000D01*
X54640947Y-65580362D01*
X54643999Y-65575075D01*
X54643999Y-64747867D01*
X54643288Y-64740653D01*
X54636719Y-64707622D01*
X54631248Y-64694413D01*
X54606193Y-64656916D01*
X54596084Y-64646807D01*
X54558585Y-64621751D01*
X54545380Y-64616281D01*
X54512345Y-64609710D01*
X54505135Y-64609000D01*
X53682048Y-64609000D01*
X53672052Y-64612638D01*
X53669000Y-64617925D01*
X53669000Y-65570952D01*
X53519000Y-65570952D01*
X53519000Y-64622049D01*
X53515362Y-64612053D01*
X53510075Y-64609001D01*
X52682867Y-64609001D01*
X52675653Y-64609712D01*
X52642622Y-64616281D01*
X52629413Y-64621752D01*
X52591916Y-64646807D01*
X52581807Y-64656916D01*
X52556751Y-64694415D01*
X52551281Y-64707620D01*
X52544710Y-64740655D01*
X52544000Y-64747865D01*
X52544000Y-65570952D01*
X50315000Y-65570952D01*
X50315000Y-61184000D01*
X50332313Y-61136434D01*
X50376150Y-61111124D01*
X50389000Y-61110000D01*
X111536000Y-61110000D01*
X111583566Y-61127313D01*
G37*
G04 #@! TD.AperFunction*
G04 #@! TA.AperFunction,Conductor*
G36*
X90391148Y-65092794D02*
G01*
X90395908Y-65097155D01*
X91991539Y-66692786D01*
X92012931Y-66738662D01*
X91999830Y-66787557D01*
X91958366Y-66816591D01*
X91931110Y-66817485D01*
X91931003Y-66818566D01*
X91927390Y-66818210D01*
X91923820Y-66817500D01*
X90194180Y-66817500D01*
X90190611Y-66818210D01*
X90190610Y-66818210D01*
X90157425Y-66824811D01*
X90157424Y-66824812D01*
X90150278Y-66826233D01*
X90100496Y-66859496D01*
X90067233Y-66909278D01*
X90065812Y-66916424D01*
X90065811Y-66916425D01*
X90059210Y-66949610D01*
X90058500Y-66953180D01*
X90058500Y-68593011D01*
X90041187Y-68640577D01*
X89997350Y-68665887D01*
X89984500Y-68667011D01*
X77688910Y-68667011D01*
X77641344Y-68649698D01*
X77636584Y-68645337D01*
X76156174Y-67164927D01*
X76136744Y-67123259D01*
X76773500Y-67123259D01*
X76773689Y-67125116D01*
X76773689Y-67125123D01*
X76787273Y-67258849D01*
X76788112Y-67267110D01*
X76789233Y-67270687D01*
X76839691Y-67431699D01*
X76845856Y-67451373D01*
X76939472Y-67620261D01*
X76941910Y-67623105D01*
X76941911Y-67623107D01*
X77002304Y-67693568D01*
X77065136Y-67766875D01*
X77068096Y-67769171D01*
X77068098Y-67769173D01*
X77214748Y-67882927D01*
X77214752Y-67882930D01*
X77217714Y-67885227D01*
X77390974Y-67970481D01*
X77577837Y-68019155D01*
X77581576Y-68019351D01*
X77766926Y-68029065D01*
X77766929Y-68029065D01*
X77770671Y-68029261D01*
X77774380Y-68028700D01*
X77774381Y-68028700D01*
X77957892Y-68000947D01*
X77957896Y-68000946D01*
X77961599Y-68000386D01*
X78142821Y-67933710D01*
X78146736Y-67931283D01*
X78284167Y-67846071D01*
X78306934Y-67831955D01*
X78354103Y-67787350D01*
X78444512Y-67701854D01*
X78447235Y-67699279D01*
X78557991Y-67541102D01*
X78595488Y-67454453D01*
X78633194Y-67367320D01*
X78633195Y-67367316D01*
X78634680Y-67363885D01*
X78635478Y-67360068D01*
X78673587Y-67177648D01*
X78674168Y-67174867D01*
X78674500Y-67168532D01*
X78674500Y-67123259D01*
X79313500Y-67123259D01*
X79313689Y-67125116D01*
X79313689Y-67125123D01*
X79327273Y-67258849D01*
X79328112Y-67267110D01*
X79329233Y-67270687D01*
X79379691Y-67431699D01*
X79385856Y-67451373D01*
X79479472Y-67620261D01*
X79481910Y-67623105D01*
X79481911Y-67623107D01*
X79542304Y-67693568D01*
X79605136Y-67766875D01*
X79608096Y-67769171D01*
X79608098Y-67769173D01*
X79754748Y-67882927D01*
X79754752Y-67882930D01*
X79757714Y-67885227D01*
X79930974Y-67970481D01*
X80117837Y-68019155D01*
X80121576Y-68019351D01*
X80306926Y-68029065D01*
X80306929Y-68029065D01*
X80310671Y-68029261D01*
X80314380Y-68028700D01*
X80314381Y-68028700D01*
X80497892Y-68000947D01*
X80497896Y-68000946D01*
X80501599Y-68000386D01*
X80682821Y-67933710D01*
X80686736Y-67931283D01*
X80824167Y-67846071D01*
X80846934Y-67831955D01*
X80894103Y-67787350D01*
X80984512Y-67701854D01*
X80987235Y-67699279D01*
X81097991Y-67541102D01*
X81135488Y-67454453D01*
X81173194Y-67367320D01*
X81173195Y-67367316D01*
X81174680Y-67363885D01*
X81175478Y-67360068D01*
X81213587Y-67177648D01*
X81214168Y-67174867D01*
X81214500Y-67168532D01*
X81214500Y-67123259D01*
X81853500Y-67123259D01*
X81853689Y-67125116D01*
X81853689Y-67125123D01*
X81867273Y-67258849D01*
X81868112Y-67267110D01*
X81869233Y-67270687D01*
X81919691Y-67431699D01*
X81925856Y-67451373D01*
X82019472Y-67620261D01*
X82021910Y-67623105D01*
X82021911Y-67623107D01*
X82082304Y-67693568D01*
X82145136Y-67766875D01*
X82148096Y-67769171D01*
X82148098Y-67769173D01*
X82294748Y-67882927D01*
X82294752Y-67882930D01*
X82297714Y-67885227D01*
X82470974Y-67970481D01*
X82657837Y-68019155D01*
X82661576Y-68019351D01*
X82846926Y-68029065D01*
X82846929Y-68029065D01*
X82850671Y-68029261D01*
X82854380Y-68028700D01*
X82854381Y-68028700D01*
X83037892Y-68000947D01*
X83037896Y-68000946D01*
X83041599Y-68000386D01*
X83222821Y-67933710D01*
X83226736Y-67931283D01*
X83364167Y-67846071D01*
X83386934Y-67831955D01*
X83434103Y-67787350D01*
X83524512Y-67701854D01*
X83527235Y-67699279D01*
X83637991Y-67541102D01*
X83675488Y-67454453D01*
X83713194Y-67367320D01*
X83713195Y-67367316D01*
X83714680Y-67363885D01*
X83715478Y-67360068D01*
X83753587Y-67177648D01*
X83754168Y-67174867D01*
X83754500Y-67168532D01*
X83754500Y-67123259D01*
X84393500Y-67123259D01*
X84393689Y-67125116D01*
X84393689Y-67125123D01*
X84407273Y-67258849D01*
X84408112Y-67267110D01*
X84409233Y-67270687D01*
X84459691Y-67431699D01*
X84465856Y-67451373D01*
X84559472Y-67620261D01*
X84561910Y-67623105D01*
X84561911Y-67623107D01*
X84622304Y-67693568D01*
X84685136Y-67766875D01*
X84688096Y-67769171D01*
X84688098Y-67769173D01*
X84834748Y-67882927D01*
X84834752Y-67882930D01*
X84837714Y-67885227D01*
X85010974Y-67970481D01*
X85197837Y-68019155D01*
X85201576Y-68019351D01*
X85386926Y-68029065D01*
X85386929Y-68029065D01*
X85390671Y-68029261D01*
X85394380Y-68028700D01*
X85394381Y-68028700D01*
X85577892Y-68000947D01*
X85577896Y-68000946D01*
X85581599Y-68000386D01*
X85762821Y-67933710D01*
X85766736Y-67931283D01*
X85904167Y-67846071D01*
X85926934Y-67831955D01*
X85974103Y-67787350D01*
X86064512Y-67701854D01*
X86067235Y-67699279D01*
X86177991Y-67541102D01*
X86215488Y-67454453D01*
X86253194Y-67367320D01*
X86253195Y-67367316D01*
X86254680Y-67363885D01*
X86255478Y-67360068D01*
X86293587Y-67177648D01*
X86294168Y-67174867D01*
X86294500Y-67168532D01*
X86294500Y-66226741D01*
X86293882Y-66220649D01*
X86280267Y-66086621D01*
X86279888Y-66082890D01*
X86269833Y-66050803D01*
X86223265Y-65902203D01*
X86223264Y-65902200D01*
X86222144Y-65898627D01*
X86128528Y-65729739D01*
X86093160Y-65688474D01*
X86005303Y-65585971D01*
X86002864Y-65583125D01*
X85999904Y-65580829D01*
X85999902Y-65580827D01*
X85853252Y-65467073D01*
X85853248Y-65467070D01*
X85850286Y-65464773D01*
X85835648Y-65457570D01*
X85749127Y-65414997D01*
X85677026Y-65379519D01*
X85490163Y-65330845D01*
X85486424Y-65330649D01*
X85301074Y-65320935D01*
X85301071Y-65320935D01*
X85297329Y-65320739D01*
X85293620Y-65321300D01*
X85293619Y-65321300D01*
X85110108Y-65349053D01*
X85110104Y-65349054D01*
X85106401Y-65349614D01*
X84925179Y-65416290D01*
X84761066Y-65518045D01*
X84758344Y-65520619D01*
X84689236Y-65585971D01*
X84620765Y-65650721D01*
X84510009Y-65808898D01*
X84508518Y-65812344D01*
X84471180Y-65898627D01*
X84433320Y-65986115D01*
X84432555Y-65989777D01*
X84432554Y-65989780D01*
X84396292Y-66163358D01*
X84393832Y-66175133D01*
X84393500Y-66181468D01*
X84393500Y-67123259D01*
X83754500Y-67123259D01*
X83754500Y-66226741D01*
X83753882Y-66220649D01*
X83740267Y-66086621D01*
X83739888Y-66082890D01*
X83729833Y-66050803D01*
X83683265Y-65902203D01*
X83683264Y-65902200D01*
X83682144Y-65898627D01*
X83588528Y-65729739D01*
X83553160Y-65688474D01*
X83465303Y-65585971D01*
X83462864Y-65583125D01*
X83459904Y-65580829D01*
X83459902Y-65580827D01*
X83313252Y-65467073D01*
X83313248Y-65467070D01*
X83310286Y-65464773D01*
X83295648Y-65457570D01*
X83209127Y-65414997D01*
X83137026Y-65379519D01*
X82950163Y-65330845D01*
X82946424Y-65330649D01*
X82761074Y-65320935D01*
X82761071Y-65320935D01*
X82757329Y-65320739D01*
X82753620Y-65321300D01*
X82753619Y-65321300D01*
X82570108Y-65349053D01*
X82570104Y-65349054D01*
X82566401Y-65349614D01*
X82385179Y-65416290D01*
X82221066Y-65518045D01*
X82218344Y-65520619D01*
X82149236Y-65585971D01*
X82080765Y-65650721D01*
X81970009Y-65808898D01*
X81968518Y-65812344D01*
X81931180Y-65898627D01*
X81893320Y-65986115D01*
X81892555Y-65989777D01*
X81892554Y-65989780D01*
X81856292Y-66163358D01*
X81853832Y-66175133D01*
X81853500Y-66181468D01*
X81853500Y-67123259D01*
X81214500Y-67123259D01*
X81214500Y-66226741D01*
X81213882Y-66220649D01*
X81200267Y-66086621D01*
X81199888Y-66082890D01*
X81189833Y-66050803D01*
X81143265Y-65902203D01*
X81143264Y-65902200D01*
X81142144Y-65898627D01*
X81048528Y-65729739D01*
X81013160Y-65688474D01*
X80925303Y-65585971D01*
X80922864Y-65583125D01*
X80919904Y-65580829D01*
X80919902Y-65580827D01*
X80773252Y-65467073D01*
X80773248Y-65467070D01*
X80770286Y-65464773D01*
X80755648Y-65457570D01*
X80669127Y-65414997D01*
X80597026Y-65379519D01*
X80410163Y-65330845D01*
X80406424Y-65330649D01*
X80221074Y-65320935D01*
X80221071Y-65320935D01*
X80217329Y-65320739D01*
X80213620Y-65321300D01*
X80213619Y-65321300D01*
X80030108Y-65349053D01*
X80030104Y-65349054D01*
X80026401Y-65349614D01*
X79845179Y-65416290D01*
X79681066Y-65518045D01*
X79678344Y-65520619D01*
X79609236Y-65585971D01*
X79540765Y-65650721D01*
X79430009Y-65808898D01*
X79428518Y-65812344D01*
X79391180Y-65898627D01*
X79353320Y-65986115D01*
X79352555Y-65989777D01*
X79352554Y-65989780D01*
X79316292Y-66163358D01*
X79313832Y-66175133D01*
X79313500Y-66181468D01*
X79313500Y-67123259D01*
X78674500Y-67123259D01*
X78674500Y-66226741D01*
X78673882Y-66220649D01*
X78660267Y-66086621D01*
X78659888Y-66082890D01*
X78649833Y-66050803D01*
X78603265Y-65902203D01*
X78603264Y-65902200D01*
X78602144Y-65898627D01*
X78508528Y-65729739D01*
X78473160Y-65688474D01*
X78385303Y-65585971D01*
X78382864Y-65583125D01*
X78379904Y-65580829D01*
X78379902Y-65580827D01*
X78233252Y-65467073D01*
X78233248Y-65467070D01*
X78230286Y-65464773D01*
X78215648Y-65457570D01*
X78129127Y-65414997D01*
X78057026Y-65379519D01*
X77870163Y-65330845D01*
X77866424Y-65330649D01*
X77681074Y-65320935D01*
X77681071Y-65320935D01*
X77677329Y-65320739D01*
X77673620Y-65321300D01*
X77673619Y-65321300D01*
X77490108Y-65349053D01*
X77490104Y-65349054D01*
X77486401Y-65349614D01*
X77305179Y-65416290D01*
X77141066Y-65518045D01*
X77138344Y-65520619D01*
X77069236Y-65585971D01*
X77000765Y-65650721D01*
X76890009Y-65808898D01*
X76888518Y-65812344D01*
X76851180Y-65898627D01*
X76813320Y-65986115D01*
X76812555Y-65989777D01*
X76812554Y-65989780D01*
X76776292Y-66163358D01*
X76773832Y-66175133D01*
X76773500Y-66181468D01*
X76773500Y-67123259D01*
X76136744Y-67123259D01*
X76134782Y-67119051D01*
X76134500Y-67112601D01*
X76134500Y-66226741D01*
X76133882Y-66220649D01*
X76120267Y-66086621D01*
X76119888Y-66082890D01*
X76109833Y-66050803D01*
X76063265Y-65902203D01*
X76063264Y-65902200D01*
X76062144Y-65898627D01*
X75968528Y-65729739D01*
X75933160Y-65688474D01*
X75845303Y-65585971D01*
X75842864Y-65583125D01*
X75839904Y-65580829D01*
X75839902Y-65580827D01*
X75693252Y-65467073D01*
X75693248Y-65467070D01*
X75690286Y-65464773D01*
X75675648Y-65457570D01*
X75589127Y-65414997D01*
X75517026Y-65379519D01*
X75330163Y-65330845D01*
X75326424Y-65330649D01*
X75141074Y-65320935D01*
X75141071Y-65320935D01*
X75137329Y-65320739D01*
X75133620Y-65321300D01*
X75133619Y-65321300D01*
X74950108Y-65349053D01*
X74950104Y-65349054D01*
X74946401Y-65349614D01*
X74765179Y-65416290D01*
X74601066Y-65518045D01*
X74598344Y-65520619D01*
X74529236Y-65585971D01*
X74460765Y-65650721D01*
X74350009Y-65808898D01*
X74348518Y-65812344D01*
X74311180Y-65898627D01*
X74273320Y-65986115D01*
X74272555Y-65989777D01*
X74272554Y-65989780D01*
X74236292Y-66163358D01*
X74233832Y-66175133D01*
X74233500Y-66181468D01*
X74233500Y-67123259D01*
X74233689Y-67125116D01*
X74233689Y-67125123D01*
X74247273Y-67258849D01*
X74248112Y-67267110D01*
X74249233Y-67270687D01*
X74299691Y-67431699D01*
X74305856Y-67451373D01*
X74399472Y-67620261D01*
X74401910Y-67623105D01*
X74401911Y-67623107D01*
X74462304Y-67693568D01*
X74525136Y-67766875D01*
X74528096Y-67769171D01*
X74528098Y-67769173D01*
X74674748Y-67882927D01*
X74674752Y-67882930D01*
X74677714Y-67885227D01*
X74850974Y-67970481D01*
X75037837Y-68019155D01*
X75041576Y-68019351D01*
X75226926Y-68029065D01*
X75226929Y-68029065D01*
X75230671Y-68029261D01*
X75234380Y-68028700D01*
X75234381Y-68028700D01*
X75417892Y-68000947D01*
X75417896Y-68000946D01*
X75421599Y-68000386D01*
X75602821Y-67933710D01*
X75606736Y-67931283D01*
X75744167Y-67846071D01*
X75766934Y-67831955D01*
X75767744Y-67831189D01*
X75815252Y-67816118D01*
X75864480Y-67837727D01*
X77263075Y-69236322D01*
X77267436Y-69241082D01*
X77290273Y-69268298D01*
X77290276Y-69268300D01*
X77294439Y-69273262D01*
X77318818Y-69287337D01*
X77330818Y-69294265D01*
X77336264Y-69297734D01*
X77370675Y-69321829D01*
X77376930Y-69323505D01*
X77379600Y-69324750D01*
X77390222Y-69329150D01*
X77392978Y-69330153D01*
X77398583Y-69333389D01*
X77404958Y-69334513D01*
X77439956Y-69340684D01*
X77446256Y-69342081D01*
X77486833Y-69352954D01*
X77493281Y-69352390D01*
X77493283Y-69352390D01*
X77528678Y-69349293D01*
X77535128Y-69349011D01*
X90528126Y-69349011D01*
X90575692Y-69366324D01*
X90601002Y-69410161D01*
X90592212Y-69460011D01*
X90562410Y-69488590D01*
X90511719Y-69515090D01*
X90511716Y-69515092D01*
X90508512Y-69516767D01*
X90505694Y-69519033D01*
X90505692Y-69519034D01*
X90358419Y-69637444D01*
X90358416Y-69637447D01*
X90355600Y-69639711D01*
X90229480Y-69790016D01*
X90134956Y-69961954D01*
X90133863Y-69965399D01*
X90133863Y-69965400D01*
X90107684Y-70047926D01*
X90076799Y-70088030D01*
X90037148Y-70099550D01*
X84878253Y-70099550D01*
X84863816Y-70098128D01*
X84852661Y-70095909D01*
X84845512Y-70094487D01*
X84838363Y-70095909D01*
X84820059Y-70099550D01*
X84751817Y-70113124D01*
X84751815Y-70113125D01*
X84744670Y-70114546D01*
X84659180Y-70171668D01*
X84655131Y-70177728D01*
X84648810Y-70187188D01*
X84639607Y-70198402D01*
X81340399Y-73497609D01*
X81329184Y-73506812D01*
X81313668Y-73517180D01*
X81299251Y-73538757D01*
X81299250Y-73538758D01*
X81299248Y-73538762D01*
X81299244Y-73538766D01*
X81282502Y-73563823D01*
X81241681Y-73593755D01*
X81191171Y-73590446D01*
X81154605Y-73555442D01*
X81150359Y-73544841D01*
X81143265Y-73522203D01*
X81143264Y-73522200D01*
X81142144Y-73518627D01*
X81048528Y-73349739D01*
X81044795Y-73345383D01*
X80925303Y-73205971D01*
X80922864Y-73203125D01*
X80919904Y-73200829D01*
X80919902Y-73200827D01*
X80773252Y-73087073D01*
X80773248Y-73087070D01*
X80770286Y-73084773D01*
X80757075Y-73078272D01*
X80600389Y-73001174D01*
X80597026Y-72999519D01*
X80410163Y-72950845D01*
X80406424Y-72950649D01*
X80221074Y-72940935D01*
X80221071Y-72940935D01*
X80217329Y-72940739D01*
X80213620Y-72941300D01*
X80213619Y-72941300D01*
X80030108Y-72969053D01*
X80030104Y-72969054D01*
X80026401Y-72969614D01*
X79845179Y-73036290D01*
X79841996Y-73038263D01*
X79841995Y-73038264D01*
X79792722Y-73068815D01*
X79681066Y-73138045D01*
X79678344Y-73140619D01*
X79657753Y-73160091D01*
X79540765Y-73270721D01*
X79430009Y-73428898D01*
X79408972Y-73477511D01*
X79354811Y-73602670D01*
X79353320Y-73606115D01*
X79352555Y-73609777D01*
X79352554Y-73609780D01*
X79328420Y-73725302D01*
X79313832Y-73795133D01*
X79313500Y-73801468D01*
X79313500Y-74743259D01*
X79313689Y-74745116D01*
X79313689Y-74745123D01*
X79327733Y-74883379D01*
X79328112Y-74887110D01*
X79329233Y-74890687D01*
X79369999Y-75020772D01*
X79385856Y-75071373D01*
X79479472Y-75240261D01*
X79605136Y-75386875D01*
X79608096Y-75389171D01*
X79608098Y-75389173D01*
X79754748Y-75502927D01*
X79754752Y-75502930D01*
X79757714Y-75505227D01*
X79761079Y-75506883D01*
X79761081Y-75506884D01*
X79841745Y-75546575D01*
X79930974Y-75590481D01*
X80117837Y-75639155D01*
X80121576Y-75639351D01*
X80306926Y-75649065D01*
X80306929Y-75649065D01*
X80310671Y-75649261D01*
X80314380Y-75648700D01*
X80314381Y-75648700D01*
X80497892Y-75620947D01*
X80497896Y-75620946D01*
X80501599Y-75620386D01*
X80682821Y-75553710D01*
X80846934Y-75451955D01*
X80987235Y-75319279D01*
X81097991Y-75161102D01*
X81099637Y-75157299D01*
X81099747Y-75157183D01*
X81101310Y-75154386D01*
X81102018Y-75154782D01*
X81134418Y-75120521D01*
X81184702Y-75114705D01*
X81226960Y-75142571D01*
X81241550Y-75186690D01*
X81241550Y-80168216D01*
X81224237Y-80215782D01*
X81219876Y-80220542D01*
X79277326Y-82163092D01*
X79231450Y-82184484D01*
X79182555Y-82171383D01*
X79153521Y-82129919D01*
X79151000Y-82110766D01*
X79151000Y-82003048D01*
X79147362Y-81993052D01*
X79142075Y-81990000D01*
X78689048Y-81990000D01*
X78679052Y-81993638D01*
X78676000Y-81998925D01*
X78676000Y-82426951D01*
X78679638Y-82436947D01*
X78684925Y-82439999D01*
X78821767Y-82439999D01*
X78869333Y-82457312D01*
X78894643Y-82501149D01*
X78885853Y-82550999D01*
X78874093Y-82566325D01*
X77518518Y-83921900D01*
X77507303Y-83931103D01*
X77491787Y-83941471D01*
X77477370Y-83963048D01*
X77477369Y-83963049D01*
X77434665Y-84026961D01*
X77414606Y-84127803D01*
X77416028Y-84134952D01*
X77418247Y-84146107D01*
X77419669Y-84160544D01*
X77419669Y-84194500D01*
X77402356Y-84242066D01*
X77358519Y-84267376D01*
X77345669Y-84268500D01*
X76686180Y-84268500D01*
X76682606Y-84269211D01*
X76682605Y-84269211D01*
X76673885Y-84270945D01*
X76623856Y-84263244D01*
X76590481Y-84225186D01*
X76585450Y-84198367D01*
X76585450Y-82510633D01*
X76602763Y-82463067D01*
X76646600Y-82437757D01*
X76673885Y-82438055D01*
X76682605Y-82439789D01*
X76682606Y-82439789D01*
X76686180Y-82440500D01*
X77515820Y-82440500D01*
X77519389Y-82439790D01*
X77519390Y-82439790D01*
X77552575Y-82433189D01*
X77552576Y-82433188D01*
X77559722Y-82431767D01*
X77609504Y-82398504D01*
X77642767Y-82348722D01*
X77648861Y-82318090D01*
X77650790Y-82308390D01*
X77650790Y-82308389D01*
X77651500Y-82304820D01*
X77651500Y-82301133D01*
X78051001Y-82301133D01*
X78051712Y-82308347D01*
X78058281Y-82341378D01*
X78063752Y-82354587D01*
X78088807Y-82392084D01*
X78098916Y-82402193D01*
X78136415Y-82427249D01*
X78149620Y-82432719D01*
X78182655Y-82439290D01*
X78189865Y-82440000D01*
X78512952Y-82440000D01*
X78522948Y-82436362D01*
X78526000Y-82431075D01*
X78526000Y-82003048D01*
X78522362Y-81993052D01*
X78517075Y-81990000D01*
X78064049Y-81990000D01*
X78054053Y-81993638D01*
X78051001Y-81998925D01*
X78051001Y-82301133D01*
X77651500Y-82301133D01*
X77651500Y-81826952D01*
X78051000Y-81826952D01*
X78054638Y-81836948D01*
X78059925Y-81840000D01*
X78512952Y-81840000D01*
X78522948Y-81836362D01*
X78526000Y-81831075D01*
X78526000Y-81826952D01*
X78676000Y-81826952D01*
X78679638Y-81836948D01*
X78684925Y-81840000D01*
X79137951Y-81840000D01*
X79147947Y-81836362D01*
X79150999Y-81831075D01*
X79150999Y-81528867D01*
X79150288Y-81521653D01*
X79143719Y-81488622D01*
X79138248Y-81475413D01*
X79113193Y-81437916D01*
X79103084Y-81427807D01*
X79065585Y-81402751D01*
X79052380Y-81397281D01*
X79019345Y-81390710D01*
X79012135Y-81390000D01*
X78689048Y-81390000D01*
X78679052Y-81393638D01*
X78676000Y-81398925D01*
X78676000Y-81826952D01*
X78526000Y-81826952D01*
X78526000Y-81403049D01*
X78522362Y-81393053D01*
X78517075Y-81390001D01*
X78189867Y-81390001D01*
X78182653Y-81390712D01*
X78149622Y-81397281D01*
X78136413Y-81402752D01*
X78098916Y-81427807D01*
X78088807Y-81437916D01*
X78063751Y-81475415D01*
X78058281Y-81488620D01*
X78051710Y-81521655D01*
X78051000Y-81528865D01*
X78051000Y-81826952D01*
X77651500Y-81826952D01*
X77651500Y-81525180D01*
X77644228Y-81488622D01*
X77644189Y-81488425D01*
X77644188Y-81488424D01*
X77642767Y-81481278D01*
X77609504Y-81431496D01*
X77559722Y-81398233D01*
X77552576Y-81396812D01*
X77552575Y-81396811D01*
X77519390Y-81390210D01*
X77519389Y-81390210D01*
X77515820Y-81389500D01*
X76686180Y-81389500D01*
X76682611Y-81390210D01*
X76682610Y-81390210D01*
X76649425Y-81396811D01*
X76649424Y-81396812D01*
X76642278Y-81398233D01*
X76592496Y-81431496D01*
X76559233Y-81481278D01*
X76557812Y-81488424D01*
X76557811Y-81488425D01*
X76557772Y-81488622D01*
X76550500Y-81525180D01*
X76550500Y-81578909D01*
X76533187Y-81626475D01*
X76489350Y-81651785D01*
X76487438Y-81651952D01*
X76485100Y-81651487D01*
X76479094Y-81652682D01*
X76479090Y-81652682D01*
X76459647Y-81656550D01*
X76391405Y-81670124D01*
X76391403Y-81670125D01*
X76384258Y-81671546D01*
X76298768Y-81728668D01*
X76294719Y-81734728D01*
X76288400Y-81744185D01*
X76279197Y-81755399D01*
X76167399Y-81867197D01*
X76156184Y-81876400D01*
X76140668Y-81886768D01*
X76126251Y-81908345D01*
X76126250Y-81908346D01*
X76083546Y-81972258D01*
X76082125Y-81979403D01*
X76082124Y-81979405D01*
X76070952Y-82035571D01*
X76063487Y-82073100D01*
X76064909Y-82080249D01*
X76067128Y-82091404D01*
X76068550Y-82105841D01*
X76068550Y-84753159D01*
X76067128Y-84767596D01*
X76063487Y-84785900D01*
X76064909Y-84793049D01*
X76068550Y-84811353D01*
X76079410Y-84865948D01*
X76083546Y-84886742D01*
X76140668Y-84972232D01*
X76146728Y-84976281D01*
X76156185Y-84982600D01*
X76167399Y-84991803D01*
X76279197Y-85103601D01*
X76288400Y-85114815D01*
X76298768Y-85130332D01*
X76304828Y-85134381D01*
X76320345Y-85144749D01*
X76320346Y-85144750D01*
X76378199Y-85183406D01*
X76378201Y-85183407D01*
X76384258Y-85187454D01*
X76391403Y-85188875D01*
X76391405Y-85188876D01*
X76485100Y-85207513D01*
X76484783Y-85209106D01*
X76524066Y-85223404D01*
X76549376Y-85267241D01*
X76550500Y-85280091D01*
X76550500Y-85483820D01*
X76551210Y-85487389D01*
X76551210Y-85487390D01*
X76559233Y-85527722D01*
X76556333Y-85528299D01*
X76557723Y-85559978D01*
X76559233Y-85560278D01*
X76550500Y-85604180D01*
X76550500Y-85883820D01*
X76551210Y-85887389D01*
X76551210Y-85887390D01*
X76559233Y-85927722D01*
X76556333Y-85928299D01*
X76557723Y-85959978D01*
X76559233Y-85960278D01*
X76550500Y-86004180D01*
X76550500Y-86139602D01*
X76533187Y-86187168D01*
X76489350Y-86212478D01*
X76439500Y-86203688D01*
X76424174Y-86191928D01*
X76203703Y-85971456D01*
X75875794Y-85643547D01*
X75854402Y-85597670D01*
X75854120Y-85591221D01*
X75854120Y-79722236D01*
X75854402Y-79715787D01*
X75857499Y-79680390D01*
X75857499Y-79680389D01*
X75858063Y-79673941D01*
X75847190Y-79633364D01*
X75845793Y-79627064D01*
X75839622Y-79592066D01*
X75838498Y-79585692D01*
X75835262Y-79580088D01*
X75834259Y-79577331D01*
X75829859Y-79566709D01*
X75828614Y-79564039D01*
X75826938Y-79557784D01*
X75802843Y-79523373D01*
X75799374Y-79517927D01*
X75781610Y-79487159D01*
X75778371Y-79481548D01*
X75773409Y-79477385D01*
X75773407Y-79477382D01*
X75746191Y-79454545D01*
X75741431Y-79450184D01*
X71076174Y-74784927D01*
X71056744Y-74743259D01*
X71693500Y-74743259D01*
X71693689Y-74745116D01*
X71693689Y-74745123D01*
X71707733Y-74883379D01*
X71708112Y-74887110D01*
X71709233Y-74890687D01*
X71749999Y-75020772D01*
X71765856Y-75071373D01*
X71859472Y-75240261D01*
X71985136Y-75386875D01*
X71988096Y-75389171D01*
X71988098Y-75389173D01*
X72134748Y-75502927D01*
X72134752Y-75502930D01*
X72137714Y-75505227D01*
X72141079Y-75506883D01*
X72141081Y-75506884D01*
X72221745Y-75546575D01*
X72310974Y-75590481D01*
X72497837Y-75639155D01*
X72501576Y-75639351D01*
X72686926Y-75649065D01*
X72686929Y-75649065D01*
X72690671Y-75649261D01*
X72694380Y-75648700D01*
X72694381Y-75648700D01*
X72877892Y-75620947D01*
X72877896Y-75620946D01*
X72881599Y-75620386D01*
X73062821Y-75553710D01*
X73226934Y-75451955D01*
X73367235Y-75319279D01*
X73477991Y-75161102D01*
X73515402Y-75074651D01*
X73553194Y-74987320D01*
X73553195Y-74987316D01*
X73554680Y-74983885D01*
X73574898Y-74887110D01*
X73593587Y-74797648D01*
X73594168Y-74794867D01*
X73594500Y-74788532D01*
X73594500Y-74743259D01*
X74233500Y-74743259D01*
X74233689Y-74745116D01*
X74233689Y-74745123D01*
X74247733Y-74883379D01*
X74248112Y-74887110D01*
X74249233Y-74890687D01*
X74289999Y-75020772D01*
X74305856Y-75071373D01*
X74399472Y-75240261D01*
X74525136Y-75386875D01*
X74528096Y-75389171D01*
X74528098Y-75389173D01*
X74674748Y-75502927D01*
X74674752Y-75502930D01*
X74677714Y-75505227D01*
X74681079Y-75506883D01*
X74681081Y-75506884D01*
X74761745Y-75546575D01*
X74850974Y-75590481D01*
X75037837Y-75639155D01*
X75041576Y-75639351D01*
X75226926Y-75649065D01*
X75226929Y-75649065D01*
X75230671Y-75649261D01*
X75234380Y-75648700D01*
X75234381Y-75648700D01*
X75417892Y-75620947D01*
X75417896Y-75620946D01*
X75421599Y-75620386D01*
X75602821Y-75553710D01*
X75766934Y-75451955D01*
X75907235Y-75319279D01*
X76017991Y-75161102D01*
X76055402Y-75074651D01*
X76093194Y-74987320D01*
X76093195Y-74987316D01*
X76094680Y-74983885D01*
X76114898Y-74887110D01*
X76133587Y-74797648D01*
X76134168Y-74794867D01*
X76134500Y-74788532D01*
X76134500Y-74743259D01*
X76773500Y-74743259D01*
X76773689Y-74745116D01*
X76773689Y-74745123D01*
X76787733Y-74883379D01*
X76788112Y-74887110D01*
X76789233Y-74890687D01*
X76829999Y-75020772D01*
X76845856Y-75071373D01*
X76939472Y-75240261D01*
X77065136Y-75386875D01*
X77068096Y-75389171D01*
X77068098Y-75389173D01*
X77214748Y-75502927D01*
X77214752Y-75502930D01*
X77217714Y-75505227D01*
X77221079Y-75506883D01*
X77221081Y-75506884D01*
X77301745Y-75546575D01*
X77390974Y-75590481D01*
X77577837Y-75639155D01*
X77581576Y-75639351D01*
X77766926Y-75649065D01*
X77766929Y-75649065D01*
X77770671Y-75649261D01*
X77774380Y-75648700D01*
X77774381Y-75648700D01*
X77957892Y-75620947D01*
X77957896Y-75620946D01*
X77961599Y-75620386D01*
X78142821Y-75553710D01*
X78306934Y-75451955D01*
X78447235Y-75319279D01*
X78557991Y-75161102D01*
X78595402Y-75074651D01*
X78633194Y-74987320D01*
X78633195Y-74987316D01*
X78634680Y-74983885D01*
X78654898Y-74887110D01*
X78673587Y-74797648D01*
X78674168Y-74794867D01*
X78674500Y-74788532D01*
X78674500Y-73846741D01*
X78671709Y-73819257D01*
X78660267Y-73706621D01*
X78659888Y-73702890D01*
X78640335Y-73640495D01*
X78603265Y-73522203D01*
X78603264Y-73522200D01*
X78602144Y-73518627D01*
X78508528Y-73349739D01*
X78504795Y-73345383D01*
X78385303Y-73205971D01*
X78382864Y-73203125D01*
X78379904Y-73200829D01*
X78379902Y-73200827D01*
X78233252Y-73087073D01*
X78233248Y-73087070D01*
X78230286Y-73084773D01*
X78217075Y-73078272D01*
X78060389Y-73001174D01*
X78057026Y-72999519D01*
X77870163Y-72950845D01*
X77866424Y-72950649D01*
X77681074Y-72940935D01*
X77681071Y-72940935D01*
X77677329Y-72940739D01*
X77673620Y-72941300D01*
X77673619Y-72941300D01*
X77490108Y-72969053D01*
X77490104Y-72969054D01*
X77486401Y-72969614D01*
X77305179Y-73036290D01*
X77301996Y-73038263D01*
X77301995Y-73038264D01*
X77252722Y-73068815D01*
X77141066Y-73138045D01*
X77138344Y-73140619D01*
X77117753Y-73160091D01*
X77000765Y-73270721D01*
X76890009Y-73428898D01*
X76868972Y-73477511D01*
X76814811Y-73602670D01*
X76813320Y-73606115D01*
X76812555Y-73609777D01*
X76812554Y-73609780D01*
X76788420Y-73725302D01*
X76773832Y-73795133D01*
X76773500Y-73801468D01*
X76773500Y-74743259D01*
X76134500Y-74743259D01*
X76134500Y-73846741D01*
X76131709Y-73819257D01*
X76120267Y-73706621D01*
X76119888Y-73702890D01*
X76100335Y-73640495D01*
X76063265Y-73522203D01*
X76063264Y-73522200D01*
X76062144Y-73518627D01*
X75968528Y-73349739D01*
X75964795Y-73345383D01*
X75845303Y-73205971D01*
X75842864Y-73203125D01*
X75839904Y-73200829D01*
X75839902Y-73200827D01*
X75693252Y-73087073D01*
X75693248Y-73087070D01*
X75690286Y-73084773D01*
X75677075Y-73078272D01*
X75520389Y-73001174D01*
X75517026Y-72999519D01*
X75330163Y-72950845D01*
X75326424Y-72950649D01*
X75141074Y-72940935D01*
X75141071Y-72940935D01*
X75137329Y-72940739D01*
X75133620Y-72941300D01*
X75133619Y-72941300D01*
X74950108Y-72969053D01*
X74950104Y-72969054D01*
X74946401Y-72969614D01*
X74765179Y-73036290D01*
X74761996Y-73038263D01*
X74761995Y-73038264D01*
X74712722Y-73068815D01*
X74601066Y-73138045D01*
X74598344Y-73140619D01*
X74577753Y-73160091D01*
X74460765Y-73270721D01*
X74350009Y-73428898D01*
X74328972Y-73477511D01*
X74274811Y-73602670D01*
X74273320Y-73606115D01*
X74272555Y-73609777D01*
X74272554Y-73609780D01*
X74248420Y-73725302D01*
X74233832Y-73795133D01*
X74233500Y-73801468D01*
X74233500Y-74743259D01*
X73594500Y-74743259D01*
X73594500Y-73846741D01*
X73591709Y-73819257D01*
X73580267Y-73706621D01*
X73579888Y-73702890D01*
X73560335Y-73640495D01*
X73523265Y-73522203D01*
X73523264Y-73522200D01*
X73522144Y-73518627D01*
X73428528Y-73349739D01*
X73424795Y-73345383D01*
X73305303Y-73205971D01*
X73302864Y-73203125D01*
X73299904Y-73200829D01*
X73299902Y-73200827D01*
X73153252Y-73087073D01*
X73153248Y-73087070D01*
X73150286Y-73084773D01*
X73137075Y-73078272D01*
X72980389Y-73001174D01*
X72977026Y-72999519D01*
X72790163Y-72950845D01*
X72786424Y-72950649D01*
X72601074Y-72940935D01*
X72601071Y-72940935D01*
X72597329Y-72940739D01*
X72593620Y-72941300D01*
X72593619Y-72941300D01*
X72410108Y-72969053D01*
X72410104Y-72969054D01*
X72406401Y-72969614D01*
X72225179Y-73036290D01*
X72221996Y-73038263D01*
X72221995Y-73038264D01*
X72172722Y-73068815D01*
X72061066Y-73138045D01*
X72058344Y-73140619D01*
X72037753Y-73160091D01*
X71920765Y-73270721D01*
X71810009Y-73428898D01*
X71788972Y-73477511D01*
X71734811Y-73602670D01*
X71733320Y-73606115D01*
X71732555Y-73609777D01*
X71732554Y-73609780D01*
X71708420Y-73725302D01*
X71693832Y-73795133D01*
X71693500Y-73801468D01*
X71693500Y-74743259D01*
X71056744Y-74743259D01*
X71054782Y-74739051D01*
X71054500Y-74732601D01*
X71054500Y-73080180D01*
X71045767Y-73036278D01*
X71012504Y-72986496D01*
X70962722Y-72953233D01*
X70955576Y-72951812D01*
X70955575Y-72951811D01*
X70922390Y-72945210D01*
X70922389Y-72945210D01*
X70918820Y-72944500D01*
X69289180Y-72944500D01*
X69285611Y-72945210D01*
X69285610Y-72945210D01*
X69252425Y-72951811D01*
X69252424Y-72951812D01*
X69245278Y-72953233D01*
X69195496Y-72986496D01*
X69162233Y-73036278D01*
X69153500Y-73080180D01*
X69153500Y-73864601D01*
X69136187Y-73912167D01*
X69092350Y-73937477D01*
X69042500Y-73928687D01*
X69027174Y-73916927D01*
X68354173Y-73243926D01*
X68332781Y-73198050D01*
X68332499Y-73191600D01*
X68332499Y-67121357D01*
X69154000Y-67121357D01*
X69154189Y-67125093D01*
X69168226Y-67263278D01*
X69169726Y-67270586D01*
X69225198Y-67447599D01*
X69228136Y-67454453D01*
X69318069Y-67616698D01*
X69322324Y-67622820D01*
X69443041Y-67763662D01*
X69448446Y-67768809D01*
X69595023Y-67882505D01*
X69601341Y-67886453D01*
X69767789Y-67968357D01*
X69774771Y-67970953D01*
X69954290Y-68017714D01*
X69961654Y-68018854D01*
X70015972Y-68021701D01*
X70026141Y-68018592D01*
X70029000Y-68014190D01*
X70029000Y-68011423D01*
X70179000Y-68011423D01*
X70182638Y-68021419D01*
X70186072Y-68023401D01*
X70337767Y-68000460D01*
X70344991Y-67998605D01*
X70519085Y-67934551D01*
X70525785Y-67931283D01*
X70683444Y-67833531D01*
X70689349Y-67828983D01*
X70824131Y-67701526D01*
X70829005Y-67695879D01*
X70935396Y-67543935D01*
X70939043Y-67537411D01*
X71012715Y-67367168D01*
X71014967Y-67360068D01*
X71053087Y-67177595D01*
X71053816Y-67171980D01*
X71053950Y-67169440D01*
X71054000Y-67167509D01*
X71054000Y-67123259D01*
X71693500Y-67123259D01*
X71693689Y-67125116D01*
X71693689Y-67125123D01*
X71707273Y-67258849D01*
X71708112Y-67267110D01*
X71709233Y-67270687D01*
X71759691Y-67431699D01*
X71765856Y-67451373D01*
X71859472Y-67620261D01*
X71861910Y-67623105D01*
X71861911Y-67623107D01*
X71922304Y-67693568D01*
X71985136Y-67766875D01*
X71988096Y-67769171D01*
X71988098Y-67769173D01*
X72134748Y-67882927D01*
X72134752Y-67882930D01*
X72137714Y-67885227D01*
X72310974Y-67970481D01*
X72497837Y-68019155D01*
X72501576Y-68019351D01*
X72686926Y-68029065D01*
X72686929Y-68029065D01*
X72690671Y-68029261D01*
X72694380Y-68028700D01*
X72694381Y-68028700D01*
X72877892Y-68000947D01*
X72877896Y-68000946D01*
X72881599Y-68000386D01*
X73062821Y-67933710D01*
X73066736Y-67931283D01*
X73204167Y-67846071D01*
X73226934Y-67831955D01*
X73274103Y-67787350D01*
X73364512Y-67701854D01*
X73367235Y-67699279D01*
X73477991Y-67541102D01*
X73515488Y-67454453D01*
X73553194Y-67367320D01*
X73553195Y-67367316D01*
X73554680Y-67363885D01*
X73555478Y-67360068D01*
X73593587Y-67177648D01*
X73594168Y-67174867D01*
X73594500Y-67168532D01*
X73594500Y-66226741D01*
X73593882Y-66220649D01*
X73580267Y-66086621D01*
X73579888Y-66082890D01*
X73569833Y-66050803D01*
X73523265Y-65902203D01*
X73523264Y-65902200D01*
X73522144Y-65898627D01*
X73428528Y-65729739D01*
X73393160Y-65688474D01*
X73305303Y-65585971D01*
X73302864Y-65583125D01*
X73299904Y-65580829D01*
X73299902Y-65580827D01*
X73153252Y-65467073D01*
X73153248Y-65467070D01*
X73150286Y-65464773D01*
X73135648Y-65457570D01*
X73049127Y-65414997D01*
X72977026Y-65379519D01*
X72790163Y-65330845D01*
X72786424Y-65330649D01*
X72601074Y-65320935D01*
X72601071Y-65320935D01*
X72597329Y-65320739D01*
X72593620Y-65321300D01*
X72593619Y-65321300D01*
X72410108Y-65349053D01*
X72410104Y-65349054D01*
X72406401Y-65349614D01*
X72225179Y-65416290D01*
X72061066Y-65518045D01*
X72058344Y-65520619D01*
X71989236Y-65585971D01*
X71920765Y-65650721D01*
X71810009Y-65808898D01*
X71808518Y-65812344D01*
X71771180Y-65898627D01*
X71733320Y-65986115D01*
X71732555Y-65989777D01*
X71732554Y-65989780D01*
X71696292Y-66163358D01*
X71693832Y-66175133D01*
X71693500Y-66181468D01*
X71693500Y-67123259D01*
X71054000Y-67123259D01*
X71054000Y-66763048D01*
X71050362Y-66753052D01*
X71045075Y-66750000D01*
X70192048Y-66750000D01*
X70182052Y-66753638D01*
X70179000Y-66758925D01*
X70179000Y-68011423D01*
X70029000Y-68011423D01*
X70029000Y-66763048D01*
X70025362Y-66753052D01*
X70020075Y-66750000D01*
X69167048Y-66750000D01*
X69157052Y-66753638D01*
X69154000Y-66758925D01*
X69154000Y-67121357D01*
X68332499Y-67121357D01*
X68332499Y-66946476D01*
X68349812Y-66898910D01*
X68354173Y-66894150D01*
X69027674Y-66220649D01*
X69073550Y-66199257D01*
X69122445Y-66212358D01*
X69151479Y-66253822D01*
X69154000Y-66272975D01*
X69154000Y-66586952D01*
X69157638Y-66596948D01*
X69162925Y-66600000D01*
X70015952Y-66600000D01*
X70025948Y-66596362D01*
X70029000Y-66591075D01*
X70029000Y-66586952D01*
X70179000Y-66586952D01*
X70182638Y-66596948D01*
X70187925Y-66600000D01*
X71040952Y-66600000D01*
X71050948Y-66596362D01*
X71054000Y-66591075D01*
X71054000Y-66228643D01*
X71053811Y-66224907D01*
X71039774Y-66086722D01*
X71038274Y-66079414D01*
X70982802Y-65902401D01*
X70979864Y-65895547D01*
X70889931Y-65733302D01*
X70885676Y-65727180D01*
X70764959Y-65586338D01*
X70759554Y-65581191D01*
X70612977Y-65467495D01*
X70606659Y-65463547D01*
X70440211Y-65381643D01*
X70433229Y-65379047D01*
X70253710Y-65332286D01*
X70246346Y-65331146D01*
X70192028Y-65328299D01*
X70181859Y-65331408D01*
X70179000Y-65335810D01*
X70179000Y-66586952D01*
X70029000Y-66586952D01*
X70029000Y-65338577D01*
X70018824Y-65310619D01*
X70009383Y-65299369D01*
X70009380Y-65248750D01*
X70026593Y-65221730D01*
X70151168Y-65097155D01*
X70197044Y-65075763D01*
X70203494Y-65075481D01*
X90343582Y-65075481D01*
X90391148Y-65092794D01*
G37*
G04 #@! TD.AperFunction*
M02*
