G04 #@! TF.GenerationSoftware,KiCad,Pcbnew,(5.1.4-0-10_14)*
G04 #@! TF.CreationDate,2021-08-15T13:31:00+02:00*
G04 #@! TF.ProjectId,avrCubeRev2,61767243-7562-4655-9265-76322e6b6963,rev?*
G04 #@! TF.SameCoordinates,Original*
G04 #@! TF.FileFunction,Legend,Top*
G04 #@! TF.FilePolarity,Positive*
%FSLAX46Y46*%
G04 Gerber Fmt 4.6, Leading zero omitted, Abs format (unit mm)*
G04 Created by KiCad (PCBNEW (5.1.4-0-10_14)) date 2021-08-15 13:31:00*
%MOMM*%
%LPD*%
G04 APERTURE LIST*
%ADD10C,0.120000*%
%ADD11C,0.150000*%
G04 APERTURE END LIST*
D10*
X92872000Y-83987000D02*
X92872000Y-81367000D01*
X92872000Y-81367000D02*
X86452000Y-81367000D01*
X86452000Y-81367000D02*
X86452000Y-83987000D01*
X86452000Y-83987000D02*
X92872000Y-83987000D01*
X93762000Y-82677000D02*
X92872000Y-82677000D01*
X85562000Y-82677000D02*
X86452000Y-82677000D01*
X57854000Y-92710462D02*
G75*
G03X52304000Y-91165170I-2990000J462D01*
G01*
X57854000Y-92709538D02*
G75*
G02X52304000Y-94254830I-2990000J-462D01*
G01*
X57364000Y-92710000D02*
G75*
G03X57364000Y-92710000I-2500000J0D01*
G01*
X52304000Y-91165000D02*
X52304000Y-94255000D01*
X73388000Y-107101000D02*
X73388000Y-112101000D01*
X73938000Y-112651000D02*
G75*
G02X73388000Y-112101000I0J550000D01*
G01*
X73938000Y-106551000D02*
G75*
G03X73388000Y-107101000I0J-550000D01*
G01*
X73938000Y-112651000D02*
X76388000Y-112651000D01*
X76388000Y-106551000D02*
X73938000Y-106551000D01*
X77092769Y-106057515D02*
G75*
G02X76388000Y-106551000I-704769J256515D01*
G01*
X77092769Y-113144485D02*
G75*
G03X76388000Y-112651000I-704769J-256515D01*
G01*
X104637738Y-109616231D02*
G75*
G03X77088000Y-106081000I-13999738J15231D01*
G01*
X104637738Y-109585769D02*
G75*
G02X77088000Y-113121000I-13999738J-15231D01*
G01*
X68774000Y-69485000D02*
G75*
G02X68774000Y-71485000I0J-1000000D01*
G01*
X68774000Y-71485000D02*
X68774000Y-72735000D01*
X68774000Y-72735000D02*
X86674000Y-72735000D01*
X86674000Y-72735000D02*
X86674000Y-68235000D01*
X86674000Y-68235000D02*
X68774000Y-68235000D01*
X68774000Y-68235000D02*
X68774000Y-69485000D01*
X89729000Y-74228000D02*
X94929000Y-74228000D01*
X89729000Y-69088000D02*
X89729000Y-74228000D01*
X94929000Y-66488000D02*
X94929000Y-74228000D01*
X89729000Y-69088000D02*
X92329000Y-69088000D01*
X92329000Y-69088000D02*
X92329000Y-66488000D01*
X92329000Y-66488000D02*
X94929000Y-66488000D01*
X89729000Y-67818000D02*
X89729000Y-66488000D01*
X89729000Y-66488000D02*
X91059000Y-66488000D01*
X61579000Y-109005000D02*
X66079000Y-109005000D01*
X60329000Y-105005000D02*
X60329000Y-106505000D01*
X66079000Y-102505000D02*
X61579000Y-102505000D01*
X67329000Y-106505000D02*
X67329000Y-105005000D01*
X92872000Y-87543000D02*
X92872000Y-84923000D01*
X92872000Y-84923000D02*
X86452000Y-84923000D01*
X86452000Y-84923000D02*
X86452000Y-87543000D01*
X86452000Y-87543000D02*
X92872000Y-87543000D01*
X93762000Y-86233000D02*
X92872000Y-86233000D01*
X85562000Y-86233000D02*
X86452000Y-86233000D01*
X62576000Y-83780000D02*
X62576000Y-86400000D01*
X62576000Y-86400000D02*
X68996000Y-86400000D01*
X68996000Y-86400000D02*
X68996000Y-83780000D01*
X68996000Y-83780000D02*
X62576000Y-83780000D01*
X61686000Y-85090000D02*
X62576000Y-85090000D01*
X69886000Y-85090000D02*
X68996000Y-85090000D01*
X92872000Y-80431000D02*
X92872000Y-77811000D01*
X92872000Y-77811000D02*
X86452000Y-77811000D01*
X86452000Y-77811000D02*
X86452000Y-80431000D01*
X86452000Y-80431000D02*
X92872000Y-80431000D01*
X93762000Y-79121000D02*
X92872000Y-79121000D01*
X85562000Y-79121000D02*
X86452000Y-79121000D01*
X62576000Y-79208000D02*
X62576000Y-81828000D01*
X62576000Y-81828000D02*
X68996000Y-81828000D01*
X68996000Y-81828000D02*
X68996000Y-79208000D01*
X68996000Y-79208000D02*
X62576000Y-79208000D01*
X61686000Y-80518000D02*
X62576000Y-80518000D01*
X69886000Y-80518000D02*
X68996000Y-80518000D01*
X103291000Y-73752000D02*
X100671000Y-73752000D01*
X100671000Y-73752000D02*
X100671000Y-80172000D01*
X100671000Y-80172000D02*
X103291000Y-80172000D01*
X103291000Y-80172000D02*
X103291000Y-73752000D01*
X101981000Y-72862000D02*
X101981000Y-73752000D01*
X101981000Y-81062000D02*
X101981000Y-80172000D01*
X57444000Y-73752000D02*
X54824000Y-73752000D01*
X54824000Y-73752000D02*
X54824000Y-80172000D01*
X54824000Y-80172000D02*
X57444000Y-80172000D01*
X57444000Y-80172000D02*
X57444000Y-73752000D01*
X56134000Y-72862000D02*
X56134000Y-73752000D01*
X56134000Y-81062000D02*
X56134000Y-80172000D01*
X110051000Y-119761462D02*
G75*
G03X104501000Y-118216170I-2990000J462D01*
G01*
X110051000Y-119760538D02*
G75*
G02X104501000Y-121305830I-2990000J-462D01*
G01*
X109561000Y-119761000D02*
G75*
G03X109561000Y-119761000I-2500000J0D01*
G01*
X104501000Y-118216000D02*
X104501000Y-121306000D01*
X57854000Y-119761462D02*
G75*
G03X52304000Y-118216170I-2990000J462D01*
G01*
X57854000Y-119760538D02*
G75*
G02X52304000Y-121305830I-2990000J-462D01*
G01*
X57364000Y-119761000D02*
G75*
G03X57364000Y-119761000I-2500000J0D01*
G01*
X52304000Y-118216000D02*
X52304000Y-121306000D01*
X110051000Y-92710462D02*
G75*
G03X104501000Y-91165170I-2990000J462D01*
G01*
X110051000Y-92709538D02*
G75*
G02X104501000Y-94254830I-2990000J-462D01*
G01*
X109561000Y-92710000D02*
G75*
G03X109561000Y-92710000I-2500000J0D01*
G01*
X104501000Y-91165000D02*
X104501000Y-94255000D01*
X83889000Y-92837462D02*
G75*
G03X78339000Y-91292170I-2990000J462D01*
G01*
X83889000Y-92836538D02*
G75*
G02X78339000Y-94381830I-2990000J-462D01*
G01*
X83399000Y-92837000D02*
G75*
G03X83399000Y-92837000I-2500000J0D01*
G01*
X78339000Y-91292000D02*
X78339000Y-94382000D01*
X110051000Y-65659462D02*
G75*
G03X104501000Y-64114170I-2990000J462D01*
G01*
X110051000Y-65658538D02*
G75*
G02X104501000Y-67203830I-2990000J-462D01*
G01*
X109561000Y-65659000D02*
G75*
G03X109561000Y-65659000I-2500000J0D01*
G01*
X104501000Y-64114000D02*
X104501000Y-67204000D01*
X57854000Y-65659462D02*
G75*
G03X52304000Y-64114170I-2990000J462D01*
G01*
X57854000Y-65658538D02*
G75*
G02X52304000Y-67203830I-2990000J-462D01*
G01*
X57364000Y-65659000D02*
G75*
G03X57364000Y-65659000I-2500000J0D01*
G01*
X52304000Y-64114000D02*
X52304000Y-67204000D01*
D11*
X82256333Y-82240380D02*
X81923000Y-81764190D01*
X81684904Y-82240380D02*
X81684904Y-81240380D01*
X82065857Y-81240380D01*
X82161095Y-81288000D01*
X82208714Y-81335619D01*
X82256333Y-81430857D01*
X82256333Y-81573714D01*
X82208714Y-81668952D01*
X82161095Y-81716571D01*
X82065857Y-81764190D01*
X81684904Y-81764190D01*
X83161095Y-81240380D02*
X82684904Y-81240380D01*
X82637285Y-81716571D01*
X82684904Y-81668952D01*
X82780142Y-81621333D01*
X83018238Y-81621333D01*
X83113476Y-81668952D01*
X83161095Y-81716571D01*
X83208714Y-81811809D01*
X83208714Y-82049904D01*
X83161095Y-82145142D01*
X83113476Y-82192761D01*
X83018238Y-82240380D01*
X82780142Y-82240380D01*
X82684904Y-82192761D01*
X82637285Y-82145142D01*
X54125904Y-89202380D02*
X54125904Y-88202380D01*
X54364000Y-88202380D01*
X54506857Y-88250000D01*
X54602095Y-88345238D01*
X54649714Y-88440476D01*
X54697333Y-88630952D01*
X54697333Y-88773809D01*
X54649714Y-88964285D01*
X54602095Y-89059523D01*
X54506857Y-89154761D01*
X54364000Y-89202380D01*
X54125904Y-89202380D01*
X55030666Y-88202380D02*
X55649714Y-88202380D01*
X55316380Y-88583333D01*
X55459238Y-88583333D01*
X55554476Y-88630952D01*
X55602095Y-88678571D01*
X55649714Y-88773809D01*
X55649714Y-89011904D01*
X55602095Y-89107142D01*
X55554476Y-89154761D01*
X55459238Y-89202380D01*
X55173523Y-89202380D01*
X55078285Y-89154761D01*
X55030666Y-89107142D01*
X73402285Y-105029571D02*
X73545142Y-105077190D01*
X73592761Y-105124809D01*
X73640380Y-105220047D01*
X73640380Y-105362904D01*
X73592761Y-105458142D01*
X73545142Y-105505761D01*
X73449904Y-105553380D01*
X73068952Y-105553380D01*
X73068952Y-104553380D01*
X73402285Y-104553380D01*
X73497523Y-104601000D01*
X73545142Y-104648619D01*
X73592761Y-104743857D01*
X73592761Y-104839095D01*
X73545142Y-104934333D01*
X73497523Y-104981952D01*
X73402285Y-105029571D01*
X73068952Y-105029571D01*
X73926095Y-104553380D02*
X74497523Y-104553380D01*
X74211809Y-105553380D02*
X74211809Y-104553380D01*
X75354666Y-105553380D02*
X74783238Y-105553380D01*
X75068952Y-105553380D02*
X75068952Y-104553380D01*
X74973714Y-104696238D01*
X74878476Y-104791476D01*
X74783238Y-104839095D01*
X77616571Y-109708142D02*
X78759428Y-109708142D01*
X78188000Y-110279571D02*
X78188000Y-109136714D01*
X67226380Y-71246904D02*
X68035904Y-71246904D01*
X68131142Y-71199285D01*
X68178761Y-71151666D01*
X68226380Y-71056428D01*
X68226380Y-70865952D01*
X68178761Y-70770714D01*
X68131142Y-70723095D01*
X68035904Y-70675476D01*
X67226380Y-70675476D01*
X68226380Y-69675476D02*
X68226380Y-70246904D01*
X68226380Y-69961190D02*
X67226380Y-69961190D01*
X67369238Y-70056428D01*
X67464476Y-70151666D01*
X67512095Y-70246904D01*
X91995666Y-64940380D02*
X91995666Y-65654666D01*
X91948047Y-65797523D01*
X91852809Y-65892761D01*
X91709952Y-65940380D01*
X91614714Y-65940380D01*
X92424238Y-65035619D02*
X92471857Y-64988000D01*
X92567095Y-64940380D01*
X92805190Y-64940380D01*
X92900428Y-64988000D01*
X92948047Y-65035619D01*
X92995666Y-65130857D01*
X92995666Y-65226095D01*
X92948047Y-65368952D01*
X92376619Y-65940380D01*
X92995666Y-65940380D01*
X62495666Y-101909761D02*
X62638523Y-101957380D01*
X62876619Y-101957380D01*
X62971857Y-101909761D01*
X63019476Y-101862142D01*
X63067095Y-101766904D01*
X63067095Y-101671666D01*
X63019476Y-101576428D01*
X62971857Y-101528809D01*
X62876619Y-101481190D01*
X62686142Y-101433571D01*
X62590904Y-101385952D01*
X62543285Y-101338333D01*
X62495666Y-101243095D01*
X62495666Y-101147857D01*
X62543285Y-101052619D01*
X62590904Y-101005000D01*
X62686142Y-100957380D01*
X62924238Y-100957380D01*
X63067095Y-101005000D01*
X63400428Y-100957380D02*
X63638523Y-101957380D01*
X63829000Y-101243095D01*
X64019476Y-101957380D01*
X64257571Y-100957380D01*
X65162333Y-101957380D02*
X64590904Y-101957380D01*
X64876619Y-101957380D02*
X64876619Y-100957380D01*
X64781380Y-101100238D01*
X64686142Y-101195476D01*
X64590904Y-101243095D01*
X82256333Y-85796380D02*
X81923000Y-85320190D01*
X81684904Y-85796380D02*
X81684904Y-84796380D01*
X82065857Y-84796380D01*
X82161095Y-84844000D01*
X82208714Y-84891619D01*
X82256333Y-84986857D01*
X82256333Y-85129714D01*
X82208714Y-85224952D01*
X82161095Y-85272571D01*
X82065857Y-85320190D01*
X81684904Y-85320190D01*
X82589666Y-84796380D02*
X83256333Y-84796380D01*
X82827761Y-85796380D01*
X65619333Y-83232380D02*
X65286000Y-82756190D01*
X65047904Y-83232380D02*
X65047904Y-82232380D01*
X65428857Y-82232380D01*
X65524095Y-82280000D01*
X65571714Y-82327619D01*
X65619333Y-82422857D01*
X65619333Y-82565714D01*
X65571714Y-82660952D01*
X65524095Y-82708571D01*
X65428857Y-82756190D01*
X65047904Y-82756190D01*
X66476476Y-82232380D02*
X66286000Y-82232380D01*
X66190761Y-82280000D01*
X66143142Y-82327619D01*
X66047904Y-82470476D01*
X66000285Y-82660952D01*
X66000285Y-83041904D01*
X66047904Y-83137142D01*
X66095523Y-83184761D01*
X66190761Y-83232380D01*
X66381238Y-83232380D01*
X66476476Y-83184761D01*
X66524095Y-83137142D01*
X66571714Y-83041904D01*
X66571714Y-82803809D01*
X66524095Y-82708571D01*
X66476476Y-82660952D01*
X66381238Y-82613333D01*
X66190761Y-82613333D01*
X66095523Y-82660952D01*
X66047904Y-82708571D01*
X66000285Y-82803809D01*
X82256333Y-78684380D02*
X81923000Y-78208190D01*
X81684904Y-78684380D02*
X81684904Y-77684380D01*
X82065857Y-77684380D01*
X82161095Y-77732000D01*
X82208714Y-77779619D01*
X82256333Y-77874857D01*
X82256333Y-78017714D01*
X82208714Y-78112952D01*
X82161095Y-78160571D01*
X82065857Y-78208190D01*
X81684904Y-78208190D01*
X83113476Y-78017714D02*
X83113476Y-78684380D01*
X82875380Y-77636761D02*
X82637285Y-78351047D01*
X83256333Y-78351047D01*
X65619333Y-78660380D02*
X65286000Y-78184190D01*
X65047904Y-78660380D02*
X65047904Y-77660380D01*
X65428857Y-77660380D01*
X65524095Y-77708000D01*
X65571714Y-77755619D01*
X65619333Y-77850857D01*
X65619333Y-77993714D01*
X65571714Y-78088952D01*
X65524095Y-78136571D01*
X65428857Y-78184190D01*
X65047904Y-78184190D01*
X65952666Y-77660380D02*
X66571714Y-77660380D01*
X66238380Y-78041333D01*
X66381238Y-78041333D01*
X66476476Y-78088952D01*
X66524095Y-78136571D01*
X66571714Y-78231809D01*
X66571714Y-78469904D01*
X66524095Y-78565142D01*
X66476476Y-78612761D01*
X66381238Y-78660380D01*
X66095523Y-78660380D01*
X66000285Y-78612761D01*
X65952666Y-78565142D01*
X99274333Y-74874380D02*
X98941000Y-74398190D01*
X98702904Y-74874380D02*
X98702904Y-73874380D01*
X99083857Y-73874380D01*
X99179095Y-73922000D01*
X99226714Y-73969619D01*
X99274333Y-74064857D01*
X99274333Y-74207714D01*
X99226714Y-74302952D01*
X99179095Y-74350571D01*
X99083857Y-74398190D01*
X98702904Y-74398190D01*
X99655285Y-73969619D02*
X99702904Y-73922000D01*
X99798142Y-73874380D01*
X100036238Y-73874380D01*
X100131476Y-73922000D01*
X100179095Y-73969619D01*
X100226714Y-74064857D01*
X100226714Y-74160095D01*
X100179095Y-74302952D01*
X99607666Y-74874380D01*
X100226714Y-74874380D01*
X53427333Y-74747380D02*
X53094000Y-74271190D01*
X52855904Y-74747380D02*
X52855904Y-73747380D01*
X53236857Y-73747380D01*
X53332095Y-73795000D01*
X53379714Y-73842619D01*
X53427333Y-73937857D01*
X53427333Y-74080714D01*
X53379714Y-74175952D01*
X53332095Y-74223571D01*
X53236857Y-74271190D01*
X52855904Y-74271190D01*
X54379714Y-74747380D02*
X53808285Y-74747380D01*
X54094000Y-74747380D02*
X54094000Y-73747380D01*
X53998761Y-73890238D01*
X53903523Y-73985476D01*
X53808285Y-74033095D01*
X106322904Y-116253380D02*
X106322904Y-115253380D01*
X106561000Y-115253380D01*
X106703857Y-115301000D01*
X106799095Y-115396238D01*
X106846714Y-115491476D01*
X106894333Y-115681952D01*
X106894333Y-115824809D01*
X106846714Y-116015285D01*
X106799095Y-116110523D01*
X106703857Y-116205761D01*
X106561000Y-116253380D01*
X106322904Y-116253380D01*
X107227666Y-115253380D02*
X107894333Y-115253380D01*
X107465761Y-116253380D01*
X54125904Y-116253380D02*
X54125904Y-115253380D01*
X54364000Y-115253380D01*
X54506857Y-115301000D01*
X54602095Y-115396238D01*
X54649714Y-115491476D01*
X54697333Y-115681952D01*
X54697333Y-115824809D01*
X54649714Y-116015285D01*
X54602095Y-116110523D01*
X54506857Y-116205761D01*
X54364000Y-116253380D01*
X54125904Y-116253380D01*
X55554476Y-115253380D02*
X55364000Y-115253380D01*
X55268761Y-115301000D01*
X55221142Y-115348619D01*
X55125904Y-115491476D01*
X55078285Y-115681952D01*
X55078285Y-116062904D01*
X55125904Y-116158142D01*
X55173523Y-116205761D01*
X55268761Y-116253380D01*
X55459238Y-116253380D01*
X55554476Y-116205761D01*
X55602095Y-116158142D01*
X55649714Y-116062904D01*
X55649714Y-115824809D01*
X55602095Y-115729571D01*
X55554476Y-115681952D01*
X55459238Y-115634333D01*
X55268761Y-115634333D01*
X55173523Y-115681952D01*
X55125904Y-115729571D01*
X55078285Y-115824809D01*
X106322904Y-89202380D02*
X106322904Y-88202380D01*
X106561000Y-88202380D01*
X106703857Y-88250000D01*
X106799095Y-88345238D01*
X106846714Y-88440476D01*
X106894333Y-88630952D01*
X106894333Y-88773809D01*
X106846714Y-88964285D01*
X106799095Y-89059523D01*
X106703857Y-89154761D01*
X106561000Y-89202380D01*
X106322904Y-89202380D01*
X107799095Y-88202380D02*
X107322904Y-88202380D01*
X107275285Y-88678571D01*
X107322904Y-88630952D01*
X107418142Y-88583333D01*
X107656238Y-88583333D01*
X107751476Y-88630952D01*
X107799095Y-88678571D01*
X107846714Y-88773809D01*
X107846714Y-89011904D01*
X107799095Y-89107142D01*
X107751476Y-89154761D01*
X107656238Y-89202380D01*
X107418142Y-89202380D01*
X107322904Y-89154761D01*
X107275285Y-89107142D01*
X80160904Y-89329380D02*
X80160904Y-88329380D01*
X80399000Y-88329380D01*
X80541857Y-88377000D01*
X80637095Y-88472238D01*
X80684714Y-88567476D01*
X80732333Y-88757952D01*
X80732333Y-88900809D01*
X80684714Y-89091285D01*
X80637095Y-89186523D01*
X80541857Y-89281761D01*
X80399000Y-89329380D01*
X80160904Y-89329380D01*
X81589476Y-88662714D02*
X81589476Y-89329380D01*
X81351380Y-88281761D02*
X81113285Y-88996047D01*
X81732333Y-88996047D01*
X106322904Y-62151380D02*
X106322904Y-61151380D01*
X106561000Y-61151380D01*
X106703857Y-61199000D01*
X106799095Y-61294238D01*
X106846714Y-61389476D01*
X106894333Y-61579952D01*
X106894333Y-61722809D01*
X106846714Y-61913285D01*
X106799095Y-62008523D01*
X106703857Y-62103761D01*
X106561000Y-62151380D01*
X106322904Y-62151380D01*
X107275285Y-61246619D02*
X107322904Y-61199000D01*
X107418142Y-61151380D01*
X107656238Y-61151380D01*
X107751476Y-61199000D01*
X107799095Y-61246619D01*
X107846714Y-61341857D01*
X107846714Y-61437095D01*
X107799095Y-61579952D01*
X107227666Y-62151380D01*
X107846714Y-62151380D01*
X54125904Y-62151380D02*
X54125904Y-61151380D01*
X54364000Y-61151380D01*
X54506857Y-61199000D01*
X54602095Y-61294238D01*
X54649714Y-61389476D01*
X54697333Y-61579952D01*
X54697333Y-61722809D01*
X54649714Y-61913285D01*
X54602095Y-62008523D01*
X54506857Y-62103761D01*
X54364000Y-62151380D01*
X54125904Y-62151380D01*
X55649714Y-62151380D02*
X55078285Y-62151380D01*
X55364000Y-62151380D02*
X55364000Y-61151380D01*
X55268761Y-61294238D01*
X55173523Y-61389476D01*
X55078285Y-61437095D01*
M02*
