M48
; DRILL file {KiCad (5.1.4-0-10_14)} date 2021 August 15, Sunday 13:31:02
; FORMAT={-:-/ absolute / inch / decimal}
; #@! TF.CreationDate,2021-08-15T13:31:02+02:00
; #@! TF.GenerationSoftware,Kicad,Pcbnew,(5.1.4-0-10_14)
FMAT,2
INCH
T1C0.0157
T2C0.0315
T3C0.0354
T4C0.0394
T5C0.0433
T6C0.0591
%
G90
G05
T1
X2.915Y-3.305
X2.915Y-3.345
X3.05Y-3.165
X3.085Y-3.135
X3.455Y-2.81
X3.485Y-2.8
T2
X2.76Y-2.625
X2.76Y-2.925
X2.86Y-2.625
X2.86Y-2.925
X2.96Y-2.625
X2.96Y-2.925
X3.06Y-2.625
X3.06Y-2.925
X3.16Y-2.625
X3.26Y-2.625
X3.26Y-2.925
X3.36Y-2.625
X3.36Y-2.925
X2.39Y-3.35
X2.79Y-3.35
X3.33Y-3.255
X3.73Y-3.255
X2.39Y-3.17
X2.79Y-3.17
X3.33Y-3.115
X3.73Y-3.115
X4.015Y-2.83
X4.015Y-3.23
X2.21Y-2.83
X2.21Y-3.23
X3.33Y-3.395
X3.73Y-3.395
X3.16Y-2.925
T3
X3.135Y-3.655
X3.235Y-3.655
X2.11Y-4.715
X2.21Y-4.715
X2.11Y-3.65
X2.21Y-3.65
X2.11Y-2.585
X2.21Y-2.585
X4.165Y-3.65
X4.265Y-3.65
X4.165Y-4.715
X4.265Y-4.715
X4.165Y-2.585
X4.265Y-2.585
T4
X3.585Y-2.67
X3.585Y-2.77
X3.585Y-2.87
X3.685Y-2.67
X3.685Y-2.77
X3.685Y-2.87
T5
X2.385Y-4.075
X2.385Y-4.2522
X2.6409Y-4.075
X2.6409Y-4.2522
T6
X2.97Y-4.315
X3.7767Y-4.315
T0
M30
