G04 #@! TF.GenerationSoftware,KiCad,Pcbnew,(5.1.4-0-10_14)*
G04 #@! TF.CreationDate,2021-08-15T13:31:00+02:00*
G04 #@! TF.ProjectId,avrCubeRev2,61767243-7562-4655-9265-76322e6b6963,rev?*
G04 #@! TF.SameCoordinates,Original*
G04 #@! TF.FileFunction,Copper,L2,Bot*
G04 #@! TF.FilePolarity,Positive*
%FSLAX46Y46*%
G04 Gerber Fmt 4.6, Leading zero omitted, Abs format (unit mm)*
G04 Created by KiCad (PCBNEW (5.1.4-0-10_14)) date 2021-08-15 13:31:00*
%MOMM*%
%LPD*%
G04 APERTURE LIST*
%ADD10C,1.600000*%
%ADD11O,1.600000X1.600000*%
%ADD12R,1.800000X1.800000*%
%ADD13C,1.800000*%
%ADD14R,3.000000X3.000000*%
%ADD15C,3.000000*%
%ADD16R,1.600000X2.400000*%
%ADD17O,1.600000X2.400000*%
%ADD18R,1.700000X1.700000*%
%ADD19O,1.700000X1.700000*%
%ADD20R,0.700000X0.250000*%
%ADD21C,2.000000*%
%ADD22R,0.500000X0.900000*%
%ADD23R,0.800000X0.750000*%
%ADD24R,0.750000X0.800000*%
%ADD25C,0.800000*%
%ADD26C,0.215900*%
%ADD27C,0.381000*%
%ADD28C,0.250000*%
%ADD29C,0.254000*%
G04 APERTURE END LIST*
D10*
X94742000Y-82677000D03*
D11*
X84582000Y-82677000D03*
D12*
X53594000Y-92710000D03*
D13*
X56134000Y-92710000D03*
D14*
X75438000Y-109601000D03*
D15*
X95928000Y-109601000D03*
D16*
X70104000Y-74295000D03*
D17*
X85344000Y-66675000D03*
X72644000Y-74295000D03*
X82804000Y-66675000D03*
X75184000Y-74295000D03*
X80264000Y-66675000D03*
X77724000Y-74295000D03*
X77724000Y-66675000D03*
X80264000Y-74295000D03*
X75184000Y-66675000D03*
X82804000Y-74295000D03*
X72644000Y-66675000D03*
X85344000Y-74295000D03*
X70104000Y-66675000D03*
D18*
X91059000Y-67818000D03*
D19*
X93599000Y-67818000D03*
X91059000Y-70358000D03*
X93599000Y-70358000D03*
X91059000Y-72898000D03*
X93599000Y-72898000D03*
D20*
X77051000Y-86144000D03*
X77051000Y-85744000D03*
X77051000Y-85344000D03*
X77051000Y-84944000D03*
X77051000Y-84544000D03*
X78651000Y-84544000D03*
X78651000Y-84944000D03*
X78651000Y-85344000D03*
X78651000Y-85744000D03*
X78651000Y-86144000D03*
D21*
X60579000Y-108005000D03*
X60579000Y-103505000D03*
X67079000Y-108005000D03*
X67079000Y-103505000D03*
D22*
X89420000Y-76581000D03*
X90920000Y-76581000D03*
D10*
X94742000Y-86233000D03*
D11*
X84582000Y-86233000D03*
D10*
X60706000Y-85090000D03*
D11*
X70866000Y-85090000D03*
D10*
X94742000Y-79121000D03*
D11*
X84582000Y-79121000D03*
D10*
X60706000Y-80518000D03*
D11*
X70866000Y-80518000D03*
D10*
X101981000Y-71882000D03*
D11*
X101981000Y-82042000D03*
D10*
X56134000Y-71882000D03*
D11*
X56134000Y-82042000D03*
D12*
X105791000Y-119761000D03*
D13*
X108331000Y-119761000D03*
D12*
X53594000Y-119761000D03*
D13*
X56134000Y-119761000D03*
D12*
X105791000Y-92710000D03*
D13*
X108331000Y-92710000D03*
D12*
X79629000Y-92837000D03*
D13*
X82169000Y-92837000D03*
D12*
X105791000Y-65659000D03*
D13*
X108331000Y-65659000D03*
D12*
X53594000Y-65659000D03*
D13*
X56134000Y-65659000D03*
D23*
X78601000Y-81915000D03*
X77101000Y-81915000D03*
D24*
X72517000Y-88253000D03*
X72517000Y-86753000D03*
X73914000Y-88253000D03*
X73914000Y-86753000D03*
X68707000Y-69735000D03*
X68707000Y-71235000D03*
X70104000Y-69735000D03*
X70104000Y-71235000D03*
D25*
X88519000Y-71120000D03*
X78359000Y-79629000D03*
X77470000Y-80391000D03*
X87757000Y-71374000D03*
X74041000Y-83947000D03*
X74041000Y-84963000D03*
D26*
X68707000Y-69735000D02*
X70104000Y-69735000D01*
X78024861Y-85830827D02*
X78024861Y-86660861D01*
X78111688Y-85744000D02*
X78024861Y-85830827D01*
X78651000Y-85744000D02*
X78111688Y-85744000D01*
X78024861Y-86660861D02*
X78359000Y-86995000D01*
X78651000Y-84944000D02*
X78651000Y-84544000D01*
D27*
X72505000Y-86741000D02*
X72517000Y-86753000D01*
X72517000Y-86753000D02*
X73914000Y-86753000D01*
D26*
X77051000Y-86484900D02*
X77051000Y-86144000D01*
X76782900Y-86753000D02*
X77051000Y-86484900D01*
X73914000Y-86753000D02*
X76782900Y-86753000D01*
X70104000Y-71850900D02*
X70104000Y-74295000D01*
X70104000Y-71235000D02*
X70104000Y-71850900D01*
X68707000Y-71235000D02*
X70104000Y-71235000D01*
X77724000Y-74695000D02*
X77724000Y-74295000D01*
D27*
X71761000Y-86753000D02*
X72517000Y-86753000D01*
X71374000Y-87140000D02*
X71761000Y-86753000D01*
X71374000Y-88587902D02*
X71374000Y-87140000D01*
D26*
X77616900Y-86144000D02*
X77051000Y-86144000D01*
X77658951Y-86101949D02*
X77616900Y-86144000D01*
X77658951Y-85471000D02*
X77658951Y-86101949D01*
X77785951Y-85344000D02*
X77658951Y-85471000D01*
X78651000Y-85344000D02*
X77785951Y-85344000D01*
D27*
X71374000Y-88587902D02*
X75438000Y-92651902D01*
X75438000Y-92651902D02*
X75438000Y-109601000D01*
X69725499Y-85637441D02*
X71228058Y-87140000D01*
X69725499Y-76254501D02*
X69725499Y-85637441D01*
X70104000Y-75876000D02*
X69725499Y-76254501D01*
X71228058Y-87140000D02*
X71374000Y-87140000D01*
X70104000Y-74295000D02*
X70104000Y-75876000D01*
X90515481Y-64734481D02*
X92749001Y-66968001D01*
X70031595Y-64734481D02*
X90515481Y-64734481D01*
X67991499Y-73363499D02*
X67991499Y-66774577D01*
X68923000Y-74295000D02*
X67991499Y-73363499D01*
X92749001Y-66968001D02*
X93599000Y-67818000D01*
X67991499Y-66774577D02*
X70031595Y-64734481D01*
X70104000Y-74295000D02*
X68923000Y-74295000D01*
D26*
X76485100Y-84944000D02*
X77051000Y-84944000D01*
X76327000Y-84785900D02*
X76485100Y-84944000D01*
X76327000Y-82073100D02*
X76327000Y-84785900D01*
X76485100Y-81915000D02*
X76327000Y-82073100D01*
X77101000Y-81915000D02*
X76485100Y-81915000D01*
D28*
X85381999Y-78321001D02*
X84582000Y-79121000D01*
X86419010Y-77283990D02*
X85381999Y-78321001D01*
X86419010Y-73449717D02*
X86419010Y-77283990D01*
X84074000Y-66024707D02*
X84074000Y-71104707D01*
X84074000Y-71104707D02*
X86419010Y-73449717D01*
X83249283Y-65199990D02*
X84074000Y-66024707D01*
X80264000Y-66275000D02*
X81339010Y-65199990D01*
X81339010Y-65199990D02*
X83249283Y-65199990D01*
X80264000Y-66675000D02*
X80264000Y-66275000D01*
X86995000Y-80264000D02*
X84582000Y-82677000D01*
X86995000Y-68726000D02*
X86995000Y-80264000D01*
X85344000Y-67075000D02*
X85344000Y-66675000D01*
X86995000Y-68726000D02*
X85344000Y-67075000D01*
D27*
X75184000Y-78105000D02*
X75184000Y-74295000D01*
X74041000Y-79248000D02*
X75184000Y-78105000D01*
X74041000Y-83947000D02*
X74041000Y-79248000D01*
X74041000Y-83947000D02*
X74041000Y-84963000D01*
D26*
X75961090Y-85219990D02*
X75961090Y-75803910D01*
X76485100Y-85744000D02*
X75961090Y-85219990D01*
X77051000Y-85744000D02*
X76485100Y-85744000D01*
X75961090Y-75803910D02*
X76454000Y-75311000D01*
X82804000Y-67075000D02*
X82804000Y-66675000D01*
X76454000Y-73425000D02*
X82804000Y-67075000D01*
X76454000Y-75311000D02*
X76454000Y-73425000D01*
X79740910Y-80298090D02*
X79740910Y-85619990D01*
X79216900Y-86144000D02*
X78651000Y-86144000D01*
X79740910Y-85619990D02*
X79216900Y-86144000D01*
X85344000Y-74695000D02*
X79740910Y-80298090D01*
X85344000Y-74295000D02*
X85344000Y-74695000D01*
X91059000Y-76442000D02*
X90920000Y-76581000D01*
X91059000Y-72898000D02*
X91059000Y-76442000D01*
D27*
X88789000Y-76581000D02*
X89420000Y-76581000D01*
X87884000Y-75676000D02*
X88789000Y-76581000D01*
D28*
X87757000Y-75549000D02*
X87884000Y-75676000D01*
X87757000Y-71374000D02*
X87757000Y-75549000D01*
X88011000Y-71120000D02*
X87757000Y-71374000D01*
X88519000Y-71120000D02*
X88011000Y-71120000D01*
D29*
G36*
X111354001Y-124054000D02*
G01*
X50571000Y-124054000D01*
X50571000Y-120661000D01*
X52055928Y-120661000D01*
X52068188Y-120785482D01*
X52104498Y-120905180D01*
X52163463Y-121015494D01*
X52242815Y-121112185D01*
X52339506Y-121191537D01*
X52449820Y-121250502D01*
X52569518Y-121286812D01*
X52694000Y-121299072D01*
X53308250Y-121296000D01*
X53467000Y-121137250D01*
X53467000Y-119888000D01*
X52217750Y-119888000D01*
X52059000Y-120046750D01*
X52055928Y-120661000D01*
X50571000Y-120661000D01*
X50571000Y-118861000D01*
X52055928Y-118861000D01*
X52059000Y-119475250D01*
X52217750Y-119634000D01*
X53467000Y-119634000D01*
X53467000Y-118384750D01*
X53721000Y-118384750D01*
X53721000Y-119634000D01*
X53741000Y-119634000D01*
X53741000Y-119888000D01*
X53721000Y-119888000D01*
X53721000Y-121137250D01*
X53879750Y-121296000D01*
X54494000Y-121299072D01*
X54618482Y-121286812D01*
X54738180Y-121250502D01*
X54848494Y-121191537D01*
X54945185Y-121112185D01*
X55024537Y-121015494D01*
X55083502Y-120905180D01*
X55119812Y-120785482D01*
X55132072Y-120661000D01*
X55131600Y-120566541D01*
X55138982Y-120577590D01*
X55317410Y-120756018D01*
X55527219Y-120896207D01*
X55760346Y-120992772D01*
X56007833Y-121042000D01*
X56260167Y-121042000D01*
X56507654Y-120992772D01*
X56740781Y-120896207D01*
X56950590Y-120756018D01*
X57045608Y-120661000D01*
X104252928Y-120661000D01*
X104265188Y-120785482D01*
X104301498Y-120905180D01*
X104360463Y-121015494D01*
X104439815Y-121112185D01*
X104536506Y-121191537D01*
X104646820Y-121250502D01*
X104766518Y-121286812D01*
X104891000Y-121299072D01*
X105505250Y-121296000D01*
X105664000Y-121137250D01*
X105664000Y-119888000D01*
X104414750Y-119888000D01*
X104256000Y-120046750D01*
X104252928Y-120661000D01*
X57045608Y-120661000D01*
X57129018Y-120577590D01*
X57269207Y-120367781D01*
X57365772Y-120134654D01*
X57415000Y-119887167D01*
X57415000Y-119634833D01*
X57365772Y-119387346D01*
X57269207Y-119154219D01*
X57129018Y-118944410D01*
X57045608Y-118861000D01*
X104252928Y-118861000D01*
X104256000Y-119475250D01*
X104414750Y-119634000D01*
X105664000Y-119634000D01*
X105664000Y-118384750D01*
X105918000Y-118384750D01*
X105918000Y-119634000D01*
X105938000Y-119634000D01*
X105938000Y-119888000D01*
X105918000Y-119888000D01*
X105918000Y-121137250D01*
X106076750Y-121296000D01*
X106691000Y-121299072D01*
X106815482Y-121286812D01*
X106935180Y-121250502D01*
X107045494Y-121191537D01*
X107142185Y-121112185D01*
X107221537Y-121015494D01*
X107280502Y-120905180D01*
X107316812Y-120785482D01*
X107329072Y-120661000D01*
X107328600Y-120566541D01*
X107335982Y-120577590D01*
X107514410Y-120756018D01*
X107724219Y-120896207D01*
X107957346Y-120992772D01*
X108204833Y-121042000D01*
X108457167Y-121042000D01*
X108704654Y-120992772D01*
X108937781Y-120896207D01*
X109147590Y-120756018D01*
X109326018Y-120577590D01*
X109466207Y-120367781D01*
X109562772Y-120134654D01*
X109612000Y-119887167D01*
X109612000Y-119634833D01*
X109562772Y-119387346D01*
X109466207Y-119154219D01*
X109326018Y-118944410D01*
X109147590Y-118765982D01*
X108937781Y-118625793D01*
X108704654Y-118529228D01*
X108457167Y-118480000D01*
X108204833Y-118480000D01*
X107957346Y-118529228D01*
X107724219Y-118625793D01*
X107514410Y-118765982D01*
X107335982Y-118944410D01*
X107328600Y-118955459D01*
X107329072Y-118861000D01*
X107316812Y-118736518D01*
X107280502Y-118616820D01*
X107221537Y-118506506D01*
X107142185Y-118409815D01*
X107045494Y-118330463D01*
X106935180Y-118271498D01*
X106815482Y-118235188D01*
X106691000Y-118222928D01*
X106076750Y-118226000D01*
X105918000Y-118384750D01*
X105664000Y-118384750D01*
X105505250Y-118226000D01*
X104891000Y-118222928D01*
X104766518Y-118235188D01*
X104646820Y-118271498D01*
X104536506Y-118330463D01*
X104439815Y-118409815D01*
X104360463Y-118506506D01*
X104301498Y-118616820D01*
X104265188Y-118736518D01*
X104252928Y-118861000D01*
X57045608Y-118861000D01*
X56950590Y-118765982D01*
X56740781Y-118625793D01*
X56507654Y-118529228D01*
X56260167Y-118480000D01*
X56007833Y-118480000D01*
X55760346Y-118529228D01*
X55527219Y-118625793D01*
X55317410Y-118765982D01*
X55138982Y-118944410D01*
X55131600Y-118955459D01*
X55132072Y-118861000D01*
X55119812Y-118736518D01*
X55083502Y-118616820D01*
X55024537Y-118506506D01*
X54945185Y-118409815D01*
X54848494Y-118330463D01*
X54738180Y-118271498D01*
X54618482Y-118235188D01*
X54494000Y-118222928D01*
X53879750Y-118226000D01*
X53721000Y-118384750D01*
X53467000Y-118384750D01*
X53308250Y-118226000D01*
X52694000Y-118222928D01*
X52569518Y-118235188D01*
X52449820Y-118271498D01*
X52339506Y-118330463D01*
X52242815Y-118409815D01*
X52163463Y-118506506D01*
X52104498Y-118616820D01*
X52068188Y-118736518D01*
X52055928Y-118861000D01*
X50571000Y-118861000D01*
X50571000Y-109140413D01*
X59623192Y-109140413D01*
X59718956Y-109404814D01*
X60008571Y-109545704D01*
X60320108Y-109627384D01*
X60641595Y-109646718D01*
X60960675Y-109602961D01*
X61265088Y-109497795D01*
X61439044Y-109404814D01*
X61534808Y-109140413D01*
X66123192Y-109140413D01*
X66218956Y-109404814D01*
X66508571Y-109545704D01*
X66820108Y-109627384D01*
X67141595Y-109646718D01*
X67460675Y-109602961D01*
X67765088Y-109497795D01*
X67939044Y-109404814D01*
X68034808Y-109140413D01*
X67079000Y-108184605D01*
X66123192Y-109140413D01*
X61534808Y-109140413D01*
X60579000Y-108184605D01*
X59623192Y-109140413D01*
X50571000Y-109140413D01*
X50571000Y-108067595D01*
X58937282Y-108067595D01*
X58981039Y-108386675D01*
X59086205Y-108691088D01*
X59179186Y-108865044D01*
X59443587Y-108960808D01*
X60399395Y-108005000D01*
X60758605Y-108005000D01*
X61714413Y-108960808D01*
X61978814Y-108865044D01*
X62119704Y-108575429D01*
X62201384Y-108263892D01*
X62213189Y-108067595D01*
X65437282Y-108067595D01*
X65481039Y-108386675D01*
X65586205Y-108691088D01*
X65679186Y-108865044D01*
X65943587Y-108960808D01*
X66899395Y-108005000D01*
X67258605Y-108005000D01*
X68214413Y-108960808D01*
X68478814Y-108865044D01*
X68619704Y-108575429D01*
X68701384Y-108263892D01*
X68720718Y-107942405D01*
X68676961Y-107623325D01*
X68571795Y-107318912D01*
X68478814Y-107144956D01*
X68214413Y-107049192D01*
X67258605Y-108005000D01*
X66899395Y-108005000D01*
X65943587Y-107049192D01*
X65679186Y-107144956D01*
X65538296Y-107434571D01*
X65456616Y-107746108D01*
X65437282Y-108067595D01*
X62213189Y-108067595D01*
X62220718Y-107942405D01*
X62176961Y-107623325D01*
X62071795Y-107318912D01*
X61978814Y-107144956D01*
X61714413Y-107049192D01*
X60758605Y-108005000D01*
X60399395Y-108005000D01*
X59443587Y-107049192D01*
X59179186Y-107144956D01*
X59038296Y-107434571D01*
X58956616Y-107746108D01*
X58937282Y-108067595D01*
X50571000Y-108067595D01*
X50571000Y-106869587D01*
X59623192Y-106869587D01*
X60579000Y-107825395D01*
X61534808Y-106869587D01*
X66123192Y-106869587D01*
X67079000Y-107825395D01*
X68034808Y-106869587D01*
X67939044Y-106605186D01*
X67649429Y-106464296D01*
X67337892Y-106382616D01*
X67016405Y-106363282D01*
X66697325Y-106407039D01*
X66392912Y-106512205D01*
X66218956Y-106605186D01*
X66123192Y-106869587D01*
X61534808Y-106869587D01*
X61439044Y-106605186D01*
X61149429Y-106464296D01*
X60837892Y-106382616D01*
X60516405Y-106363282D01*
X60197325Y-106407039D01*
X59892912Y-106512205D01*
X59718956Y-106605186D01*
X59623192Y-106869587D01*
X50571000Y-106869587D01*
X50571000Y-103368983D01*
X59198000Y-103368983D01*
X59198000Y-103641017D01*
X59251071Y-103907823D01*
X59355174Y-104159149D01*
X59506307Y-104385336D01*
X59698664Y-104577693D01*
X59924851Y-104728826D01*
X60176177Y-104832929D01*
X60442983Y-104886000D01*
X60715017Y-104886000D01*
X60981823Y-104832929D01*
X61233149Y-104728826D01*
X61459336Y-104577693D01*
X61651693Y-104385336D01*
X61802826Y-104159149D01*
X61906929Y-103907823D01*
X61960000Y-103641017D01*
X61960000Y-103368983D01*
X65698000Y-103368983D01*
X65698000Y-103641017D01*
X65751071Y-103907823D01*
X65855174Y-104159149D01*
X66006307Y-104385336D01*
X66198664Y-104577693D01*
X66424851Y-104728826D01*
X66676177Y-104832929D01*
X66942983Y-104886000D01*
X67215017Y-104886000D01*
X67481823Y-104832929D01*
X67733149Y-104728826D01*
X67959336Y-104577693D01*
X68151693Y-104385336D01*
X68302826Y-104159149D01*
X68406929Y-103907823D01*
X68460000Y-103641017D01*
X68460000Y-103368983D01*
X68406929Y-103102177D01*
X68302826Y-102850851D01*
X68151693Y-102624664D01*
X67959336Y-102432307D01*
X67733149Y-102281174D01*
X67481823Y-102177071D01*
X67215017Y-102124000D01*
X66942983Y-102124000D01*
X66676177Y-102177071D01*
X66424851Y-102281174D01*
X66198664Y-102432307D01*
X66006307Y-102624664D01*
X65855174Y-102850851D01*
X65751071Y-103102177D01*
X65698000Y-103368983D01*
X61960000Y-103368983D01*
X61906929Y-103102177D01*
X61802826Y-102850851D01*
X61651693Y-102624664D01*
X61459336Y-102432307D01*
X61233149Y-102281174D01*
X60981823Y-102177071D01*
X60715017Y-102124000D01*
X60442983Y-102124000D01*
X60176177Y-102177071D01*
X59924851Y-102281174D01*
X59698664Y-102432307D01*
X59506307Y-102624664D01*
X59355174Y-102850851D01*
X59251071Y-103102177D01*
X59198000Y-103368983D01*
X50571000Y-103368983D01*
X50571000Y-93610000D01*
X52055928Y-93610000D01*
X52068188Y-93734482D01*
X52104498Y-93854180D01*
X52163463Y-93964494D01*
X52242815Y-94061185D01*
X52339506Y-94140537D01*
X52449820Y-94199502D01*
X52569518Y-94235812D01*
X52694000Y-94248072D01*
X53308250Y-94245000D01*
X53467000Y-94086250D01*
X53467000Y-92837000D01*
X52217750Y-92837000D01*
X52059000Y-92995750D01*
X52055928Y-93610000D01*
X50571000Y-93610000D01*
X50571000Y-91810000D01*
X52055928Y-91810000D01*
X52059000Y-92424250D01*
X52217750Y-92583000D01*
X53467000Y-92583000D01*
X53467000Y-91333750D01*
X53721000Y-91333750D01*
X53721000Y-92583000D01*
X53741000Y-92583000D01*
X53741000Y-92837000D01*
X53721000Y-92837000D01*
X53721000Y-94086250D01*
X53879750Y-94245000D01*
X54494000Y-94248072D01*
X54618482Y-94235812D01*
X54738180Y-94199502D01*
X54848494Y-94140537D01*
X54945185Y-94061185D01*
X55024537Y-93964494D01*
X55083502Y-93854180D01*
X55119812Y-93734482D01*
X55132072Y-93610000D01*
X55131600Y-93515541D01*
X55138982Y-93526590D01*
X55317410Y-93705018D01*
X55527219Y-93845207D01*
X55760346Y-93941772D01*
X56007833Y-93991000D01*
X56260167Y-93991000D01*
X56507654Y-93941772D01*
X56740781Y-93845207D01*
X56950590Y-93705018D01*
X57129018Y-93526590D01*
X57269207Y-93316781D01*
X57365772Y-93083654D01*
X57415000Y-92836167D01*
X57415000Y-92583833D01*
X57365772Y-92336346D01*
X57269207Y-92103219D01*
X57129018Y-91893410D01*
X56950590Y-91714982D01*
X56740781Y-91574793D01*
X56507654Y-91478228D01*
X56260167Y-91429000D01*
X56007833Y-91429000D01*
X55760346Y-91478228D01*
X55527219Y-91574793D01*
X55317410Y-91714982D01*
X55138982Y-91893410D01*
X55131600Y-91904459D01*
X55132072Y-91810000D01*
X55119812Y-91685518D01*
X55083502Y-91565820D01*
X55024537Y-91455506D01*
X54945185Y-91358815D01*
X54848494Y-91279463D01*
X54738180Y-91220498D01*
X54618482Y-91184188D01*
X54494000Y-91171928D01*
X53879750Y-91175000D01*
X53721000Y-91333750D01*
X53467000Y-91333750D01*
X53308250Y-91175000D01*
X52694000Y-91171928D01*
X52569518Y-91184188D01*
X52449820Y-91220498D01*
X52339506Y-91279463D01*
X52242815Y-91358815D01*
X52163463Y-91455506D01*
X52104498Y-91565820D01*
X52068188Y-91685518D01*
X52055928Y-91810000D01*
X50571000Y-91810000D01*
X50571000Y-84973682D01*
X59525000Y-84973682D01*
X59525000Y-85206318D01*
X59570386Y-85434485D01*
X59659412Y-85649413D01*
X59788658Y-85842843D01*
X59953157Y-86007342D01*
X60146587Y-86136588D01*
X60361515Y-86225614D01*
X60589682Y-86271000D01*
X60822318Y-86271000D01*
X61050485Y-86225614D01*
X61265413Y-86136588D01*
X61458843Y-86007342D01*
X61623342Y-85842843D01*
X61752588Y-85649413D01*
X61841614Y-85434485D01*
X61887000Y-85206318D01*
X61887000Y-84973682D01*
X61841614Y-84745515D01*
X61752588Y-84530587D01*
X61623342Y-84337157D01*
X61458843Y-84172658D01*
X61265413Y-84043412D01*
X61050485Y-83954386D01*
X60822318Y-83909000D01*
X60589682Y-83909000D01*
X60361515Y-83954386D01*
X60146587Y-84043412D01*
X59953157Y-84172658D01*
X59788658Y-84337157D01*
X59659412Y-84530587D01*
X59570386Y-84745515D01*
X59525000Y-84973682D01*
X50571000Y-84973682D01*
X50571000Y-82042000D01*
X54947286Y-82042000D01*
X54970088Y-82273516D01*
X55037619Y-82496136D01*
X55147283Y-82701303D01*
X55294866Y-82881134D01*
X55474697Y-83028717D01*
X55679864Y-83138381D01*
X55902484Y-83205912D01*
X56075984Y-83223000D01*
X56192016Y-83223000D01*
X56365516Y-83205912D01*
X56588136Y-83138381D01*
X56793303Y-83028717D01*
X56973134Y-82881134D01*
X57120717Y-82701303D01*
X57230381Y-82496136D01*
X57297912Y-82273516D01*
X57320714Y-82042000D01*
X57297912Y-81810484D01*
X57230381Y-81587864D01*
X57120717Y-81382697D01*
X56973134Y-81202866D01*
X56793303Y-81055283D01*
X56588136Y-80945619D01*
X56365516Y-80878088D01*
X56192016Y-80861000D01*
X56075984Y-80861000D01*
X55902484Y-80878088D01*
X55679864Y-80945619D01*
X55474697Y-81055283D01*
X55294866Y-81202866D01*
X55147283Y-81382697D01*
X55037619Y-81587864D01*
X54970088Y-81810484D01*
X54947286Y-82042000D01*
X50571000Y-82042000D01*
X50571000Y-80401682D01*
X59525000Y-80401682D01*
X59525000Y-80634318D01*
X59570386Y-80862485D01*
X59659412Y-81077413D01*
X59788658Y-81270843D01*
X59953157Y-81435342D01*
X60146587Y-81564588D01*
X60361515Y-81653614D01*
X60589682Y-81699000D01*
X60822318Y-81699000D01*
X61050485Y-81653614D01*
X61265413Y-81564588D01*
X61458843Y-81435342D01*
X61623342Y-81270843D01*
X61752588Y-81077413D01*
X61841614Y-80862485D01*
X61887000Y-80634318D01*
X61887000Y-80401682D01*
X61841614Y-80173515D01*
X61752588Y-79958587D01*
X61623342Y-79765157D01*
X61458843Y-79600658D01*
X61265413Y-79471412D01*
X61050485Y-79382386D01*
X60822318Y-79337000D01*
X60589682Y-79337000D01*
X60361515Y-79382386D01*
X60146587Y-79471412D01*
X59953157Y-79600658D01*
X59788658Y-79765157D01*
X59659412Y-79958587D01*
X59570386Y-80173515D01*
X59525000Y-80401682D01*
X50571000Y-80401682D01*
X50571000Y-71765682D01*
X54953000Y-71765682D01*
X54953000Y-71998318D01*
X54998386Y-72226485D01*
X55087412Y-72441413D01*
X55216658Y-72634843D01*
X55381157Y-72799342D01*
X55574587Y-72928588D01*
X55789515Y-73017614D01*
X56017682Y-73063000D01*
X56250318Y-73063000D01*
X56478485Y-73017614D01*
X56693413Y-72928588D01*
X56886843Y-72799342D01*
X57051342Y-72634843D01*
X57180588Y-72441413D01*
X57269614Y-72226485D01*
X57315000Y-71998318D01*
X57315000Y-71765682D01*
X57269614Y-71537515D01*
X57180588Y-71322587D01*
X57051342Y-71129157D01*
X56886843Y-70964658D01*
X56693413Y-70835412D01*
X56478485Y-70746386D01*
X56250318Y-70701000D01*
X56017682Y-70701000D01*
X55789515Y-70746386D01*
X55574587Y-70835412D01*
X55381157Y-70964658D01*
X55216658Y-71129157D01*
X55087412Y-71322587D01*
X54998386Y-71537515D01*
X54953000Y-71765682D01*
X50571000Y-71765682D01*
X50571000Y-66559000D01*
X52055928Y-66559000D01*
X52068188Y-66683482D01*
X52104498Y-66803180D01*
X52163463Y-66913494D01*
X52242815Y-67010185D01*
X52339506Y-67089537D01*
X52449820Y-67148502D01*
X52569518Y-67184812D01*
X52694000Y-67197072D01*
X53308250Y-67194000D01*
X53467000Y-67035250D01*
X53467000Y-65786000D01*
X52217750Y-65786000D01*
X52059000Y-65944750D01*
X52055928Y-66559000D01*
X50571000Y-66559000D01*
X50571000Y-64759000D01*
X52055928Y-64759000D01*
X52059000Y-65373250D01*
X52217750Y-65532000D01*
X53467000Y-65532000D01*
X53467000Y-64282750D01*
X53721000Y-64282750D01*
X53721000Y-65532000D01*
X53741000Y-65532000D01*
X53741000Y-65786000D01*
X53721000Y-65786000D01*
X53721000Y-67035250D01*
X53879750Y-67194000D01*
X54494000Y-67197072D01*
X54618482Y-67184812D01*
X54738180Y-67148502D01*
X54848494Y-67089537D01*
X54945185Y-67010185D01*
X55024537Y-66913494D01*
X55083502Y-66803180D01*
X55119812Y-66683482D01*
X55132072Y-66559000D01*
X55131600Y-66464541D01*
X55138982Y-66475590D01*
X55317410Y-66654018D01*
X55527219Y-66794207D01*
X55760346Y-66890772D01*
X56007833Y-66940000D01*
X56260167Y-66940000D01*
X56507654Y-66890772D01*
X56740781Y-66794207D01*
X56770159Y-66774577D01*
X67417234Y-66774577D01*
X67420000Y-66802661D01*
X67419999Y-73335425D01*
X67417234Y-73363499D01*
X67419999Y-73391572D01*
X67428268Y-73475532D01*
X67460947Y-73583260D01*
X67514015Y-73682543D01*
X67585432Y-73769566D01*
X67607247Y-73787469D01*
X68499034Y-74679257D01*
X68516933Y-74701067D01*
X68603955Y-74772484D01*
X68703238Y-74825552D01*
X68810966Y-74858231D01*
X68894926Y-74866500D01*
X68894927Y-74866500D01*
X68921157Y-74869084D01*
X68921157Y-75495000D01*
X68928513Y-75569689D01*
X68950299Y-75641508D01*
X68985678Y-75707696D01*
X69033289Y-75765711D01*
X69091304Y-75813322D01*
X69157492Y-75848701D01*
X69229311Y-75870487D01*
X69295948Y-75877050D01*
X69270116Y-75908527D01*
X69248015Y-75935457D01*
X69194947Y-76034740D01*
X69162268Y-76142468D01*
X69151234Y-76254501D01*
X69153999Y-76282575D01*
X69154000Y-85609357D01*
X69151234Y-85637441D01*
X69162268Y-85749474D01*
X69194947Y-85857202D01*
X69248015Y-85956485D01*
X69259235Y-85970157D01*
X69319433Y-86043508D01*
X69341243Y-86061407D01*
X70802501Y-87522666D01*
X70802500Y-88559827D01*
X70799735Y-88587902D01*
X70802500Y-88615975D01*
X70810769Y-88699935D01*
X70843448Y-88807663D01*
X70896516Y-88906946D01*
X70967933Y-88993969D01*
X70989748Y-89011872D01*
X74866500Y-92888625D01*
X74866501Y-107718157D01*
X73938000Y-107718157D01*
X73863311Y-107725513D01*
X73791492Y-107747299D01*
X73725304Y-107782678D01*
X73667289Y-107830289D01*
X73619678Y-107888304D01*
X73584299Y-107954492D01*
X73562513Y-108026311D01*
X73555157Y-108101000D01*
X73555157Y-111101000D01*
X73562513Y-111175689D01*
X73584299Y-111247508D01*
X73619678Y-111313696D01*
X73667289Y-111371711D01*
X73725304Y-111419322D01*
X73791492Y-111454701D01*
X73863311Y-111476487D01*
X73938000Y-111483843D01*
X76938000Y-111483843D01*
X77012689Y-111476487D01*
X77084508Y-111454701D01*
X77150696Y-111419322D01*
X77208711Y-111371711D01*
X77256322Y-111313696D01*
X77291701Y-111247508D01*
X77313487Y-111175689D01*
X77320843Y-111101000D01*
X77320843Y-111092653D01*
X94615952Y-111092653D01*
X94771962Y-111408214D01*
X95146745Y-111599020D01*
X95551551Y-111713044D01*
X95970824Y-111745902D01*
X96388451Y-111696334D01*
X96788383Y-111566243D01*
X97084038Y-111408214D01*
X97240048Y-111092653D01*
X95928000Y-109780605D01*
X94615952Y-111092653D01*
X77320843Y-111092653D01*
X77320843Y-109643824D01*
X93783098Y-109643824D01*
X93832666Y-110061451D01*
X93962757Y-110461383D01*
X94120786Y-110757038D01*
X94436347Y-110913048D01*
X95748395Y-109601000D01*
X96107605Y-109601000D01*
X97419653Y-110913048D01*
X97735214Y-110757038D01*
X97926020Y-110382255D01*
X98040044Y-109977449D01*
X98072902Y-109558176D01*
X98023334Y-109140549D01*
X97893243Y-108740617D01*
X97735214Y-108444962D01*
X97419653Y-108288952D01*
X96107605Y-109601000D01*
X95748395Y-109601000D01*
X94436347Y-108288952D01*
X94120786Y-108444962D01*
X93929980Y-108819745D01*
X93815956Y-109224551D01*
X93783098Y-109643824D01*
X77320843Y-109643824D01*
X77320843Y-108109347D01*
X94615952Y-108109347D01*
X95928000Y-109421395D01*
X97240048Y-108109347D01*
X97084038Y-107793786D01*
X96709255Y-107602980D01*
X96304449Y-107488956D01*
X95885176Y-107456098D01*
X95467549Y-107505666D01*
X95067617Y-107635757D01*
X94771962Y-107793786D01*
X94615952Y-108109347D01*
X77320843Y-108109347D01*
X77320843Y-108101000D01*
X77313487Y-108026311D01*
X77291701Y-107954492D01*
X77256322Y-107888304D01*
X77208711Y-107830289D01*
X77150696Y-107782678D01*
X77084508Y-107747299D01*
X77012689Y-107725513D01*
X76938000Y-107718157D01*
X76009500Y-107718157D01*
X76009500Y-93737000D01*
X78090928Y-93737000D01*
X78103188Y-93861482D01*
X78139498Y-93981180D01*
X78198463Y-94091494D01*
X78277815Y-94188185D01*
X78374506Y-94267537D01*
X78484820Y-94326502D01*
X78604518Y-94362812D01*
X78729000Y-94375072D01*
X79343250Y-94372000D01*
X79502000Y-94213250D01*
X79502000Y-92964000D01*
X78252750Y-92964000D01*
X78094000Y-93122750D01*
X78090928Y-93737000D01*
X76009500Y-93737000D01*
X76009500Y-92679976D01*
X76012265Y-92651902D01*
X76001231Y-92539868D01*
X75968552Y-92432140D01*
X75915484Y-92332857D01*
X75844067Y-92245835D01*
X75822258Y-92227937D01*
X75531321Y-91937000D01*
X78090928Y-91937000D01*
X78094000Y-92551250D01*
X78252750Y-92710000D01*
X79502000Y-92710000D01*
X79502000Y-91460750D01*
X79756000Y-91460750D01*
X79756000Y-92710000D01*
X79776000Y-92710000D01*
X79776000Y-92964000D01*
X79756000Y-92964000D01*
X79756000Y-94213250D01*
X79914750Y-94372000D01*
X80529000Y-94375072D01*
X80653482Y-94362812D01*
X80773180Y-94326502D01*
X80883494Y-94267537D01*
X80980185Y-94188185D01*
X81059537Y-94091494D01*
X81118502Y-93981180D01*
X81154812Y-93861482D01*
X81167072Y-93737000D01*
X81166600Y-93642541D01*
X81173982Y-93653590D01*
X81352410Y-93832018D01*
X81562219Y-93972207D01*
X81795346Y-94068772D01*
X82042833Y-94118000D01*
X82295167Y-94118000D01*
X82542654Y-94068772D01*
X82775781Y-93972207D01*
X82985590Y-93832018D01*
X83164018Y-93653590D01*
X83193143Y-93610000D01*
X104252928Y-93610000D01*
X104265188Y-93734482D01*
X104301498Y-93854180D01*
X104360463Y-93964494D01*
X104439815Y-94061185D01*
X104536506Y-94140537D01*
X104646820Y-94199502D01*
X104766518Y-94235812D01*
X104891000Y-94248072D01*
X105505250Y-94245000D01*
X105664000Y-94086250D01*
X105664000Y-92837000D01*
X104414750Y-92837000D01*
X104256000Y-92995750D01*
X104252928Y-93610000D01*
X83193143Y-93610000D01*
X83304207Y-93443781D01*
X83400772Y-93210654D01*
X83450000Y-92963167D01*
X83450000Y-92710833D01*
X83400772Y-92463346D01*
X83304207Y-92230219D01*
X83164018Y-92020410D01*
X82985590Y-91841982D01*
X82937726Y-91810000D01*
X104252928Y-91810000D01*
X104256000Y-92424250D01*
X104414750Y-92583000D01*
X105664000Y-92583000D01*
X105664000Y-91333750D01*
X105918000Y-91333750D01*
X105918000Y-92583000D01*
X105938000Y-92583000D01*
X105938000Y-92837000D01*
X105918000Y-92837000D01*
X105918000Y-94086250D01*
X106076750Y-94245000D01*
X106691000Y-94248072D01*
X106815482Y-94235812D01*
X106935180Y-94199502D01*
X107045494Y-94140537D01*
X107142185Y-94061185D01*
X107221537Y-93964494D01*
X107280502Y-93854180D01*
X107316812Y-93734482D01*
X107329072Y-93610000D01*
X107328600Y-93515541D01*
X107335982Y-93526590D01*
X107514410Y-93705018D01*
X107724219Y-93845207D01*
X107957346Y-93941772D01*
X108204833Y-93991000D01*
X108457167Y-93991000D01*
X108704654Y-93941772D01*
X108937781Y-93845207D01*
X109147590Y-93705018D01*
X109326018Y-93526590D01*
X109466207Y-93316781D01*
X109562772Y-93083654D01*
X109612000Y-92836167D01*
X109612000Y-92583833D01*
X109562772Y-92336346D01*
X109466207Y-92103219D01*
X109326018Y-91893410D01*
X109147590Y-91714982D01*
X108937781Y-91574793D01*
X108704654Y-91478228D01*
X108457167Y-91429000D01*
X108204833Y-91429000D01*
X107957346Y-91478228D01*
X107724219Y-91574793D01*
X107514410Y-91714982D01*
X107335982Y-91893410D01*
X107328600Y-91904459D01*
X107329072Y-91810000D01*
X107316812Y-91685518D01*
X107280502Y-91565820D01*
X107221537Y-91455506D01*
X107142185Y-91358815D01*
X107045494Y-91279463D01*
X106935180Y-91220498D01*
X106815482Y-91184188D01*
X106691000Y-91171928D01*
X106076750Y-91175000D01*
X105918000Y-91333750D01*
X105664000Y-91333750D01*
X105505250Y-91175000D01*
X104891000Y-91171928D01*
X104766518Y-91184188D01*
X104646820Y-91220498D01*
X104536506Y-91279463D01*
X104439815Y-91358815D01*
X104360463Y-91455506D01*
X104301498Y-91565820D01*
X104265188Y-91685518D01*
X104252928Y-91810000D01*
X82937726Y-91810000D01*
X82775781Y-91701793D01*
X82542654Y-91605228D01*
X82295167Y-91556000D01*
X82042833Y-91556000D01*
X81795346Y-91605228D01*
X81562219Y-91701793D01*
X81352410Y-91841982D01*
X81173982Y-92020410D01*
X81166600Y-92031459D01*
X81167072Y-91937000D01*
X81154812Y-91812518D01*
X81118502Y-91692820D01*
X81059537Y-91582506D01*
X80980185Y-91485815D01*
X80883494Y-91406463D01*
X80773180Y-91347498D01*
X80653482Y-91311188D01*
X80529000Y-91298928D01*
X79914750Y-91302000D01*
X79756000Y-91460750D01*
X79502000Y-91460750D01*
X79343250Y-91302000D01*
X78729000Y-91298928D01*
X78604518Y-91311188D01*
X78484820Y-91347498D01*
X78374506Y-91406463D01*
X78277815Y-91485815D01*
X78198463Y-91582506D01*
X78139498Y-91692820D01*
X78103188Y-91812518D01*
X78090928Y-91937000D01*
X75531321Y-91937000D01*
X72885157Y-89290836D01*
X72892000Y-89291072D01*
X73016482Y-89278812D01*
X73136180Y-89242502D01*
X73215500Y-89200104D01*
X73294820Y-89242502D01*
X73414518Y-89278812D01*
X73539000Y-89291072D01*
X73628250Y-89288000D01*
X73787000Y-89129250D01*
X73787000Y-88380000D01*
X74041000Y-88380000D01*
X74041000Y-89129250D01*
X74199750Y-89288000D01*
X74289000Y-89291072D01*
X74413482Y-89278812D01*
X74533180Y-89242502D01*
X74643494Y-89183537D01*
X74740185Y-89104185D01*
X74819537Y-89007494D01*
X74878502Y-88897180D01*
X74914812Y-88777482D01*
X74927072Y-88653000D01*
X74924000Y-88538750D01*
X74765250Y-88380000D01*
X74041000Y-88380000D01*
X73787000Y-88380000D01*
X72644000Y-88380000D01*
X72644000Y-88400000D01*
X72390000Y-88400000D01*
X72390000Y-88380000D01*
X72370000Y-88380000D01*
X72370000Y-88126000D01*
X72390000Y-88126000D01*
X72390000Y-88106000D01*
X72644000Y-88106000D01*
X72644000Y-88126000D01*
X73787000Y-88126000D01*
X73787000Y-88106000D01*
X74041000Y-88106000D01*
X74041000Y-88126000D01*
X74765250Y-88126000D01*
X74924000Y-87967250D01*
X74927072Y-87853000D01*
X74914812Y-87728518D01*
X74878502Y-87608820D01*
X74819537Y-87498506D01*
X74740185Y-87401815D01*
X74643494Y-87322463D01*
X74633334Y-87317032D01*
X74642701Y-87299508D01*
X74660161Y-87241950D01*
X76758897Y-87241950D01*
X76782900Y-87244314D01*
X76806903Y-87241950D01*
X76806914Y-87241950D01*
X76878751Y-87234875D01*
X76970918Y-87206916D01*
X77055860Y-87161513D01*
X77130312Y-87100412D01*
X77145620Y-87081759D01*
X77379759Y-86847620D01*
X77398412Y-86832312D01*
X77459513Y-86757860D01*
X77459514Y-86757859D01*
X77504916Y-86672919D01*
X77511423Y-86651467D01*
X77517040Y-86632950D01*
X77592897Y-86632950D01*
X77616900Y-86635314D01*
X77640903Y-86632950D01*
X77640914Y-86632950D01*
X77712751Y-86625875D01*
X77804918Y-86597916D01*
X77889860Y-86552513D01*
X77964312Y-86491412D01*
X77978579Y-86474028D01*
X77982678Y-86481696D01*
X78030289Y-86539711D01*
X78088304Y-86587322D01*
X78154492Y-86622701D01*
X78226311Y-86644487D01*
X78301000Y-86651843D01*
X79001000Y-86651843D01*
X79075689Y-86644487D01*
X79113721Y-86632950D01*
X79192897Y-86632950D01*
X79216900Y-86635314D01*
X79240903Y-86632950D01*
X79240914Y-86632950D01*
X79312751Y-86625875D01*
X79404918Y-86597916D01*
X79489860Y-86552513D01*
X79564312Y-86491412D01*
X79579620Y-86472759D01*
X79819379Y-86233000D01*
X83395286Y-86233000D01*
X83418088Y-86464516D01*
X83485619Y-86687136D01*
X83595283Y-86892303D01*
X83742866Y-87072134D01*
X83922697Y-87219717D01*
X84127864Y-87329381D01*
X84350484Y-87396912D01*
X84523984Y-87414000D01*
X84640016Y-87414000D01*
X84813516Y-87396912D01*
X85036136Y-87329381D01*
X85241303Y-87219717D01*
X85421134Y-87072134D01*
X85568717Y-86892303D01*
X85678381Y-86687136D01*
X85745912Y-86464516D01*
X85768714Y-86233000D01*
X85757258Y-86116682D01*
X93561000Y-86116682D01*
X93561000Y-86349318D01*
X93606386Y-86577485D01*
X93695412Y-86792413D01*
X93824658Y-86985843D01*
X93989157Y-87150342D01*
X94182587Y-87279588D01*
X94397515Y-87368614D01*
X94625682Y-87414000D01*
X94858318Y-87414000D01*
X95086485Y-87368614D01*
X95301413Y-87279588D01*
X95494843Y-87150342D01*
X95659342Y-86985843D01*
X95788588Y-86792413D01*
X95877614Y-86577485D01*
X95923000Y-86349318D01*
X95923000Y-86116682D01*
X95877614Y-85888515D01*
X95788588Y-85673587D01*
X95659342Y-85480157D01*
X95494843Y-85315658D01*
X95301413Y-85186412D01*
X95086485Y-85097386D01*
X94858318Y-85052000D01*
X94625682Y-85052000D01*
X94397515Y-85097386D01*
X94182587Y-85186412D01*
X93989157Y-85315658D01*
X93824658Y-85480157D01*
X93695412Y-85673587D01*
X93606386Y-85888515D01*
X93561000Y-86116682D01*
X85757258Y-86116682D01*
X85745912Y-86001484D01*
X85678381Y-85778864D01*
X85568717Y-85573697D01*
X85421134Y-85393866D01*
X85241303Y-85246283D01*
X85036136Y-85136619D01*
X84813516Y-85069088D01*
X84640016Y-85052000D01*
X84523984Y-85052000D01*
X84350484Y-85069088D01*
X84127864Y-85136619D01*
X83922697Y-85246283D01*
X83742866Y-85393866D01*
X83595283Y-85573697D01*
X83485619Y-85778864D01*
X83418088Y-86001484D01*
X83395286Y-86233000D01*
X79819379Y-86233000D01*
X80069674Y-85982706D01*
X80088322Y-85967402D01*
X80103626Y-85948754D01*
X80103630Y-85948750D01*
X80149423Y-85892951D01*
X80189265Y-85818412D01*
X80194826Y-85808008D01*
X80222785Y-85715841D01*
X80229860Y-85644004D01*
X80229860Y-85643994D01*
X80232224Y-85619991D01*
X80229860Y-85595988D01*
X80229860Y-80500619D01*
X84927640Y-75802840D01*
X85112485Y-75858912D01*
X85344000Y-75881714D01*
X85575516Y-75858912D01*
X85798136Y-75791381D01*
X85913011Y-75729979D01*
X85913011Y-77074397D01*
X85041782Y-77945627D01*
X85041777Y-77945631D01*
X84979860Y-78007548D01*
X84813516Y-77957088D01*
X84640016Y-77940000D01*
X84523984Y-77940000D01*
X84350484Y-77957088D01*
X84127864Y-78024619D01*
X83922697Y-78134283D01*
X83742866Y-78281866D01*
X83595283Y-78461697D01*
X83485619Y-78666864D01*
X83418088Y-78889484D01*
X83395286Y-79121000D01*
X83418088Y-79352516D01*
X83485619Y-79575136D01*
X83595283Y-79780303D01*
X83742866Y-79960134D01*
X83922697Y-80107717D01*
X84127864Y-80217381D01*
X84350484Y-80284912D01*
X84523984Y-80302000D01*
X84640016Y-80302000D01*
X84813516Y-80284912D01*
X85036136Y-80217381D01*
X85241303Y-80107717D01*
X85421134Y-79960134D01*
X85568717Y-79780303D01*
X85678381Y-79575136D01*
X85745912Y-79352516D01*
X85768714Y-79121000D01*
X85745912Y-78889484D01*
X85695452Y-78723140D01*
X85757369Y-78661223D01*
X85757373Y-78661218D01*
X86489001Y-77929591D01*
X86489001Y-80054407D01*
X84979861Y-81563548D01*
X84813516Y-81513088D01*
X84640016Y-81496000D01*
X84523984Y-81496000D01*
X84350484Y-81513088D01*
X84127864Y-81580619D01*
X83922697Y-81690283D01*
X83742866Y-81837866D01*
X83595283Y-82017697D01*
X83485619Y-82222864D01*
X83418088Y-82445484D01*
X83395286Y-82677000D01*
X83418088Y-82908516D01*
X83485619Y-83131136D01*
X83595283Y-83336303D01*
X83742866Y-83516134D01*
X83922697Y-83663717D01*
X84127864Y-83773381D01*
X84350484Y-83840912D01*
X84523984Y-83858000D01*
X84640016Y-83858000D01*
X84813516Y-83840912D01*
X85036136Y-83773381D01*
X85241303Y-83663717D01*
X85421134Y-83516134D01*
X85568717Y-83336303D01*
X85678381Y-83131136D01*
X85745912Y-82908516D01*
X85768714Y-82677000D01*
X85757258Y-82560682D01*
X93561000Y-82560682D01*
X93561000Y-82793318D01*
X93606386Y-83021485D01*
X93695412Y-83236413D01*
X93824658Y-83429843D01*
X93989157Y-83594342D01*
X94182587Y-83723588D01*
X94397515Y-83812614D01*
X94625682Y-83858000D01*
X94858318Y-83858000D01*
X95086485Y-83812614D01*
X95301413Y-83723588D01*
X95494843Y-83594342D01*
X95659342Y-83429843D01*
X95788588Y-83236413D01*
X95877614Y-83021485D01*
X95923000Y-82793318D01*
X95923000Y-82560682D01*
X95877614Y-82332515D01*
X95788588Y-82117587D01*
X95738083Y-82042000D01*
X100794286Y-82042000D01*
X100817088Y-82273516D01*
X100884619Y-82496136D01*
X100994283Y-82701303D01*
X101141866Y-82881134D01*
X101321697Y-83028717D01*
X101526864Y-83138381D01*
X101749484Y-83205912D01*
X101922984Y-83223000D01*
X102039016Y-83223000D01*
X102212516Y-83205912D01*
X102435136Y-83138381D01*
X102640303Y-83028717D01*
X102820134Y-82881134D01*
X102967717Y-82701303D01*
X103077381Y-82496136D01*
X103144912Y-82273516D01*
X103167714Y-82042000D01*
X103144912Y-81810484D01*
X103077381Y-81587864D01*
X102967717Y-81382697D01*
X102820134Y-81202866D01*
X102640303Y-81055283D01*
X102435136Y-80945619D01*
X102212516Y-80878088D01*
X102039016Y-80861000D01*
X101922984Y-80861000D01*
X101749484Y-80878088D01*
X101526864Y-80945619D01*
X101321697Y-81055283D01*
X101141866Y-81202866D01*
X100994283Y-81382697D01*
X100884619Y-81587864D01*
X100817088Y-81810484D01*
X100794286Y-82042000D01*
X95738083Y-82042000D01*
X95659342Y-81924157D01*
X95494843Y-81759658D01*
X95301413Y-81630412D01*
X95086485Y-81541386D01*
X94858318Y-81496000D01*
X94625682Y-81496000D01*
X94397515Y-81541386D01*
X94182587Y-81630412D01*
X93989157Y-81759658D01*
X93824658Y-81924157D01*
X93695412Y-82117587D01*
X93606386Y-82332515D01*
X93561000Y-82560682D01*
X85757258Y-82560682D01*
X85745912Y-82445484D01*
X85695452Y-82279139D01*
X87335220Y-80639372D01*
X87354527Y-80623527D01*
X87417759Y-80546479D01*
X87464745Y-80458575D01*
X87493678Y-80363193D01*
X87501000Y-80288854D01*
X87501000Y-80288847D01*
X87503447Y-80264001D01*
X87501000Y-80239155D01*
X87501000Y-79004682D01*
X93561000Y-79004682D01*
X93561000Y-79237318D01*
X93606386Y-79465485D01*
X93695412Y-79680413D01*
X93824658Y-79873843D01*
X93989157Y-80038342D01*
X94182587Y-80167588D01*
X94397515Y-80256614D01*
X94625682Y-80302000D01*
X94858318Y-80302000D01*
X95086485Y-80256614D01*
X95301413Y-80167588D01*
X95494843Y-80038342D01*
X95659342Y-79873843D01*
X95788588Y-79680413D01*
X95877614Y-79465485D01*
X95923000Y-79237318D01*
X95923000Y-79004682D01*
X95877614Y-78776515D01*
X95788588Y-78561587D01*
X95659342Y-78368157D01*
X95494843Y-78203658D01*
X95301413Y-78074412D01*
X95086485Y-77985386D01*
X94858318Y-77940000D01*
X94625682Y-77940000D01*
X94397515Y-77985386D01*
X94182587Y-78074412D01*
X93989157Y-78203658D01*
X93824658Y-78368157D01*
X93695412Y-78561587D01*
X93606386Y-78776515D01*
X93561000Y-79004682D01*
X87501000Y-79004682D01*
X87501000Y-76101222D01*
X88365034Y-76965257D01*
X88382933Y-76987067D01*
X88469955Y-77058484D01*
X88569238Y-77111552D01*
X88676966Y-77144231D01*
X88760926Y-77152500D01*
X88760927Y-77152500D01*
X88788999Y-77155265D01*
X88808955Y-77153299D01*
X88816299Y-77177508D01*
X88851678Y-77243696D01*
X88899289Y-77301711D01*
X88957304Y-77349322D01*
X89023492Y-77384701D01*
X89095311Y-77406487D01*
X89170000Y-77413843D01*
X89670000Y-77413843D01*
X89744689Y-77406487D01*
X89816508Y-77384701D01*
X89882696Y-77349322D01*
X89940711Y-77301711D01*
X89988322Y-77243696D01*
X90023701Y-77177508D01*
X90045487Y-77105689D01*
X90052843Y-77031000D01*
X90052843Y-76131000D01*
X90045487Y-76056311D01*
X90023701Y-75984492D01*
X89988322Y-75918304D01*
X89940711Y-75860289D01*
X89882696Y-75812678D01*
X89816508Y-75777299D01*
X89744689Y-75755513D01*
X89670000Y-75748157D01*
X89170000Y-75748157D01*
X89095311Y-75755513D01*
X89023492Y-75777299D01*
X88957304Y-75812678D01*
X88899289Y-75860289D01*
X88889022Y-75872799D01*
X88268260Y-75252038D01*
X88263000Y-75247721D01*
X88263000Y-72898000D01*
X89822044Y-72898000D01*
X89845812Y-73139318D01*
X89916202Y-73371363D01*
X90030509Y-73585216D01*
X90184340Y-73772660D01*
X90371784Y-73926491D01*
X90570050Y-74032467D01*
X90570051Y-75763176D01*
X90523492Y-75777299D01*
X90457304Y-75812678D01*
X90399289Y-75860289D01*
X90351678Y-75918304D01*
X90316299Y-75984492D01*
X90294513Y-76056311D01*
X90287157Y-76131000D01*
X90287157Y-77031000D01*
X90294513Y-77105689D01*
X90316299Y-77177508D01*
X90351678Y-77243696D01*
X90399289Y-77301711D01*
X90457304Y-77349322D01*
X90523492Y-77384701D01*
X90595311Y-77406487D01*
X90670000Y-77413843D01*
X91170000Y-77413843D01*
X91244689Y-77406487D01*
X91316508Y-77384701D01*
X91382696Y-77349322D01*
X91440711Y-77301711D01*
X91488322Y-77243696D01*
X91523701Y-77177508D01*
X91545487Y-77105689D01*
X91552843Y-77031000D01*
X91552843Y-76131000D01*
X91547950Y-76081319D01*
X91547950Y-74032467D01*
X91746216Y-73926491D01*
X91933660Y-73772660D01*
X92087491Y-73585216D01*
X92196091Y-73382040D01*
X92202175Y-73402099D01*
X92327359Y-73664920D01*
X92501412Y-73898269D01*
X92717645Y-74093178D01*
X92967748Y-74242157D01*
X93242109Y-74339481D01*
X93472000Y-74218814D01*
X93472000Y-73025000D01*
X93726000Y-73025000D01*
X93726000Y-74218814D01*
X93955891Y-74339481D01*
X94230252Y-74242157D01*
X94480355Y-74093178D01*
X94696588Y-73898269D01*
X94870641Y-73664920D01*
X94995825Y-73402099D01*
X95040476Y-73254890D01*
X94919155Y-73025000D01*
X93726000Y-73025000D01*
X93472000Y-73025000D01*
X93452000Y-73025000D01*
X93452000Y-72771000D01*
X93472000Y-72771000D01*
X93472000Y-72751000D01*
X93726000Y-72751000D01*
X93726000Y-72771000D01*
X94919155Y-72771000D01*
X95040476Y-72541110D01*
X94995825Y-72393901D01*
X94870641Y-72131080D01*
X94696588Y-71897731D01*
X94550093Y-71765682D01*
X100800000Y-71765682D01*
X100800000Y-71998318D01*
X100845386Y-72226485D01*
X100934412Y-72441413D01*
X101063658Y-72634843D01*
X101228157Y-72799342D01*
X101421587Y-72928588D01*
X101636515Y-73017614D01*
X101864682Y-73063000D01*
X102097318Y-73063000D01*
X102325485Y-73017614D01*
X102540413Y-72928588D01*
X102733843Y-72799342D01*
X102898342Y-72634843D01*
X103027588Y-72441413D01*
X103116614Y-72226485D01*
X103162000Y-71998318D01*
X103162000Y-71765682D01*
X103116614Y-71537515D01*
X103027588Y-71322587D01*
X102898342Y-71129157D01*
X102733843Y-70964658D01*
X102540413Y-70835412D01*
X102325485Y-70746386D01*
X102097318Y-70701000D01*
X101864682Y-70701000D01*
X101636515Y-70746386D01*
X101421587Y-70835412D01*
X101228157Y-70964658D01*
X101063658Y-71129157D01*
X100934412Y-71322587D01*
X100845386Y-71537515D01*
X100800000Y-71765682D01*
X94550093Y-71765682D01*
X94480355Y-71702822D01*
X94230252Y-71553843D01*
X94075695Y-71499017D01*
X94286216Y-71386491D01*
X94473660Y-71232660D01*
X94627491Y-71045216D01*
X94741798Y-70831363D01*
X94812188Y-70599318D01*
X94835956Y-70358000D01*
X94812188Y-70116682D01*
X94741798Y-69884637D01*
X94627491Y-69670784D01*
X94473660Y-69483340D01*
X94286216Y-69329509D01*
X94072363Y-69215202D01*
X93840318Y-69144812D01*
X93659472Y-69127000D01*
X93538528Y-69127000D01*
X93357682Y-69144812D01*
X93125637Y-69215202D01*
X92911784Y-69329509D01*
X92724340Y-69483340D01*
X92570509Y-69670784D01*
X92456202Y-69884637D01*
X92385812Y-70116682D01*
X92362044Y-70358000D01*
X92385812Y-70599318D01*
X92456202Y-70831363D01*
X92570509Y-71045216D01*
X92724340Y-71232660D01*
X92911784Y-71386491D01*
X93122305Y-71499017D01*
X92967748Y-71553843D01*
X92717645Y-71702822D01*
X92501412Y-71897731D01*
X92327359Y-72131080D01*
X92202175Y-72393901D01*
X92196091Y-72413960D01*
X92087491Y-72210784D01*
X91933660Y-72023340D01*
X91746216Y-71869509D01*
X91532363Y-71755202D01*
X91300318Y-71684812D01*
X91119472Y-71667000D01*
X90998528Y-71667000D01*
X90817682Y-71684812D01*
X90585637Y-71755202D01*
X90371784Y-71869509D01*
X90184340Y-72023340D01*
X90030509Y-72210784D01*
X89916202Y-72424637D01*
X89845812Y-72656682D01*
X89822044Y-72898000D01*
X88263000Y-72898000D01*
X88263000Y-71972501D01*
X88352349Y-71883152D01*
X88442078Y-71901000D01*
X88595922Y-71901000D01*
X88746809Y-71870987D01*
X88888942Y-71812113D01*
X89016859Y-71726642D01*
X89125642Y-71617859D01*
X89211113Y-71489942D01*
X89269987Y-71347809D01*
X89300000Y-71196922D01*
X89300000Y-71043078D01*
X89269987Y-70892191D01*
X89211113Y-70750058D01*
X89125642Y-70622141D01*
X89016859Y-70513358D01*
X88888942Y-70427887D01*
X88746809Y-70369013D01*
X88691443Y-70358000D01*
X89822044Y-70358000D01*
X89845812Y-70599318D01*
X89916202Y-70831363D01*
X90030509Y-71045216D01*
X90184340Y-71232660D01*
X90371784Y-71386491D01*
X90585637Y-71500798D01*
X90817682Y-71571188D01*
X90998528Y-71589000D01*
X91119472Y-71589000D01*
X91300318Y-71571188D01*
X91532363Y-71500798D01*
X91746216Y-71386491D01*
X91933660Y-71232660D01*
X92087491Y-71045216D01*
X92201798Y-70831363D01*
X92272188Y-70599318D01*
X92295956Y-70358000D01*
X92272188Y-70116682D01*
X92201798Y-69884637D01*
X92087491Y-69670784D01*
X91933660Y-69483340D01*
X91746216Y-69329509D01*
X91532363Y-69215202D01*
X91300318Y-69144812D01*
X91119472Y-69127000D01*
X90998528Y-69127000D01*
X90817682Y-69144812D01*
X90585637Y-69215202D01*
X90371784Y-69329509D01*
X90184340Y-69483340D01*
X90030509Y-69670784D01*
X89916202Y-69884637D01*
X89845812Y-70116682D01*
X89822044Y-70358000D01*
X88691443Y-70358000D01*
X88595922Y-70339000D01*
X88442078Y-70339000D01*
X88291191Y-70369013D01*
X88149058Y-70427887D01*
X88021141Y-70513358D01*
X87923651Y-70610848D01*
X87833922Y-70593000D01*
X87680078Y-70593000D01*
X87529191Y-70623013D01*
X87501000Y-70634690D01*
X87501000Y-68750854D01*
X87503448Y-68726000D01*
X87493678Y-68626807D01*
X87464745Y-68531425D01*
X87450736Y-68505216D01*
X87417759Y-68443521D01*
X87354527Y-68366473D01*
X87335220Y-68350628D01*
X86457452Y-67472860D01*
X86507912Y-67306515D01*
X86525000Y-67133015D01*
X86525000Y-66216984D01*
X86507912Y-66043484D01*
X86440381Y-65820864D01*
X86330717Y-65615697D01*
X86183134Y-65435866D01*
X86024867Y-65305981D01*
X90278759Y-65305981D01*
X91557934Y-66585157D01*
X90209000Y-66585157D01*
X90134311Y-66592513D01*
X90062492Y-66614299D01*
X89996304Y-66649678D01*
X89938289Y-66697289D01*
X89890678Y-66755304D01*
X89855299Y-66821492D01*
X89833513Y-66893311D01*
X89826157Y-66968000D01*
X89826157Y-68668000D01*
X89833513Y-68742689D01*
X89855299Y-68814508D01*
X89890678Y-68880696D01*
X89938289Y-68938711D01*
X89996304Y-68986322D01*
X90062492Y-69021701D01*
X90134311Y-69043487D01*
X90209000Y-69050843D01*
X91909000Y-69050843D01*
X91983689Y-69043487D01*
X92055508Y-69021701D01*
X92121696Y-68986322D01*
X92179711Y-68938711D01*
X92227322Y-68880696D01*
X92262701Y-68814508D01*
X92284487Y-68742689D01*
X92291843Y-68668000D01*
X92291843Y-67319066D01*
X92364740Y-67391963D01*
X92364745Y-67391967D01*
X92423900Y-67451122D01*
X92385812Y-67576682D01*
X92362044Y-67818000D01*
X92385812Y-68059318D01*
X92456202Y-68291363D01*
X92570509Y-68505216D01*
X92724340Y-68692660D01*
X92911784Y-68846491D01*
X93125637Y-68960798D01*
X93357682Y-69031188D01*
X93538528Y-69049000D01*
X93659472Y-69049000D01*
X93840318Y-69031188D01*
X94072363Y-68960798D01*
X94286216Y-68846491D01*
X94473660Y-68692660D01*
X94627491Y-68505216D01*
X94741798Y-68291363D01*
X94812188Y-68059318D01*
X94835956Y-67818000D01*
X94812188Y-67576682D01*
X94741798Y-67344637D01*
X94627491Y-67130784D01*
X94473660Y-66943340D01*
X94286216Y-66789509D01*
X94072363Y-66675202D01*
X93840318Y-66604812D01*
X93659472Y-66587000D01*
X93538528Y-66587000D01*
X93357682Y-66604812D01*
X93232122Y-66642900D01*
X93172967Y-66583745D01*
X93172963Y-66583740D01*
X93148223Y-66559000D01*
X104252928Y-66559000D01*
X104265188Y-66683482D01*
X104301498Y-66803180D01*
X104360463Y-66913494D01*
X104439815Y-67010185D01*
X104536506Y-67089537D01*
X104646820Y-67148502D01*
X104766518Y-67184812D01*
X104891000Y-67197072D01*
X105505250Y-67194000D01*
X105664000Y-67035250D01*
X105664000Y-65786000D01*
X104414750Y-65786000D01*
X104256000Y-65944750D01*
X104252928Y-66559000D01*
X93148223Y-66559000D01*
X91348223Y-64759000D01*
X104252928Y-64759000D01*
X104256000Y-65373250D01*
X104414750Y-65532000D01*
X105664000Y-65532000D01*
X105664000Y-64282750D01*
X105918000Y-64282750D01*
X105918000Y-65532000D01*
X105938000Y-65532000D01*
X105938000Y-65786000D01*
X105918000Y-65786000D01*
X105918000Y-67035250D01*
X106076750Y-67194000D01*
X106691000Y-67197072D01*
X106815482Y-67184812D01*
X106935180Y-67148502D01*
X107045494Y-67089537D01*
X107142185Y-67010185D01*
X107221537Y-66913494D01*
X107280502Y-66803180D01*
X107316812Y-66683482D01*
X107329072Y-66559000D01*
X107328600Y-66464541D01*
X107335982Y-66475590D01*
X107514410Y-66654018D01*
X107724219Y-66794207D01*
X107957346Y-66890772D01*
X108204833Y-66940000D01*
X108457167Y-66940000D01*
X108704654Y-66890772D01*
X108937781Y-66794207D01*
X109147590Y-66654018D01*
X109326018Y-66475590D01*
X109466207Y-66265781D01*
X109562772Y-66032654D01*
X109612000Y-65785167D01*
X109612000Y-65532833D01*
X109562772Y-65285346D01*
X109466207Y-65052219D01*
X109326018Y-64842410D01*
X109147590Y-64663982D01*
X108937781Y-64523793D01*
X108704654Y-64427228D01*
X108457167Y-64378000D01*
X108204833Y-64378000D01*
X107957346Y-64427228D01*
X107724219Y-64523793D01*
X107514410Y-64663982D01*
X107335982Y-64842410D01*
X107328600Y-64853459D01*
X107329072Y-64759000D01*
X107316812Y-64634518D01*
X107280502Y-64514820D01*
X107221537Y-64404506D01*
X107142185Y-64307815D01*
X107045494Y-64228463D01*
X106935180Y-64169498D01*
X106815482Y-64133188D01*
X106691000Y-64120928D01*
X106076750Y-64124000D01*
X105918000Y-64282750D01*
X105664000Y-64282750D01*
X105505250Y-64124000D01*
X104891000Y-64120928D01*
X104766518Y-64133188D01*
X104646820Y-64169498D01*
X104536506Y-64228463D01*
X104439815Y-64307815D01*
X104360463Y-64404506D01*
X104301498Y-64514820D01*
X104265188Y-64634518D01*
X104252928Y-64759000D01*
X91348223Y-64759000D01*
X90939451Y-64350229D01*
X90921548Y-64328414D01*
X90834526Y-64256997D01*
X90735243Y-64203929D01*
X90627515Y-64171250D01*
X90543555Y-64162981D01*
X90515481Y-64160216D01*
X90487407Y-64162981D01*
X70059666Y-64162981D01*
X70031594Y-64160216D01*
X70003522Y-64162981D01*
X70003521Y-64162981D01*
X69919561Y-64171250D01*
X69811833Y-64203929D01*
X69712550Y-64256997D01*
X69625528Y-64328414D01*
X69607629Y-64350224D01*
X67607243Y-66350611D01*
X67585433Y-66368510D01*
X67528856Y-66437449D01*
X67514015Y-66455533D01*
X67460947Y-66554816D01*
X67428268Y-66662544D01*
X67417234Y-66774577D01*
X56770159Y-66774577D01*
X56950590Y-66654018D01*
X57129018Y-66475590D01*
X57269207Y-66265781D01*
X57365772Y-66032654D01*
X57415000Y-65785167D01*
X57415000Y-65532833D01*
X57365772Y-65285346D01*
X57269207Y-65052219D01*
X57129018Y-64842410D01*
X56950590Y-64663982D01*
X56740781Y-64523793D01*
X56507654Y-64427228D01*
X56260167Y-64378000D01*
X56007833Y-64378000D01*
X55760346Y-64427228D01*
X55527219Y-64523793D01*
X55317410Y-64663982D01*
X55138982Y-64842410D01*
X55131600Y-64853459D01*
X55132072Y-64759000D01*
X55119812Y-64634518D01*
X55083502Y-64514820D01*
X55024537Y-64404506D01*
X54945185Y-64307815D01*
X54848494Y-64228463D01*
X54738180Y-64169498D01*
X54618482Y-64133188D01*
X54494000Y-64120928D01*
X53879750Y-64124000D01*
X53721000Y-64282750D01*
X53467000Y-64282750D01*
X53308250Y-64124000D01*
X52694000Y-64120928D01*
X52569518Y-64133188D01*
X52449820Y-64169498D01*
X52339506Y-64228463D01*
X52242815Y-64307815D01*
X52163463Y-64404506D01*
X52104498Y-64514820D01*
X52068188Y-64634518D01*
X52055928Y-64759000D01*
X50571000Y-64759000D01*
X50571000Y-61366000D01*
X111354000Y-61366000D01*
X111354001Y-124054000D01*
X111354001Y-124054000D01*
G37*
X111354001Y-124054000D02*
X50571000Y-124054000D01*
X50571000Y-120661000D01*
X52055928Y-120661000D01*
X52068188Y-120785482D01*
X52104498Y-120905180D01*
X52163463Y-121015494D01*
X52242815Y-121112185D01*
X52339506Y-121191537D01*
X52449820Y-121250502D01*
X52569518Y-121286812D01*
X52694000Y-121299072D01*
X53308250Y-121296000D01*
X53467000Y-121137250D01*
X53467000Y-119888000D01*
X52217750Y-119888000D01*
X52059000Y-120046750D01*
X52055928Y-120661000D01*
X50571000Y-120661000D01*
X50571000Y-118861000D01*
X52055928Y-118861000D01*
X52059000Y-119475250D01*
X52217750Y-119634000D01*
X53467000Y-119634000D01*
X53467000Y-118384750D01*
X53721000Y-118384750D01*
X53721000Y-119634000D01*
X53741000Y-119634000D01*
X53741000Y-119888000D01*
X53721000Y-119888000D01*
X53721000Y-121137250D01*
X53879750Y-121296000D01*
X54494000Y-121299072D01*
X54618482Y-121286812D01*
X54738180Y-121250502D01*
X54848494Y-121191537D01*
X54945185Y-121112185D01*
X55024537Y-121015494D01*
X55083502Y-120905180D01*
X55119812Y-120785482D01*
X55132072Y-120661000D01*
X55131600Y-120566541D01*
X55138982Y-120577590D01*
X55317410Y-120756018D01*
X55527219Y-120896207D01*
X55760346Y-120992772D01*
X56007833Y-121042000D01*
X56260167Y-121042000D01*
X56507654Y-120992772D01*
X56740781Y-120896207D01*
X56950590Y-120756018D01*
X57045608Y-120661000D01*
X104252928Y-120661000D01*
X104265188Y-120785482D01*
X104301498Y-120905180D01*
X104360463Y-121015494D01*
X104439815Y-121112185D01*
X104536506Y-121191537D01*
X104646820Y-121250502D01*
X104766518Y-121286812D01*
X104891000Y-121299072D01*
X105505250Y-121296000D01*
X105664000Y-121137250D01*
X105664000Y-119888000D01*
X104414750Y-119888000D01*
X104256000Y-120046750D01*
X104252928Y-120661000D01*
X57045608Y-120661000D01*
X57129018Y-120577590D01*
X57269207Y-120367781D01*
X57365772Y-120134654D01*
X57415000Y-119887167D01*
X57415000Y-119634833D01*
X57365772Y-119387346D01*
X57269207Y-119154219D01*
X57129018Y-118944410D01*
X57045608Y-118861000D01*
X104252928Y-118861000D01*
X104256000Y-119475250D01*
X104414750Y-119634000D01*
X105664000Y-119634000D01*
X105664000Y-118384750D01*
X105918000Y-118384750D01*
X105918000Y-119634000D01*
X105938000Y-119634000D01*
X105938000Y-119888000D01*
X105918000Y-119888000D01*
X105918000Y-121137250D01*
X106076750Y-121296000D01*
X106691000Y-121299072D01*
X106815482Y-121286812D01*
X106935180Y-121250502D01*
X107045494Y-121191537D01*
X107142185Y-121112185D01*
X107221537Y-121015494D01*
X107280502Y-120905180D01*
X107316812Y-120785482D01*
X107329072Y-120661000D01*
X107328600Y-120566541D01*
X107335982Y-120577590D01*
X107514410Y-120756018D01*
X107724219Y-120896207D01*
X107957346Y-120992772D01*
X108204833Y-121042000D01*
X108457167Y-121042000D01*
X108704654Y-120992772D01*
X108937781Y-120896207D01*
X109147590Y-120756018D01*
X109326018Y-120577590D01*
X109466207Y-120367781D01*
X109562772Y-120134654D01*
X109612000Y-119887167D01*
X109612000Y-119634833D01*
X109562772Y-119387346D01*
X109466207Y-119154219D01*
X109326018Y-118944410D01*
X109147590Y-118765982D01*
X108937781Y-118625793D01*
X108704654Y-118529228D01*
X108457167Y-118480000D01*
X108204833Y-118480000D01*
X107957346Y-118529228D01*
X107724219Y-118625793D01*
X107514410Y-118765982D01*
X107335982Y-118944410D01*
X107328600Y-118955459D01*
X107329072Y-118861000D01*
X107316812Y-118736518D01*
X107280502Y-118616820D01*
X107221537Y-118506506D01*
X107142185Y-118409815D01*
X107045494Y-118330463D01*
X106935180Y-118271498D01*
X106815482Y-118235188D01*
X106691000Y-118222928D01*
X106076750Y-118226000D01*
X105918000Y-118384750D01*
X105664000Y-118384750D01*
X105505250Y-118226000D01*
X104891000Y-118222928D01*
X104766518Y-118235188D01*
X104646820Y-118271498D01*
X104536506Y-118330463D01*
X104439815Y-118409815D01*
X104360463Y-118506506D01*
X104301498Y-118616820D01*
X104265188Y-118736518D01*
X104252928Y-118861000D01*
X57045608Y-118861000D01*
X56950590Y-118765982D01*
X56740781Y-118625793D01*
X56507654Y-118529228D01*
X56260167Y-118480000D01*
X56007833Y-118480000D01*
X55760346Y-118529228D01*
X55527219Y-118625793D01*
X55317410Y-118765982D01*
X55138982Y-118944410D01*
X55131600Y-118955459D01*
X55132072Y-118861000D01*
X55119812Y-118736518D01*
X55083502Y-118616820D01*
X55024537Y-118506506D01*
X54945185Y-118409815D01*
X54848494Y-118330463D01*
X54738180Y-118271498D01*
X54618482Y-118235188D01*
X54494000Y-118222928D01*
X53879750Y-118226000D01*
X53721000Y-118384750D01*
X53467000Y-118384750D01*
X53308250Y-118226000D01*
X52694000Y-118222928D01*
X52569518Y-118235188D01*
X52449820Y-118271498D01*
X52339506Y-118330463D01*
X52242815Y-118409815D01*
X52163463Y-118506506D01*
X52104498Y-118616820D01*
X52068188Y-118736518D01*
X52055928Y-118861000D01*
X50571000Y-118861000D01*
X50571000Y-109140413D01*
X59623192Y-109140413D01*
X59718956Y-109404814D01*
X60008571Y-109545704D01*
X60320108Y-109627384D01*
X60641595Y-109646718D01*
X60960675Y-109602961D01*
X61265088Y-109497795D01*
X61439044Y-109404814D01*
X61534808Y-109140413D01*
X66123192Y-109140413D01*
X66218956Y-109404814D01*
X66508571Y-109545704D01*
X66820108Y-109627384D01*
X67141595Y-109646718D01*
X67460675Y-109602961D01*
X67765088Y-109497795D01*
X67939044Y-109404814D01*
X68034808Y-109140413D01*
X67079000Y-108184605D01*
X66123192Y-109140413D01*
X61534808Y-109140413D01*
X60579000Y-108184605D01*
X59623192Y-109140413D01*
X50571000Y-109140413D01*
X50571000Y-108067595D01*
X58937282Y-108067595D01*
X58981039Y-108386675D01*
X59086205Y-108691088D01*
X59179186Y-108865044D01*
X59443587Y-108960808D01*
X60399395Y-108005000D01*
X60758605Y-108005000D01*
X61714413Y-108960808D01*
X61978814Y-108865044D01*
X62119704Y-108575429D01*
X62201384Y-108263892D01*
X62213189Y-108067595D01*
X65437282Y-108067595D01*
X65481039Y-108386675D01*
X65586205Y-108691088D01*
X65679186Y-108865044D01*
X65943587Y-108960808D01*
X66899395Y-108005000D01*
X67258605Y-108005000D01*
X68214413Y-108960808D01*
X68478814Y-108865044D01*
X68619704Y-108575429D01*
X68701384Y-108263892D01*
X68720718Y-107942405D01*
X68676961Y-107623325D01*
X68571795Y-107318912D01*
X68478814Y-107144956D01*
X68214413Y-107049192D01*
X67258605Y-108005000D01*
X66899395Y-108005000D01*
X65943587Y-107049192D01*
X65679186Y-107144956D01*
X65538296Y-107434571D01*
X65456616Y-107746108D01*
X65437282Y-108067595D01*
X62213189Y-108067595D01*
X62220718Y-107942405D01*
X62176961Y-107623325D01*
X62071795Y-107318912D01*
X61978814Y-107144956D01*
X61714413Y-107049192D01*
X60758605Y-108005000D01*
X60399395Y-108005000D01*
X59443587Y-107049192D01*
X59179186Y-107144956D01*
X59038296Y-107434571D01*
X58956616Y-107746108D01*
X58937282Y-108067595D01*
X50571000Y-108067595D01*
X50571000Y-106869587D01*
X59623192Y-106869587D01*
X60579000Y-107825395D01*
X61534808Y-106869587D01*
X66123192Y-106869587D01*
X67079000Y-107825395D01*
X68034808Y-106869587D01*
X67939044Y-106605186D01*
X67649429Y-106464296D01*
X67337892Y-106382616D01*
X67016405Y-106363282D01*
X66697325Y-106407039D01*
X66392912Y-106512205D01*
X66218956Y-106605186D01*
X66123192Y-106869587D01*
X61534808Y-106869587D01*
X61439044Y-106605186D01*
X61149429Y-106464296D01*
X60837892Y-106382616D01*
X60516405Y-106363282D01*
X60197325Y-106407039D01*
X59892912Y-106512205D01*
X59718956Y-106605186D01*
X59623192Y-106869587D01*
X50571000Y-106869587D01*
X50571000Y-103368983D01*
X59198000Y-103368983D01*
X59198000Y-103641017D01*
X59251071Y-103907823D01*
X59355174Y-104159149D01*
X59506307Y-104385336D01*
X59698664Y-104577693D01*
X59924851Y-104728826D01*
X60176177Y-104832929D01*
X60442983Y-104886000D01*
X60715017Y-104886000D01*
X60981823Y-104832929D01*
X61233149Y-104728826D01*
X61459336Y-104577693D01*
X61651693Y-104385336D01*
X61802826Y-104159149D01*
X61906929Y-103907823D01*
X61960000Y-103641017D01*
X61960000Y-103368983D01*
X65698000Y-103368983D01*
X65698000Y-103641017D01*
X65751071Y-103907823D01*
X65855174Y-104159149D01*
X66006307Y-104385336D01*
X66198664Y-104577693D01*
X66424851Y-104728826D01*
X66676177Y-104832929D01*
X66942983Y-104886000D01*
X67215017Y-104886000D01*
X67481823Y-104832929D01*
X67733149Y-104728826D01*
X67959336Y-104577693D01*
X68151693Y-104385336D01*
X68302826Y-104159149D01*
X68406929Y-103907823D01*
X68460000Y-103641017D01*
X68460000Y-103368983D01*
X68406929Y-103102177D01*
X68302826Y-102850851D01*
X68151693Y-102624664D01*
X67959336Y-102432307D01*
X67733149Y-102281174D01*
X67481823Y-102177071D01*
X67215017Y-102124000D01*
X66942983Y-102124000D01*
X66676177Y-102177071D01*
X66424851Y-102281174D01*
X66198664Y-102432307D01*
X66006307Y-102624664D01*
X65855174Y-102850851D01*
X65751071Y-103102177D01*
X65698000Y-103368983D01*
X61960000Y-103368983D01*
X61906929Y-103102177D01*
X61802826Y-102850851D01*
X61651693Y-102624664D01*
X61459336Y-102432307D01*
X61233149Y-102281174D01*
X60981823Y-102177071D01*
X60715017Y-102124000D01*
X60442983Y-102124000D01*
X60176177Y-102177071D01*
X59924851Y-102281174D01*
X59698664Y-102432307D01*
X59506307Y-102624664D01*
X59355174Y-102850851D01*
X59251071Y-103102177D01*
X59198000Y-103368983D01*
X50571000Y-103368983D01*
X50571000Y-93610000D01*
X52055928Y-93610000D01*
X52068188Y-93734482D01*
X52104498Y-93854180D01*
X52163463Y-93964494D01*
X52242815Y-94061185D01*
X52339506Y-94140537D01*
X52449820Y-94199502D01*
X52569518Y-94235812D01*
X52694000Y-94248072D01*
X53308250Y-94245000D01*
X53467000Y-94086250D01*
X53467000Y-92837000D01*
X52217750Y-92837000D01*
X52059000Y-92995750D01*
X52055928Y-93610000D01*
X50571000Y-93610000D01*
X50571000Y-91810000D01*
X52055928Y-91810000D01*
X52059000Y-92424250D01*
X52217750Y-92583000D01*
X53467000Y-92583000D01*
X53467000Y-91333750D01*
X53721000Y-91333750D01*
X53721000Y-92583000D01*
X53741000Y-92583000D01*
X53741000Y-92837000D01*
X53721000Y-92837000D01*
X53721000Y-94086250D01*
X53879750Y-94245000D01*
X54494000Y-94248072D01*
X54618482Y-94235812D01*
X54738180Y-94199502D01*
X54848494Y-94140537D01*
X54945185Y-94061185D01*
X55024537Y-93964494D01*
X55083502Y-93854180D01*
X55119812Y-93734482D01*
X55132072Y-93610000D01*
X55131600Y-93515541D01*
X55138982Y-93526590D01*
X55317410Y-93705018D01*
X55527219Y-93845207D01*
X55760346Y-93941772D01*
X56007833Y-93991000D01*
X56260167Y-93991000D01*
X56507654Y-93941772D01*
X56740781Y-93845207D01*
X56950590Y-93705018D01*
X57129018Y-93526590D01*
X57269207Y-93316781D01*
X57365772Y-93083654D01*
X57415000Y-92836167D01*
X57415000Y-92583833D01*
X57365772Y-92336346D01*
X57269207Y-92103219D01*
X57129018Y-91893410D01*
X56950590Y-91714982D01*
X56740781Y-91574793D01*
X56507654Y-91478228D01*
X56260167Y-91429000D01*
X56007833Y-91429000D01*
X55760346Y-91478228D01*
X55527219Y-91574793D01*
X55317410Y-91714982D01*
X55138982Y-91893410D01*
X55131600Y-91904459D01*
X55132072Y-91810000D01*
X55119812Y-91685518D01*
X55083502Y-91565820D01*
X55024537Y-91455506D01*
X54945185Y-91358815D01*
X54848494Y-91279463D01*
X54738180Y-91220498D01*
X54618482Y-91184188D01*
X54494000Y-91171928D01*
X53879750Y-91175000D01*
X53721000Y-91333750D01*
X53467000Y-91333750D01*
X53308250Y-91175000D01*
X52694000Y-91171928D01*
X52569518Y-91184188D01*
X52449820Y-91220498D01*
X52339506Y-91279463D01*
X52242815Y-91358815D01*
X52163463Y-91455506D01*
X52104498Y-91565820D01*
X52068188Y-91685518D01*
X52055928Y-91810000D01*
X50571000Y-91810000D01*
X50571000Y-84973682D01*
X59525000Y-84973682D01*
X59525000Y-85206318D01*
X59570386Y-85434485D01*
X59659412Y-85649413D01*
X59788658Y-85842843D01*
X59953157Y-86007342D01*
X60146587Y-86136588D01*
X60361515Y-86225614D01*
X60589682Y-86271000D01*
X60822318Y-86271000D01*
X61050485Y-86225614D01*
X61265413Y-86136588D01*
X61458843Y-86007342D01*
X61623342Y-85842843D01*
X61752588Y-85649413D01*
X61841614Y-85434485D01*
X61887000Y-85206318D01*
X61887000Y-84973682D01*
X61841614Y-84745515D01*
X61752588Y-84530587D01*
X61623342Y-84337157D01*
X61458843Y-84172658D01*
X61265413Y-84043412D01*
X61050485Y-83954386D01*
X60822318Y-83909000D01*
X60589682Y-83909000D01*
X60361515Y-83954386D01*
X60146587Y-84043412D01*
X59953157Y-84172658D01*
X59788658Y-84337157D01*
X59659412Y-84530587D01*
X59570386Y-84745515D01*
X59525000Y-84973682D01*
X50571000Y-84973682D01*
X50571000Y-82042000D01*
X54947286Y-82042000D01*
X54970088Y-82273516D01*
X55037619Y-82496136D01*
X55147283Y-82701303D01*
X55294866Y-82881134D01*
X55474697Y-83028717D01*
X55679864Y-83138381D01*
X55902484Y-83205912D01*
X56075984Y-83223000D01*
X56192016Y-83223000D01*
X56365516Y-83205912D01*
X56588136Y-83138381D01*
X56793303Y-83028717D01*
X56973134Y-82881134D01*
X57120717Y-82701303D01*
X57230381Y-82496136D01*
X57297912Y-82273516D01*
X57320714Y-82042000D01*
X57297912Y-81810484D01*
X57230381Y-81587864D01*
X57120717Y-81382697D01*
X56973134Y-81202866D01*
X56793303Y-81055283D01*
X56588136Y-80945619D01*
X56365516Y-80878088D01*
X56192016Y-80861000D01*
X56075984Y-80861000D01*
X55902484Y-80878088D01*
X55679864Y-80945619D01*
X55474697Y-81055283D01*
X55294866Y-81202866D01*
X55147283Y-81382697D01*
X55037619Y-81587864D01*
X54970088Y-81810484D01*
X54947286Y-82042000D01*
X50571000Y-82042000D01*
X50571000Y-80401682D01*
X59525000Y-80401682D01*
X59525000Y-80634318D01*
X59570386Y-80862485D01*
X59659412Y-81077413D01*
X59788658Y-81270843D01*
X59953157Y-81435342D01*
X60146587Y-81564588D01*
X60361515Y-81653614D01*
X60589682Y-81699000D01*
X60822318Y-81699000D01*
X61050485Y-81653614D01*
X61265413Y-81564588D01*
X61458843Y-81435342D01*
X61623342Y-81270843D01*
X61752588Y-81077413D01*
X61841614Y-80862485D01*
X61887000Y-80634318D01*
X61887000Y-80401682D01*
X61841614Y-80173515D01*
X61752588Y-79958587D01*
X61623342Y-79765157D01*
X61458843Y-79600658D01*
X61265413Y-79471412D01*
X61050485Y-79382386D01*
X60822318Y-79337000D01*
X60589682Y-79337000D01*
X60361515Y-79382386D01*
X60146587Y-79471412D01*
X59953157Y-79600658D01*
X59788658Y-79765157D01*
X59659412Y-79958587D01*
X59570386Y-80173515D01*
X59525000Y-80401682D01*
X50571000Y-80401682D01*
X50571000Y-71765682D01*
X54953000Y-71765682D01*
X54953000Y-71998318D01*
X54998386Y-72226485D01*
X55087412Y-72441413D01*
X55216658Y-72634843D01*
X55381157Y-72799342D01*
X55574587Y-72928588D01*
X55789515Y-73017614D01*
X56017682Y-73063000D01*
X56250318Y-73063000D01*
X56478485Y-73017614D01*
X56693413Y-72928588D01*
X56886843Y-72799342D01*
X57051342Y-72634843D01*
X57180588Y-72441413D01*
X57269614Y-72226485D01*
X57315000Y-71998318D01*
X57315000Y-71765682D01*
X57269614Y-71537515D01*
X57180588Y-71322587D01*
X57051342Y-71129157D01*
X56886843Y-70964658D01*
X56693413Y-70835412D01*
X56478485Y-70746386D01*
X56250318Y-70701000D01*
X56017682Y-70701000D01*
X55789515Y-70746386D01*
X55574587Y-70835412D01*
X55381157Y-70964658D01*
X55216658Y-71129157D01*
X55087412Y-71322587D01*
X54998386Y-71537515D01*
X54953000Y-71765682D01*
X50571000Y-71765682D01*
X50571000Y-66559000D01*
X52055928Y-66559000D01*
X52068188Y-66683482D01*
X52104498Y-66803180D01*
X52163463Y-66913494D01*
X52242815Y-67010185D01*
X52339506Y-67089537D01*
X52449820Y-67148502D01*
X52569518Y-67184812D01*
X52694000Y-67197072D01*
X53308250Y-67194000D01*
X53467000Y-67035250D01*
X53467000Y-65786000D01*
X52217750Y-65786000D01*
X52059000Y-65944750D01*
X52055928Y-66559000D01*
X50571000Y-66559000D01*
X50571000Y-64759000D01*
X52055928Y-64759000D01*
X52059000Y-65373250D01*
X52217750Y-65532000D01*
X53467000Y-65532000D01*
X53467000Y-64282750D01*
X53721000Y-64282750D01*
X53721000Y-65532000D01*
X53741000Y-65532000D01*
X53741000Y-65786000D01*
X53721000Y-65786000D01*
X53721000Y-67035250D01*
X53879750Y-67194000D01*
X54494000Y-67197072D01*
X54618482Y-67184812D01*
X54738180Y-67148502D01*
X54848494Y-67089537D01*
X54945185Y-67010185D01*
X55024537Y-66913494D01*
X55083502Y-66803180D01*
X55119812Y-66683482D01*
X55132072Y-66559000D01*
X55131600Y-66464541D01*
X55138982Y-66475590D01*
X55317410Y-66654018D01*
X55527219Y-66794207D01*
X55760346Y-66890772D01*
X56007833Y-66940000D01*
X56260167Y-66940000D01*
X56507654Y-66890772D01*
X56740781Y-66794207D01*
X56770159Y-66774577D01*
X67417234Y-66774577D01*
X67420000Y-66802661D01*
X67419999Y-73335425D01*
X67417234Y-73363499D01*
X67419999Y-73391572D01*
X67428268Y-73475532D01*
X67460947Y-73583260D01*
X67514015Y-73682543D01*
X67585432Y-73769566D01*
X67607247Y-73787469D01*
X68499034Y-74679257D01*
X68516933Y-74701067D01*
X68603955Y-74772484D01*
X68703238Y-74825552D01*
X68810966Y-74858231D01*
X68894926Y-74866500D01*
X68894927Y-74866500D01*
X68921157Y-74869084D01*
X68921157Y-75495000D01*
X68928513Y-75569689D01*
X68950299Y-75641508D01*
X68985678Y-75707696D01*
X69033289Y-75765711D01*
X69091304Y-75813322D01*
X69157492Y-75848701D01*
X69229311Y-75870487D01*
X69295948Y-75877050D01*
X69270116Y-75908527D01*
X69248015Y-75935457D01*
X69194947Y-76034740D01*
X69162268Y-76142468D01*
X69151234Y-76254501D01*
X69153999Y-76282575D01*
X69154000Y-85609357D01*
X69151234Y-85637441D01*
X69162268Y-85749474D01*
X69194947Y-85857202D01*
X69248015Y-85956485D01*
X69259235Y-85970157D01*
X69319433Y-86043508D01*
X69341243Y-86061407D01*
X70802501Y-87522666D01*
X70802500Y-88559827D01*
X70799735Y-88587902D01*
X70802500Y-88615975D01*
X70810769Y-88699935D01*
X70843448Y-88807663D01*
X70896516Y-88906946D01*
X70967933Y-88993969D01*
X70989748Y-89011872D01*
X74866500Y-92888625D01*
X74866501Y-107718157D01*
X73938000Y-107718157D01*
X73863311Y-107725513D01*
X73791492Y-107747299D01*
X73725304Y-107782678D01*
X73667289Y-107830289D01*
X73619678Y-107888304D01*
X73584299Y-107954492D01*
X73562513Y-108026311D01*
X73555157Y-108101000D01*
X73555157Y-111101000D01*
X73562513Y-111175689D01*
X73584299Y-111247508D01*
X73619678Y-111313696D01*
X73667289Y-111371711D01*
X73725304Y-111419322D01*
X73791492Y-111454701D01*
X73863311Y-111476487D01*
X73938000Y-111483843D01*
X76938000Y-111483843D01*
X77012689Y-111476487D01*
X77084508Y-111454701D01*
X77150696Y-111419322D01*
X77208711Y-111371711D01*
X77256322Y-111313696D01*
X77291701Y-111247508D01*
X77313487Y-111175689D01*
X77320843Y-111101000D01*
X77320843Y-111092653D01*
X94615952Y-111092653D01*
X94771962Y-111408214D01*
X95146745Y-111599020D01*
X95551551Y-111713044D01*
X95970824Y-111745902D01*
X96388451Y-111696334D01*
X96788383Y-111566243D01*
X97084038Y-111408214D01*
X97240048Y-111092653D01*
X95928000Y-109780605D01*
X94615952Y-111092653D01*
X77320843Y-111092653D01*
X77320843Y-109643824D01*
X93783098Y-109643824D01*
X93832666Y-110061451D01*
X93962757Y-110461383D01*
X94120786Y-110757038D01*
X94436347Y-110913048D01*
X95748395Y-109601000D01*
X96107605Y-109601000D01*
X97419653Y-110913048D01*
X97735214Y-110757038D01*
X97926020Y-110382255D01*
X98040044Y-109977449D01*
X98072902Y-109558176D01*
X98023334Y-109140549D01*
X97893243Y-108740617D01*
X97735214Y-108444962D01*
X97419653Y-108288952D01*
X96107605Y-109601000D01*
X95748395Y-109601000D01*
X94436347Y-108288952D01*
X94120786Y-108444962D01*
X93929980Y-108819745D01*
X93815956Y-109224551D01*
X93783098Y-109643824D01*
X77320843Y-109643824D01*
X77320843Y-108109347D01*
X94615952Y-108109347D01*
X95928000Y-109421395D01*
X97240048Y-108109347D01*
X97084038Y-107793786D01*
X96709255Y-107602980D01*
X96304449Y-107488956D01*
X95885176Y-107456098D01*
X95467549Y-107505666D01*
X95067617Y-107635757D01*
X94771962Y-107793786D01*
X94615952Y-108109347D01*
X77320843Y-108109347D01*
X77320843Y-108101000D01*
X77313487Y-108026311D01*
X77291701Y-107954492D01*
X77256322Y-107888304D01*
X77208711Y-107830289D01*
X77150696Y-107782678D01*
X77084508Y-107747299D01*
X77012689Y-107725513D01*
X76938000Y-107718157D01*
X76009500Y-107718157D01*
X76009500Y-93737000D01*
X78090928Y-93737000D01*
X78103188Y-93861482D01*
X78139498Y-93981180D01*
X78198463Y-94091494D01*
X78277815Y-94188185D01*
X78374506Y-94267537D01*
X78484820Y-94326502D01*
X78604518Y-94362812D01*
X78729000Y-94375072D01*
X79343250Y-94372000D01*
X79502000Y-94213250D01*
X79502000Y-92964000D01*
X78252750Y-92964000D01*
X78094000Y-93122750D01*
X78090928Y-93737000D01*
X76009500Y-93737000D01*
X76009500Y-92679976D01*
X76012265Y-92651902D01*
X76001231Y-92539868D01*
X75968552Y-92432140D01*
X75915484Y-92332857D01*
X75844067Y-92245835D01*
X75822258Y-92227937D01*
X75531321Y-91937000D01*
X78090928Y-91937000D01*
X78094000Y-92551250D01*
X78252750Y-92710000D01*
X79502000Y-92710000D01*
X79502000Y-91460750D01*
X79756000Y-91460750D01*
X79756000Y-92710000D01*
X79776000Y-92710000D01*
X79776000Y-92964000D01*
X79756000Y-92964000D01*
X79756000Y-94213250D01*
X79914750Y-94372000D01*
X80529000Y-94375072D01*
X80653482Y-94362812D01*
X80773180Y-94326502D01*
X80883494Y-94267537D01*
X80980185Y-94188185D01*
X81059537Y-94091494D01*
X81118502Y-93981180D01*
X81154812Y-93861482D01*
X81167072Y-93737000D01*
X81166600Y-93642541D01*
X81173982Y-93653590D01*
X81352410Y-93832018D01*
X81562219Y-93972207D01*
X81795346Y-94068772D01*
X82042833Y-94118000D01*
X82295167Y-94118000D01*
X82542654Y-94068772D01*
X82775781Y-93972207D01*
X82985590Y-93832018D01*
X83164018Y-93653590D01*
X83193143Y-93610000D01*
X104252928Y-93610000D01*
X104265188Y-93734482D01*
X104301498Y-93854180D01*
X104360463Y-93964494D01*
X104439815Y-94061185D01*
X104536506Y-94140537D01*
X104646820Y-94199502D01*
X104766518Y-94235812D01*
X104891000Y-94248072D01*
X105505250Y-94245000D01*
X105664000Y-94086250D01*
X105664000Y-92837000D01*
X104414750Y-92837000D01*
X104256000Y-92995750D01*
X104252928Y-93610000D01*
X83193143Y-93610000D01*
X83304207Y-93443781D01*
X83400772Y-93210654D01*
X83450000Y-92963167D01*
X83450000Y-92710833D01*
X83400772Y-92463346D01*
X83304207Y-92230219D01*
X83164018Y-92020410D01*
X82985590Y-91841982D01*
X82937726Y-91810000D01*
X104252928Y-91810000D01*
X104256000Y-92424250D01*
X104414750Y-92583000D01*
X105664000Y-92583000D01*
X105664000Y-91333750D01*
X105918000Y-91333750D01*
X105918000Y-92583000D01*
X105938000Y-92583000D01*
X105938000Y-92837000D01*
X105918000Y-92837000D01*
X105918000Y-94086250D01*
X106076750Y-94245000D01*
X106691000Y-94248072D01*
X106815482Y-94235812D01*
X106935180Y-94199502D01*
X107045494Y-94140537D01*
X107142185Y-94061185D01*
X107221537Y-93964494D01*
X107280502Y-93854180D01*
X107316812Y-93734482D01*
X107329072Y-93610000D01*
X107328600Y-93515541D01*
X107335982Y-93526590D01*
X107514410Y-93705018D01*
X107724219Y-93845207D01*
X107957346Y-93941772D01*
X108204833Y-93991000D01*
X108457167Y-93991000D01*
X108704654Y-93941772D01*
X108937781Y-93845207D01*
X109147590Y-93705018D01*
X109326018Y-93526590D01*
X109466207Y-93316781D01*
X109562772Y-93083654D01*
X109612000Y-92836167D01*
X109612000Y-92583833D01*
X109562772Y-92336346D01*
X109466207Y-92103219D01*
X109326018Y-91893410D01*
X109147590Y-91714982D01*
X108937781Y-91574793D01*
X108704654Y-91478228D01*
X108457167Y-91429000D01*
X108204833Y-91429000D01*
X107957346Y-91478228D01*
X107724219Y-91574793D01*
X107514410Y-91714982D01*
X107335982Y-91893410D01*
X107328600Y-91904459D01*
X107329072Y-91810000D01*
X107316812Y-91685518D01*
X107280502Y-91565820D01*
X107221537Y-91455506D01*
X107142185Y-91358815D01*
X107045494Y-91279463D01*
X106935180Y-91220498D01*
X106815482Y-91184188D01*
X106691000Y-91171928D01*
X106076750Y-91175000D01*
X105918000Y-91333750D01*
X105664000Y-91333750D01*
X105505250Y-91175000D01*
X104891000Y-91171928D01*
X104766518Y-91184188D01*
X104646820Y-91220498D01*
X104536506Y-91279463D01*
X104439815Y-91358815D01*
X104360463Y-91455506D01*
X104301498Y-91565820D01*
X104265188Y-91685518D01*
X104252928Y-91810000D01*
X82937726Y-91810000D01*
X82775781Y-91701793D01*
X82542654Y-91605228D01*
X82295167Y-91556000D01*
X82042833Y-91556000D01*
X81795346Y-91605228D01*
X81562219Y-91701793D01*
X81352410Y-91841982D01*
X81173982Y-92020410D01*
X81166600Y-92031459D01*
X81167072Y-91937000D01*
X81154812Y-91812518D01*
X81118502Y-91692820D01*
X81059537Y-91582506D01*
X80980185Y-91485815D01*
X80883494Y-91406463D01*
X80773180Y-91347498D01*
X80653482Y-91311188D01*
X80529000Y-91298928D01*
X79914750Y-91302000D01*
X79756000Y-91460750D01*
X79502000Y-91460750D01*
X79343250Y-91302000D01*
X78729000Y-91298928D01*
X78604518Y-91311188D01*
X78484820Y-91347498D01*
X78374506Y-91406463D01*
X78277815Y-91485815D01*
X78198463Y-91582506D01*
X78139498Y-91692820D01*
X78103188Y-91812518D01*
X78090928Y-91937000D01*
X75531321Y-91937000D01*
X72885157Y-89290836D01*
X72892000Y-89291072D01*
X73016482Y-89278812D01*
X73136180Y-89242502D01*
X73215500Y-89200104D01*
X73294820Y-89242502D01*
X73414518Y-89278812D01*
X73539000Y-89291072D01*
X73628250Y-89288000D01*
X73787000Y-89129250D01*
X73787000Y-88380000D01*
X74041000Y-88380000D01*
X74041000Y-89129250D01*
X74199750Y-89288000D01*
X74289000Y-89291072D01*
X74413482Y-89278812D01*
X74533180Y-89242502D01*
X74643494Y-89183537D01*
X74740185Y-89104185D01*
X74819537Y-89007494D01*
X74878502Y-88897180D01*
X74914812Y-88777482D01*
X74927072Y-88653000D01*
X74924000Y-88538750D01*
X74765250Y-88380000D01*
X74041000Y-88380000D01*
X73787000Y-88380000D01*
X72644000Y-88380000D01*
X72644000Y-88400000D01*
X72390000Y-88400000D01*
X72390000Y-88380000D01*
X72370000Y-88380000D01*
X72370000Y-88126000D01*
X72390000Y-88126000D01*
X72390000Y-88106000D01*
X72644000Y-88106000D01*
X72644000Y-88126000D01*
X73787000Y-88126000D01*
X73787000Y-88106000D01*
X74041000Y-88106000D01*
X74041000Y-88126000D01*
X74765250Y-88126000D01*
X74924000Y-87967250D01*
X74927072Y-87853000D01*
X74914812Y-87728518D01*
X74878502Y-87608820D01*
X74819537Y-87498506D01*
X74740185Y-87401815D01*
X74643494Y-87322463D01*
X74633334Y-87317032D01*
X74642701Y-87299508D01*
X74660161Y-87241950D01*
X76758897Y-87241950D01*
X76782900Y-87244314D01*
X76806903Y-87241950D01*
X76806914Y-87241950D01*
X76878751Y-87234875D01*
X76970918Y-87206916D01*
X77055860Y-87161513D01*
X77130312Y-87100412D01*
X77145620Y-87081759D01*
X77379759Y-86847620D01*
X77398412Y-86832312D01*
X77459513Y-86757860D01*
X77459514Y-86757859D01*
X77504916Y-86672919D01*
X77511423Y-86651467D01*
X77517040Y-86632950D01*
X77592897Y-86632950D01*
X77616900Y-86635314D01*
X77640903Y-86632950D01*
X77640914Y-86632950D01*
X77712751Y-86625875D01*
X77804918Y-86597916D01*
X77889860Y-86552513D01*
X77964312Y-86491412D01*
X77978579Y-86474028D01*
X77982678Y-86481696D01*
X78030289Y-86539711D01*
X78088304Y-86587322D01*
X78154492Y-86622701D01*
X78226311Y-86644487D01*
X78301000Y-86651843D01*
X79001000Y-86651843D01*
X79075689Y-86644487D01*
X79113721Y-86632950D01*
X79192897Y-86632950D01*
X79216900Y-86635314D01*
X79240903Y-86632950D01*
X79240914Y-86632950D01*
X79312751Y-86625875D01*
X79404918Y-86597916D01*
X79489860Y-86552513D01*
X79564312Y-86491412D01*
X79579620Y-86472759D01*
X79819379Y-86233000D01*
X83395286Y-86233000D01*
X83418088Y-86464516D01*
X83485619Y-86687136D01*
X83595283Y-86892303D01*
X83742866Y-87072134D01*
X83922697Y-87219717D01*
X84127864Y-87329381D01*
X84350484Y-87396912D01*
X84523984Y-87414000D01*
X84640016Y-87414000D01*
X84813516Y-87396912D01*
X85036136Y-87329381D01*
X85241303Y-87219717D01*
X85421134Y-87072134D01*
X85568717Y-86892303D01*
X85678381Y-86687136D01*
X85745912Y-86464516D01*
X85768714Y-86233000D01*
X85757258Y-86116682D01*
X93561000Y-86116682D01*
X93561000Y-86349318D01*
X93606386Y-86577485D01*
X93695412Y-86792413D01*
X93824658Y-86985843D01*
X93989157Y-87150342D01*
X94182587Y-87279588D01*
X94397515Y-87368614D01*
X94625682Y-87414000D01*
X94858318Y-87414000D01*
X95086485Y-87368614D01*
X95301413Y-87279588D01*
X95494843Y-87150342D01*
X95659342Y-86985843D01*
X95788588Y-86792413D01*
X95877614Y-86577485D01*
X95923000Y-86349318D01*
X95923000Y-86116682D01*
X95877614Y-85888515D01*
X95788588Y-85673587D01*
X95659342Y-85480157D01*
X95494843Y-85315658D01*
X95301413Y-85186412D01*
X95086485Y-85097386D01*
X94858318Y-85052000D01*
X94625682Y-85052000D01*
X94397515Y-85097386D01*
X94182587Y-85186412D01*
X93989157Y-85315658D01*
X93824658Y-85480157D01*
X93695412Y-85673587D01*
X93606386Y-85888515D01*
X93561000Y-86116682D01*
X85757258Y-86116682D01*
X85745912Y-86001484D01*
X85678381Y-85778864D01*
X85568717Y-85573697D01*
X85421134Y-85393866D01*
X85241303Y-85246283D01*
X85036136Y-85136619D01*
X84813516Y-85069088D01*
X84640016Y-85052000D01*
X84523984Y-85052000D01*
X84350484Y-85069088D01*
X84127864Y-85136619D01*
X83922697Y-85246283D01*
X83742866Y-85393866D01*
X83595283Y-85573697D01*
X83485619Y-85778864D01*
X83418088Y-86001484D01*
X83395286Y-86233000D01*
X79819379Y-86233000D01*
X80069674Y-85982706D01*
X80088322Y-85967402D01*
X80103626Y-85948754D01*
X80103630Y-85948750D01*
X80149423Y-85892951D01*
X80189265Y-85818412D01*
X80194826Y-85808008D01*
X80222785Y-85715841D01*
X80229860Y-85644004D01*
X80229860Y-85643994D01*
X80232224Y-85619991D01*
X80229860Y-85595988D01*
X80229860Y-80500619D01*
X84927640Y-75802840D01*
X85112485Y-75858912D01*
X85344000Y-75881714D01*
X85575516Y-75858912D01*
X85798136Y-75791381D01*
X85913011Y-75729979D01*
X85913011Y-77074397D01*
X85041782Y-77945627D01*
X85041777Y-77945631D01*
X84979860Y-78007548D01*
X84813516Y-77957088D01*
X84640016Y-77940000D01*
X84523984Y-77940000D01*
X84350484Y-77957088D01*
X84127864Y-78024619D01*
X83922697Y-78134283D01*
X83742866Y-78281866D01*
X83595283Y-78461697D01*
X83485619Y-78666864D01*
X83418088Y-78889484D01*
X83395286Y-79121000D01*
X83418088Y-79352516D01*
X83485619Y-79575136D01*
X83595283Y-79780303D01*
X83742866Y-79960134D01*
X83922697Y-80107717D01*
X84127864Y-80217381D01*
X84350484Y-80284912D01*
X84523984Y-80302000D01*
X84640016Y-80302000D01*
X84813516Y-80284912D01*
X85036136Y-80217381D01*
X85241303Y-80107717D01*
X85421134Y-79960134D01*
X85568717Y-79780303D01*
X85678381Y-79575136D01*
X85745912Y-79352516D01*
X85768714Y-79121000D01*
X85745912Y-78889484D01*
X85695452Y-78723140D01*
X85757369Y-78661223D01*
X85757373Y-78661218D01*
X86489001Y-77929591D01*
X86489001Y-80054407D01*
X84979861Y-81563548D01*
X84813516Y-81513088D01*
X84640016Y-81496000D01*
X84523984Y-81496000D01*
X84350484Y-81513088D01*
X84127864Y-81580619D01*
X83922697Y-81690283D01*
X83742866Y-81837866D01*
X83595283Y-82017697D01*
X83485619Y-82222864D01*
X83418088Y-82445484D01*
X83395286Y-82677000D01*
X83418088Y-82908516D01*
X83485619Y-83131136D01*
X83595283Y-83336303D01*
X83742866Y-83516134D01*
X83922697Y-83663717D01*
X84127864Y-83773381D01*
X84350484Y-83840912D01*
X84523984Y-83858000D01*
X84640016Y-83858000D01*
X84813516Y-83840912D01*
X85036136Y-83773381D01*
X85241303Y-83663717D01*
X85421134Y-83516134D01*
X85568717Y-83336303D01*
X85678381Y-83131136D01*
X85745912Y-82908516D01*
X85768714Y-82677000D01*
X85757258Y-82560682D01*
X93561000Y-82560682D01*
X93561000Y-82793318D01*
X93606386Y-83021485D01*
X93695412Y-83236413D01*
X93824658Y-83429843D01*
X93989157Y-83594342D01*
X94182587Y-83723588D01*
X94397515Y-83812614D01*
X94625682Y-83858000D01*
X94858318Y-83858000D01*
X95086485Y-83812614D01*
X95301413Y-83723588D01*
X95494843Y-83594342D01*
X95659342Y-83429843D01*
X95788588Y-83236413D01*
X95877614Y-83021485D01*
X95923000Y-82793318D01*
X95923000Y-82560682D01*
X95877614Y-82332515D01*
X95788588Y-82117587D01*
X95738083Y-82042000D01*
X100794286Y-82042000D01*
X100817088Y-82273516D01*
X100884619Y-82496136D01*
X100994283Y-82701303D01*
X101141866Y-82881134D01*
X101321697Y-83028717D01*
X101526864Y-83138381D01*
X101749484Y-83205912D01*
X101922984Y-83223000D01*
X102039016Y-83223000D01*
X102212516Y-83205912D01*
X102435136Y-83138381D01*
X102640303Y-83028717D01*
X102820134Y-82881134D01*
X102967717Y-82701303D01*
X103077381Y-82496136D01*
X103144912Y-82273516D01*
X103167714Y-82042000D01*
X103144912Y-81810484D01*
X103077381Y-81587864D01*
X102967717Y-81382697D01*
X102820134Y-81202866D01*
X102640303Y-81055283D01*
X102435136Y-80945619D01*
X102212516Y-80878088D01*
X102039016Y-80861000D01*
X101922984Y-80861000D01*
X101749484Y-80878088D01*
X101526864Y-80945619D01*
X101321697Y-81055283D01*
X101141866Y-81202866D01*
X100994283Y-81382697D01*
X100884619Y-81587864D01*
X100817088Y-81810484D01*
X100794286Y-82042000D01*
X95738083Y-82042000D01*
X95659342Y-81924157D01*
X95494843Y-81759658D01*
X95301413Y-81630412D01*
X95086485Y-81541386D01*
X94858318Y-81496000D01*
X94625682Y-81496000D01*
X94397515Y-81541386D01*
X94182587Y-81630412D01*
X93989157Y-81759658D01*
X93824658Y-81924157D01*
X93695412Y-82117587D01*
X93606386Y-82332515D01*
X93561000Y-82560682D01*
X85757258Y-82560682D01*
X85745912Y-82445484D01*
X85695452Y-82279139D01*
X87335220Y-80639372D01*
X87354527Y-80623527D01*
X87417759Y-80546479D01*
X87464745Y-80458575D01*
X87493678Y-80363193D01*
X87501000Y-80288854D01*
X87501000Y-80288847D01*
X87503447Y-80264001D01*
X87501000Y-80239155D01*
X87501000Y-79004682D01*
X93561000Y-79004682D01*
X93561000Y-79237318D01*
X93606386Y-79465485D01*
X93695412Y-79680413D01*
X93824658Y-79873843D01*
X93989157Y-80038342D01*
X94182587Y-80167588D01*
X94397515Y-80256614D01*
X94625682Y-80302000D01*
X94858318Y-80302000D01*
X95086485Y-80256614D01*
X95301413Y-80167588D01*
X95494843Y-80038342D01*
X95659342Y-79873843D01*
X95788588Y-79680413D01*
X95877614Y-79465485D01*
X95923000Y-79237318D01*
X95923000Y-79004682D01*
X95877614Y-78776515D01*
X95788588Y-78561587D01*
X95659342Y-78368157D01*
X95494843Y-78203658D01*
X95301413Y-78074412D01*
X95086485Y-77985386D01*
X94858318Y-77940000D01*
X94625682Y-77940000D01*
X94397515Y-77985386D01*
X94182587Y-78074412D01*
X93989157Y-78203658D01*
X93824658Y-78368157D01*
X93695412Y-78561587D01*
X93606386Y-78776515D01*
X93561000Y-79004682D01*
X87501000Y-79004682D01*
X87501000Y-76101222D01*
X88365034Y-76965257D01*
X88382933Y-76987067D01*
X88469955Y-77058484D01*
X88569238Y-77111552D01*
X88676966Y-77144231D01*
X88760926Y-77152500D01*
X88760927Y-77152500D01*
X88788999Y-77155265D01*
X88808955Y-77153299D01*
X88816299Y-77177508D01*
X88851678Y-77243696D01*
X88899289Y-77301711D01*
X88957304Y-77349322D01*
X89023492Y-77384701D01*
X89095311Y-77406487D01*
X89170000Y-77413843D01*
X89670000Y-77413843D01*
X89744689Y-77406487D01*
X89816508Y-77384701D01*
X89882696Y-77349322D01*
X89940711Y-77301711D01*
X89988322Y-77243696D01*
X90023701Y-77177508D01*
X90045487Y-77105689D01*
X90052843Y-77031000D01*
X90052843Y-76131000D01*
X90045487Y-76056311D01*
X90023701Y-75984492D01*
X89988322Y-75918304D01*
X89940711Y-75860289D01*
X89882696Y-75812678D01*
X89816508Y-75777299D01*
X89744689Y-75755513D01*
X89670000Y-75748157D01*
X89170000Y-75748157D01*
X89095311Y-75755513D01*
X89023492Y-75777299D01*
X88957304Y-75812678D01*
X88899289Y-75860289D01*
X88889022Y-75872799D01*
X88268260Y-75252038D01*
X88263000Y-75247721D01*
X88263000Y-72898000D01*
X89822044Y-72898000D01*
X89845812Y-73139318D01*
X89916202Y-73371363D01*
X90030509Y-73585216D01*
X90184340Y-73772660D01*
X90371784Y-73926491D01*
X90570050Y-74032467D01*
X90570051Y-75763176D01*
X90523492Y-75777299D01*
X90457304Y-75812678D01*
X90399289Y-75860289D01*
X90351678Y-75918304D01*
X90316299Y-75984492D01*
X90294513Y-76056311D01*
X90287157Y-76131000D01*
X90287157Y-77031000D01*
X90294513Y-77105689D01*
X90316299Y-77177508D01*
X90351678Y-77243696D01*
X90399289Y-77301711D01*
X90457304Y-77349322D01*
X90523492Y-77384701D01*
X90595311Y-77406487D01*
X90670000Y-77413843D01*
X91170000Y-77413843D01*
X91244689Y-77406487D01*
X91316508Y-77384701D01*
X91382696Y-77349322D01*
X91440711Y-77301711D01*
X91488322Y-77243696D01*
X91523701Y-77177508D01*
X91545487Y-77105689D01*
X91552843Y-77031000D01*
X91552843Y-76131000D01*
X91547950Y-76081319D01*
X91547950Y-74032467D01*
X91746216Y-73926491D01*
X91933660Y-73772660D01*
X92087491Y-73585216D01*
X92196091Y-73382040D01*
X92202175Y-73402099D01*
X92327359Y-73664920D01*
X92501412Y-73898269D01*
X92717645Y-74093178D01*
X92967748Y-74242157D01*
X93242109Y-74339481D01*
X93472000Y-74218814D01*
X93472000Y-73025000D01*
X93726000Y-73025000D01*
X93726000Y-74218814D01*
X93955891Y-74339481D01*
X94230252Y-74242157D01*
X94480355Y-74093178D01*
X94696588Y-73898269D01*
X94870641Y-73664920D01*
X94995825Y-73402099D01*
X95040476Y-73254890D01*
X94919155Y-73025000D01*
X93726000Y-73025000D01*
X93472000Y-73025000D01*
X93452000Y-73025000D01*
X93452000Y-72771000D01*
X93472000Y-72771000D01*
X93472000Y-72751000D01*
X93726000Y-72751000D01*
X93726000Y-72771000D01*
X94919155Y-72771000D01*
X95040476Y-72541110D01*
X94995825Y-72393901D01*
X94870641Y-72131080D01*
X94696588Y-71897731D01*
X94550093Y-71765682D01*
X100800000Y-71765682D01*
X100800000Y-71998318D01*
X100845386Y-72226485D01*
X100934412Y-72441413D01*
X101063658Y-72634843D01*
X101228157Y-72799342D01*
X101421587Y-72928588D01*
X101636515Y-73017614D01*
X101864682Y-73063000D01*
X102097318Y-73063000D01*
X102325485Y-73017614D01*
X102540413Y-72928588D01*
X102733843Y-72799342D01*
X102898342Y-72634843D01*
X103027588Y-72441413D01*
X103116614Y-72226485D01*
X103162000Y-71998318D01*
X103162000Y-71765682D01*
X103116614Y-71537515D01*
X103027588Y-71322587D01*
X102898342Y-71129157D01*
X102733843Y-70964658D01*
X102540413Y-70835412D01*
X102325485Y-70746386D01*
X102097318Y-70701000D01*
X101864682Y-70701000D01*
X101636515Y-70746386D01*
X101421587Y-70835412D01*
X101228157Y-70964658D01*
X101063658Y-71129157D01*
X100934412Y-71322587D01*
X100845386Y-71537515D01*
X100800000Y-71765682D01*
X94550093Y-71765682D01*
X94480355Y-71702822D01*
X94230252Y-71553843D01*
X94075695Y-71499017D01*
X94286216Y-71386491D01*
X94473660Y-71232660D01*
X94627491Y-71045216D01*
X94741798Y-70831363D01*
X94812188Y-70599318D01*
X94835956Y-70358000D01*
X94812188Y-70116682D01*
X94741798Y-69884637D01*
X94627491Y-69670784D01*
X94473660Y-69483340D01*
X94286216Y-69329509D01*
X94072363Y-69215202D01*
X93840318Y-69144812D01*
X93659472Y-69127000D01*
X93538528Y-69127000D01*
X93357682Y-69144812D01*
X93125637Y-69215202D01*
X92911784Y-69329509D01*
X92724340Y-69483340D01*
X92570509Y-69670784D01*
X92456202Y-69884637D01*
X92385812Y-70116682D01*
X92362044Y-70358000D01*
X92385812Y-70599318D01*
X92456202Y-70831363D01*
X92570509Y-71045216D01*
X92724340Y-71232660D01*
X92911784Y-71386491D01*
X93122305Y-71499017D01*
X92967748Y-71553843D01*
X92717645Y-71702822D01*
X92501412Y-71897731D01*
X92327359Y-72131080D01*
X92202175Y-72393901D01*
X92196091Y-72413960D01*
X92087491Y-72210784D01*
X91933660Y-72023340D01*
X91746216Y-71869509D01*
X91532363Y-71755202D01*
X91300318Y-71684812D01*
X91119472Y-71667000D01*
X90998528Y-71667000D01*
X90817682Y-71684812D01*
X90585637Y-71755202D01*
X90371784Y-71869509D01*
X90184340Y-72023340D01*
X90030509Y-72210784D01*
X89916202Y-72424637D01*
X89845812Y-72656682D01*
X89822044Y-72898000D01*
X88263000Y-72898000D01*
X88263000Y-71972501D01*
X88352349Y-71883152D01*
X88442078Y-71901000D01*
X88595922Y-71901000D01*
X88746809Y-71870987D01*
X88888942Y-71812113D01*
X89016859Y-71726642D01*
X89125642Y-71617859D01*
X89211113Y-71489942D01*
X89269987Y-71347809D01*
X89300000Y-71196922D01*
X89300000Y-71043078D01*
X89269987Y-70892191D01*
X89211113Y-70750058D01*
X89125642Y-70622141D01*
X89016859Y-70513358D01*
X88888942Y-70427887D01*
X88746809Y-70369013D01*
X88691443Y-70358000D01*
X89822044Y-70358000D01*
X89845812Y-70599318D01*
X89916202Y-70831363D01*
X90030509Y-71045216D01*
X90184340Y-71232660D01*
X90371784Y-71386491D01*
X90585637Y-71500798D01*
X90817682Y-71571188D01*
X90998528Y-71589000D01*
X91119472Y-71589000D01*
X91300318Y-71571188D01*
X91532363Y-71500798D01*
X91746216Y-71386491D01*
X91933660Y-71232660D01*
X92087491Y-71045216D01*
X92201798Y-70831363D01*
X92272188Y-70599318D01*
X92295956Y-70358000D01*
X92272188Y-70116682D01*
X92201798Y-69884637D01*
X92087491Y-69670784D01*
X91933660Y-69483340D01*
X91746216Y-69329509D01*
X91532363Y-69215202D01*
X91300318Y-69144812D01*
X91119472Y-69127000D01*
X90998528Y-69127000D01*
X90817682Y-69144812D01*
X90585637Y-69215202D01*
X90371784Y-69329509D01*
X90184340Y-69483340D01*
X90030509Y-69670784D01*
X89916202Y-69884637D01*
X89845812Y-70116682D01*
X89822044Y-70358000D01*
X88691443Y-70358000D01*
X88595922Y-70339000D01*
X88442078Y-70339000D01*
X88291191Y-70369013D01*
X88149058Y-70427887D01*
X88021141Y-70513358D01*
X87923651Y-70610848D01*
X87833922Y-70593000D01*
X87680078Y-70593000D01*
X87529191Y-70623013D01*
X87501000Y-70634690D01*
X87501000Y-68750854D01*
X87503448Y-68726000D01*
X87493678Y-68626807D01*
X87464745Y-68531425D01*
X87450736Y-68505216D01*
X87417759Y-68443521D01*
X87354527Y-68366473D01*
X87335220Y-68350628D01*
X86457452Y-67472860D01*
X86507912Y-67306515D01*
X86525000Y-67133015D01*
X86525000Y-66216984D01*
X86507912Y-66043484D01*
X86440381Y-65820864D01*
X86330717Y-65615697D01*
X86183134Y-65435866D01*
X86024867Y-65305981D01*
X90278759Y-65305981D01*
X91557934Y-66585157D01*
X90209000Y-66585157D01*
X90134311Y-66592513D01*
X90062492Y-66614299D01*
X89996304Y-66649678D01*
X89938289Y-66697289D01*
X89890678Y-66755304D01*
X89855299Y-66821492D01*
X89833513Y-66893311D01*
X89826157Y-66968000D01*
X89826157Y-68668000D01*
X89833513Y-68742689D01*
X89855299Y-68814508D01*
X89890678Y-68880696D01*
X89938289Y-68938711D01*
X89996304Y-68986322D01*
X90062492Y-69021701D01*
X90134311Y-69043487D01*
X90209000Y-69050843D01*
X91909000Y-69050843D01*
X91983689Y-69043487D01*
X92055508Y-69021701D01*
X92121696Y-68986322D01*
X92179711Y-68938711D01*
X92227322Y-68880696D01*
X92262701Y-68814508D01*
X92284487Y-68742689D01*
X92291843Y-68668000D01*
X92291843Y-67319066D01*
X92364740Y-67391963D01*
X92364745Y-67391967D01*
X92423900Y-67451122D01*
X92385812Y-67576682D01*
X92362044Y-67818000D01*
X92385812Y-68059318D01*
X92456202Y-68291363D01*
X92570509Y-68505216D01*
X92724340Y-68692660D01*
X92911784Y-68846491D01*
X93125637Y-68960798D01*
X93357682Y-69031188D01*
X93538528Y-69049000D01*
X93659472Y-69049000D01*
X93840318Y-69031188D01*
X94072363Y-68960798D01*
X94286216Y-68846491D01*
X94473660Y-68692660D01*
X94627491Y-68505216D01*
X94741798Y-68291363D01*
X94812188Y-68059318D01*
X94835956Y-67818000D01*
X94812188Y-67576682D01*
X94741798Y-67344637D01*
X94627491Y-67130784D01*
X94473660Y-66943340D01*
X94286216Y-66789509D01*
X94072363Y-66675202D01*
X93840318Y-66604812D01*
X93659472Y-66587000D01*
X93538528Y-66587000D01*
X93357682Y-66604812D01*
X93232122Y-66642900D01*
X93172967Y-66583745D01*
X93172963Y-66583740D01*
X93148223Y-66559000D01*
X104252928Y-66559000D01*
X104265188Y-66683482D01*
X104301498Y-66803180D01*
X104360463Y-66913494D01*
X104439815Y-67010185D01*
X104536506Y-67089537D01*
X104646820Y-67148502D01*
X104766518Y-67184812D01*
X104891000Y-67197072D01*
X105505250Y-67194000D01*
X105664000Y-67035250D01*
X105664000Y-65786000D01*
X104414750Y-65786000D01*
X104256000Y-65944750D01*
X104252928Y-66559000D01*
X93148223Y-66559000D01*
X91348223Y-64759000D01*
X104252928Y-64759000D01*
X104256000Y-65373250D01*
X104414750Y-65532000D01*
X105664000Y-65532000D01*
X105664000Y-64282750D01*
X105918000Y-64282750D01*
X105918000Y-65532000D01*
X105938000Y-65532000D01*
X105938000Y-65786000D01*
X105918000Y-65786000D01*
X105918000Y-67035250D01*
X106076750Y-67194000D01*
X106691000Y-67197072D01*
X106815482Y-67184812D01*
X106935180Y-67148502D01*
X107045494Y-67089537D01*
X107142185Y-67010185D01*
X107221537Y-66913494D01*
X107280502Y-66803180D01*
X107316812Y-66683482D01*
X107329072Y-66559000D01*
X107328600Y-66464541D01*
X107335982Y-66475590D01*
X107514410Y-66654018D01*
X107724219Y-66794207D01*
X107957346Y-66890772D01*
X108204833Y-66940000D01*
X108457167Y-66940000D01*
X108704654Y-66890772D01*
X108937781Y-66794207D01*
X109147590Y-66654018D01*
X109326018Y-66475590D01*
X109466207Y-66265781D01*
X109562772Y-66032654D01*
X109612000Y-65785167D01*
X109612000Y-65532833D01*
X109562772Y-65285346D01*
X109466207Y-65052219D01*
X109326018Y-64842410D01*
X109147590Y-64663982D01*
X108937781Y-64523793D01*
X108704654Y-64427228D01*
X108457167Y-64378000D01*
X108204833Y-64378000D01*
X107957346Y-64427228D01*
X107724219Y-64523793D01*
X107514410Y-64663982D01*
X107335982Y-64842410D01*
X107328600Y-64853459D01*
X107329072Y-64759000D01*
X107316812Y-64634518D01*
X107280502Y-64514820D01*
X107221537Y-64404506D01*
X107142185Y-64307815D01*
X107045494Y-64228463D01*
X106935180Y-64169498D01*
X106815482Y-64133188D01*
X106691000Y-64120928D01*
X106076750Y-64124000D01*
X105918000Y-64282750D01*
X105664000Y-64282750D01*
X105505250Y-64124000D01*
X104891000Y-64120928D01*
X104766518Y-64133188D01*
X104646820Y-64169498D01*
X104536506Y-64228463D01*
X104439815Y-64307815D01*
X104360463Y-64404506D01*
X104301498Y-64514820D01*
X104265188Y-64634518D01*
X104252928Y-64759000D01*
X91348223Y-64759000D01*
X90939451Y-64350229D01*
X90921548Y-64328414D01*
X90834526Y-64256997D01*
X90735243Y-64203929D01*
X90627515Y-64171250D01*
X90543555Y-64162981D01*
X90515481Y-64160216D01*
X90487407Y-64162981D01*
X70059666Y-64162981D01*
X70031594Y-64160216D01*
X70003522Y-64162981D01*
X70003521Y-64162981D01*
X69919561Y-64171250D01*
X69811833Y-64203929D01*
X69712550Y-64256997D01*
X69625528Y-64328414D01*
X69607629Y-64350224D01*
X67607243Y-66350611D01*
X67585433Y-66368510D01*
X67528856Y-66437449D01*
X67514015Y-66455533D01*
X67460947Y-66554816D01*
X67428268Y-66662544D01*
X67417234Y-66774577D01*
X56770159Y-66774577D01*
X56950590Y-66654018D01*
X57129018Y-66475590D01*
X57269207Y-66265781D01*
X57365772Y-66032654D01*
X57415000Y-65785167D01*
X57415000Y-65532833D01*
X57365772Y-65285346D01*
X57269207Y-65052219D01*
X57129018Y-64842410D01*
X56950590Y-64663982D01*
X56740781Y-64523793D01*
X56507654Y-64427228D01*
X56260167Y-64378000D01*
X56007833Y-64378000D01*
X55760346Y-64427228D01*
X55527219Y-64523793D01*
X55317410Y-64663982D01*
X55138982Y-64842410D01*
X55131600Y-64853459D01*
X55132072Y-64759000D01*
X55119812Y-64634518D01*
X55083502Y-64514820D01*
X55024537Y-64404506D01*
X54945185Y-64307815D01*
X54848494Y-64228463D01*
X54738180Y-64169498D01*
X54618482Y-64133188D01*
X54494000Y-64120928D01*
X53879750Y-64124000D01*
X53721000Y-64282750D01*
X53467000Y-64282750D01*
X53308250Y-64124000D01*
X52694000Y-64120928D01*
X52569518Y-64133188D01*
X52449820Y-64169498D01*
X52339506Y-64228463D01*
X52242815Y-64307815D01*
X52163463Y-64404506D01*
X52104498Y-64514820D01*
X52068188Y-64634518D01*
X52055928Y-64759000D01*
X50571000Y-64759000D01*
X50571000Y-61366000D01*
X111354000Y-61366000D01*
X111354001Y-124054000D01*
G36*
X74344866Y-65435866D02*
G01*
X74197283Y-65615698D01*
X74087619Y-65820865D01*
X74020088Y-66043485D01*
X74003000Y-66216985D01*
X74003000Y-67133016D01*
X74020088Y-67306516D01*
X74087619Y-67529136D01*
X74197284Y-67734303D01*
X74344867Y-67914134D01*
X74524698Y-68061717D01*
X74729865Y-68171381D01*
X74952485Y-68238912D01*
X75184000Y-68261714D01*
X75415516Y-68238912D01*
X75638136Y-68171381D01*
X75843303Y-68061717D01*
X76023134Y-67914134D01*
X76170717Y-67734303D01*
X76280381Y-67529136D01*
X76347912Y-67306515D01*
X76365000Y-67133015D01*
X76365000Y-66216984D01*
X76347912Y-66043484D01*
X76280381Y-65820864D01*
X76170717Y-65615697D01*
X76023134Y-65435866D01*
X75864867Y-65305981D01*
X77043132Y-65305981D01*
X76884866Y-65435866D01*
X76737283Y-65615698D01*
X76627619Y-65820865D01*
X76560088Y-66043485D01*
X76543000Y-66216985D01*
X76543000Y-67133016D01*
X76560088Y-67306516D01*
X76627619Y-67529136D01*
X76737284Y-67734303D01*
X76884867Y-67914134D01*
X77064698Y-68061717D01*
X77269865Y-68171381D01*
X77492485Y-68238912D01*
X77724000Y-68261714D01*
X77955516Y-68238912D01*
X78178136Y-68171381D01*
X78383303Y-68061717D01*
X78563134Y-67914134D01*
X78710717Y-67734303D01*
X78820381Y-67529136D01*
X78887912Y-67306515D01*
X78905000Y-67133015D01*
X78905000Y-66216984D01*
X78887912Y-66043484D01*
X78820381Y-65820864D01*
X78710717Y-65615697D01*
X78563134Y-65435866D01*
X78404867Y-65305981D01*
X79583132Y-65305981D01*
X79424866Y-65435866D01*
X79277283Y-65615698D01*
X79167619Y-65820865D01*
X79100088Y-66043485D01*
X79083000Y-66216985D01*
X79083000Y-67133016D01*
X79100088Y-67306516D01*
X79167619Y-67529136D01*
X79277284Y-67734303D01*
X79424867Y-67914134D01*
X79604698Y-68061717D01*
X79809865Y-68171381D01*
X80032485Y-68238912D01*
X80264000Y-68261714D01*
X80495516Y-68238912D01*
X80718136Y-68171381D01*
X80923303Y-68061717D01*
X81103134Y-67914134D01*
X81250717Y-67734303D01*
X81360381Y-67529136D01*
X81427912Y-67306515D01*
X81445000Y-67133015D01*
X81445000Y-66216984D01*
X81427912Y-66043484D01*
X81377452Y-65877140D01*
X81548602Y-65705990D01*
X81769021Y-65705990D01*
X81707619Y-65820865D01*
X81640088Y-66043485D01*
X81623000Y-66216985D01*
X81623000Y-67133016D01*
X81640088Y-67306516D01*
X81696160Y-67491360D01*
X76125237Y-73062284D01*
X76106589Y-73077588D01*
X76091285Y-73096236D01*
X76091280Y-73096241D01*
X76073774Y-73117572D01*
X76023134Y-73055866D01*
X75843302Y-72908283D01*
X75638135Y-72798619D01*
X75415515Y-72731088D01*
X75184000Y-72708286D01*
X74952484Y-72731088D01*
X74729864Y-72798619D01*
X74524697Y-72908283D01*
X74344866Y-73055866D01*
X74197283Y-73235698D01*
X74087619Y-73440865D01*
X74020088Y-73663485D01*
X74003000Y-73836985D01*
X74003000Y-74753016D01*
X74020088Y-74926516D01*
X74087619Y-75149136D01*
X74197284Y-75354303D01*
X74344867Y-75534134D01*
X74524698Y-75681717D01*
X74612501Y-75728648D01*
X74612500Y-77868277D01*
X73656744Y-78824034D01*
X73634934Y-78841933D01*
X73595910Y-78889484D01*
X73563516Y-78928956D01*
X73510448Y-79028239D01*
X73477769Y-79135967D01*
X73466735Y-79248000D01*
X73469501Y-79276084D01*
X73469500Y-83413999D01*
X73434358Y-83449141D01*
X73348887Y-83577058D01*
X73290013Y-83719191D01*
X73260000Y-83870078D01*
X73260000Y-84023922D01*
X73290013Y-84174809D01*
X73348887Y-84316942D01*
X73434358Y-84444859D01*
X73444499Y-84455000D01*
X73434358Y-84465141D01*
X73348887Y-84593058D01*
X73290013Y-84735191D01*
X73260000Y-84886078D01*
X73260000Y-85039922D01*
X73290013Y-85190809D01*
X73348887Y-85332942D01*
X73434358Y-85460859D01*
X73543141Y-85569642D01*
X73671058Y-85655113D01*
X73813191Y-85713987D01*
X73964078Y-85744000D01*
X74117922Y-85744000D01*
X74268809Y-85713987D01*
X74410942Y-85655113D01*
X74538859Y-85569642D01*
X74647642Y-85460859D01*
X74733113Y-85332942D01*
X74791987Y-85190809D01*
X74822000Y-85039922D01*
X74822000Y-84886078D01*
X74791987Y-84735191D01*
X74733113Y-84593058D01*
X74647642Y-84465141D01*
X74637501Y-84455000D01*
X74647642Y-84444859D01*
X74733113Y-84316942D01*
X74791987Y-84174809D01*
X74822000Y-84023922D01*
X74822000Y-83870078D01*
X74791987Y-83719191D01*
X74733113Y-83577058D01*
X74647642Y-83449141D01*
X74612500Y-83413999D01*
X74612500Y-79484722D01*
X75472141Y-78625082D01*
X75472140Y-85195987D01*
X75469776Y-85219990D01*
X75472140Y-85243993D01*
X75472140Y-85244003D01*
X75479215Y-85315840D01*
X75507174Y-85408007D01*
X75552577Y-85492950D01*
X75613678Y-85567402D01*
X75632331Y-85582710D01*
X76122384Y-86072764D01*
X76137688Y-86091412D01*
X76156336Y-86106716D01*
X76156340Y-86106720D01*
X76212139Y-86152513D01*
X76257542Y-86176781D01*
X76297082Y-86197916D01*
X76318157Y-86204309D01*
X76318157Y-86264050D01*
X74660161Y-86264050D01*
X74642701Y-86206492D01*
X74607322Y-86140304D01*
X74559711Y-86082289D01*
X74501696Y-86034678D01*
X74435508Y-85999299D01*
X74363689Y-85977513D01*
X74289000Y-85970157D01*
X73539000Y-85970157D01*
X73464311Y-85977513D01*
X73392492Y-85999299D01*
X73326304Y-86034678D01*
X73268289Y-86082289D01*
X73220678Y-86140304D01*
X73215500Y-86149991D01*
X73210322Y-86140304D01*
X73162711Y-86082289D01*
X73104696Y-86034678D01*
X73038508Y-85999299D01*
X72966689Y-85977513D01*
X72892000Y-85970157D01*
X72142000Y-85970157D01*
X72067311Y-85977513D01*
X71995492Y-85999299D01*
X71929304Y-86034678D01*
X71871289Y-86082289D01*
X71823678Y-86140304D01*
X71801658Y-86181500D01*
X71789074Y-86181500D01*
X71761000Y-86178735D01*
X71732926Y-86181500D01*
X71648966Y-86189769D01*
X71541238Y-86222448D01*
X71441955Y-86275516D01*
X71354933Y-86346933D01*
X71337036Y-86368741D01*
X71301029Y-86404748D01*
X71137932Y-86241652D01*
X71320136Y-86186381D01*
X71525303Y-86076717D01*
X71705134Y-85929134D01*
X71852717Y-85749303D01*
X71962381Y-85544136D01*
X72029912Y-85321516D01*
X72052714Y-85090000D01*
X72029912Y-84858484D01*
X71962381Y-84635864D01*
X71852717Y-84430697D01*
X71705134Y-84250866D01*
X71525303Y-84103283D01*
X71320136Y-83993619D01*
X71097516Y-83926088D01*
X70924016Y-83909000D01*
X70807984Y-83909000D01*
X70634484Y-83926088D01*
X70411864Y-83993619D01*
X70296999Y-84055016D01*
X70296999Y-81552984D01*
X70411864Y-81614381D01*
X70634484Y-81681912D01*
X70807984Y-81699000D01*
X70924016Y-81699000D01*
X71097516Y-81681912D01*
X71320136Y-81614381D01*
X71525303Y-81504717D01*
X71705134Y-81357134D01*
X71852717Y-81177303D01*
X71962381Y-80972136D01*
X72029912Y-80749516D01*
X72052714Y-80518000D01*
X72029912Y-80286484D01*
X71962381Y-80063864D01*
X71852717Y-79858697D01*
X71705134Y-79678866D01*
X71525303Y-79531283D01*
X71320136Y-79421619D01*
X71097516Y-79354088D01*
X70924016Y-79337000D01*
X70807984Y-79337000D01*
X70634484Y-79354088D01*
X70411864Y-79421619D01*
X70296999Y-79483016D01*
X70296999Y-76491223D01*
X70488252Y-76299970D01*
X70510067Y-76282067D01*
X70581484Y-76195045D01*
X70634552Y-76095762D01*
X70667231Y-75988034D01*
X70675500Y-75904074D01*
X70675500Y-75904073D01*
X70678084Y-75877843D01*
X70904000Y-75877843D01*
X70978689Y-75870487D01*
X71050508Y-75848701D01*
X71116696Y-75813322D01*
X71174711Y-75765711D01*
X71222322Y-75707696D01*
X71257701Y-75641508D01*
X71279487Y-75569689D01*
X71286843Y-75495000D01*
X71286843Y-73836985D01*
X71463000Y-73836985D01*
X71463000Y-74753016D01*
X71480088Y-74926516D01*
X71547619Y-75149136D01*
X71657284Y-75354303D01*
X71804867Y-75534134D01*
X71984698Y-75681717D01*
X72189865Y-75791381D01*
X72412485Y-75858912D01*
X72644000Y-75881714D01*
X72875516Y-75858912D01*
X73098136Y-75791381D01*
X73303303Y-75681717D01*
X73483134Y-75534134D01*
X73630717Y-75354303D01*
X73740381Y-75149136D01*
X73807912Y-74926515D01*
X73825000Y-74753015D01*
X73825000Y-73836984D01*
X73807912Y-73663484D01*
X73740381Y-73440864D01*
X73630717Y-73235697D01*
X73483134Y-73055866D01*
X73303302Y-72908283D01*
X73098135Y-72798619D01*
X72875515Y-72731088D01*
X72644000Y-72708286D01*
X72412484Y-72731088D01*
X72189864Y-72798619D01*
X71984697Y-72908283D01*
X71804866Y-73055866D01*
X71657283Y-73235698D01*
X71547619Y-73440865D01*
X71480088Y-73663485D01*
X71463000Y-73836985D01*
X71286843Y-73836985D01*
X71286843Y-73095000D01*
X71279487Y-73020311D01*
X71257701Y-72948492D01*
X71222322Y-72882304D01*
X71174711Y-72824289D01*
X71116696Y-72776678D01*
X71050508Y-72741299D01*
X70978689Y-72719513D01*
X70904000Y-72712157D01*
X70592950Y-72712157D01*
X70592950Y-71998577D01*
X70625508Y-71988701D01*
X70691696Y-71953322D01*
X70749711Y-71905711D01*
X70797322Y-71847696D01*
X70832701Y-71781508D01*
X70854487Y-71709689D01*
X70861843Y-71635000D01*
X70861843Y-70835000D01*
X70854487Y-70760311D01*
X70832701Y-70688492D01*
X70823334Y-70670968D01*
X70833494Y-70665537D01*
X70930185Y-70586185D01*
X71009537Y-70489494D01*
X71068502Y-70379180D01*
X71104812Y-70259482D01*
X71117072Y-70135000D01*
X71114000Y-70020750D01*
X70955250Y-69862000D01*
X70231000Y-69862000D01*
X70231000Y-69882000D01*
X69977000Y-69882000D01*
X69977000Y-69862000D01*
X68834000Y-69862000D01*
X68834000Y-69882000D01*
X68580000Y-69882000D01*
X68580000Y-69862000D01*
X68562999Y-69862000D01*
X68562999Y-69608000D01*
X68580000Y-69608000D01*
X68580000Y-68858750D01*
X68834000Y-68858750D01*
X68834000Y-69608000D01*
X69977000Y-69608000D01*
X69977000Y-68858750D01*
X70231000Y-68858750D01*
X70231000Y-69608000D01*
X70955250Y-69608000D01*
X71114000Y-69449250D01*
X71117072Y-69335000D01*
X71104812Y-69210518D01*
X71068502Y-69090820D01*
X71009537Y-68980506D01*
X70930185Y-68883815D01*
X70833494Y-68804463D01*
X70723180Y-68745498D01*
X70603482Y-68709188D01*
X70479000Y-68696928D01*
X70389750Y-68700000D01*
X70231000Y-68858750D01*
X69977000Y-68858750D01*
X69818250Y-68700000D01*
X69729000Y-68696928D01*
X69604518Y-68709188D01*
X69484820Y-68745498D01*
X69405500Y-68787896D01*
X69326180Y-68745498D01*
X69206482Y-68709188D01*
X69082000Y-68696928D01*
X68992750Y-68700000D01*
X68834000Y-68858750D01*
X68580000Y-68858750D01*
X68562999Y-68841749D01*
X68562999Y-67011299D01*
X68669000Y-66905298D01*
X68669000Y-67202000D01*
X68721350Y-67479514D01*
X68826834Y-67741483D01*
X68981399Y-67977839D01*
X69179105Y-68179500D01*
X69412354Y-68338715D01*
X69672182Y-68449367D01*
X69754961Y-68466904D01*
X69977000Y-68344915D01*
X69977000Y-66802000D01*
X69957000Y-66802000D01*
X69957000Y-66548000D01*
X69977000Y-66548000D01*
X69977000Y-66528000D01*
X70231000Y-66528000D01*
X70231000Y-66548000D01*
X70251000Y-66548000D01*
X70251000Y-66802000D01*
X70231000Y-66802000D01*
X70231000Y-68344915D01*
X70453039Y-68466904D01*
X70535818Y-68449367D01*
X70795646Y-68338715D01*
X71028895Y-68179500D01*
X71226601Y-67977839D01*
X71381166Y-67741483D01*
X71486650Y-67479514D01*
X71504255Y-67386185D01*
X71547619Y-67529136D01*
X71657284Y-67734303D01*
X71804867Y-67914134D01*
X71984698Y-68061717D01*
X72189865Y-68171381D01*
X72412485Y-68238912D01*
X72644000Y-68261714D01*
X72875516Y-68238912D01*
X73098136Y-68171381D01*
X73303303Y-68061717D01*
X73483134Y-67914134D01*
X73630717Y-67734303D01*
X73740381Y-67529136D01*
X73807912Y-67306515D01*
X73825000Y-67133015D01*
X73825000Y-66216984D01*
X73807912Y-66043484D01*
X73740381Y-65820864D01*
X73630717Y-65615697D01*
X73483134Y-65435866D01*
X73324867Y-65305981D01*
X74503132Y-65305981D01*
X74344866Y-65435866D01*
X74344866Y-65435866D01*
G37*
X74344866Y-65435866D02*
X74197283Y-65615698D01*
X74087619Y-65820865D01*
X74020088Y-66043485D01*
X74003000Y-66216985D01*
X74003000Y-67133016D01*
X74020088Y-67306516D01*
X74087619Y-67529136D01*
X74197284Y-67734303D01*
X74344867Y-67914134D01*
X74524698Y-68061717D01*
X74729865Y-68171381D01*
X74952485Y-68238912D01*
X75184000Y-68261714D01*
X75415516Y-68238912D01*
X75638136Y-68171381D01*
X75843303Y-68061717D01*
X76023134Y-67914134D01*
X76170717Y-67734303D01*
X76280381Y-67529136D01*
X76347912Y-67306515D01*
X76365000Y-67133015D01*
X76365000Y-66216984D01*
X76347912Y-66043484D01*
X76280381Y-65820864D01*
X76170717Y-65615697D01*
X76023134Y-65435866D01*
X75864867Y-65305981D01*
X77043132Y-65305981D01*
X76884866Y-65435866D01*
X76737283Y-65615698D01*
X76627619Y-65820865D01*
X76560088Y-66043485D01*
X76543000Y-66216985D01*
X76543000Y-67133016D01*
X76560088Y-67306516D01*
X76627619Y-67529136D01*
X76737284Y-67734303D01*
X76884867Y-67914134D01*
X77064698Y-68061717D01*
X77269865Y-68171381D01*
X77492485Y-68238912D01*
X77724000Y-68261714D01*
X77955516Y-68238912D01*
X78178136Y-68171381D01*
X78383303Y-68061717D01*
X78563134Y-67914134D01*
X78710717Y-67734303D01*
X78820381Y-67529136D01*
X78887912Y-67306515D01*
X78905000Y-67133015D01*
X78905000Y-66216984D01*
X78887912Y-66043484D01*
X78820381Y-65820864D01*
X78710717Y-65615697D01*
X78563134Y-65435866D01*
X78404867Y-65305981D01*
X79583132Y-65305981D01*
X79424866Y-65435866D01*
X79277283Y-65615698D01*
X79167619Y-65820865D01*
X79100088Y-66043485D01*
X79083000Y-66216985D01*
X79083000Y-67133016D01*
X79100088Y-67306516D01*
X79167619Y-67529136D01*
X79277284Y-67734303D01*
X79424867Y-67914134D01*
X79604698Y-68061717D01*
X79809865Y-68171381D01*
X80032485Y-68238912D01*
X80264000Y-68261714D01*
X80495516Y-68238912D01*
X80718136Y-68171381D01*
X80923303Y-68061717D01*
X81103134Y-67914134D01*
X81250717Y-67734303D01*
X81360381Y-67529136D01*
X81427912Y-67306515D01*
X81445000Y-67133015D01*
X81445000Y-66216984D01*
X81427912Y-66043484D01*
X81377452Y-65877140D01*
X81548602Y-65705990D01*
X81769021Y-65705990D01*
X81707619Y-65820865D01*
X81640088Y-66043485D01*
X81623000Y-66216985D01*
X81623000Y-67133016D01*
X81640088Y-67306516D01*
X81696160Y-67491360D01*
X76125237Y-73062284D01*
X76106589Y-73077588D01*
X76091285Y-73096236D01*
X76091280Y-73096241D01*
X76073774Y-73117572D01*
X76023134Y-73055866D01*
X75843302Y-72908283D01*
X75638135Y-72798619D01*
X75415515Y-72731088D01*
X75184000Y-72708286D01*
X74952484Y-72731088D01*
X74729864Y-72798619D01*
X74524697Y-72908283D01*
X74344866Y-73055866D01*
X74197283Y-73235698D01*
X74087619Y-73440865D01*
X74020088Y-73663485D01*
X74003000Y-73836985D01*
X74003000Y-74753016D01*
X74020088Y-74926516D01*
X74087619Y-75149136D01*
X74197284Y-75354303D01*
X74344867Y-75534134D01*
X74524698Y-75681717D01*
X74612501Y-75728648D01*
X74612500Y-77868277D01*
X73656744Y-78824034D01*
X73634934Y-78841933D01*
X73595910Y-78889484D01*
X73563516Y-78928956D01*
X73510448Y-79028239D01*
X73477769Y-79135967D01*
X73466735Y-79248000D01*
X73469501Y-79276084D01*
X73469500Y-83413999D01*
X73434358Y-83449141D01*
X73348887Y-83577058D01*
X73290013Y-83719191D01*
X73260000Y-83870078D01*
X73260000Y-84023922D01*
X73290013Y-84174809D01*
X73348887Y-84316942D01*
X73434358Y-84444859D01*
X73444499Y-84455000D01*
X73434358Y-84465141D01*
X73348887Y-84593058D01*
X73290013Y-84735191D01*
X73260000Y-84886078D01*
X73260000Y-85039922D01*
X73290013Y-85190809D01*
X73348887Y-85332942D01*
X73434358Y-85460859D01*
X73543141Y-85569642D01*
X73671058Y-85655113D01*
X73813191Y-85713987D01*
X73964078Y-85744000D01*
X74117922Y-85744000D01*
X74268809Y-85713987D01*
X74410942Y-85655113D01*
X74538859Y-85569642D01*
X74647642Y-85460859D01*
X74733113Y-85332942D01*
X74791987Y-85190809D01*
X74822000Y-85039922D01*
X74822000Y-84886078D01*
X74791987Y-84735191D01*
X74733113Y-84593058D01*
X74647642Y-84465141D01*
X74637501Y-84455000D01*
X74647642Y-84444859D01*
X74733113Y-84316942D01*
X74791987Y-84174809D01*
X74822000Y-84023922D01*
X74822000Y-83870078D01*
X74791987Y-83719191D01*
X74733113Y-83577058D01*
X74647642Y-83449141D01*
X74612500Y-83413999D01*
X74612500Y-79484722D01*
X75472141Y-78625082D01*
X75472140Y-85195987D01*
X75469776Y-85219990D01*
X75472140Y-85243993D01*
X75472140Y-85244003D01*
X75479215Y-85315840D01*
X75507174Y-85408007D01*
X75552577Y-85492950D01*
X75613678Y-85567402D01*
X75632331Y-85582710D01*
X76122384Y-86072764D01*
X76137688Y-86091412D01*
X76156336Y-86106716D01*
X76156340Y-86106720D01*
X76212139Y-86152513D01*
X76257542Y-86176781D01*
X76297082Y-86197916D01*
X76318157Y-86204309D01*
X76318157Y-86264050D01*
X74660161Y-86264050D01*
X74642701Y-86206492D01*
X74607322Y-86140304D01*
X74559711Y-86082289D01*
X74501696Y-86034678D01*
X74435508Y-85999299D01*
X74363689Y-85977513D01*
X74289000Y-85970157D01*
X73539000Y-85970157D01*
X73464311Y-85977513D01*
X73392492Y-85999299D01*
X73326304Y-86034678D01*
X73268289Y-86082289D01*
X73220678Y-86140304D01*
X73215500Y-86149991D01*
X73210322Y-86140304D01*
X73162711Y-86082289D01*
X73104696Y-86034678D01*
X73038508Y-85999299D01*
X72966689Y-85977513D01*
X72892000Y-85970157D01*
X72142000Y-85970157D01*
X72067311Y-85977513D01*
X71995492Y-85999299D01*
X71929304Y-86034678D01*
X71871289Y-86082289D01*
X71823678Y-86140304D01*
X71801658Y-86181500D01*
X71789074Y-86181500D01*
X71761000Y-86178735D01*
X71732926Y-86181500D01*
X71648966Y-86189769D01*
X71541238Y-86222448D01*
X71441955Y-86275516D01*
X71354933Y-86346933D01*
X71337036Y-86368741D01*
X71301029Y-86404748D01*
X71137932Y-86241652D01*
X71320136Y-86186381D01*
X71525303Y-86076717D01*
X71705134Y-85929134D01*
X71852717Y-85749303D01*
X71962381Y-85544136D01*
X72029912Y-85321516D01*
X72052714Y-85090000D01*
X72029912Y-84858484D01*
X71962381Y-84635864D01*
X71852717Y-84430697D01*
X71705134Y-84250866D01*
X71525303Y-84103283D01*
X71320136Y-83993619D01*
X71097516Y-83926088D01*
X70924016Y-83909000D01*
X70807984Y-83909000D01*
X70634484Y-83926088D01*
X70411864Y-83993619D01*
X70296999Y-84055016D01*
X70296999Y-81552984D01*
X70411864Y-81614381D01*
X70634484Y-81681912D01*
X70807984Y-81699000D01*
X70924016Y-81699000D01*
X71097516Y-81681912D01*
X71320136Y-81614381D01*
X71525303Y-81504717D01*
X71705134Y-81357134D01*
X71852717Y-81177303D01*
X71962381Y-80972136D01*
X72029912Y-80749516D01*
X72052714Y-80518000D01*
X72029912Y-80286484D01*
X71962381Y-80063864D01*
X71852717Y-79858697D01*
X71705134Y-79678866D01*
X71525303Y-79531283D01*
X71320136Y-79421619D01*
X71097516Y-79354088D01*
X70924016Y-79337000D01*
X70807984Y-79337000D01*
X70634484Y-79354088D01*
X70411864Y-79421619D01*
X70296999Y-79483016D01*
X70296999Y-76491223D01*
X70488252Y-76299970D01*
X70510067Y-76282067D01*
X70581484Y-76195045D01*
X70634552Y-76095762D01*
X70667231Y-75988034D01*
X70675500Y-75904074D01*
X70675500Y-75904073D01*
X70678084Y-75877843D01*
X70904000Y-75877843D01*
X70978689Y-75870487D01*
X71050508Y-75848701D01*
X71116696Y-75813322D01*
X71174711Y-75765711D01*
X71222322Y-75707696D01*
X71257701Y-75641508D01*
X71279487Y-75569689D01*
X71286843Y-75495000D01*
X71286843Y-73836985D01*
X71463000Y-73836985D01*
X71463000Y-74753016D01*
X71480088Y-74926516D01*
X71547619Y-75149136D01*
X71657284Y-75354303D01*
X71804867Y-75534134D01*
X71984698Y-75681717D01*
X72189865Y-75791381D01*
X72412485Y-75858912D01*
X72644000Y-75881714D01*
X72875516Y-75858912D01*
X73098136Y-75791381D01*
X73303303Y-75681717D01*
X73483134Y-75534134D01*
X73630717Y-75354303D01*
X73740381Y-75149136D01*
X73807912Y-74926515D01*
X73825000Y-74753015D01*
X73825000Y-73836984D01*
X73807912Y-73663484D01*
X73740381Y-73440864D01*
X73630717Y-73235697D01*
X73483134Y-73055866D01*
X73303302Y-72908283D01*
X73098135Y-72798619D01*
X72875515Y-72731088D01*
X72644000Y-72708286D01*
X72412484Y-72731088D01*
X72189864Y-72798619D01*
X71984697Y-72908283D01*
X71804866Y-73055866D01*
X71657283Y-73235698D01*
X71547619Y-73440865D01*
X71480088Y-73663485D01*
X71463000Y-73836985D01*
X71286843Y-73836985D01*
X71286843Y-73095000D01*
X71279487Y-73020311D01*
X71257701Y-72948492D01*
X71222322Y-72882304D01*
X71174711Y-72824289D01*
X71116696Y-72776678D01*
X71050508Y-72741299D01*
X70978689Y-72719513D01*
X70904000Y-72712157D01*
X70592950Y-72712157D01*
X70592950Y-71998577D01*
X70625508Y-71988701D01*
X70691696Y-71953322D01*
X70749711Y-71905711D01*
X70797322Y-71847696D01*
X70832701Y-71781508D01*
X70854487Y-71709689D01*
X70861843Y-71635000D01*
X70861843Y-70835000D01*
X70854487Y-70760311D01*
X70832701Y-70688492D01*
X70823334Y-70670968D01*
X70833494Y-70665537D01*
X70930185Y-70586185D01*
X71009537Y-70489494D01*
X71068502Y-70379180D01*
X71104812Y-70259482D01*
X71117072Y-70135000D01*
X71114000Y-70020750D01*
X70955250Y-69862000D01*
X70231000Y-69862000D01*
X70231000Y-69882000D01*
X69977000Y-69882000D01*
X69977000Y-69862000D01*
X68834000Y-69862000D01*
X68834000Y-69882000D01*
X68580000Y-69882000D01*
X68580000Y-69862000D01*
X68562999Y-69862000D01*
X68562999Y-69608000D01*
X68580000Y-69608000D01*
X68580000Y-68858750D01*
X68834000Y-68858750D01*
X68834000Y-69608000D01*
X69977000Y-69608000D01*
X69977000Y-68858750D01*
X70231000Y-68858750D01*
X70231000Y-69608000D01*
X70955250Y-69608000D01*
X71114000Y-69449250D01*
X71117072Y-69335000D01*
X71104812Y-69210518D01*
X71068502Y-69090820D01*
X71009537Y-68980506D01*
X70930185Y-68883815D01*
X70833494Y-68804463D01*
X70723180Y-68745498D01*
X70603482Y-68709188D01*
X70479000Y-68696928D01*
X70389750Y-68700000D01*
X70231000Y-68858750D01*
X69977000Y-68858750D01*
X69818250Y-68700000D01*
X69729000Y-68696928D01*
X69604518Y-68709188D01*
X69484820Y-68745498D01*
X69405500Y-68787896D01*
X69326180Y-68745498D01*
X69206482Y-68709188D01*
X69082000Y-68696928D01*
X68992750Y-68700000D01*
X68834000Y-68858750D01*
X68580000Y-68858750D01*
X68562999Y-68841749D01*
X68562999Y-67011299D01*
X68669000Y-66905298D01*
X68669000Y-67202000D01*
X68721350Y-67479514D01*
X68826834Y-67741483D01*
X68981399Y-67977839D01*
X69179105Y-68179500D01*
X69412354Y-68338715D01*
X69672182Y-68449367D01*
X69754961Y-68466904D01*
X69977000Y-68344915D01*
X69977000Y-66802000D01*
X69957000Y-66802000D01*
X69957000Y-66548000D01*
X69977000Y-66548000D01*
X69977000Y-66528000D01*
X70231000Y-66528000D01*
X70231000Y-66548000D01*
X70251000Y-66548000D01*
X70251000Y-66802000D01*
X70231000Y-66802000D01*
X70231000Y-68344915D01*
X70453039Y-68466904D01*
X70535818Y-68449367D01*
X70795646Y-68338715D01*
X71028895Y-68179500D01*
X71226601Y-67977839D01*
X71381166Y-67741483D01*
X71486650Y-67479514D01*
X71504255Y-67386185D01*
X71547619Y-67529136D01*
X71657284Y-67734303D01*
X71804867Y-67914134D01*
X71984698Y-68061717D01*
X72189865Y-68171381D01*
X72412485Y-68238912D01*
X72644000Y-68261714D01*
X72875516Y-68238912D01*
X73098136Y-68171381D01*
X73303303Y-68061717D01*
X73483134Y-67914134D01*
X73630717Y-67734303D01*
X73740381Y-67529136D01*
X73807912Y-67306515D01*
X73825000Y-67133015D01*
X73825000Y-66216984D01*
X73807912Y-66043484D01*
X73740381Y-65820864D01*
X73630717Y-65615697D01*
X73483134Y-65435866D01*
X73324867Y-65305981D01*
X74503132Y-65305981D01*
X74344866Y-65435866D01*
G36*
X83568001Y-71079851D02*
G01*
X83565553Y-71104707D01*
X83575322Y-71203899D01*
X83604255Y-71299281D01*
X83604256Y-71299282D01*
X83651242Y-71387186D01*
X83714474Y-71464234D01*
X83733781Y-71480079D01*
X85014510Y-72760808D01*
X84889864Y-72798619D01*
X84684697Y-72908283D01*
X84504866Y-73055866D01*
X84357283Y-73235698D01*
X84247619Y-73440865D01*
X84180088Y-73663485D01*
X84163000Y-73836985D01*
X84163000Y-74753016D01*
X84180088Y-74926516D01*
X84236160Y-75111360D01*
X79412151Y-79935370D01*
X79393498Y-79950678D01*
X79332397Y-80025130D01*
X79286994Y-80110073D01*
X79259035Y-80202240D01*
X79251960Y-80274077D01*
X79251960Y-80274087D01*
X79249596Y-80298090D01*
X79251960Y-80322093D01*
X79251960Y-80954122D01*
X79245180Y-80950498D01*
X79125482Y-80914188D01*
X79001000Y-80901928D01*
X78886750Y-80905000D01*
X78728000Y-81063750D01*
X78728000Y-81788000D01*
X78748000Y-81788000D01*
X78748000Y-82042000D01*
X78728000Y-82042000D01*
X78728000Y-82766250D01*
X78886750Y-82925000D01*
X79001000Y-82928072D01*
X79125482Y-82915812D01*
X79245180Y-82879502D01*
X79251960Y-82875878D01*
X79251961Y-83834448D01*
X79230203Y-83823516D01*
X79109626Y-83790242D01*
X78984874Y-83781132D01*
X78936750Y-83784000D01*
X78778000Y-83942750D01*
X78778000Y-84669000D01*
X78524000Y-84669000D01*
X78524000Y-83942750D01*
X78365250Y-83784000D01*
X78317126Y-83781132D01*
X78192374Y-83790242D01*
X78071797Y-83823516D01*
X77960028Y-83879673D01*
X77861362Y-83956556D01*
X77779591Y-84051211D01*
X77717858Y-84160000D01*
X77707353Y-84191720D01*
X77671711Y-84148289D01*
X77613696Y-84100678D01*
X77547508Y-84065299D01*
X77475689Y-84043513D01*
X77401000Y-84036157D01*
X76815950Y-84036157D01*
X76815950Y-82672843D01*
X77501000Y-82672843D01*
X77575689Y-82665487D01*
X77647508Y-82643701D01*
X77665032Y-82634334D01*
X77670463Y-82644494D01*
X77749815Y-82741185D01*
X77846506Y-82820537D01*
X77956820Y-82879502D01*
X78076518Y-82915812D01*
X78201000Y-82928072D01*
X78315250Y-82925000D01*
X78474000Y-82766250D01*
X78474000Y-82042000D01*
X78454000Y-82042000D01*
X78454000Y-81788000D01*
X78474000Y-81788000D01*
X78474000Y-81063750D01*
X78315250Y-80905000D01*
X78201000Y-80901928D01*
X78076518Y-80914188D01*
X77956820Y-80950498D01*
X77846506Y-81009463D01*
X77749815Y-81088815D01*
X77670463Y-81185506D01*
X77665032Y-81195666D01*
X77647508Y-81186299D01*
X77575689Y-81164513D01*
X77501000Y-81157157D01*
X76701000Y-81157157D01*
X76626311Y-81164513D01*
X76554492Y-81186299D01*
X76488304Y-81221678D01*
X76450040Y-81253080D01*
X76450040Y-76006439D01*
X76782764Y-75673716D01*
X76801412Y-75658412D01*
X76816716Y-75639764D01*
X76816720Y-75639760D01*
X76862513Y-75583961D01*
X76887841Y-75536575D01*
X77064698Y-75681717D01*
X77269865Y-75791381D01*
X77492485Y-75858912D01*
X77724000Y-75881714D01*
X77955516Y-75858912D01*
X78178136Y-75791381D01*
X78383303Y-75681717D01*
X78563134Y-75534134D01*
X78710717Y-75354303D01*
X78820381Y-75149136D01*
X78887912Y-74926515D01*
X78905000Y-74753015D01*
X78905000Y-73836985D01*
X79083000Y-73836985D01*
X79083000Y-74753016D01*
X79100088Y-74926516D01*
X79167619Y-75149136D01*
X79277284Y-75354303D01*
X79424867Y-75534134D01*
X79604698Y-75681717D01*
X79809865Y-75791381D01*
X80032485Y-75858912D01*
X80264000Y-75881714D01*
X80495516Y-75858912D01*
X80718136Y-75791381D01*
X80923303Y-75681717D01*
X81103134Y-75534134D01*
X81250717Y-75354303D01*
X81360381Y-75149136D01*
X81427912Y-74926515D01*
X81445000Y-74753015D01*
X81445000Y-73836985D01*
X81623000Y-73836985D01*
X81623000Y-74753016D01*
X81640088Y-74926516D01*
X81707619Y-75149136D01*
X81817284Y-75354303D01*
X81964867Y-75534134D01*
X82144698Y-75681717D01*
X82349865Y-75791381D01*
X82572485Y-75858912D01*
X82804000Y-75881714D01*
X83035516Y-75858912D01*
X83258136Y-75791381D01*
X83463303Y-75681717D01*
X83643134Y-75534134D01*
X83790717Y-75354303D01*
X83900381Y-75149136D01*
X83967912Y-74926515D01*
X83985000Y-74753015D01*
X83985000Y-73836984D01*
X83967912Y-73663484D01*
X83900381Y-73440864D01*
X83790717Y-73235697D01*
X83643134Y-73055866D01*
X83463302Y-72908283D01*
X83258135Y-72798619D01*
X83035515Y-72731088D01*
X82804000Y-72708286D01*
X82572484Y-72731088D01*
X82349864Y-72798619D01*
X82144697Y-72908283D01*
X81964866Y-73055866D01*
X81817283Y-73235698D01*
X81707619Y-73440865D01*
X81640088Y-73663485D01*
X81623000Y-73836985D01*
X81445000Y-73836985D01*
X81445000Y-73836984D01*
X81427912Y-73663484D01*
X81360381Y-73440864D01*
X81250717Y-73235697D01*
X81103134Y-73055866D01*
X80923302Y-72908283D01*
X80718135Y-72798619D01*
X80495515Y-72731088D01*
X80264000Y-72708286D01*
X80032484Y-72731088D01*
X79809864Y-72798619D01*
X79604697Y-72908283D01*
X79424866Y-73055866D01*
X79277283Y-73235698D01*
X79167619Y-73440865D01*
X79100088Y-73663485D01*
X79083000Y-73836985D01*
X78905000Y-73836985D01*
X78905000Y-73836984D01*
X78887912Y-73663484D01*
X78820381Y-73440864D01*
X78710717Y-73235697D01*
X78563134Y-73055866D01*
X78383302Y-72908283D01*
X78178135Y-72798619D01*
X77955515Y-72731088D01*
X77849803Y-72720676D01*
X82387640Y-68182840D01*
X82572485Y-68238912D01*
X82804000Y-68261714D01*
X83035516Y-68238912D01*
X83258136Y-68171381D01*
X83463303Y-68061717D01*
X83568000Y-67975794D01*
X83568001Y-71079851D01*
X83568001Y-71079851D01*
G37*
X83568001Y-71079851D02*
X83565553Y-71104707D01*
X83575322Y-71203899D01*
X83604255Y-71299281D01*
X83604256Y-71299282D01*
X83651242Y-71387186D01*
X83714474Y-71464234D01*
X83733781Y-71480079D01*
X85014510Y-72760808D01*
X84889864Y-72798619D01*
X84684697Y-72908283D01*
X84504866Y-73055866D01*
X84357283Y-73235698D01*
X84247619Y-73440865D01*
X84180088Y-73663485D01*
X84163000Y-73836985D01*
X84163000Y-74753016D01*
X84180088Y-74926516D01*
X84236160Y-75111360D01*
X79412151Y-79935370D01*
X79393498Y-79950678D01*
X79332397Y-80025130D01*
X79286994Y-80110073D01*
X79259035Y-80202240D01*
X79251960Y-80274077D01*
X79251960Y-80274087D01*
X79249596Y-80298090D01*
X79251960Y-80322093D01*
X79251960Y-80954122D01*
X79245180Y-80950498D01*
X79125482Y-80914188D01*
X79001000Y-80901928D01*
X78886750Y-80905000D01*
X78728000Y-81063750D01*
X78728000Y-81788000D01*
X78748000Y-81788000D01*
X78748000Y-82042000D01*
X78728000Y-82042000D01*
X78728000Y-82766250D01*
X78886750Y-82925000D01*
X79001000Y-82928072D01*
X79125482Y-82915812D01*
X79245180Y-82879502D01*
X79251960Y-82875878D01*
X79251961Y-83834448D01*
X79230203Y-83823516D01*
X79109626Y-83790242D01*
X78984874Y-83781132D01*
X78936750Y-83784000D01*
X78778000Y-83942750D01*
X78778000Y-84669000D01*
X78524000Y-84669000D01*
X78524000Y-83942750D01*
X78365250Y-83784000D01*
X78317126Y-83781132D01*
X78192374Y-83790242D01*
X78071797Y-83823516D01*
X77960028Y-83879673D01*
X77861362Y-83956556D01*
X77779591Y-84051211D01*
X77717858Y-84160000D01*
X77707353Y-84191720D01*
X77671711Y-84148289D01*
X77613696Y-84100678D01*
X77547508Y-84065299D01*
X77475689Y-84043513D01*
X77401000Y-84036157D01*
X76815950Y-84036157D01*
X76815950Y-82672843D01*
X77501000Y-82672843D01*
X77575689Y-82665487D01*
X77647508Y-82643701D01*
X77665032Y-82634334D01*
X77670463Y-82644494D01*
X77749815Y-82741185D01*
X77846506Y-82820537D01*
X77956820Y-82879502D01*
X78076518Y-82915812D01*
X78201000Y-82928072D01*
X78315250Y-82925000D01*
X78474000Y-82766250D01*
X78474000Y-82042000D01*
X78454000Y-82042000D01*
X78454000Y-81788000D01*
X78474000Y-81788000D01*
X78474000Y-81063750D01*
X78315250Y-80905000D01*
X78201000Y-80901928D01*
X78076518Y-80914188D01*
X77956820Y-80950498D01*
X77846506Y-81009463D01*
X77749815Y-81088815D01*
X77670463Y-81185506D01*
X77665032Y-81195666D01*
X77647508Y-81186299D01*
X77575689Y-81164513D01*
X77501000Y-81157157D01*
X76701000Y-81157157D01*
X76626311Y-81164513D01*
X76554492Y-81186299D01*
X76488304Y-81221678D01*
X76450040Y-81253080D01*
X76450040Y-76006439D01*
X76782764Y-75673716D01*
X76801412Y-75658412D01*
X76816716Y-75639764D01*
X76816720Y-75639760D01*
X76862513Y-75583961D01*
X76887841Y-75536575D01*
X77064698Y-75681717D01*
X77269865Y-75791381D01*
X77492485Y-75858912D01*
X77724000Y-75881714D01*
X77955516Y-75858912D01*
X78178136Y-75791381D01*
X78383303Y-75681717D01*
X78563134Y-75534134D01*
X78710717Y-75354303D01*
X78820381Y-75149136D01*
X78887912Y-74926515D01*
X78905000Y-74753015D01*
X78905000Y-73836985D01*
X79083000Y-73836985D01*
X79083000Y-74753016D01*
X79100088Y-74926516D01*
X79167619Y-75149136D01*
X79277284Y-75354303D01*
X79424867Y-75534134D01*
X79604698Y-75681717D01*
X79809865Y-75791381D01*
X80032485Y-75858912D01*
X80264000Y-75881714D01*
X80495516Y-75858912D01*
X80718136Y-75791381D01*
X80923303Y-75681717D01*
X81103134Y-75534134D01*
X81250717Y-75354303D01*
X81360381Y-75149136D01*
X81427912Y-74926515D01*
X81445000Y-74753015D01*
X81445000Y-73836985D01*
X81623000Y-73836985D01*
X81623000Y-74753016D01*
X81640088Y-74926516D01*
X81707619Y-75149136D01*
X81817284Y-75354303D01*
X81964867Y-75534134D01*
X82144698Y-75681717D01*
X82349865Y-75791381D01*
X82572485Y-75858912D01*
X82804000Y-75881714D01*
X83035516Y-75858912D01*
X83258136Y-75791381D01*
X83463303Y-75681717D01*
X83643134Y-75534134D01*
X83790717Y-75354303D01*
X83900381Y-75149136D01*
X83967912Y-74926515D01*
X83985000Y-74753015D01*
X83985000Y-73836984D01*
X83967912Y-73663484D01*
X83900381Y-73440864D01*
X83790717Y-73235697D01*
X83643134Y-73055866D01*
X83463302Y-72908283D01*
X83258135Y-72798619D01*
X83035515Y-72731088D01*
X82804000Y-72708286D01*
X82572484Y-72731088D01*
X82349864Y-72798619D01*
X82144697Y-72908283D01*
X81964866Y-73055866D01*
X81817283Y-73235698D01*
X81707619Y-73440865D01*
X81640088Y-73663485D01*
X81623000Y-73836985D01*
X81445000Y-73836985D01*
X81445000Y-73836984D01*
X81427912Y-73663484D01*
X81360381Y-73440864D01*
X81250717Y-73235697D01*
X81103134Y-73055866D01*
X80923302Y-72908283D01*
X80718135Y-72798619D01*
X80495515Y-72731088D01*
X80264000Y-72708286D01*
X80032484Y-72731088D01*
X79809864Y-72798619D01*
X79604697Y-72908283D01*
X79424866Y-73055866D01*
X79277283Y-73235698D01*
X79167619Y-73440865D01*
X79100088Y-73663485D01*
X79083000Y-73836985D01*
X78905000Y-73836985D01*
X78905000Y-73836984D01*
X78887912Y-73663484D01*
X78820381Y-73440864D01*
X78710717Y-73235697D01*
X78563134Y-73055866D01*
X78383302Y-72908283D01*
X78178135Y-72798619D01*
X77955515Y-72731088D01*
X77849803Y-72720676D01*
X82387640Y-68182840D01*
X82572485Y-68238912D01*
X82804000Y-68261714D01*
X83035516Y-68238912D01*
X83258136Y-68171381D01*
X83463303Y-68061717D01*
X83568000Y-67975794D01*
X83568001Y-71079851D01*
M02*
